M48
INCH
T46C0.020
T45C0.048
T44C0.027
T43C0.047
%
T46
X010850Y000400
X011050Y004400
X011250Y004850
X010800Y004000
X010600Y003250
X010350Y004850
X015600Y000600
X017650Y001550
X018150Y001550
X016350Y003350
X013450Y001600
X013450Y001150
X013000Y001750
X014800Y001600
X006150Y001500
X007100Y002400
X006600Y002400
X006200Y002600
X008800Y004050
X006250Y004800
X007800Y004300
X007500Y004750
X010350Y002800
X009850Y003100
X007500Y002750
X010250Y007350
X010750Y007350
X008650Y006200
X005750Y008900
X005750Y008400
X015500Y004750
X013550Y004400
X014150Y005300
X011800Y005050
X014200Y007200
X014200Y006550
X013750Y007200
X013750Y006550
X012300Y006250
T44
X004600Y006500
X004600Y004500
X004600Y002500
X004600Y008500
T43
X002117Y008494
X002117Y007116
X002117Y005739
X002117Y003944
X002117Y002566
X002117Y001189
X018767Y003944
X018767Y002566
X018767Y001189
X018767Y008494
X018767Y007116
X018767Y005739
T45
X008850Y008150
X006850Y008150
M30
