G04 start of page 11 for group -4015 idx -4015 *
G04 Title: (unknown), toppaste *
G04 Creator: pcb 20110918 *
G04 CreationDate: Sun 01 Jun 2014 04:29:41 PM GMT UTC *
G04 For: ndholmes *
G04 Format: Gerber/RS-274X *
G04 PCB-Dimensions: 210000 95000 *
G04 PCB-Coordinate-Origin: lower left *
%MOIN*%
%FSLAX25Y25*%
%LNTOPPASTE*%
%ADD79R,0.0200X0.0200*%
%ADD78R,0.0440X0.0440*%
%ADD77R,0.0340X0.0340*%
%ADD76R,0.0630X0.0630*%
%ADD75R,0.0360X0.0360*%
%ADD74R,0.0945X0.0945*%
%ADD73R,0.0378X0.0378*%
%ADD72C,0.0001*%
%ADD71R,0.0091X0.0091*%
%ADD70R,0.0512X0.0512*%
G54D70*X39095Y11681D02*Y9319D01*
X50905Y11681D02*Y9319D01*
X161457Y25893D02*Y25107D01*
X168543Y25893D02*Y25107D01*
G54D71*X133720Y26610D02*X135374D01*
X133720Y28579D02*X135374D01*
X133720Y30547D02*X135374D01*
X133720Y32516D02*X135374D01*
X133720Y34484D02*X135374D01*
X133720Y36453D02*X135374D01*
X133720Y38421D02*X135374D01*
X133720Y40390D02*X135374D01*
X131890Y43874D02*Y42220D01*
X129921Y43874D02*Y42220D01*
X127953Y43874D02*Y42220D01*
X125984Y43874D02*Y42220D01*
X124016Y43874D02*Y42220D01*
X122047Y43874D02*Y42220D01*
X120079Y43874D02*Y42220D01*
X118110Y43874D02*Y42220D01*
X114626Y40390D02*X116280D01*
X114626Y38421D02*X116280D01*
X114626Y36453D02*X116280D01*
X114626Y34484D02*X116280D01*
X114626Y32516D02*X116280D01*
X114626Y30547D02*X116280D01*
X114626Y28579D02*X116280D01*
X114626Y26610D02*X116280D01*
X118110Y24780D02*Y23126D01*
X120079Y24780D02*Y23126D01*
X122047Y24780D02*Y23126D01*
X124016Y24780D02*Y23126D01*
X125984Y24780D02*Y23126D01*
X127953Y24780D02*Y23126D01*
X129921Y24780D02*Y23126D01*
X131890Y24780D02*Y23126D01*
G54D72*G36*
X119685Y38815D02*Y28185D01*
X130315D01*
Y38815D01*
X119685D01*
G37*
G54D73*X168906Y58405D02*Y54311D01*
X163000Y58405D02*Y46595D01*
G54D74*Y44861D02*Y42971D01*
G54D72*G36*
X164885Y52426D02*X167725Y49586D01*
X166305Y48166D01*
X163465Y51006D01*
X164885Y52426D01*
G37*
G36*
X158275Y49586D02*X161115Y52426D01*
X162535Y51006D01*
X159695Y48166D01*
X158275Y49586D01*
G37*
G54D73*X157094Y58405D02*Y54311D01*
G54D70*X129607Y75414D02*X130393D01*
X129607Y82500D02*X130393D01*
G54D75*X166900Y76600D02*X168100D01*
X166900Y89500D02*X168100D01*
G54D76*X149000Y89992D02*Y83693D01*
Y70307D02*Y64008D01*
G54D70*X148607Y55043D02*X149393D01*
X148607Y47957D02*X149393D01*
G54D77*X68200Y50000D02*X68800D01*
X68200Y57800D02*X68800D01*
X60000Y53900D02*X60600D01*
G54D70*X150607Y33957D02*X151393D01*
X150607Y41043D02*X151393D01*
X161414Y9393D02*Y8607D01*
X168500Y9393D02*Y8607D01*
X128819Y68905D02*X131181D01*
X128819Y57095D02*X131181D01*
X142107Y33957D02*X142893D01*
X142107Y41043D02*X142893D01*
G54D77*X119700Y4500D02*X120300D01*
X119700Y12300D02*X120300D01*
X111500Y8400D02*X112100D01*
G54D70*X154000Y27181D02*Y24819D01*
X142190Y27181D02*Y24819D01*
X153905Y17181D02*Y14819D01*
X142095Y17181D02*Y14819D01*
X161457Y17893D02*Y17107D01*
X168543Y17893D02*Y17107D01*
X128107Y12043D02*X128893D01*
X128107Y4957D02*X128893D01*
X130543Y50393D02*Y49607D01*
X123457Y50393D02*Y49607D01*
X105457Y54893D02*Y54107D01*
X112543Y54893D02*Y54107D01*
G54D78*X63000Y8650D02*Y3450D01*
Y42550D02*Y37350D01*
X73000Y8650D02*Y3450D01*
Y42550D02*Y37350D01*
X83000Y8650D02*Y3450D01*
Y42550D02*Y37350D01*
X93000Y8650D02*Y3450D01*
Y42550D02*Y37350D01*
X103000Y8650D02*Y3450D01*
Y42550D02*Y37350D01*
G54D79*X102500Y68000D02*Y61500D01*
X107500Y68000D02*Y61500D01*
X112500Y68000D02*Y61500D01*
X117500Y68000D02*Y61500D01*
Y88500D02*Y82000D01*
X112500Y88500D02*Y82000D01*
X107500Y88500D02*Y82000D01*
X102500Y88500D02*Y82000D01*
G54D70*X148543Y7393D02*Y6607D01*
X141457Y7393D02*Y6607D01*
M02*
