G04 start of page 3 for group 1 idx 1 *
G04 Title: (unknown), solder *
G04 Creator: pcb 20110918 *
G04 CreationDate: Sun 01 Jun 2014 04:29:41 PM GMT UTC *
G04 For: ndholmes *
G04 Format: Gerber/RS-274X *
G04 PCB-Dimensions: 210000 95000 *
G04 PCB-Coordinate-Origin: lower left *
%MOIN*%
%FSLAX25Y25*%
%LNBOTTOM*%
%ADD41C,0.0390*%
%ADD40C,0.0480*%
%ADD39C,0.0270*%
%ADD38C,0.0472*%
%ADD37C,0.0200*%
%ADD36C,0.0360*%
%ADD35C,0.0800*%
%ADD34C,0.0400*%
%ADD33C,0.0100*%
%ADD32C,0.0001*%
G54D32*G36*
X46000Y94000D02*X138000D01*
Y70500D01*
X130618D01*
X130500Y70509D01*
X130382Y70500D01*
X98243D01*
X93204Y75538D01*
X93128Y75628D01*
X92769Y75935D01*
X92640Y76014D01*
X92735Y76014D01*
X92965Y76069D01*
X93183Y76159D01*
X93384Y76283D01*
X93564Y76436D01*
X93717Y76616D01*
X93841Y76817D01*
X93931Y77035D01*
X93986Y77265D01*
X94000Y77500D01*
X93986Y85735D01*
X93931Y85965D01*
X93841Y86183D01*
X93717Y86384D01*
X93564Y86564D01*
X93384Y86717D01*
X93183Y86841D01*
X92965Y86931D01*
X92735Y86986D01*
X92500Y87000D01*
X84265Y86986D01*
X84035Y86931D01*
X83817Y86841D01*
X83616Y86717D01*
X83436Y86564D01*
X83283Y86384D01*
X83159Y86183D01*
X83069Y85965D01*
X83014Y85735D01*
X83000Y85500D01*
X83014Y77265D01*
X83069Y77035D01*
X83159Y76817D01*
X83283Y76616D01*
X83381Y76500D01*
X70801D01*
X71005Y76584D01*
X71743Y77037D01*
X72401Y77599D01*
X72963Y78257D01*
X73416Y78995D01*
X73747Y79795D01*
X73949Y80637D01*
X74000Y81500D01*
X73949Y82363D01*
X73747Y83205D01*
X73416Y84005D01*
X72963Y84743D01*
X72401Y85401D01*
X71743Y85963D01*
X71005Y86416D01*
X70205Y86747D01*
X69363Y86949D01*
X68500Y87017D01*
X67637Y86949D01*
X66795Y86747D01*
X65995Y86416D01*
X65257Y85963D01*
X64599Y85401D01*
X64037Y84743D01*
X63584Y84005D01*
X63253Y83205D01*
X63051Y82363D01*
X62983Y81500D01*
X63051Y80637D01*
X63253Y79795D01*
X63584Y78995D01*
X64037Y78257D01*
X64599Y77599D01*
X65257Y77037D01*
X65995Y76584D01*
X66199Y76500D01*
X54618D01*
X54500Y76509D01*
X54029Y76472D01*
X53570Y76362D01*
X53134Y76181D01*
X52731Y75935D01*
X52731Y75934D01*
X52372Y75628D01*
X52296Y75538D01*
X47257Y70500D01*
X46000D01*
Y80005D01*
X50157Y80009D01*
X50310Y80046D01*
X50455Y80106D01*
X50590Y80188D01*
X50709Y80291D01*
X50812Y80410D01*
X50894Y80545D01*
X50954Y80690D01*
X50991Y80843D01*
X51000Y81000D01*
X50991Y89157D01*
X50954Y89310D01*
X50894Y89455D01*
X50812Y89590D01*
X50709Y89709D01*
X50590Y89812D01*
X50455Y89894D01*
X50310Y89954D01*
X50157Y89991D01*
X50000Y90000D01*
X46000Y89995D01*
Y94000D01*
G37*
G36*
X33000D02*X46000D01*
Y89995D01*
X41843Y89991D01*
X41690Y89954D01*
X41545Y89894D01*
X41410Y89812D01*
X41291Y89709D01*
X41188Y89590D01*
X41106Y89455D01*
X41046Y89310D01*
X41009Y89157D01*
X41000Y89000D01*
X41009Y80843D01*
X41046Y80690D01*
X41106Y80545D01*
X41188Y80410D01*
X41291Y80291D01*
X41410Y80188D01*
X41545Y80106D01*
X41690Y80046D01*
X41843Y80009D01*
X42000Y80000D01*
X46000Y80005D01*
Y70500D01*
X33000D01*
Y81941D01*
X33005Y82000D01*
X33000Y82059D01*
Y94000D01*
G37*
G36*
X21173Y79452D02*X25408Y79459D01*
X25638Y79514D01*
X25856Y79604D01*
X26057Y79728D01*
X26237Y79881D01*
X26390Y80061D01*
X26514Y80262D01*
X26604Y80480D01*
X26659Y80710D01*
X26673Y80945D01*
X26669Y83500D01*
X27879D01*
X30000Y81379D01*
Y71121D01*
X29102Y72019D01*
X29064Y72064D01*
X28884Y72217D01*
X28683Y72341D01*
X28465Y72431D01*
X28235Y72486D01*
X28000Y72505D01*
X27941Y72500D01*
X26509D01*
X26420Y72870D01*
X26089Y73670D01*
X25636Y74408D01*
X25074Y75066D01*
X24416Y75628D01*
X23678Y76081D01*
X22878Y76412D01*
X22036Y76614D01*
X21173Y76682D01*
Y79452D01*
G37*
G36*
X46000Y59985D02*X46785Y60046D01*
X47550Y60230D01*
X48277Y60531D01*
X48948Y60942D01*
X49546Y61454D01*
X50058Y62052D01*
X50469Y62723D01*
X50770Y63450D01*
X50954Y64215D01*
X51000Y65000D01*
X50958Y65715D01*
X55743Y70500D01*
X89757D01*
X91257Y69000D01*
X83559D01*
X83500Y69005D01*
X83265Y68986D01*
X83035Y68931D01*
X82817Y68841D01*
X82616Y68717D01*
X82615Y68717D01*
X82436Y68564D01*
X82398Y68519D01*
X81379Y67500D01*
X58559D01*
X58500Y67505D01*
X58265Y67486D01*
X58035Y67431D01*
X57817Y67341D01*
X57616Y67217D01*
X57615Y67217D01*
X57436Y67064D01*
X57398Y67019D01*
X49879Y59500D01*
X46000D01*
Y59985D01*
G37*
G36*
Y94000D02*X103000D01*
Y70500D01*
X98243D01*
X93204Y75538D01*
X93128Y75628D01*
X92769Y75935D01*
X92640Y76014D01*
X92735Y76014D01*
X92965Y76069D01*
X93183Y76159D01*
X93384Y76283D01*
X93564Y76436D01*
X93717Y76616D01*
X93841Y76817D01*
X93931Y77035D01*
X93986Y77265D01*
X94000Y77500D01*
X93986Y85735D01*
X93931Y85965D01*
X93841Y86183D01*
X93717Y86384D01*
X93564Y86564D01*
X93384Y86717D01*
X93183Y86841D01*
X92965Y86931D01*
X92735Y86986D01*
X92500Y87000D01*
X84265Y86986D01*
X84035Y86931D01*
X83817Y86841D01*
X83616Y86717D01*
X83436Y86564D01*
X83283Y86384D01*
X83159Y86183D01*
X83069Y85965D01*
X83014Y85735D01*
X83000Y85500D01*
X83014Y77265D01*
X83069Y77035D01*
X83159Y76817D01*
X83283Y76616D01*
X83381Y76500D01*
X70801D01*
X71005Y76584D01*
X71743Y77037D01*
X72401Y77599D01*
X72963Y78257D01*
X73416Y78995D01*
X73747Y79795D01*
X73949Y80637D01*
X74000Y81500D01*
X73949Y82363D01*
X73747Y83205D01*
X73416Y84005D01*
X72963Y84743D01*
X72401Y85401D01*
X71743Y85963D01*
X71005Y86416D01*
X70205Y86747D01*
X69363Y86949D01*
X68500Y87017D01*
X67637Y86949D01*
X66795Y86747D01*
X65995Y86416D01*
X65257Y85963D01*
X64599Y85401D01*
X64037Y84743D01*
X63584Y84005D01*
X63253Y83205D01*
X63051Y82363D01*
X62983Y81500D01*
X63051Y80637D01*
X63253Y79795D01*
X63584Y78995D01*
X64037Y78257D01*
X64599Y77599D01*
X65257Y77037D01*
X65995Y76584D01*
X66199Y76500D01*
X54618D01*
X54500Y76509D01*
X54029Y76472D01*
X53570Y76362D01*
X53134Y76181D01*
X52731Y75935D01*
X52731Y75934D01*
X52372Y75628D01*
X52296Y75538D01*
X46716Y69959D01*
X46000Y70015D01*
Y80005D01*
X50157Y80009D01*
X50310Y80046D01*
X50455Y80106D01*
X50590Y80188D01*
X50709Y80291D01*
X50812Y80410D01*
X50894Y80545D01*
X50954Y80690D01*
X50991Y80843D01*
X51000Y81000D01*
X50991Y89157D01*
X50954Y89310D01*
X50894Y89455D01*
X50812Y89590D01*
X50709Y89709D01*
X50590Y89812D01*
X50455Y89894D01*
X50310Y89954D01*
X50157Y89991D01*
X50000Y90000D01*
X46000Y89995D01*
Y94000D01*
G37*
G36*
X21173D02*X46000D01*
Y89995D01*
X41843Y89991D01*
X41690Y89954D01*
X41545Y89894D01*
X41410Y89812D01*
X41291Y89709D01*
X41188Y89590D01*
X41106Y89455D01*
X41046Y89310D01*
X41009Y89157D01*
X41000Y89000D01*
X41009Y80843D01*
X41046Y80690D01*
X41106Y80545D01*
X41188Y80410D01*
X41291Y80291D01*
X41410Y80188D01*
X41545Y80106D01*
X41690Y80046D01*
X41843Y80009D01*
X42000Y80000D01*
X46000Y80005D01*
Y70015D01*
X45215Y69954D01*
X44450Y69770D01*
X43723Y69469D01*
X43052Y69058D01*
X42454Y68546D01*
X41942Y67948D01*
X41531Y67277D01*
X41230Y66550D01*
X41046Y65785D01*
X40985Y65000D01*
X41046Y64215D01*
X41230Y63450D01*
X41531Y62723D01*
X41942Y62052D01*
X42454Y61454D01*
X43052Y60942D01*
X43723Y60531D01*
X44450Y60230D01*
X45215Y60046D01*
X46000Y59985D01*
Y59500D01*
X34121D01*
X33000Y60621D01*
Y81941D01*
X33005Y82000D01*
X32986Y82235D01*
X32986Y82235D01*
X32931Y82465D01*
X32841Y82683D01*
X32717Y82884D01*
X32564Y83064D01*
X32519Y83102D01*
X29602Y86019D01*
X29564Y86064D01*
X29384Y86217D01*
X29183Y86341D01*
X28965Y86431D01*
X28735Y86486D01*
X28500Y86505D01*
X28441Y86500D01*
X26664D01*
X26659Y89180D01*
X26604Y89410D01*
X26514Y89628D01*
X26390Y89829D01*
X26237Y90009D01*
X26057Y90162D01*
X25856Y90286D01*
X25638Y90376D01*
X25408Y90431D01*
X25173Y90445D01*
X21173Y90438D01*
Y94000D01*
G37*
G36*
Y2500D02*X101941D01*
X102000Y2495D01*
X102235Y2514D01*
X102235Y2514D01*
X102465Y2569D01*
X102683Y2659D01*
X102884Y2783D01*
X103000Y2881D01*
Y1000D01*
X21173D01*
Y2500D01*
G37*
G36*
X75635Y44500D02*X65121D01*
X64000Y45621D01*
Y45635D01*
X64151Y45728D01*
X64486Y46014D01*
X64772Y46349D01*
X65003Y46725D01*
X65171Y47132D01*
X65274Y47561D01*
X65300Y48000D01*
X65274Y48439D01*
X65171Y48868D01*
X65003Y49275D01*
X64772Y49651D01*
X64486Y49986D01*
X64151Y50272D01*
X63775Y50503D01*
X63368Y50671D01*
X62939Y50774D01*
X62500Y50809D01*
X62061Y50774D01*
X61632Y50671D01*
X61225Y50503D01*
X60849Y50272D01*
X60514Y49986D01*
X60228Y49651D01*
X59997Y49275D01*
X59829Y48868D01*
X59726Y48439D01*
X59691Y48000D01*
X59726Y47561D01*
X59829Y47132D01*
X59997Y46725D01*
X60228Y46349D01*
X60514Y46014D01*
X60849Y45728D01*
X61000Y45635D01*
Y45059D01*
X60995Y45000D01*
X61014Y44765D01*
X61069Y44535D01*
X61159Y44317D01*
X61283Y44116D01*
X61436Y43936D01*
X61481Y43898D01*
X63398Y41981D01*
X63436Y41936D01*
X63615Y41783D01*
X63616Y41783D01*
X63817Y41659D01*
X64035Y41569D01*
X64265Y41514D01*
X64500Y41495D01*
X64559Y41500D01*
X75635D01*
X75728Y41349D01*
X76014Y41014D01*
X76349Y40728D01*
X76500Y40635D01*
Y36059D01*
X76495Y36000D01*
X76514Y35765D01*
X76569Y35535D01*
X76659Y35317D01*
X76783Y35116D01*
X76936Y34936D01*
X76981Y34898D01*
X81898Y29981D01*
X81936Y29936D01*
X82116Y29783D01*
X82317Y29659D01*
X82535Y29569D01*
X82765Y29514D01*
X83000Y29495D01*
X83059Y29500D01*
X96135D01*
X96228Y29349D01*
X96514Y29014D01*
X96849Y28728D01*
X97225Y28497D01*
X97632Y28329D01*
X98061Y28226D01*
X98500Y28191D01*
X98939Y28226D01*
X99368Y28329D01*
X99775Y28497D01*
X100151Y28728D01*
X100486Y29014D01*
X100555Y29094D01*
X100569Y29035D01*
X100659Y28817D01*
X100772Y28633D01*
X100726Y28439D01*
X100691Y28000D01*
X100726Y27561D01*
X100829Y27132D01*
X100997Y26725D01*
X101228Y26349D01*
X101514Y26014D01*
X101849Y25728D01*
X102225Y25497D01*
X102632Y25329D01*
X103000Y25240D01*
Y22500D01*
X80000D01*
X80000Y22500D01*
X74621D01*
X73733Y23389D01*
X73774Y23561D01*
X73800Y24000D01*
X73774Y24439D01*
X73671Y24868D01*
X73581Y25086D01*
X73725Y24997D01*
X74132Y24829D01*
X74561Y24726D01*
X75000Y24691D01*
X75439Y24726D01*
X75868Y24829D01*
X76275Y24997D01*
X76651Y25228D01*
X76986Y25514D01*
X77272Y25849D01*
X77503Y26225D01*
X77671Y26632D01*
X77774Y27061D01*
X77800Y27500D01*
X77774Y27939D01*
X77671Y28368D01*
X77503Y28775D01*
X77272Y29151D01*
X76986Y29486D01*
X76651Y29772D01*
X76275Y30003D01*
X75868Y30171D01*
X75439Y30274D01*
X75000Y30309D01*
X74561Y30274D01*
X74132Y30171D01*
X73725Y30003D01*
X73349Y29772D01*
X73014Y29486D01*
X72728Y29151D01*
X72635Y29000D01*
X66621D01*
X64602Y31019D01*
X64564Y31064D01*
X64384Y31217D01*
X64183Y31341D01*
X63965Y31431D01*
X63735Y31486D01*
X63500Y31505D01*
X63441Y31500D01*
X59559D01*
X59500Y31505D01*
X59265Y31486D01*
X59035Y31431D01*
X58817Y31341D01*
X58616Y31217D01*
X58615Y31217D01*
X58436Y31064D01*
X58398Y31019D01*
X56481Y29102D01*
X56436Y29064D01*
X56283Y28884D01*
X56159Y28683D01*
X56069Y28465D01*
X56014Y28235D01*
X56014Y28235D01*
X55995Y28000D01*
X56000Y27941D01*
Y24059D01*
X55995Y24000D01*
X56014Y23765D01*
X56069Y23535D01*
X56159Y23317D01*
X56283Y23116D01*
X56283Y23115D01*
X56436Y22936D01*
X56481Y22898D01*
X61576Y17803D01*
X61500Y17809D01*
X61061Y17774D01*
X60632Y17671D01*
X60225Y17503D01*
X59849Y17272D01*
X59514Y16986D01*
X59228Y16651D01*
X58997Y16275D01*
X58829Y15868D01*
X58726Y15439D01*
X58691Y15000D01*
X58726Y14561D01*
X58829Y14132D01*
X58997Y13725D01*
X59228Y13349D01*
X59514Y13014D01*
X59849Y12728D01*
X60000Y12635D01*
Y12559D01*
X59995Y12500D01*
X60014Y12265D01*
X60069Y12035D01*
X60159Y11817D01*
X60283Y11616D01*
X60436Y11436D01*
X60481Y11398D01*
X62398Y9481D01*
X62436Y9436D01*
X62616Y9283D01*
X62817Y9159D01*
X63035Y9069D01*
X63265Y9014D01*
X63500Y8995D01*
X63559Y9000D01*
X103000D01*
Y7121D01*
X101379Y5500D01*
X45992D01*
Y19985D01*
X46000Y19985D01*
X46785Y20046D01*
X47550Y20230D01*
X48277Y20531D01*
X48948Y20942D01*
X49546Y21454D01*
X50058Y22052D01*
X50469Y22723D01*
X50770Y23450D01*
X50954Y24215D01*
X51000Y25000D01*
X50954Y25785D01*
X50770Y26550D01*
X50469Y27277D01*
X50058Y27948D01*
X49546Y28546D01*
X48948Y29058D01*
X48277Y29469D01*
X47550Y29770D01*
X46785Y29954D01*
X46000Y30015D01*
X45992Y30015D01*
Y39985D01*
X46000Y39985D01*
X46785Y40046D01*
X47550Y40230D01*
X48277Y40531D01*
X48948Y40942D01*
X49546Y41454D01*
X50058Y42052D01*
X50469Y42723D01*
X50770Y43450D01*
X50954Y44215D01*
X51000Y45000D01*
X50954Y45785D01*
X50770Y46550D01*
X50469Y47277D01*
X50058Y47948D01*
X49546Y48546D01*
X48948Y49058D01*
X48277Y49469D01*
X47550Y49770D01*
X46785Y49954D01*
X46000Y50015D01*
X45992Y50015D01*
Y54500D01*
X51441D01*
X51500Y54495D01*
X51735Y54514D01*
X51735Y54514D01*
X51965Y54569D01*
X52183Y54659D01*
X52384Y54783D01*
X52564Y54936D01*
X52602Y54981D01*
X60121Y62500D01*
X82941D01*
X83000Y62495D01*
X83235Y62514D01*
X83235Y62514D01*
X83465Y62569D01*
X83683Y62659D01*
X83795Y62728D01*
X83726Y62439D01*
X83691Y62000D01*
X83726Y61561D01*
X83829Y61132D01*
X83997Y60725D01*
X84228Y60349D01*
X84514Y60014D01*
X84849Y59728D01*
X85000Y59635D01*
Y54559D01*
X84995Y54500D01*
X85014Y54265D01*
X85069Y54035D01*
X85159Y53817D01*
X85283Y53616D01*
X85283Y53615D01*
X85436Y53436D01*
X85481Y53398D01*
X86898Y51981D01*
X86936Y51936D01*
X87115Y51783D01*
X87116Y51783D01*
X87317Y51659D01*
X87535Y51569D01*
X87765Y51514D01*
X88000Y51495D01*
X88059Y51500D01*
X94434D01*
X94261Y51394D01*
X93908Y51092D01*
X93606Y50739D01*
X93363Y50343D01*
X93186Y49914D01*
X93077Y49463D01*
X93041Y49000D01*
X93077Y48537D01*
X93186Y48086D01*
X93363Y47657D01*
X93606Y47261D01*
X93908Y46908D01*
X94261Y46606D01*
X94657Y46363D01*
X95086Y46186D01*
X95537Y46077D01*
X96000Y46041D01*
X96463Y46077D01*
X96914Y46186D01*
X97343Y46363D01*
X97739Y46606D01*
X98092Y46908D01*
X98394Y47261D01*
X98500Y47434D01*
Y44059D01*
X98495Y44000D01*
X98514Y43765D01*
X98569Y43535D01*
X98659Y43317D01*
X98783Y43116D01*
X98936Y42936D01*
X98981Y42898D01*
X99379Y42500D01*
X97621D01*
X95102Y45019D01*
X95064Y45064D01*
X94884Y45217D01*
X94683Y45341D01*
X94465Y45431D01*
X94235Y45486D01*
X94000Y45505D01*
X93941Y45500D01*
X87000D01*
X87000Y45500D01*
X86121D01*
X83102Y48519D01*
X83064Y48564D01*
X82884Y48717D01*
X82683Y48841D01*
X82465Y48931D01*
X82235Y48986D01*
X82235Y48986D01*
X82000Y49005D01*
X81941Y49000D01*
X77365D01*
X77272Y49151D01*
X76986Y49486D01*
X76651Y49772D01*
X76275Y50003D01*
X76153Y50053D01*
X76463Y50077D01*
X76914Y50186D01*
X77343Y50363D01*
X77739Y50606D01*
X78092Y50908D01*
X78394Y51261D01*
X78637Y51657D01*
X78814Y52086D01*
X78923Y52537D01*
X78950Y53000D01*
X78923Y53463D01*
X78814Y53914D01*
X78637Y54343D01*
X78394Y54739D01*
X78092Y55092D01*
X77739Y55394D01*
X77343Y55637D01*
X76914Y55814D01*
X76463Y55923D01*
X76000Y55959D01*
X75537Y55923D01*
X75086Y55814D01*
X74657Y55637D01*
X74261Y55394D01*
X73908Y55092D01*
X73606Y54739D01*
X73363Y54343D01*
X73186Y53914D01*
X73077Y53463D01*
X73041Y53000D01*
X73077Y52537D01*
X73186Y52086D01*
X73363Y51657D01*
X73606Y51261D01*
X73908Y50908D01*
X74261Y50606D01*
X74657Y50363D01*
X74823Y50295D01*
X74561Y50274D01*
X74132Y50171D01*
X73725Y50003D01*
X73349Y49772D01*
X73014Y49486D01*
X72728Y49151D01*
X72497Y48775D01*
X72329Y48368D01*
X72226Y47939D01*
X72191Y47500D01*
X72226Y47061D01*
X72329Y46632D01*
X72497Y46225D01*
X72728Y45849D01*
X73014Y45514D01*
X73349Y45228D01*
X73725Y44997D01*
X74132Y44829D01*
X74561Y44726D01*
X75000Y44691D01*
X75439Y44726D01*
X75868Y44829D01*
X75886Y44836D01*
X75728Y44651D01*
X75635Y44500D01*
G37*
G36*
X45992Y5500D02*X21173D01*
Y6369D01*
X22036Y6437D01*
X22878Y6639D01*
X23678Y6970D01*
X24416Y7423D01*
X25074Y7985D01*
X25636Y8643D01*
X26089Y9381D01*
X26420Y10181D01*
X26622Y11023D01*
X26673Y11886D01*
X26622Y12749D01*
X26420Y13591D01*
X26089Y14391D01*
X25636Y15129D01*
X25074Y15787D01*
X24416Y16349D01*
X23678Y16802D01*
X22878Y17133D01*
X22036Y17335D01*
X21173Y17403D01*
Y20148D01*
X22036Y20216D01*
X22878Y20418D01*
X23678Y20749D01*
X24416Y21202D01*
X25074Y21764D01*
X25636Y22422D01*
X26089Y23160D01*
X26420Y23960D01*
X26622Y24802D01*
X26673Y25665D01*
X26622Y26528D01*
X26420Y27370D01*
X26089Y28170D01*
X25636Y28908D01*
X25074Y29566D01*
X24416Y30128D01*
X23678Y30581D01*
X22878Y30912D01*
X22036Y31114D01*
X21173Y31182D01*
Y33952D01*
X25408Y33959D01*
X25638Y34014D01*
X25856Y34104D01*
X26057Y34228D01*
X26237Y34381D01*
X26390Y34561D01*
X26514Y34762D01*
X26604Y34980D01*
X26659Y35210D01*
X26673Y35445D01*
X26659Y43680D01*
X26604Y43910D01*
X26514Y44128D01*
X26390Y44329D01*
X26237Y44509D01*
X26057Y44662D01*
X25856Y44786D01*
X25638Y44876D01*
X25408Y44931D01*
X25173Y44945D01*
X21173Y44938D01*
Y51869D01*
X22036Y51937D01*
X22878Y52139D01*
X23678Y52470D01*
X24416Y52923D01*
X25074Y53485D01*
X25636Y54143D01*
X26089Y54881D01*
X26420Y55681D01*
X26622Y56523D01*
X26673Y57386D01*
X26622Y58249D01*
X26420Y59091D01*
X26089Y59891D01*
X25636Y60629D01*
X25074Y61287D01*
X24416Y61849D01*
X23678Y62302D01*
X22878Y62633D01*
X22036Y62835D01*
X21173Y62903D01*
Y65648D01*
X22036Y65716D01*
X22878Y65918D01*
X23678Y66249D01*
X24416Y66702D01*
X25074Y67264D01*
X25636Y67922D01*
X26089Y68660D01*
X26420Y69460D01*
X26430Y69500D01*
X27379D01*
X27500Y69379D01*
Y59059D01*
X27495Y59000D01*
X27514Y58765D01*
X27569Y58535D01*
X27659Y58317D01*
X27783Y58116D01*
X27936Y57936D01*
X27981Y57898D01*
X30898Y54981D01*
X30936Y54936D01*
X31115Y54783D01*
X31116Y54783D01*
X31317Y54659D01*
X31535Y54569D01*
X31765Y54514D01*
X32000Y54495D01*
X32059Y54500D01*
X45992D01*
Y50015D01*
X45215Y49954D01*
X44450Y49770D01*
X43723Y49469D01*
X43052Y49058D01*
X42454Y48546D01*
X41942Y47948D01*
X41531Y47277D01*
X41230Y46550D01*
X41046Y45785D01*
X40985Y45000D01*
X41046Y44215D01*
X41230Y43450D01*
X41531Y42723D01*
X41942Y42052D01*
X42454Y41454D01*
X43052Y40942D01*
X43723Y40531D01*
X44450Y40230D01*
X45215Y40046D01*
X45992Y39985D01*
Y30015D01*
X45215Y29954D01*
X44450Y29770D01*
X43723Y29469D01*
X43052Y29058D01*
X42454Y28546D01*
X41942Y27948D01*
X41531Y27277D01*
X41230Y26550D01*
X41046Y25785D01*
X40985Y25000D01*
X41046Y24215D01*
X41230Y23450D01*
X41531Y22723D01*
X41942Y22052D01*
X42454Y21454D01*
X43052Y20942D01*
X43723Y20531D01*
X44450Y20230D01*
X45215Y20046D01*
X45992Y19985D01*
Y5500D01*
G37*
G36*
X21173Y62903D02*X20310Y62835D01*
X19468Y62633D01*
X18668Y62302D01*
X17930Y61849D01*
X17272Y61287D01*
X16710Y60629D01*
X16257Y59891D01*
X15926Y59091D01*
X15904Y59000D01*
X10059D01*
X10000Y59005D01*
X9765Y58986D01*
X9535Y58931D01*
X9317Y58841D01*
X9116Y58717D01*
X9115Y58717D01*
X8936Y58564D01*
X8898Y58519D01*
X5981Y55602D01*
X5936Y55564D01*
X5783Y55384D01*
X5659Y55183D01*
X5569Y54965D01*
X5514Y54735D01*
X5514Y54735D01*
X5495Y54500D01*
X5500Y54441D01*
Y8559D01*
X5495Y8500D01*
X5514Y8265D01*
X5569Y8035D01*
X5659Y7817D01*
X5783Y7616D01*
X5936Y7436D01*
X5981Y7398D01*
X10398Y2981D01*
X10436Y2936D01*
X10615Y2783D01*
X10616Y2783D01*
X10817Y2659D01*
X11035Y2569D01*
X11265Y2514D01*
X11500Y2495D01*
X11559Y2500D01*
X21173D01*
Y1000D01*
X1000D01*
Y94000D01*
X21173D01*
Y90438D01*
X16938Y90431D01*
X16708Y90376D01*
X16490Y90286D01*
X16289Y90162D01*
X16109Y90009D01*
X15956Y89829D01*
X15832Y89628D01*
X15742Y89410D01*
X15687Y89180D01*
X15673Y88945D01*
X15687Y80710D01*
X15742Y80480D01*
X15832Y80262D01*
X15956Y80061D01*
X16109Y79881D01*
X16289Y79728D01*
X16490Y79604D01*
X16708Y79514D01*
X16938Y79459D01*
X17173Y79445D01*
X21173Y79452D01*
Y76682D01*
X20310Y76614D01*
X19468Y76412D01*
X18668Y76081D01*
X17930Y75628D01*
X17272Y75066D01*
X16710Y74408D01*
X16257Y73670D01*
X15926Y72870D01*
X15724Y72028D01*
X15656Y71165D01*
X15724Y70302D01*
X15926Y69460D01*
X16257Y68660D01*
X16710Y67922D01*
X17272Y67264D01*
X17930Y66702D01*
X18668Y66249D01*
X19468Y65918D01*
X20310Y65716D01*
X21173Y65648D01*
Y62903D01*
G37*
G36*
Y5500D02*X12121D01*
X8500Y9121D01*
Y53879D01*
X10621Y56000D01*
X15850D01*
X15926Y55681D01*
X16257Y54881D01*
X16710Y54143D01*
X17272Y53485D01*
X17930Y52923D01*
X18668Y52470D01*
X19468Y52139D01*
X20310Y51937D01*
X21173Y51869D01*
Y44938D01*
X16938Y44931D01*
X16708Y44876D01*
X16490Y44786D01*
X16289Y44662D01*
X16109Y44509D01*
X15956Y44329D01*
X15832Y44128D01*
X15742Y43910D01*
X15687Y43680D01*
X15673Y43445D01*
X15687Y35210D01*
X15742Y34980D01*
X15832Y34762D01*
X15956Y34561D01*
X16109Y34381D01*
X16289Y34228D01*
X16490Y34104D01*
X16708Y34014D01*
X16938Y33959D01*
X17173Y33945D01*
X21173Y33952D01*
Y31182D01*
X20310Y31114D01*
X19468Y30912D01*
X18668Y30581D01*
X17930Y30128D01*
X17272Y29566D01*
X16710Y28908D01*
X16257Y28170D01*
X15926Y27370D01*
X15724Y26528D01*
X15656Y25665D01*
X15724Y24802D01*
X15926Y23960D01*
X16257Y23160D01*
X16710Y22422D01*
X17272Y21764D01*
X17930Y21202D01*
X18668Y20749D01*
X19468Y20418D01*
X20310Y20216D01*
X21173Y20148D01*
Y17403D01*
X20310Y17335D01*
X19468Y17133D01*
X18668Y16802D01*
X17930Y16349D01*
X17272Y15787D01*
X16710Y15129D01*
X16257Y14391D01*
X15926Y13591D01*
X15724Y12749D01*
X15656Y11886D01*
X15724Y11023D01*
X15926Y10181D01*
X16257Y9381D01*
X16710Y8643D01*
X17272Y7985D01*
X17930Y7423D01*
X18668Y6970D01*
X19468Y6639D01*
X20310Y6437D01*
X21173Y6369D01*
Y5500D01*
G37*
G36*
X192166Y54191D02*X192589Y54881D01*
X192920Y55681D01*
X192969Y55886D01*
X201500D01*
Y18500D01*
X192166D01*
Y22810D01*
X192251Y22846D01*
X192352Y22908D01*
X192442Y22984D01*
X192518Y23074D01*
X192578Y23176D01*
X192795Y23645D01*
X192962Y24134D01*
X193082Y24637D01*
X193155Y25149D01*
X193179Y25665D01*
X193155Y26181D01*
X193082Y26693D01*
X192962Y27196D01*
X192795Y27685D01*
X192583Y28157D01*
X192522Y28258D01*
X192445Y28349D01*
X192355Y28426D01*
X192253Y28488D01*
X192166Y28525D01*
Y34025D01*
X192356Y34104D01*
X192557Y34228D01*
X192737Y34381D01*
X192890Y34561D01*
X193014Y34762D01*
X193104Y34980D01*
X193159Y35210D01*
X193173Y35445D01*
X193159Y43680D01*
X193104Y43910D01*
X193014Y44128D01*
X192890Y44329D01*
X192737Y44509D01*
X192557Y44662D01*
X192356Y44786D01*
X192166Y44865D01*
Y54191D01*
G37*
G36*
Y18500D02*X187673D01*
Y20159D01*
X188189Y20183D01*
X188701Y20256D01*
X189204Y20376D01*
X189693Y20543D01*
X190165Y20755D01*
X190266Y20816D01*
X190357Y20893D01*
X190434Y20983D01*
X190496Y21085D01*
X190542Y21194D01*
X190570Y21310D01*
X190579Y21428D01*
X190570Y21546D01*
X190543Y21662D01*
X190497Y21772D01*
X190435Y21873D01*
X190359Y21963D01*
X190268Y22041D01*
X190167Y22103D01*
X190058Y22149D01*
X189942Y22176D01*
X189824Y22186D01*
X189705Y22177D01*
X189590Y22149D01*
X189481Y22102D01*
X189141Y21944D01*
X188785Y21823D01*
X188420Y21735D01*
X188048Y21683D01*
X187673Y21665D01*
Y29665D01*
X188048Y29647D01*
X188420Y29595D01*
X188785Y29507D01*
X189141Y29386D01*
X189483Y29232D01*
X189591Y29185D01*
X189706Y29158D01*
X189824Y29148D01*
X189941Y29158D01*
X190056Y29186D01*
X190165Y29231D01*
X190266Y29293D01*
X190355Y29370D01*
X190432Y29460D01*
X190493Y29560D01*
X190538Y29669D01*
X190566Y29784D01*
X190575Y29902D01*
X190565Y30020D01*
X190538Y30134D01*
X190492Y30243D01*
X190430Y30344D01*
X190354Y30434D01*
X190264Y30510D01*
X190162Y30570D01*
X189693Y30787D01*
X189204Y30954D01*
X188701Y31074D01*
X188189Y31147D01*
X187673Y31171D01*
Y33952D01*
X191908Y33959D01*
X192138Y34014D01*
X192166Y34025D01*
Y28525D01*
X192144Y28534D01*
X192028Y28562D01*
X191910Y28571D01*
X191792Y28562D01*
X191676Y28535D01*
X191566Y28489D01*
X191465Y28427D01*
X191375Y28351D01*
X191297Y28260D01*
X191235Y28159D01*
X191189Y28050D01*
X191162Y27934D01*
X191152Y27816D01*
X191161Y27697D01*
X191189Y27582D01*
X191236Y27473D01*
X191394Y27133D01*
X191515Y26777D01*
X191603Y26412D01*
X191655Y26040D01*
X191673Y25665D01*
X191655Y25290D01*
X191603Y24918D01*
X191515Y24553D01*
X191394Y24197D01*
X191240Y23855D01*
X191193Y23747D01*
X191166Y23632D01*
X191156Y23514D01*
X191166Y23397D01*
X191194Y23282D01*
X191239Y23173D01*
X191301Y23072D01*
X191378Y22983D01*
X191468Y22906D01*
X191568Y22845D01*
X191677Y22800D01*
X191792Y22772D01*
X191910Y22763D01*
X192028Y22773D01*
X192142Y22800D01*
X192166Y22810D01*
Y18500D01*
G37*
G36*
X187673Y51869D02*X188536Y51937D01*
X189378Y52139D01*
X190178Y52470D01*
X190916Y52923D01*
X191574Y53485D01*
X192136Y54143D01*
X192166Y54191D01*
Y44865D01*
X192138Y44876D01*
X191908Y44931D01*
X191673Y44945D01*
X187673Y44938D01*
Y51869D01*
G37*
G36*
Y68000D02*X201500D01*
Y58886D01*
X192969D01*
X192920Y59091D01*
X192589Y59891D01*
X192136Y60629D01*
X191574Y61287D01*
X190916Y61849D01*
X190178Y62302D01*
X189378Y62633D01*
X188536Y62835D01*
X187673Y62903D01*
Y65659D01*
X188189Y65683D01*
X188701Y65756D01*
X189204Y65876D01*
X189693Y66043D01*
X190165Y66255D01*
X190266Y66316D01*
X190357Y66393D01*
X190434Y66483D01*
X190496Y66585D01*
X190542Y66694D01*
X190570Y66810D01*
X190579Y66928D01*
X190570Y67046D01*
X190543Y67162D01*
X190497Y67272D01*
X190435Y67373D01*
X190359Y67463D01*
X190268Y67541D01*
X190167Y67603D01*
X190058Y67649D01*
X189942Y67676D01*
X189824Y67686D01*
X189705Y67677D01*
X189590Y67649D01*
X189481Y67602D01*
X189141Y67444D01*
X188785Y67323D01*
X188420Y67235D01*
X188048Y67183D01*
X187673Y67165D01*
Y68000D01*
G37*
G36*
X183180Y34025D02*X183208Y34014D01*
X183438Y33959D01*
X183673Y33945D01*
X187673Y33952D01*
Y31171D01*
X187157Y31147D01*
X186645Y31074D01*
X186142Y30954D01*
X185653Y30787D01*
X185181Y30575D01*
X185080Y30514D01*
X184989Y30437D01*
X184912Y30347D01*
X184850Y30245D01*
X184804Y30136D01*
X184776Y30020D01*
X184767Y29902D01*
X184776Y29784D01*
X184803Y29668D01*
X184849Y29558D01*
X184911Y29457D01*
X184987Y29367D01*
X185078Y29289D01*
X185179Y29227D01*
X185288Y29181D01*
X185404Y29154D01*
X185522Y29144D01*
X185641Y29153D01*
X185756Y29181D01*
X185865Y29228D01*
X186205Y29386D01*
X186561Y29507D01*
X186926Y29595D01*
X187298Y29647D01*
X187673Y29665D01*
Y21665D01*
X187298Y21683D01*
X186926Y21735D01*
X186561Y21823D01*
X186205Y21944D01*
X185863Y22098D01*
X185755Y22145D01*
X185640Y22172D01*
X185522Y22182D01*
X185405Y22172D01*
X185290Y22144D01*
X185181Y22099D01*
X185080Y22037D01*
X184991Y21960D01*
X184914Y21870D01*
X184853Y21770D01*
X184808Y21661D01*
X184780Y21546D01*
X184771Y21428D01*
X184781Y21310D01*
X184808Y21196D01*
X184854Y21087D01*
X184916Y20986D01*
X184992Y20896D01*
X185082Y20820D01*
X185184Y20760D01*
X185653Y20543D01*
X186142Y20376D01*
X186645Y20256D01*
X187157Y20183D01*
X187673Y20159D01*
Y18500D01*
X183180D01*
Y22805D01*
X183202Y22796D01*
X183318Y22768D01*
X183436Y22759D01*
X183554Y22768D01*
X183670Y22795D01*
X183780Y22841D01*
X183881Y22903D01*
X183971Y22979D01*
X184049Y23070D01*
X184111Y23171D01*
X184157Y23280D01*
X184184Y23396D01*
X184194Y23514D01*
X184185Y23633D01*
X184157Y23748D01*
X184110Y23857D01*
X183952Y24197D01*
X183831Y24553D01*
X183743Y24918D01*
X183691Y25290D01*
X183673Y25665D01*
X183691Y26040D01*
X183743Y26412D01*
X183831Y26777D01*
X183952Y27133D01*
X184106Y27475D01*
X184153Y27583D01*
X184180Y27698D01*
X184190Y27816D01*
X184180Y27933D01*
X184152Y28048D01*
X184107Y28157D01*
X184045Y28258D01*
X183968Y28347D01*
X183878Y28424D01*
X183778Y28485D01*
X183669Y28530D01*
X183554Y28558D01*
X183436Y28567D01*
X183318Y28557D01*
X183204Y28530D01*
X183180Y28520D01*
Y34025D01*
G37*
G36*
Y54191D02*X183210Y54143D01*
X183772Y53485D01*
X184430Y52923D01*
X185168Y52470D01*
X185968Y52139D01*
X186810Y51937D01*
X187673Y51869D01*
Y44938D01*
X183438Y44931D01*
X183208Y44876D01*
X183180Y44865D01*
Y54191D01*
G37*
G36*
Y68000D02*X187673D01*
Y67165D01*
X187298Y67183D01*
X186926Y67235D01*
X186561Y67323D01*
X186205Y67444D01*
X185863Y67598D01*
X185755Y67645D01*
X185640Y67672D01*
X185522Y67682D01*
X185405Y67672D01*
X185290Y67644D01*
X185181Y67599D01*
X185080Y67537D01*
X184991Y67460D01*
X184914Y67370D01*
X184853Y67270D01*
X184808Y67161D01*
X184780Y67046D01*
X184771Y66928D01*
X184781Y66810D01*
X184808Y66696D01*
X184854Y66587D01*
X184916Y66486D01*
X184992Y66396D01*
X185082Y66320D01*
X185184Y66260D01*
X185653Y66043D01*
X186142Y65876D01*
X186645Y65756D01*
X187157Y65683D01*
X187673Y65659D01*
Y62903D01*
X186810Y62835D01*
X185968Y62633D01*
X185168Y62302D01*
X184430Y61849D01*
X183772Y61287D01*
X183210Y60629D01*
X183180Y60581D01*
Y68000D01*
G37*
G36*
X174000D02*X183180D01*
Y60581D01*
X182757Y59891D01*
X182426Y59091D01*
X182224Y58249D01*
X182156Y57386D01*
X182224Y56523D01*
X182426Y55681D01*
X182757Y54881D01*
X183180Y54191D01*
Y44865D01*
X182990Y44786D01*
X182789Y44662D01*
X182609Y44509D01*
X182456Y44329D01*
X182332Y44128D01*
X182242Y43910D01*
X182187Y43680D01*
X182173Y43445D01*
X182187Y35210D01*
X182242Y34980D01*
X182332Y34762D01*
X182456Y34561D01*
X182609Y34381D01*
X182789Y34228D01*
X182990Y34104D01*
X183180Y34025D01*
Y28520D01*
X183095Y28484D01*
X182994Y28422D01*
X182904Y28346D01*
X182828Y28256D01*
X182768Y28154D01*
X182551Y27685D01*
X182384Y27196D01*
X182264Y26693D01*
X182191Y26181D01*
X182167Y25665D01*
X182191Y25149D01*
X182264Y24637D01*
X182384Y24134D01*
X182551Y23645D01*
X182763Y23173D01*
X182824Y23072D01*
X182901Y22981D01*
X182991Y22904D01*
X183093Y22842D01*
X183180Y22805D01*
Y18500D01*
X182121D01*
X180602Y20019D01*
X180564Y20064D01*
X180384Y20217D01*
X180183Y20341D01*
X179965Y20431D01*
X179735Y20486D01*
X179500Y20505D01*
X179441Y20500D01*
X174000D01*
Y68000D01*
G37*
G36*
X138500Y75000D02*X181000D01*
Y38000D01*
X138500D01*
Y53382D01*
X138509Y53500D01*
X138500Y53618D01*
Y75000D01*
G37*
G36*
X192166Y94000D02*X201500D01*
Y62500D01*
X192166D01*
Y68310D01*
X192251Y68346D01*
X192352Y68408D01*
X192442Y68484D01*
X192518Y68574D01*
X192578Y68676D01*
X192795Y69145D01*
X192962Y69634D01*
X193082Y70137D01*
X193155Y70649D01*
X193179Y71165D01*
X193155Y71681D01*
X193082Y72193D01*
X192962Y72696D01*
X192795Y73185D01*
X192583Y73657D01*
X192522Y73758D01*
X192445Y73849D01*
X192355Y73926D01*
X192253Y73988D01*
X192166Y74025D01*
Y79525D01*
X192356Y79604D01*
X192557Y79728D01*
X192737Y79881D01*
X192890Y80061D01*
X193014Y80262D01*
X193104Y80480D01*
X193159Y80710D01*
X193173Y80945D01*
X193159Y89180D01*
X193104Y89410D01*
X193014Y89628D01*
X192890Y89829D01*
X192737Y90009D01*
X192557Y90162D01*
X192356Y90286D01*
X192166Y90365D01*
Y94000D01*
G37*
G36*
Y62500D02*X189699D01*
X189378Y62633D01*
X188536Y62835D01*
X187673Y62903D01*
Y65659D01*
X188189Y65683D01*
X188701Y65756D01*
X189204Y65876D01*
X189693Y66043D01*
X190165Y66255D01*
X190266Y66316D01*
X190357Y66393D01*
X190434Y66483D01*
X190496Y66585D01*
X190542Y66694D01*
X190570Y66810D01*
X190579Y66928D01*
X190570Y67046D01*
X190543Y67162D01*
X190497Y67272D01*
X190435Y67373D01*
X190359Y67463D01*
X190268Y67541D01*
X190167Y67603D01*
X190058Y67649D01*
X189942Y67676D01*
X189824Y67686D01*
X189705Y67677D01*
X189590Y67649D01*
X189481Y67602D01*
X189141Y67444D01*
X188785Y67323D01*
X188420Y67235D01*
X188048Y67183D01*
X187673Y67165D01*
Y75165D01*
X188048Y75147D01*
X188420Y75095D01*
X188785Y75007D01*
X189141Y74886D01*
X189483Y74732D01*
X189591Y74685D01*
X189706Y74658D01*
X189824Y74648D01*
X189941Y74658D01*
X190056Y74686D01*
X190165Y74731D01*
X190266Y74793D01*
X190355Y74870D01*
X190432Y74960D01*
X190493Y75060D01*
X190538Y75169D01*
X190566Y75284D01*
X190575Y75402D01*
X190565Y75520D01*
X190538Y75634D01*
X190492Y75743D01*
X190430Y75844D01*
X190354Y75934D01*
X190264Y76010D01*
X190162Y76070D01*
X189693Y76287D01*
X189204Y76454D01*
X188701Y76574D01*
X188189Y76647D01*
X187673Y76671D01*
Y79452D01*
X191908Y79459D01*
X192138Y79514D01*
X192166Y79525D01*
Y74025D01*
X192144Y74034D01*
X192028Y74062D01*
X191910Y74071D01*
X191792Y74062D01*
X191676Y74035D01*
X191566Y73989D01*
X191465Y73927D01*
X191375Y73851D01*
X191297Y73760D01*
X191235Y73659D01*
X191189Y73550D01*
X191162Y73434D01*
X191152Y73316D01*
X191161Y73197D01*
X191189Y73082D01*
X191236Y72973D01*
X191394Y72633D01*
X191515Y72277D01*
X191603Y71912D01*
X191655Y71540D01*
X191673Y71165D01*
X191655Y70790D01*
X191603Y70418D01*
X191515Y70053D01*
X191394Y69697D01*
X191240Y69355D01*
X191193Y69247D01*
X191166Y69132D01*
X191156Y69014D01*
X191166Y68897D01*
X191194Y68782D01*
X191239Y68673D01*
X191301Y68572D01*
X191378Y68483D01*
X191468Y68406D01*
X191568Y68345D01*
X191677Y68300D01*
X191792Y68272D01*
X191910Y68263D01*
X192028Y68273D01*
X192142Y68300D01*
X192166Y68310D01*
Y62500D01*
G37*
G36*
X187673Y94000D02*X192166D01*
Y90365D01*
X192138Y90376D01*
X191908Y90431D01*
X191673Y90445D01*
X187673Y90438D01*
Y94000D01*
G37*
G36*
X183180Y79525D02*X183208Y79514D01*
X183438Y79459D01*
X183673Y79445D01*
X187673Y79452D01*
Y76671D01*
X187157Y76647D01*
X186645Y76574D01*
X186142Y76454D01*
X185653Y76287D01*
X185181Y76075D01*
X185080Y76014D01*
X184989Y75937D01*
X184912Y75847D01*
X184850Y75745D01*
X184804Y75636D01*
X184776Y75520D01*
X184767Y75402D01*
X184776Y75284D01*
X184803Y75168D01*
X184849Y75058D01*
X184911Y74957D01*
X184987Y74867D01*
X185078Y74789D01*
X185179Y74727D01*
X185288Y74681D01*
X185404Y74654D01*
X185522Y74644D01*
X185641Y74653D01*
X185756Y74681D01*
X185865Y74728D01*
X186205Y74886D01*
X186561Y75007D01*
X186926Y75095D01*
X187298Y75147D01*
X187673Y75165D01*
Y67165D01*
X187298Y67183D01*
X186926Y67235D01*
X186561Y67323D01*
X186205Y67444D01*
X185863Y67598D01*
X185755Y67645D01*
X185640Y67672D01*
X185522Y67682D01*
X185405Y67672D01*
X185290Y67644D01*
X185181Y67599D01*
X185080Y67537D01*
X184991Y67460D01*
X184914Y67370D01*
X184853Y67270D01*
X184808Y67161D01*
X184780Y67046D01*
X184771Y66928D01*
X184781Y66810D01*
X184808Y66696D01*
X184854Y66587D01*
X184916Y66486D01*
X184992Y66396D01*
X185082Y66320D01*
X185184Y66260D01*
X185653Y66043D01*
X186142Y65876D01*
X186645Y65756D01*
X187157Y65683D01*
X187673Y65659D01*
Y62903D01*
X186810Y62835D01*
X185968Y62633D01*
X185647Y62500D01*
X183180D01*
Y68305D01*
X183202Y68296D01*
X183318Y68268D01*
X183436Y68259D01*
X183554Y68268D01*
X183670Y68295D01*
X183780Y68341D01*
X183881Y68403D01*
X183971Y68479D01*
X184049Y68570D01*
X184111Y68671D01*
X184157Y68780D01*
X184184Y68896D01*
X184194Y69014D01*
X184185Y69133D01*
X184157Y69248D01*
X184110Y69357D01*
X183952Y69697D01*
X183831Y70053D01*
X183743Y70418D01*
X183691Y70790D01*
X183673Y71165D01*
X183691Y71540D01*
X183743Y71912D01*
X183831Y72277D01*
X183952Y72633D01*
X184106Y72975D01*
X184153Y73083D01*
X184180Y73198D01*
X184190Y73316D01*
X184180Y73433D01*
X184152Y73548D01*
X184107Y73657D01*
X184045Y73758D01*
X183968Y73847D01*
X183878Y73924D01*
X183778Y73985D01*
X183669Y74030D01*
X183554Y74058D01*
X183436Y74067D01*
X183318Y74057D01*
X183204Y74030D01*
X183180Y74020D01*
Y79525D01*
G37*
G36*
Y94000D02*X187673D01*
Y90438D01*
X183438Y90431D01*
X183208Y90376D01*
X183180Y90365D01*
Y94000D01*
G37*
G36*
X135000Y62500D02*Y65882D01*
X135009Y66000D01*
X135000Y66118D01*
Y94000D01*
X183180D01*
Y90365D01*
X182990Y90286D01*
X182789Y90162D01*
X182609Y90009D01*
X182456Y89829D01*
X182332Y89628D01*
X182242Y89410D01*
X182187Y89180D01*
X182173Y88945D01*
X182187Y80710D01*
X182242Y80480D01*
X182332Y80262D01*
X182456Y80061D01*
X182609Y79881D01*
X182789Y79728D01*
X182990Y79604D01*
X183180Y79525D01*
Y74020D01*
X183095Y73984D01*
X182994Y73922D01*
X182904Y73846D01*
X182828Y73756D01*
X182768Y73654D01*
X182551Y73185D01*
X182384Y72696D01*
X182264Y72193D01*
X182191Y71681D01*
X182167Y71165D01*
X182191Y70649D01*
X182264Y70137D01*
X182384Y69634D01*
X182551Y69145D01*
X182763Y68673D01*
X182824Y68572D01*
X182901Y68481D01*
X182991Y68404D01*
X183093Y68342D01*
X183180Y68305D01*
Y62500D01*
X135000D01*
G37*
G36*
X138500Y37000D02*X173000D01*
Y30000D01*
X133000D01*
Y32838D01*
X133065Y32731D01*
X133372Y32372D01*
X133731Y32065D01*
X134134Y31819D01*
X134570Y31638D01*
X135029Y31528D01*
X135500Y31491D01*
X135971Y31528D01*
X136430Y31638D01*
X136866Y31819D01*
X137269Y32065D01*
X137628Y32372D01*
X137935Y32731D01*
X138181Y33134D01*
X138362Y33570D01*
X138472Y34029D01*
X138500Y34500D01*
Y37000D01*
G37*
G36*
X192969Y55886D02*X202993D01*
X205000Y53879D01*
Y6621D01*
X202379Y4000D01*
X192166D01*
Y8691D01*
X192589Y9381D01*
X192920Y10181D01*
X193122Y11023D01*
X193173Y11886D01*
X193122Y12749D01*
X192920Y13591D01*
X192589Y14391D01*
X192166Y15081D01*
Y22810D01*
X192251Y22846D01*
X192352Y22908D01*
X192442Y22984D01*
X192518Y23074D01*
X192578Y23176D01*
X192795Y23645D01*
X192962Y24134D01*
X193082Y24637D01*
X193155Y25149D01*
X193179Y25665D01*
X193155Y26181D01*
X193082Y26693D01*
X192962Y27196D01*
X192795Y27685D01*
X192583Y28157D01*
X192522Y28258D01*
X192445Y28349D01*
X192355Y28426D01*
X192253Y28488D01*
X192166Y28525D01*
Y34025D01*
X192356Y34104D01*
X192557Y34228D01*
X192737Y34381D01*
X192890Y34561D01*
X193014Y34762D01*
X193104Y34980D01*
X193159Y35210D01*
X193173Y35445D01*
X193159Y43680D01*
X193104Y43910D01*
X193014Y44128D01*
X192890Y44329D01*
X192737Y44509D01*
X192557Y44662D01*
X192356Y44786D01*
X192166Y44865D01*
Y54191D01*
X192589Y54881D01*
X192920Y55681D01*
X192969Y55886D01*
G37*
G36*
X192166Y44865D02*X192138Y44876D01*
X191908Y44931D01*
X191673Y44945D01*
X187675Y44938D01*
Y51869D01*
X188536Y51937D01*
X189378Y52139D01*
X190178Y52470D01*
X190916Y52923D01*
X191574Y53485D01*
X192136Y54143D01*
X192166Y54191D01*
Y44865D01*
G37*
G36*
Y15081D02*X192136Y15129D01*
X191574Y15787D01*
X190916Y16349D01*
X190178Y16802D01*
X189378Y17133D01*
X188536Y17335D01*
X187675Y17403D01*
Y20159D01*
X188189Y20183D01*
X188701Y20256D01*
X189204Y20376D01*
X189693Y20543D01*
X190165Y20755D01*
X190266Y20816D01*
X190357Y20893D01*
X190434Y20983D01*
X190496Y21085D01*
X190542Y21194D01*
X190570Y21310D01*
X190579Y21428D01*
X190570Y21546D01*
X190543Y21662D01*
X190497Y21772D01*
X190435Y21873D01*
X190359Y21963D01*
X190268Y22041D01*
X190167Y22103D01*
X190058Y22149D01*
X189942Y22176D01*
X189824Y22186D01*
X189705Y22177D01*
X189590Y22149D01*
X189481Y22102D01*
X189141Y21944D01*
X188785Y21823D01*
X188420Y21735D01*
X188048Y21683D01*
X187675Y21665D01*
Y29665D01*
X188048Y29647D01*
X188420Y29595D01*
X188785Y29507D01*
X189141Y29386D01*
X189483Y29232D01*
X189591Y29185D01*
X189706Y29158D01*
X189824Y29148D01*
X189941Y29158D01*
X190056Y29186D01*
X190165Y29231D01*
X190266Y29293D01*
X190355Y29370D01*
X190432Y29460D01*
X190493Y29560D01*
X190538Y29669D01*
X190566Y29784D01*
X190575Y29902D01*
X190565Y30020D01*
X190538Y30134D01*
X190492Y30243D01*
X190430Y30344D01*
X190354Y30434D01*
X190264Y30510D01*
X190162Y30570D01*
X189693Y30787D01*
X189204Y30954D01*
X188701Y31074D01*
X188189Y31147D01*
X187675Y31171D01*
Y33952D01*
X191908Y33959D01*
X192138Y34014D01*
X192166Y34025D01*
Y28525D01*
X192144Y28534D01*
X192028Y28562D01*
X191910Y28571D01*
X191792Y28562D01*
X191676Y28535D01*
X191566Y28489D01*
X191465Y28427D01*
X191375Y28351D01*
X191297Y28260D01*
X191235Y28159D01*
X191189Y28050D01*
X191162Y27934D01*
X191152Y27816D01*
X191161Y27697D01*
X191189Y27582D01*
X191236Y27473D01*
X191394Y27133D01*
X191515Y26777D01*
X191603Y26412D01*
X191655Y26040D01*
X191673Y25665D01*
X191655Y25290D01*
X191603Y24918D01*
X191515Y24553D01*
X191394Y24197D01*
X191240Y23855D01*
X191193Y23747D01*
X191166Y23632D01*
X191156Y23514D01*
X191166Y23397D01*
X191194Y23282D01*
X191239Y23173D01*
X191301Y23072D01*
X191378Y22983D01*
X191468Y22906D01*
X191568Y22845D01*
X191677Y22800D01*
X191792Y22772D01*
X191910Y22763D01*
X192028Y22773D01*
X192142Y22800D01*
X192166Y22810D01*
Y15081D01*
G37*
G36*
Y4000D02*X187675D01*
Y6369D01*
X188536Y6437D01*
X189378Y6639D01*
X190178Y6970D01*
X190916Y7423D01*
X191574Y7985D01*
X192136Y8643D01*
X192166Y8691D01*
Y4000D01*
G37*
G36*
X187675Y44938D02*X183438Y44931D01*
X183208Y44876D01*
X183000Y44790D01*
Y54485D01*
X183210Y54143D01*
X183772Y53485D01*
X184430Y52923D01*
X185168Y52470D01*
X185968Y52139D01*
X186810Y51937D01*
X187673Y51869D01*
X187675Y51869D01*
Y44938D01*
G37*
G36*
Y17403D02*X187673Y17403D01*
X186810Y17335D01*
X185968Y17133D01*
X185168Y16802D01*
X184430Y16349D01*
X184219Y16169D01*
X184171Y16368D01*
X184003Y16775D01*
X183772Y17151D01*
X183486Y17486D01*
X183151Y17772D01*
X183000Y17865D01*
Y22899D01*
X183093Y22842D01*
X183202Y22796D01*
X183318Y22768D01*
X183436Y22759D01*
X183554Y22768D01*
X183670Y22795D01*
X183780Y22841D01*
X183881Y22903D01*
X183971Y22979D01*
X184049Y23070D01*
X184111Y23171D01*
X184157Y23280D01*
X184184Y23396D01*
X184194Y23514D01*
X184185Y23633D01*
X184157Y23748D01*
X184110Y23857D01*
X183952Y24197D01*
X183831Y24553D01*
X183743Y24918D01*
X183691Y25290D01*
X183673Y25665D01*
X183691Y26040D01*
X183743Y26412D01*
X183831Y26777D01*
X183952Y27133D01*
X184106Y27475D01*
X184153Y27583D01*
X184180Y27698D01*
X184190Y27816D01*
X184180Y27933D01*
X184152Y28048D01*
X184107Y28157D01*
X184045Y28258D01*
X183968Y28347D01*
X183878Y28424D01*
X183778Y28485D01*
X183669Y28530D01*
X183554Y28558D01*
X183436Y28567D01*
X183318Y28557D01*
X183204Y28530D01*
X183095Y28484D01*
X183000Y28426D01*
Y34100D01*
X183208Y34014D01*
X183438Y33959D01*
X183673Y33945D01*
X187675Y33952D01*
Y31171D01*
X187673Y31171D01*
X187157Y31147D01*
X186645Y31074D01*
X186142Y30954D01*
X185653Y30787D01*
X185181Y30575D01*
X185080Y30514D01*
X184989Y30437D01*
X184912Y30347D01*
X184850Y30245D01*
X184804Y30136D01*
X184776Y30020D01*
X184767Y29902D01*
X184776Y29784D01*
X184803Y29668D01*
X184849Y29558D01*
X184911Y29457D01*
X184987Y29367D01*
X185078Y29289D01*
X185179Y29227D01*
X185288Y29181D01*
X185404Y29154D01*
X185522Y29144D01*
X185641Y29153D01*
X185756Y29181D01*
X185865Y29228D01*
X186205Y29386D01*
X186561Y29507D01*
X186926Y29595D01*
X187298Y29647D01*
X187673Y29665D01*
X187675Y29665D01*
Y21665D01*
X187673Y21665D01*
X187298Y21683D01*
X186926Y21735D01*
X186561Y21823D01*
X186205Y21944D01*
X185863Y22098D01*
X185755Y22145D01*
X185640Y22172D01*
X185522Y22182D01*
X185405Y22172D01*
X185290Y22144D01*
X185181Y22099D01*
X185080Y22037D01*
X184991Y21960D01*
X184914Y21870D01*
X184853Y21770D01*
X184808Y21661D01*
X184780Y21546D01*
X184771Y21428D01*
X184781Y21310D01*
X184808Y21196D01*
X184854Y21087D01*
X184916Y20986D01*
X184992Y20896D01*
X185082Y20820D01*
X185184Y20760D01*
X185653Y20543D01*
X186142Y20376D01*
X186645Y20256D01*
X187157Y20183D01*
X187673Y20159D01*
X187675Y20159D01*
Y17403D01*
G37*
G36*
Y4000D02*X183000D01*
Y8985D01*
X183210Y8643D01*
X183772Y7985D01*
X184430Y7423D01*
X185168Y6970D01*
X185968Y6639D01*
X186810Y6437D01*
X187673Y6369D01*
X187675Y6369D01*
Y4000D01*
G37*
G36*
X192166Y94000D02*X209000D01*
Y57500D01*
X205621D01*
X204716Y58405D01*
X204678Y58450D01*
X204498Y58603D01*
X204297Y58727D01*
X204079Y58817D01*
X203849Y58872D01*
X203849Y58872D01*
X203614Y58891D01*
X203555Y58886D01*
X192969D01*
X192920Y59091D01*
X192589Y59891D01*
X192166Y60581D01*
Y68310D01*
X192251Y68346D01*
X192352Y68408D01*
X192442Y68484D01*
X192518Y68574D01*
X192578Y68676D01*
X192795Y69145D01*
X192962Y69634D01*
X193082Y70137D01*
X193155Y70649D01*
X193179Y71165D01*
X193155Y71681D01*
X193082Y72193D01*
X192962Y72696D01*
X192795Y73185D01*
X192583Y73657D01*
X192522Y73758D01*
X192445Y73849D01*
X192355Y73926D01*
X192253Y73988D01*
X192166Y74025D01*
Y79525D01*
X192356Y79604D01*
X192557Y79728D01*
X192737Y79881D01*
X192890Y80061D01*
X193014Y80262D01*
X193104Y80480D01*
X193159Y80710D01*
X193173Y80945D01*
X193159Y89180D01*
X193104Y89410D01*
X193014Y89628D01*
X192890Y89829D01*
X192737Y90009D01*
X192557Y90162D01*
X192356Y90286D01*
X192166Y90365D01*
Y94000D01*
G37*
G36*
Y60581D02*X192136Y60629D01*
X191574Y61287D01*
X190916Y61849D01*
X190178Y62302D01*
X189378Y62633D01*
X188536Y62835D01*
X187673Y62903D01*
Y65659D01*
X188189Y65683D01*
X188701Y65756D01*
X189204Y65876D01*
X189693Y66043D01*
X190165Y66255D01*
X190266Y66316D01*
X190357Y66393D01*
X190434Y66483D01*
X190496Y66585D01*
X190542Y66694D01*
X190570Y66810D01*
X190579Y66928D01*
X190570Y67046D01*
X190543Y67162D01*
X190497Y67272D01*
X190435Y67373D01*
X190359Y67463D01*
X190268Y67541D01*
X190167Y67603D01*
X190058Y67649D01*
X189942Y67676D01*
X189824Y67686D01*
X189705Y67677D01*
X189590Y67649D01*
X189481Y67602D01*
X189141Y67444D01*
X188785Y67323D01*
X188420Y67235D01*
X188048Y67183D01*
X187673Y67165D01*
Y75165D01*
X188048Y75147D01*
X188420Y75095D01*
X188785Y75007D01*
X189141Y74886D01*
X189483Y74732D01*
X189591Y74685D01*
X189706Y74658D01*
X189824Y74648D01*
X189941Y74658D01*
X190056Y74686D01*
X190165Y74731D01*
X190266Y74793D01*
X190355Y74870D01*
X190432Y74960D01*
X190493Y75060D01*
X190538Y75169D01*
X190566Y75284D01*
X190575Y75402D01*
X190565Y75520D01*
X190538Y75634D01*
X190492Y75743D01*
X190430Y75844D01*
X190354Y75934D01*
X190264Y76010D01*
X190162Y76070D01*
X189693Y76287D01*
X189204Y76454D01*
X188701Y76574D01*
X188189Y76647D01*
X187673Y76671D01*
Y79452D01*
X191908Y79459D01*
X192138Y79514D01*
X192166Y79525D01*
Y74025D01*
X192144Y74034D01*
X192028Y74062D01*
X191910Y74071D01*
X191792Y74062D01*
X191676Y74035D01*
X191566Y73989D01*
X191465Y73927D01*
X191375Y73851D01*
X191297Y73760D01*
X191235Y73659D01*
X191189Y73550D01*
X191162Y73434D01*
X191152Y73316D01*
X191161Y73197D01*
X191189Y73082D01*
X191236Y72973D01*
X191394Y72633D01*
X191515Y72277D01*
X191603Y71912D01*
X191655Y71540D01*
X191673Y71165D01*
X191655Y70790D01*
X191603Y70418D01*
X191515Y70053D01*
X191394Y69697D01*
X191240Y69355D01*
X191193Y69247D01*
X191166Y69132D01*
X191156Y69014D01*
X191166Y68897D01*
X191194Y68782D01*
X191239Y68673D01*
X191301Y68572D01*
X191378Y68483D01*
X191468Y68406D01*
X191568Y68345D01*
X191677Y68300D01*
X191792Y68272D01*
X191910Y68263D01*
X192028Y68273D01*
X192142Y68300D01*
X192166Y68310D01*
Y60581D01*
G37*
G36*
X187673Y94000D02*X192166D01*
Y90365D01*
X192138Y90376D01*
X191908Y90431D01*
X191673Y90445D01*
X187673Y90438D01*
Y94000D01*
G37*
G36*
X183180Y79525D02*X183208Y79514D01*
X183438Y79459D01*
X183673Y79445D01*
X187673Y79452D01*
Y76671D01*
X187157Y76647D01*
X186645Y76574D01*
X186142Y76454D01*
X185653Y76287D01*
X185181Y76075D01*
X185080Y76014D01*
X184989Y75937D01*
X184912Y75847D01*
X184850Y75745D01*
X184804Y75636D01*
X184776Y75520D01*
X184767Y75402D01*
X184776Y75284D01*
X184803Y75168D01*
X184849Y75058D01*
X184911Y74957D01*
X184987Y74867D01*
X185078Y74789D01*
X185179Y74727D01*
X185288Y74681D01*
X185404Y74654D01*
X185522Y74644D01*
X185641Y74653D01*
X185756Y74681D01*
X185865Y74728D01*
X186205Y74886D01*
X186561Y75007D01*
X186926Y75095D01*
X187298Y75147D01*
X187673Y75165D01*
Y67165D01*
X187298Y67183D01*
X186926Y67235D01*
X186561Y67323D01*
X186205Y67444D01*
X185863Y67598D01*
X185755Y67645D01*
X185640Y67672D01*
X185522Y67682D01*
X185405Y67672D01*
X185290Y67644D01*
X185181Y67599D01*
X185080Y67537D01*
X184991Y67460D01*
X184914Y67370D01*
X184853Y67270D01*
X184808Y67161D01*
X184780Y67046D01*
X184771Y66928D01*
X184781Y66810D01*
X184808Y66696D01*
X184854Y66587D01*
X184916Y66486D01*
X184992Y66396D01*
X185082Y66320D01*
X185184Y66260D01*
X185653Y66043D01*
X186142Y65876D01*
X186645Y65756D01*
X187157Y65683D01*
X187673Y65659D01*
Y62903D01*
X186810Y62835D01*
X185968Y62633D01*
X185168Y62302D01*
X184430Y61849D01*
X183772Y61287D01*
X183210Y60629D01*
X183180Y60581D01*
Y68305D01*
X183202Y68296D01*
X183318Y68268D01*
X183436Y68259D01*
X183554Y68268D01*
X183670Y68295D01*
X183780Y68341D01*
X183881Y68403D01*
X183971Y68479D01*
X184049Y68570D01*
X184111Y68671D01*
X184157Y68780D01*
X184184Y68896D01*
X184194Y69014D01*
X184185Y69133D01*
X184157Y69248D01*
X184110Y69357D01*
X183952Y69697D01*
X183831Y70053D01*
X183743Y70418D01*
X183691Y70790D01*
X183673Y71165D01*
X183691Y71540D01*
X183743Y71912D01*
X183831Y72277D01*
X183952Y72633D01*
X184106Y72975D01*
X184153Y73083D01*
X184180Y73198D01*
X184190Y73316D01*
X184180Y73433D01*
X184152Y73548D01*
X184107Y73657D01*
X184045Y73758D01*
X183968Y73847D01*
X183878Y73924D01*
X183778Y73985D01*
X183669Y74030D01*
X183554Y74058D01*
X183436Y74067D01*
X183318Y74057D01*
X183204Y74030D01*
X183180Y74020D01*
Y79525D01*
G37*
G36*
Y94000D02*X187673D01*
Y90438D01*
X183438Y90431D01*
X183208Y90376D01*
X183180Y90365D01*
Y94000D01*
G37*
G36*
X175000D02*X183180D01*
Y90365D01*
X182990Y90286D01*
X182789Y90162D01*
X182609Y90009D01*
X182456Y89829D01*
X182332Y89628D01*
X182242Y89410D01*
X182187Y89180D01*
X182173Y88945D01*
X182187Y80710D01*
X182242Y80480D01*
X182332Y80262D01*
X182456Y80061D01*
X182609Y79881D01*
X182789Y79728D01*
X182990Y79604D01*
X183180Y79525D01*
Y74020D01*
X183095Y73984D01*
X182994Y73922D01*
X182904Y73846D01*
X182828Y73756D01*
X182768Y73654D01*
X182551Y73185D01*
X182384Y72696D01*
X182264Y72193D01*
X182191Y71681D01*
X182167Y71165D01*
X182191Y70649D01*
X182264Y70137D01*
X182384Y69634D01*
X182551Y69145D01*
X182763Y68673D01*
X182824Y68572D01*
X182901Y68481D01*
X182991Y68404D01*
X183093Y68342D01*
X183180Y68305D01*
Y60581D01*
X182757Y59891D01*
X182426Y59091D01*
X182224Y58249D01*
X182165Y57500D01*
X175000D01*
Y94000D01*
G37*
G54D33*X110000Y2500D02*X108500Y4000D01*
X113000Y6000D02*X111000Y8000D01*
X106000D01*
X102000Y4000D01*
X114500Y8000D02*X112000Y10500D01*
X97500D02*X112000D01*
X113500Y9000D01*
X104000Y41000D02*X107000Y44000D01*
X110500D02*Y44500D01*
X107500Y40500D02*X108000Y40000D01*
X107000Y39000D02*X108000Y40000D01*
X107000Y44000D02*X110500D01*
X108500Y48500D02*X112500D01*
X100000Y44000D02*X101000Y43000D01*
X103000D01*
X69000Y21000D02*X72500Y17500D01*
X74000D01*
X63500Y10500D02*X73000D01*
X74000Y21000D02*X71000Y24000D01*
X103000Y12500D02*X69000D01*
X61500Y15000D02*Y12500D01*
X63500Y10500D01*
X66000Y24000D02*X70000Y20000D01*
X113000Y12500D02*X101000D01*
X71000Y10500D02*X104000D01*
X106500Y17500D02*X72500D01*
X114000Y14500D02*X71500D01*
X107500Y21000D02*X78500D01*
X80000D02*X74000D01*
X98500Y31000D02*X83000D01*
X78000Y36000D01*
X94500Y40500D02*X96000Y39000D01*
X107000D01*
X104000Y36500D02*X102000Y34500D01*
Y29500D01*
X103500Y28000D01*
X97000Y41000D02*X104000D01*
X88000Y40500D02*X94500D01*
X94000Y44000D02*X97000Y41000D01*
X107000Y53500D02*X102500Y58000D01*
Y61000D01*
X103000Y43000D02*X108500Y48500D01*
X103500D02*Y54000D01*
X100000Y57500D01*
Y59500D01*
X98500Y61000D01*
X100000Y59500D02*X99000Y60500D01*
X98500Y61000D02*X93000D01*
X88000Y53000D02*X86500Y54500D01*
X75000Y47500D02*X82000D01*
X85500Y44000D01*
X87000D01*
X97000Y53000D02*X88000D01*
X86500Y44000D02*X94000D01*
X97000Y53000D02*X100000Y50000D01*
Y44000D01*
X187673Y57386D02*X203614D01*
X206500Y54500D01*
Y6000D01*
X203000Y2500D01*
X181500Y15500D02*Y17000D01*
X179500Y19000D01*
X173000D01*
X171500Y20500D01*
Y34000D01*
X187673Y11886D02*X156386D01*
X152500Y8000D01*
X203000Y2500D02*X110000D01*
X156000Y15500D02*X176500D01*
X130000Y17500D02*X104500D01*
X148000Y16000D02*X140500D01*
X156000Y6000D02*X113000D01*
X152000Y11500D02*X156000Y15500D01*
X135500Y44000D02*Y35000D01*
X134500Y16000D02*X133500D01*
X134500D02*X134000D01*
X140500D02*X135500Y21000D01*
X152500Y8000D02*X114500D01*
X152000Y11500D02*X133500D01*
X132000Y10000D01*
X134000Y16000D02*X130000Y12000D01*
X132000Y10000D02*X115500D01*
X113000Y12500D01*
X130000Y12000D02*X116500D01*
X114000Y14500D01*
X131500Y39000D02*X129000Y36500D01*
X135500Y21000D02*X106500D01*
G54D34*X106000Y32500D02*X140000D01*
G54D33*X129000Y36500D02*X104000D01*
G54D34*X130500Y67500D02*X132000Y66000D01*
Y57000D01*
X135500Y53500D01*
Y34500D01*
G54D33*X125500Y58000D02*X131500Y52000D01*
Y39000D01*
X118000Y50500D02*Y51000D01*
X115500Y53500D01*
X107000D01*
X123000Y62500D02*Y60500D01*
X126500Y57000D01*
G54D34*X130500Y67500D02*X97000D01*
G54D33*X95500Y64000D02*X101500D01*
X102500Y63000D01*
Y60000D01*
X102000Y4000D02*X11500D01*
X69000Y12500D02*X60500Y21000D01*
X62000Y26000D02*Y23000D01*
X75000Y27500D02*X66000D01*
X63500Y30000D01*
X62000Y23000D02*X70500Y14500D01*
X75000D01*
X62000Y19500D02*X58000Y23500D01*
X57500Y24000D02*X59500Y22000D01*
X62500Y48000D02*Y45000D01*
X64500Y43000D01*
X78000D01*
Y36000D02*Y43000D01*
X63500Y30000D02*X59500D01*
X57500Y28000D01*
Y24000D01*
X11500Y4000D02*X7000Y8500D01*
Y54500D01*
X10000Y57500D01*
X21059D01*
X21173Y57386D01*
X88500Y65500D02*X84500D01*
X83000Y64000D01*
X59500D01*
X82000Y66000D02*X58500D01*
X89500Y67500D02*X83500D01*
G54D34*X97000D02*X91000Y73500D01*
X54500D01*
G54D33*X89000Y67500D02*X92000D01*
X83500D02*X82000Y66000D01*
X88500Y65500D02*X93000Y61000D01*
X86500Y54500D02*Y62000D01*
X92000Y67500D02*X95500Y64000D01*
X58500Y66000D02*X50500Y58000D01*
X33500D01*
X59500Y64000D02*X51500Y56000D01*
X32000D01*
X33500Y58000D02*X31500Y60000D01*
X32000Y56000D02*X29000Y59000D01*
X31500Y60000D02*Y82000D01*
X28500Y85000D01*
X20500D01*
X29000Y59000D02*Y70000D01*
X28000Y71000D01*
X20500D01*
X34000Y58000D02*X33500D01*
G54D34*X46000Y65000D02*X53500Y72500D01*
X54500Y73500D02*X51000Y70000D01*
G54D32*G36*
X17173Y88945D02*Y80945D01*
X25173D01*
Y88945D01*
X17173D01*
G37*
G54D35*X21173Y71165D03*
Y57386D03*
X46000Y65000D03*
G54D32*G36*
X17173Y43445D02*Y35445D01*
X25173D01*
Y43445D01*
X17173D01*
G37*
G54D35*X21173Y25665D03*
Y11886D03*
X46000Y45000D03*
Y25000D03*
G54D32*G36*
X183673Y43445D02*Y35445D01*
X191673D01*
Y43445D01*
X183673D01*
G37*
G54D35*X187673Y25665D03*
Y11886D03*
G54D32*G36*
X183673Y88945D02*Y80945D01*
X191673D01*
Y88945D01*
X183673D01*
G37*
G36*
X42000Y89000D02*Y81000D01*
X50000D01*
Y89000D01*
X42000D01*
G37*
G54D35*X187673Y71165D03*
Y57386D03*
G54D32*G36*
X84500Y85500D02*Y77500D01*
X92500D01*
Y85500D01*
X84500D01*
G37*
G54D35*X68500Y81500D03*
G54D36*X108500Y4000D03*
X110500Y44000D03*
X112500Y48500D03*
X108000Y40000D03*
X106000Y32500D03*
X103500Y48500D03*
X156000Y6000D03*
X176500Y15500D03*
X181500D03*
X163500Y33500D03*
X134500Y16000D03*
Y11500D03*
X130000Y17500D03*
X148000Y16000D03*
X61500Y15000D03*
X71000Y24000D03*
X66000D03*
X62000Y26000D03*
X88000Y40500D03*
X62500Y48000D03*
X78000Y43000D03*
X75000Y47500D03*
X103500Y28000D03*
X98500Y31000D03*
X75000Y27500D03*
X102500Y73500D03*
X107500D03*
X86500Y62000D03*
X57500Y89000D03*
Y84000D03*
X155000Y47500D03*
X135500Y44000D03*
X141500Y53000D03*
X118000Y50500D03*
X142000Y72000D03*
Y65500D03*
X137500Y72000D03*
Y65500D03*
X123000Y62500D03*
G54D37*G54D38*G54D39*G54D38*G54D39*G54D38*G54D39*G54D38*G54D40*G54D41*M02*
