G04 start of page 7 for group -4063 idx -4063 *
G04 Title: (unknown), componentmask *
G04 Creator: pcb 20110918 *
G04 CreationDate: Sun 01 Jun 2014 04:29:41 PM GMT UTC *
G04 For: ndholmes *
G04 Format: Gerber/RS-274X *
G04 PCB-Dimensions: 210000 95000 *
G04 PCB-Coordinate-Origin: lower left *
%MOIN*%
%FSLAX25Y25*%
%LNTOPMASK*%
%ADD61R,0.0300X0.0300*%
%ADD60C,0.0370*%
%ADD59R,0.0520X0.0520*%
%ADD58R,0.0400X0.0400*%
%ADD57R,0.0690X0.0690*%
%ADD56R,0.1005X0.1005*%
%ADD55R,0.0420X0.0420*%
%ADD54R,0.0438X0.0438*%
%ADD53R,0.0151X0.0151*%
%ADD52R,0.0572X0.0572*%
%ADD51C,0.0490*%
%ADD50C,0.0880*%
%ADD49C,0.0860*%
%ADD48C,0.0001*%
G54D48*G36*
X16873Y89245D02*Y80645D01*
X25473D01*
Y89245D01*
X16873D01*
G37*
G54D49*X21173Y71165D03*
Y57386D03*
G54D50*X46000Y65000D03*
G54D48*G36*
X16873Y43745D02*Y35145D01*
X25473D01*
Y43745D01*
X16873D01*
G37*
G54D49*X21173Y25665D03*
Y11886D03*
G54D50*X46000Y45000D03*
Y25000D03*
G54D48*G36*
X183373Y43745D02*Y35145D01*
X191973D01*
Y43745D01*
X183373D01*
G37*
G54D49*X187673Y25665D03*
Y11886D03*
G54D48*G36*
X183373Y89245D02*Y80645D01*
X191973D01*
Y89245D01*
X183373D01*
G37*
G36*
X41600Y89400D02*Y80600D01*
X50400D01*
Y89400D01*
X41600D01*
G37*
G54D49*X187673Y71165D03*
Y57386D03*
G54D48*G36*
X84200Y85800D02*Y77200D01*
X92800D01*
Y85800D01*
X84200D01*
G37*
G54D49*X68500Y81500D03*
G54D51*X76000Y53000D03*
X96000Y57000D03*
Y49000D03*
G54D52*X161457Y25893D02*Y25107D01*
X168543Y25893D02*Y25107D01*
G54D53*X133720Y26610D02*X135374D01*
X133720Y28579D02*X135374D01*
X133720Y30547D02*X135374D01*
X131890Y24780D02*Y23126D01*
G54D52*X142107Y33957D02*X142893D01*
X142190Y27181D02*Y24819D01*
X142095Y17181D02*Y14819D01*
X141457Y7393D02*Y6607D01*
X161457Y17893D02*Y17107D01*
X168543Y17893D02*Y17107D01*
G54D53*X133720Y32516D02*X135374D01*
X133720Y34484D02*X135374D01*
X133720Y36453D02*X135374D01*
G54D52*X142107Y41043D02*X142893D01*
G54D53*X133720Y38421D02*X135374D01*
X133720Y40390D02*X135374D01*
X131890Y43874D02*Y42220D01*
G54D52*X128819Y57095D02*X131181D01*
X130543Y50393D02*Y49607D01*
X123457Y50393D02*Y49607D01*
G54D54*X168906Y58405D02*Y54311D01*
G54D55*X166900Y76600D02*X168100D01*
X166900Y89500D02*X168100D01*
G54D54*X163000Y58405D02*Y46595D01*
G54D56*Y44861D02*Y42971D01*
G54D48*G36*
X164885Y52850D02*X168149Y49586D01*
X166305Y47742D01*
X163041Y51006D01*
X164885Y52850D01*
G37*
G36*
X157851Y49586D02*X161115Y52850D01*
X162959Y51006D01*
X159695Y47742D01*
X157851Y49586D01*
G37*
G54D54*X157094Y58405D02*Y54311D01*
G54D57*X149000Y89992D02*Y83693D01*
Y70307D02*Y64008D01*
G54D52*X148607Y55043D02*X149393D01*
X148607Y47957D02*X149393D01*
X150607Y33957D02*X151393D01*
X154000Y27181D02*Y24819D01*
X153905Y17181D02*Y14819D01*
X150607Y41043D02*X151393D01*
X161414Y9393D02*Y8607D01*
X168500Y9393D02*Y8607D01*
X148543Y7393D02*Y6607D01*
X39095Y11681D02*Y9319D01*
X50905Y11681D02*Y9319D01*
G54D53*X129921Y43874D02*Y42220D01*
X127953Y43874D02*Y42220D01*
X125984Y43874D02*Y42220D01*
X124016Y43874D02*Y42220D01*
X122047Y43874D02*Y42220D01*
X120079Y43874D02*Y42220D01*
X118110Y43874D02*Y42220D01*
X114626Y40390D02*X116280D01*
X114626Y38421D02*X116280D01*
X114626Y36453D02*X116280D01*
X114626Y34484D02*X116280D01*
X114626Y32516D02*X116280D01*
X114626Y30547D02*X116280D01*
X114626Y28579D02*X116280D01*
X114626Y26610D02*X116280D01*
X118110Y24780D02*Y23126D01*
X120079Y24780D02*Y23126D01*
X122047Y24780D02*Y23126D01*
X124016Y24780D02*Y23126D01*
X125984Y24780D02*Y23126D01*
X127953Y24780D02*Y23126D01*
X129921Y24780D02*Y23126D01*
G54D48*G36*
X118597Y39902D02*Y27098D01*
X131402D01*
Y39902D01*
X118597D01*
G37*
G36*
Y27098D01*
X131402D01*
Y39902D01*
X118597D01*
G37*
G54D58*X119700Y4500D02*X120300D01*
X119700Y12300D02*X120300D01*
X111500Y8400D02*X112100D01*
G54D52*X128107Y12043D02*X128893D01*
X128107Y4957D02*X128893D01*
G54D59*X63000Y8650D02*Y3450D01*
X73000Y8650D02*Y3450D01*
X83000Y8650D02*Y3450D01*
X93000Y8650D02*Y3450D01*
X103000Y8650D02*Y3450D01*
G54D58*X68200Y50000D02*X68800D01*
X60000Y53900D02*X60600D01*
G54D59*X63000Y42550D02*Y37350D01*
X73000Y42550D02*Y37350D01*
G54D58*X68200Y57800D02*X68800D01*
G54D60*X81000Y50500D03*
Y55500D03*
X86000Y50500D03*
Y55500D03*
G54D52*X129607Y75414D02*X130393D01*
X129607Y82500D02*X130393D01*
X128819Y68905D02*X131181D01*
G54D61*X117500Y68000D02*Y61500D01*
Y88500D02*Y82000D01*
X112500Y88500D02*Y82000D01*
X107500Y88500D02*Y82000D01*
X102500Y88500D02*Y82000D01*
G54D59*X83000Y42550D02*Y37350D01*
X93000Y42550D02*Y37350D01*
X103000Y42550D02*Y37350D01*
G54D61*X102500Y68000D02*Y61500D01*
X107500Y68000D02*Y61500D01*
X112500Y68000D02*Y61500D01*
G54D52*X105457Y54893D02*Y54107D01*
X112543Y54893D02*Y54107D01*
G54D60*X91000Y50500D03*
Y55500D03*
M02*
