G04 start of page 9 for group -4079 idx -4079 *
G04 Title: (unknown), topsilk *
G04 Creator: pcb 20110918 *
G04 CreationDate: Sun 01 Jun 2014 04:29:41 PM GMT UTC *
G04 For: ndholmes *
G04 Format: Gerber/RS-274X *
G04 PCB-Dimensions: 210000 95000 *
G04 PCB-Coordinate-Origin: lower left *
%MOIN*%
%FSLAX25Y25*%
%LNTOPSILK*%
%ADD67C,0.0080*%
%ADD66C,0.0100*%
G54D66*X500Y94500D02*Y13500D01*
X179500Y94500D02*X500D01*
Y16500D02*Y500D01*
X209500D01*
Y94500D01*
X176500D01*
G54D67*X203575Y82500D02*X207575Y83500D01*
X203575Y84500D01*
X205575Y87700D02*Y85700D01*
X204575Y86700D02*X206575D01*
X203500Y69500D02*X204000Y70000D01*
X203500Y69500D02*Y68000D01*
X204000Y67500D02*X203500Y68000D01*
X204000Y67500D02*X207000D01*
X207500Y68000D01*
Y69500D02*Y68000D01*
Y69500D02*X207000Y70000D01*
X206000D02*X207000D01*
X205500Y69500D02*X206000Y70000D01*
X205500Y69500D02*Y68500D01*
X203500Y71200D02*X207500D01*
X203500D02*X207500Y73700D01*
X203500D02*X207500D01*
X203500Y75400D02*X207500D01*
X203500Y76700D02*X204200Y77400D01*
X206800D01*
X207500Y76700D02*X206800Y77400D01*
X207500Y76700D02*Y74900D01*
X203500Y76700D02*Y74900D01*
X1500Y60500D02*X5500D01*
X1500D02*Y58500D01*
X3700Y57300D02*Y55800D01*
X1500Y57300D02*Y55300D01*
Y57300D02*X5500D01*
Y55300D01*
X1500Y53600D02*X5500D01*
Y52300D02*X4800Y51600D01*
X2200D02*X4800D01*
X1500Y52300D02*X2200Y51600D01*
X1500Y54100D02*Y52300D01*
X5500Y54100D02*Y52300D01*
Y43000D02*X5000Y42500D01*
X5500Y44500D02*Y43000D01*
X5000Y45000D02*X5500Y44500D01*
X2000Y45000D02*X5000D01*
X2000D02*X1500Y44500D01*
Y43000D01*
X2000Y42500D01*
X3000D01*
X3500Y43000D02*X3000Y42500D01*
X3500Y44000D02*Y43000D01*
X1500Y41300D02*X5500D01*
X1500Y38800D01*
X5500D01*
X1500Y37100D02*X5500D01*
Y35800D02*X4800Y35100D01*
X2200D02*X4800D01*
X1500Y35800D02*X2200Y35100D01*
X1500Y37600D02*Y35800D01*
X5500Y37600D02*Y35800D01*
X1500Y75000D02*X5500D01*
X3500Y73500D01*
X5500Y72000D01*
X1500D02*X5500D01*
X1500Y70300D02*X5500D01*
Y69000D02*X4800Y68300D01*
X2200D02*X4800D01*
X1500Y69000D02*X2200Y68300D01*
X1500Y70800D02*Y69000D01*
X5500Y70800D02*Y69000D01*
Y67100D02*Y65100D01*
X5000Y64600D01*
X4000D02*X5000D01*
X3500Y65100D02*X4000Y64600D01*
X3500Y66600D02*Y65100D01*
X1500Y66600D02*X5500D01*
X3500Y65800D02*X1500Y64600D01*
Y89000D02*X5500D01*
X1500D02*Y87000D01*
Y85100D02*Y83800D01*
X2200Y85800D02*X1500Y85100D01*
X2200Y85800D02*X4800D01*
X5500Y85100D01*
Y83800D01*
X1500Y82600D02*X5500D01*
X3500D02*X5500Y80600D01*
X3500Y82600D02*X1500Y80600D01*
X5500Y28500D02*Y26500D01*
X1500Y27500D02*X5500D01*
Y25300D02*Y23300D01*
X5000Y22800D01*
X4000D02*X5000D01*
X3500Y23300D02*X4000Y22800D01*
X3500Y24800D02*Y23300D01*
X1500Y24800D02*X5500D01*
X3500Y24000D02*X1500Y22800D01*
Y21600D02*X5500D01*
X3500D02*X5500Y19600D01*
X3500Y21600D02*X1500Y19600D01*
X5500Y14600D02*X5000Y14100D01*
X5500Y16100D02*Y14600D01*
X5000Y16600D02*X5500Y16100D01*
X4000Y16600D02*X5000D01*
X4000D02*X3500Y16100D01*
Y14600D01*
X3000Y14100D01*
X2000D02*X3000D01*
X1500Y14600D02*X2000Y14100D01*
X1500Y16100D02*Y14600D01*
X2000Y16600D02*X1500Y16100D01*
Y12900D02*X5500D01*
X1500Y10400D02*X5500D01*
X3500Y12900D02*Y10400D01*
X1500Y9200D02*X5500D01*
X1500Y6700D01*
X5500D01*
Y5500D02*Y3500D01*
X1500Y4500D02*X5500D01*
X203318Y37795D02*X207318Y38795D01*
X203318Y39795D01*
X205318Y42995D02*Y40995D01*
X204318Y41995D02*X206318D01*
X207500Y51000D02*Y49700D01*
X206800Y49000D02*X207500Y49700D01*
X204200Y49000D02*X206800D01*
X204200D02*X203500Y49700D01*
Y51000D02*Y49700D01*
Y54200D02*Y52200D01*
Y53200D02*X207500D01*
X203500Y55400D02*X207500D01*
Y57400D02*Y55400D01*
X203500Y59600D02*Y58600D01*
Y59100D02*X207500D01*
Y59600D02*Y58600D01*
X203500Y60800D02*X207500D01*
X203500D02*X207500Y63300D01*
X203500D02*X207500D01*
X135500Y57000D02*X137500D01*
X136500Y58000D02*Y56000D01*
X207500Y4000D02*Y2700D01*
X206800Y2000D02*X207500Y2700D01*
X204200Y2000D02*X206800D01*
X204200D02*X203500Y2700D01*
Y4000D02*Y2700D01*
Y7200D02*Y5200D01*
Y6200D02*X207500D01*
X203500Y8400D02*X207500D01*
Y10400D02*Y8400D01*
X204000Y11600D02*X207000D01*
X204000D02*X203500Y12100D01*
Y13100D02*Y12100D01*
Y13100D02*X204000Y13600D01*
X207000D01*
X207500Y13100D02*X207000Y13600D01*
X207500Y13100D02*Y12100D01*
X207000Y11600D02*X207500Y12100D01*
X203500Y14800D02*X207000D01*
X207500Y15300D01*
Y16300D02*Y15300D01*
Y16300D02*X207000Y16800D01*
X203500D02*X207000D01*
X203500Y20000D02*Y18000D01*
Y19000D02*X207500D01*
X136000Y14000D02*X138000D01*
X137000Y15000D02*Y13000D01*
X203470Y24992D02*X203970Y25492D01*
X203470Y24992D02*Y23492D01*
X203970Y22992D02*X203470Y23492D01*
X203970Y22992D02*X206970D01*
X207470Y23492D01*
Y24992D02*Y23492D01*
Y24992D02*X206970Y25492D01*
X205970D02*X206970D01*
X205470Y24992D02*X205970Y25492D01*
X205470Y24992D02*Y23992D01*
X203470Y26692D02*X207470D01*
X203470D02*X207470Y29192D01*
X203470D02*X207470D01*
X203470Y30892D02*X207470D01*
X203470Y32192D02*X204170Y32892D01*
X206770D01*
X207470Y32192D02*X206770Y32892D01*
X207470Y32192D02*Y30392D01*
X203470Y32192D02*Y30392D01*
G54D66*X173500Y94000D02*Y48331D01*
X201059D01*
Y94000D01*
X173500D01*
X171500Y92900D02*Y73200D01*
X163500Y92900D02*Y73200D01*
X171500D01*
X163500Y92900D02*X171500D01*
X163500Y80000D02*X171500D01*
X136008Y64008D02*X142504D01*
X155496D02*X161992D01*
Y83496D02*Y64008D01*
X136008Y83496D02*Y64008D01*
X161992Y83496D02*X155496Y89992D01*
X136008Y83496D02*X142504Y89992D01*
X139000Y83000D02*X143000D01*
X141000Y85000D02*Y81000D01*
X42638Y14240D02*X47362D01*
X42638Y6760D02*X47362D01*
X7000Y94000D02*Y48331D01*
X34559D01*
Y94000D01*
X7000D01*
Y48500D02*Y2831D01*
X34559D01*
Y48500D01*
X7000D01*
X57500Y47500D02*X71400D01*
Y60300D02*Y47500D01*
X57500Y60300D02*X71400D01*
X57500D02*Y47500D01*
X36000Y93976D02*X51102D01*
X56000Y89079D02*Y16024D01*
X51102Y93976D02*X56000Y89079D01*
X36000Y16024D02*X56000D01*
X36000Y93976D02*Y16024D01*
X106000Y33000D02*Y13000D01*
X60000Y33000D02*X106000D01*
X60000Y13000D02*X106000D01*
X60000Y33000D02*Y13000D01*
Y33000D02*X62000Y23000D01*
X60000Y13000D02*X62000Y23000D01*
X58500Y94300D02*X98500D01*
X58500Y64300D02*X98500D01*
X58500Y68700D02*X98500D01*
Y94300D02*Y64300D01*
X58500Y94300D02*Y64300D01*
X172250Y54901D02*Y44271D01*
X153750Y54901D02*Y44271D01*
X169000D02*X172250D01*
X153750D02*X157000D01*
X172071Y54901D02*X172250D01*
X153750D02*X153929D01*
X151755Y51893D02*Y51107D01*
X146245Y51893D02*Y51107D01*
X173500Y48500D02*Y2831D01*
X201059D01*
Y48500D01*
X173500D01*
X164564Y11755D02*X165350D01*
X164564Y6245D02*X165350D01*
X164607Y20255D02*X165393D01*
X164607Y14745D02*X165393D01*
X113189Y21689D02*X136811D01*
X113189Y45311D02*Y21689D01*
Y45311D02*X136811D01*
Y21689D01*
X138811Y20189D02*G75*G03X138811Y20189I-500J0D01*G01*
X127245Y79350D02*Y78564D01*
X132755Y79350D02*Y78564D01*
X133740Y65362D02*Y60638D01*
X126260Y65362D02*Y60638D01*
X109000Y2000D02*X122900D01*
Y14800D02*Y2000D01*
X109000Y14800D02*X122900D01*
X109000D02*Y2000D01*
X126607Y47245D02*X127393D01*
X126607Y52755D02*X127393D01*
X164607Y28255D02*X165393D01*
X164607Y22745D02*X165393D01*
X148245Y37893D02*Y37107D01*
X153755Y37893D02*Y37107D01*
X139745Y37893D02*Y37107D01*
X145255Y37893D02*Y37107D01*
X145733Y22260D02*X150457D01*
X145733Y29740D02*X150457D01*
X145638Y12260D02*X150362D01*
X145638Y19740D02*X150362D01*
X131255Y8893D02*Y8107D01*
X125745Y8893D02*Y8107D01*
X144607Y4245D02*X145393D01*
X144607Y9755D02*X145393D01*
X108607Y57255D02*X109393D01*
X108607Y51745D02*X109393D01*
X100500Y59500D02*X119500D01*
Y90500D02*Y59500D01*
X100500Y90500D02*X119500D01*
X100500Y72500D02*Y59500D01*
Y90500D02*Y77500D01*
Y72500D02*G75*G03X100500Y77500I0J2500D01*G01*
G54D67*X42000Y5500D02*X44000D01*
X44500Y5000D01*
Y4000D01*
X44000Y3500D02*X44500Y4000D01*
X42500Y3500D02*X44000D01*
X42500Y5500D02*Y1500D01*
X43300Y3500D02*X44500Y1500D01*
X47200Y5500D02*X47700Y5000D01*
X46200Y5500D02*X47200D01*
X45700Y5000D02*X46200Y5500D01*
X45700Y5000D02*Y2000D01*
X46200Y1500D01*
X47200Y3700D02*X47700Y3200D01*
X45700Y3700D02*X47200D01*
X46200Y1500D02*X47200D01*
X47700Y2000D01*
Y3200D02*Y2000D01*
X54500Y14500D02*Y10500D01*
Y12500D02*X56500Y14500D01*
X54500Y12500D02*X56500Y10500D01*
X57700Y13700D02*X58500Y14500D01*
Y10500D01*
X57700D02*X59200D01*
X73500Y62500D02*Y59500D01*
Y62500D02*X74000Y63000D01*
X75000D01*
X75500Y62500D01*
Y60000D01*
X74500Y59000D02*X75500Y60000D01*
X74000Y59000D02*X74500D01*
X73500Y59500D02*X74000Y59000D01*
X74500Y60500D02*X75500Y59000D01*
X76700Y62500D02*X77200Y63000D01*
X78700D01*
X79200Y62500D01*
Y61500D01*
X76700Y59000D02*X79200Y61500D01*
X76700Y59000D02*X79200D01*
X118000Y58000D02*X120000D01*
X120500Y57500D01*
Y56500D01*
X120000Y56000D02*X120500Y56500D01*
X118500Y56000D02*X120000D01*
X118500Y58000D02*Y54000D01*
X119300Y56000D02*X120500Y54000D01*
X121700Y55500D02*X123700Y58000D01*
X121700Y55500D02*X124200D01*
X123700Y58000D02*Y54000D01*
X97500Y54750D02*X99000D01*
X99375Y54375D01*
Y53625D01*
X99000Y53250D02*X99375Y53625D01*
X97875Y53250D02*X99000D01*
X97875Y54750D02*Y51750D01*
X98475Y53250D02*X99375Y51750D01*
X100275Y54750D02*X101775D01*
X100275D02*Y53250D01*
X100650Y53625D01*
X101400D01*
X101775Y53250D01*
Y52125D01*
X101400Y51750D02*X101775Y52125D01*
X100650Y51750D02*X101400D01*
X100275Y52125D02*X100650Y51750D01*
X121500Y92000D02*Y88500D01*
X122000Y88000D01*
X123000D01*
X123500Y88500D01*
Y92000D02*Y88500D01*
X124700Y91500D02*X125200Y92000D01*
X126200D01*
X126700Y91500D01*
X126200Y88000D02*X126700Y88500D01*
X125200Y88000D02*X126200D01*
X124700Y88500D02*X125200Y88000D01*
Y90200D02*X126200D01*
X126700Y91500D02*Y90700D01*
Y89700D02*Y88500D01*
Y89700D02*X126200Y90200D01*
X126700Y90700D02*X126200Y90200D01*
X167500Y37750D02*X169000D01*
X169375Y37375D01*
Y36625D01*
X169000Y36250D02*X169375Y36625D01*
X167875Y36250D02*X169000D01*
X167875Y37750D02*Y34750D01*
X168475Y36250D02*X169375Y34750D01*
X170275Y35125D02*X170650Y34750D01*
X170275Y35725D02*Y35125D01*
Y35725D02*X170800Y36250D01*
X171250D01*
X171775Y35725D01*
Y35125D01*
X171400Y34750D02*X171775Y35125D01*
X170650Y34750D02*X171400D01*
X170275Y36775D02*X170800Y36250D01*
X170275Y37375D02*Y36775D01*
Y37375D02*X170650Y37750D01*
X171400D01*
X171775Y37375D01*
Y36775D01*
X171250Y36250D02*X171775Y36775D01*
X156200Y32000D02*X157500D01*
X155500Y32700D02*X156200Y32000D01*
X155500Y35300D02*Y32700D01*
Y35300D02*X156200Y36000D01*
X157500D01*
X158700D02*X160700D01*
X158700D02*Y34000D01*
X159200Y34500D01*
X160200D01*
X160700Y34000D01*
Y32500D01*
X160200Y32000D02*X160700Y32500D01*
X159200Y32000D02*X160200D01*
X158700Y32500D02*X159200Y32000D01*
X165560Y2000D02*X166600D01*
X165000Y2560D02*X165560Y2000D01*
X165000Y4640D02*Y2560D01*
Y4640D02*X165560Y5200D01*
X166600D01*
X167560Y4800D02*X167960Y5200D01*
X168760D01*
X169160Y4800D01*
X168760Y2000D02*X169160Y2400D01*
X167960Y2000D02*X168760D01*
X167560Y2400D02*X167960Y2000D01*
Y3760D02*X168760D01*
X169160Y4800D02*Y4160D01*
Y3360D02*Y2400D01*
Y3360D02*X168760Y3760D01*
X169160Y4160D02*X168760Y3760D01*
X146350Y27300D02*Y24500D01*
X147260Y27300D02*X147750Y26810D01*
Y24990D01*
X147260Y24500D02*X147750Y24990D01*
X146000Y24500D02*X147260D01*
X146000Y27300D02*X147260D01*
X148590Y25550D02*X149990Y27300D01*
X148590Y25550D02*X150340D01*
X149990Y27300D02*Y24500D01*
X153825Y10850D02*Y8250D01*
X154670Y10850D02*X155125Y10395D01*
Y8705D01*
X154670Y8250D02*X155125Y8705D01*
X153500Y8250D02*X154670D01*
X153500Y10850D02*X154670D01*
X155905Y10525D02*X156230Y10850D01*
X156880D01*
X157205Y10525D01*
X156880Y8250D02*X157205Y8575D01*
X156230Y8250D02*X156880D01*
X155905Y8575D02*X156230Y8250D01*
Y9680D02*X156880D01*
X157205Y10525D02*Y10005D01*
Y9355D02*Y8575D01*
Y9355D02*X156880Y9680D01*
X157205Y10005D02*X156880Y9680D01*
X133000Y8200D02*X134600D01*
X135000Y7800D01*
Y7000D01*
X134600Y6600D02*X135000Y7000D01*
X133400Y6600D02*X134600D01*
X133400Y8200D02*Y5000D01*
X134040Y6600D02*X135000Y5000D01*
X135960Y7800D02*X136360Y8200D01*
X137160D01*
X137560Y7800D01*
X137160Y5000D02*X137560Y5400D01*
X136360Y5000D02*X137160D01*
X135960Y5400D02*X136360Y5000D01*
Y6760D02*X137160D01*
X137560Y7800D02*Y7160D01*
Y6360D02*Y5400D01*
Y6360D02*X137160Y6760D01*
X137560Y7160D02*X137160Y6760D01*
X107500Y20500D02*Y17000D01*
X108000Y16500D01*
X109000D01*
X109500Y17000D01*
Y20500D02*Y17000D01*
X110700Y20000D02*X111200Y20500D01*
X112700D01*
X113200Y20000D01*
Y19000D01*
X110700Y16500D02*X113200Y19000D01*
X110700Y16500D02*X113200D01*
X115500Y19500D02*Y16500D01*
Y19500D02*X116000Y20000D01*
X117000D01*
X117500Y19500D01*
Y17000D01*
X116500Y16000D02*X117500Y17000D01*
X116000Y16000D02*X116500D01*
X115500Y16500D02*X116000Y16000D01*
X116500Y17500D02*X117500Y16000D01*
X118700Y19200D02*X119500Y20000D01*
Y16000D01*
X118700D02*X120200D01*
X121500Y20000D02*X123500D01*
X124000Y19500D01*
Y18500D01*
X123500Y18000D02*X124000Y18500D01*
X122000Y18000D02*X123500D01*
X122000Y20000D02*Y16000D01*
X122800Y18000D02*X124000Y16000D01*
X125200Y19500D02*X125700Y20000D01*
X127200D01*
X127700Y19500D01*
Y18500D01*
X125200Y16000D02*X127700Y18500D01*
X125200Y16000D02*X127700D01*
X85500Y20500D02*X86000Y20000D01*
X84000Y20500D02*X85500D01*
X83500Y20000D02*X84000Y20500D01*
X83500Y20000D02*Y19000D01*
X84000Y18500D01*
X85500D01*
X86000Y18000D01*
Y17000D01*
X85500Y16500D02*X86000Y17000D01*
X84000Y16500D02*X85500D01*
X83500Y17000D02*X84000Y16500D01*
X87200Y20500D02*Y18500D01*
X87700Y16500D01*
X88700Y18500D01*
X89700Y16500D01*
X90200Y18500D01*
Y20500D02*Y18500D01*
X91400Y19700D02*X92200Y20500D01*
Y16500D01*
X91400D02*X92900D01*
X167500Y33300D02*X168900D01*
X169250Y32950D01*
Y32250D01*
X168900Y31900D02*X169250Y32250D01*
X167850Y31900D02*X168900D01*
X167850Y33300D02*Y30500D01*
X168410Y31900D02*X169250Y30500D01*
X170440D02*X171840Y33300D01*
X170090D02*X171840D01*
X165000Y66500D02*Y63000D01*
X165500Y62500D01*
X166500D01*
X167000Y63000D01*
Y66500D02*Y63000D01*
X168200Y65700D02*X169000Y66500D01*
Y62500D01*
X168200D02*X169700D01*
X120500Y81500D02*X122500D01*
X123000Y81000D01*
Y80000D01*
X122500Y79500D02*X123000Y80000D01*
X121000Y79500D02*X122500D01*
X121000Y81500D02*Y77500D01*
X121800Y79500D02*X123000Y77500D01*
X124200Y80700D02*X125000Y81500D01*
Y77500D01*
X124200D02*X125700D01*
X157500Y93000D02*Y89000D01*
X158800Y93000D02*X159500Y92300D01*
Y89700D01*
X158800Y89000D02*X159500Y89700D01*
X157000Y89000D02*X158800D01*
X157000Y93000D02*X158800D01*
X160700Y92200D02*X161500Y93000D01*
Y89000D01*
X160700D02*X162200D01*
X133200Y88000D02*X134500D01*
X132500Y88700D02*X133200Y88000D01*
X132500Y91300D02*Y88700D01*
Y91300D02*X133200Y92000D01*
X134500D01*
X135700Y91500D02*X136200Y92000D01*
X137700D01*
X138200Y91500D01*
Y90500D01*
X135700Y88000D02*X138200Y90500D01*
X135700Y88000D02*X138200D01*
X140700Y56500D02*X142000D01*
X140000Y57200D02*X140700Y56500D01*
X140000Y59800D02*Y57200D01*
Y59800D02*X140700Y60500D01*
X142000D01*
X143200Y59700D02*X144000Y60500D01*
Y56500D01*
X143200D02*X144700D01*
X120425Y69650D02*Y66250D01*
X121530Y69650D02*X122125Y69055D01*
Y66845D01*
X121530Y66250D02*X122125Y66845D01*
X120000Y66250D02*X121530D01*
X120000Y69650D02*X121530D01*
X123145Y69225D02*X123570Y69650D01*
X124845D01*
X125270Y69225D01*
Y68375D01*
X123145Y66250D02*X125270Y68375D01*
X123145Y66250D02*X125270D01*
X139200Y45000D02*X140500D01*
X138500Y45700D02*X139200Y45000D01*
X138500Y48300D02*Y45700D01*
Y48300D02*X139200Y49000D01*
X140500D01*
X141700Y46500D02*X143700Y49000D01*
X141700Y46500D02*X144200D01*
X143700Y49000D02*Y45000D01*
M02*
