G04 start of page 13 for group -3984 idx -3984 *
G04 Title: (unknown), fab *
G04 Creator: pcb 20110918 *
G04 CreationDate: Sun 01 Jun 2014 04:29:41 PM GMT UTC *
G04 For: ndholmes *
G04 Format: Gerber/RS-274X *
G04 PCB-Dimensions: 210000 95000 *
G04 PCB-Coordinate-Origin: lower left *
%MOIN*%
%FSLAX25Y25*%
%LNFAB*%
%ADD83C,0.0100*%
%ADD82C,0.0075*%
%ADD81C,0.0060*%
%ADD80R,0.0080X0.0080*%
G54D80*X86900Y83100D02*X90100D01*
X86900D02*Y79900D01*
X90100D01*
Y83100D02*Y79900D01*
X66900Y83100D02*X70100D01*
X66900D02*Y79900D01*
X70100D01*
Y83100D02*Y79900D01*
X13400Y107850D02*X16600D01*
X13400D02*Y104650D01*
X16600D01*
Y107850D02*Y104650D01*
G54D81*X135000Y108500D02*X136500Y105500D01*
X138000Y108500D01*
X136500Y105500D02*Y102500D01*
X139800Y105800D02*X142050D01*
X139800Y102500D02*X142800D01*
X139800Y108500D02*Y102500D01*
Y108500D02*X142800D01*
X147600D02*X148350Y107750D01*
X145350Y108500D02*X147600D01*
X144600Y107750D02*X145350Y108500D01*
X144600Y107750D02*Y106250D01*
X145350Y105500D01*
X147600D01*
X148350Y104750D01*
Y103250D01*
X147600Y102500D02*X148350Y103250D01*
X145350Y102500D02*X147600D01*
X144600Y103250D02*X145350Y102500D01*
X98000Y107750D02*X98750Y108500D01*
X101000D01*
X101750Y107750D01*
Y106250D01*
X98000Y102500D02*X101750Y106250D01*
X98000Y102500D02*X101750D01*
X45000Y103250D02*X45750Y102500D01*
X45000Y107750D02*Y103250D01*
Y107750D02*X45750Y108500D01*
X47250D01*
X48000Y107750D01*
Y103250D01*
X47250Y102500D02*X48000Y103250D01*
X45750Y102500D02*X47250D01*
X45000Y104000D02*X48000Y107000D01*
X49800Y102500D02*X50550D01*
X52350Y103250D02*X53100Y102500D01*
X52350Y107750D02*Y103250D01*
Y107750D02*X53100Y108500D01*
X54600D01*
X55350Y107750D01*
Y103250D01*
X54600Y102500D02*X55350Y103250D01*
X53100Y102500D02*X54600D01*
X52350Y104000D02*X55350Y107000D01*
X57150Y104750D02*X60150Y108500D01*
X57150Y104750D02*X60900D01*
X60150Y108500D02*Y102500D01*
X62700Y103250D02*X63450Y102500D01*
X62700Y104450D02*Y103250D01*
Y104450D02*X63750Y105500D01*
X64650D01*
X65700Y104450D01*
Y103250D01*
X64950Y102500D02*X65700Y103250D01*
X63450Y102500D02*X64950D01*
X62700Y106550D02*X63750Y105500D01*
X62700Y107750D02*Y106550D01*
Y107750D02*X63450Y108500D01*
X64950D01*
X65700Y107750D01*
Y106550D01*
X64650Y105500D02*X65700Y106550D01*
X20373Y84945D02*G75*G03X21973Y84945I800J0D01*G01*
G75*G03X20373Y84945I-800J0D01*G01*
Y71165D02*G75*G03X21973Y71165I800J0D01*G01*
G75*G03X20373Y71165I-800J0D01*G01*
Y57386D02*G75*G03X21973Y57386I800J0D01*G01*
G75*G03X20373Y57386I-800J0D01*G01*
Y39445D02*G75*G03X21973Y39445I800J0D01*G01*
G75*G03X20373Y39445I-800J0D01*G01*
Y25665D02*G75*G03X21973Y25665I800J0D01*G01*
G75*G03X20373Y25665I-800J0D01*G01*
Y11886D02*G75*G03X21973Y11886I800J0D01*G01*
G75*G03X20373Y11886I-800J0D01*G01*
X186873Y39445D02*G75*G03X188473Y39445I800J0D01*G01*
G75*G03X186873Y39445I-800J0D01*G01*
Y25665D02*G75*G03X188473Y25665I800J0D01*G01*
G75*G03X186873Y25665I-800J0D01*G01*
Y11886D02*G75*G03X188473Y11886I800J0D01*G01*
G75*G03X186873Y11886I-800J0D01*G01*
Y84945D02*G75*G03X188473Y84945I800J0D01*G01*
G75*G03X186873Y84945I-800J0D01*G01*
Y71165D02*G75*G03X188473Y71165I800J0D01*G01*
G75*G03X186873Y71165I-800J0D01*G01*
Y57386D02*G75*G03X188473Y57386I800J0D01*G01*
G75*G03X186873Y57386I-800J0D01*G01*
X14200Y121250D02*G75*G03X15800Y121250I800J0D01*G01*
G75*G03X14200Y121250I-800J0D01*G01*
X135000Y123500D02*X136500Y120500D01*
X138000Y123500D01*
X136500Y120500D02*Y117500D01*
X139800Y120800D02*X142050D01*
X139800Y117500D02*X142800D01*
X139800Y123500D02*Y117500D01*
Y123500D02*X142800D01*
X147600D02*X148350Y122750D01*
X145350Y123500D02*X147600D01*
X144600Y122750D02*X145350Y123500D01*
X144600Y122750D02*Y121250D01*
X145350Y120500D01*
X147600D01*
X148350Y119750D01*
Y118250D01*
X147600Y117500D02*X148350Y118250D01*
X145350Y117500D02*X147600D01*
X144600Y118250D02*X145350Y117500D01*
X98000Y122300D02*X99200Y123500D01*
Y117500D01*
X98000D02*X100250D01*
X102050Y122750D02*X102800Y123500D01*
X105050D01*
X105800Y122750D01*
Y121250D01*
X102050Y117500D02*X105800Y121250D01*
X102050Y117500D02*X105800D01*
X45000Y118250D02*X45750Y117500D01*
X45000Y122750D02*Y118250D01*
Y122750D02*X45750Y123500D01*
X47250D01*
X48000Y122750D01*
Y118250D01*
X47250Y117500D02*X48000Y118250D01*
X45750Y117500D02*X47250D01*
X45000Y119000D02*X48000Y122000D01*
X49800Y117500D02*X50550D01*
X52350Y118250D02*X53100Y117500D01*
X52350Y122750D02*Y118250D01*
Y122750D02*X53100Y123500D01*
X54600D01*
X55350Y122750D01*
Y118250D01*
X54600Y117500D02*X55350Y118250D01*
X53100Y117500D02*X54600D01*
X52350Y119000D02*X55350Y122000D01*
X57150Y119750D02*X60150Y123500D01*
X57150Y119750D02*X60900D01*
X60150Y123500D02*Y117500D01*
X63450D02*X66450Y123500D01*
X62700D02*X66450D01*
X74800Y54200D02*X77200Y51800D01*
X74800D02*X77200Y54200D01*
X94800Y58200D02*X97200Y55800D01*
X94800D02*X97200Y58200D01*
X94800Y50200D02*X97200Y47800D01*
X94800D02*X97200Y50200D01*
X13800Y137450D02*X16200Y135050D01*
X13800D02*X16200Y137450D01*
X140000Y138500D02*Y132500D01*
Y138500D02*X143750Y132500D01*
Y138500D02*Y132500D01*
X145550Y137750D02*Y133250D01*
Y137750D02*X146300Y138500D01*
X147800D01*
X148550Y137750D01*
Y133250D01*
X147800Y132500D02*X148550Y133250D01*
X146300Y132500D02*X147800D01*
X145550Y133250D02*X146300Y132500D01*
X98000Y137750D02*X98750Y138500D01*
X100250D01*
X101000Y137750D01*
X100250Y132500D02*X101000Y133250D01*
X98750Y132500D02*X100250D01*
X98000Y133250D02*X98750Y132500D01*
Y135800D02*X100250D01*
X101000Y137750D02*Y136550D01*
Y135050D02*Y133250D01*
Y135050D02*X100250Y135800D01*
X101000Y136550D02*X100250Y135800D01*
X45000Y133250D02*X45750Y132500D01*
X45000Y137750D02*Y133250D01*
Y137750D02*X45750Y138500D01*
X47250D01*
X48000Y137750D01*
Y133250D01*
X47250Y132500D02*X48000Y133250D01*
X45750Y132500D02*X47250D01*
X45000Y134000D02*X48000Y137000D01*
X49800Y132500D02*X50550D01*
X52350Y133250D02*X53100Y132500D01*
X52350Y137750D02*Y133250D01*
Y137750D02*X53100Y138500D01*
X54600D01*
X55350Y137750D01*
Y133250D01*
X54600Y132500D02*X55350Y133250D01*
X53100Y132500D02*X54600D01*
X52350Y134000D02*X55350Y137000D01*
X57150Y137750D02*X57900Y138500D01*
X59400D01*
X60150Y137750D01*
X59400Y132500D02*X60150Y133250D01*
X57900Y132500D02*X59400D01*
X57150Y133250D02*X57900Y132500D01*
Y135800D02*X59400D01*
X60150Y137750D02*Y136550D01*
Y135050D02*Y133250D01*
Y135050D02*X59400Y135800D01*
X60150Y136550D02*X59400Y135800D01*
X62700Y132500D02*X64950Y135500D01*
Y137750D02*Y135500D01*
X64200Y138500D02*X64950Y137750D01*
X62700Y138500D02*X64200D01*
X61950Y137750D02*X62700Y138500D01*
X61950Y137750D02*Y136250D01*
X62700Y135500D01*
X64950D01*
X46000Y86600D02*Y83400D01*
X44400Y85000D02*X47600D01*
X46000Y66600D02*Y63400D01*
X44400Y65000D02*X47600D01*
X46000Y46600D02*Y43400D01*
X44400Y45000D02*X47600D01*
X46000Y26600D02*Y23400D01*
X44400Y25000D02*X47600D01*
X15000Y152850D02*Y149650D01*
X13400Y151250D02*X16600D01*
X135000Y153500D02*X136500Y150500D01*
X138000Y153500D01*
X136500Y150500D02*Y147500D01*
X139800Y150800D02*X142050D01*
X139800Y147500D02*X142800D01*
X139800Y153500D02*Y147500D01*
Y153500D02*X142800D01*
X147600D02*X148350Y152750D01*
X145350Y153500D02*X147600D01*
X144600Y152750D02*X145350Y153500D01*
X144600Y152750D02*Y151250D01*
X145350Y150500D01*
X147600D01*
X148350Y149750D01*
Y148250D01*
X147600Y147500D02*X148350Y148250D01*
X145350Y147500D02*X147600D01*
X144600Y148250D02*X145350Y147500D01*
X98000Y149750D02*X101000Y153500D01*
X98000Y149750D02*X101750D01*
X101000Y153500D02*Y147500D01*
X45000Y148250D02*X45750Y147500D01*
X45000Y152750D02*Y148250D01*
Y152750D02*X45750Y153500D01*
X47250D01*
X48000Y152750D01*
Y148250D01*
X47250Y147500D02*X48000Y148250D01*
X45750Y147500D02*X47250D01*
X45000Y149000D02*X48000Y152000D01*
X49800Y147500D02*X50550D01*
X52350Y148250D02*X53100Y147500D01*
X52350Y152750D02*Y148250D01*
Y152750D02*X53100Y153500D01*
X54600D01*
X55350Y152750D01*
Y148250D01*
X54600Y147500D02*X55350Y148250D01*
X53100Y147500D02*X54600D01*
X52350Y149000D02*X55350Y152000D01*
X57150Y152750D02*X57900Y153500D01*
X60150D01*
X60900Y152750D01*
Y151250D01*
X57150Y147500D02*X60900Y151250D01*
X57150Y147500D02*X60900D01*
X63450D02*X66450Y153500D01*
X62700D02*X66450D01*
X155000Y47500D02*Y45900D01*
Y47500D02*X156387Y48300D01*
X155000Y47500D02*X153613Y48300D01*
X142000Y72000D02*Y70400D01*
Y72000D02*X143387Y72800D01*
X142000Y72000D02*X140613Y72800D01*
X142000Y65500D02*Y63900D01*
Y65500D02*X143387Y66300D01*
X142000Y65500D02*X140613Y66300D01*
X137500Y72000D02*Y70400D01*
Y72000D02*X138887Y72800D01*
X137500Y72000D02*X136113Y72800D01*
X137500Y65500D02*Y63900D01*
Y65500D02*X138887Y66300D01*
X137500Y65500D02*X136113Y66300D01*
X102500Y73500D02*Y71900D01*
Y73500D02*X103887Y74300D01*
X102500Y73500D02*X101113Y74300D01*
X107500Y73500D02*Y71900D01*
Y73500D02*X108887Y74300D01*
X107500Y73500D02*X106113Y74300D01*
X108500Y4000D02*Y2400D01*
Y4000D02*X109887Y4800D01*
X108500Y4000D02*X107113Y4800D01*
X156000Y6000D02*Y4400D01*
Y6000D02*X157387Y6800D01*
X156000Y6000D02*X154613Y6800D01*
X134500Y16000D02*Y14400D01*
Y16000D02*X135887Y16800D01*
X134500Y16000D02*X133113Y16800D01*
X130000Y17500D02*Y15900D01*
Y17500D02*X131387Y18300D01*
X130000Y17500D02*X128613Y18300D01*
X134500Y11500D02*Y9900D01*
Y11500D02*X135887Y12300D01*
X134500Y11500D02*X133113Y12300D01*
X176500Y15500D02*Y13900D01*
Y15500D02*X177887Y16300D01*
X176500Y15500D02*X175113Y16300D01*
X181500Y15500D02*Y13900D01*
Y15500D02*X182887Y16300D01*
X181500Y15500D02*X180113Y16300D01*
X135500Y44000D02*Y42400D01*
Y44000D02*X136887Y44800D01*
X135500Y44000D02*X134113Y44800D01*
X148000Y16000D02*Y14400D01*
Y16000D02*X149387Y16800D01*
X148000Y16000D02*X146613Y16800D01*
X110500Y44000D02*Y42400D01*
Y44000D02*X111887Y44800D01*
X110500Y44000D02*X109113Y44800D01*
X112500Y48500D02*Y46900D01*
Y48500D02*X113887Y49300D01*
X112500Y48500D02*X111113Y49300D01*
X61500Y15000D02*Y13400D01*
Y15000D02*X62887Y15800D01*
X61500Y15000D02*X60113Y15800D01*
X71000Y24000D02*Y22400D01*
Y24000D02*X72387Y24800D01*
X71000Y24000D02*X69613Y24800D01*
X108000Y40000D02*Y38400D01*
Y40000D02*X109387Y40800D01*
X108000Y40000D02*X106613Y40800D01*
X106000Y32500D02*Y30900D01*
Y32500D02*X107387Y33300D01*
X106000Y32500D02*X104613Y33300D01*
X88000Y40500D02*Y38900D01*
Y40500D02*X89387Y41300D01*
X88000Y40500D02*X86613Y41300D01*
X66000Y24000D02*Y22400D01*
Y24000D02*X67387Y24800D01*
X66000Y24000D02*X64613Y24800D01*
X62500Y48000D02*Y46400D01*
Y48000D02*X63887Y48800D01*
X62500Y48000D02*X61113Y48800D01*
X103500Y28000D02*Y26400D01*
Y28000D02*X104887Y28800D01*
X103500Y28000D02*X102113Y28800D01*
X86500Y62000D02*Y60400D01*
Y62000D02*X87887Y62800D01*
X86500Y62000D02*X85113Y62800D01*
X118000Y50500D02*Y48900D01*
Y50500D02*X119387Y51300D01*
X118000Y50500D02*X116613Y51300D01*
X78000Y43000D02*Y41400D01*
Y43000D02*X79387Y43800D01*
X78000Y43000D02*X76613Y43800D01*
X98500Y31000D02*Y29400D01*
Y31000D02*X99887Y31800D01*
X98500Y31000D02*X97113Y31800D01*
X75000Y27500D02*Y25900D01*
Y27500D02*X76387Y28300D01*
X75000Y27500D02*X73613Y28300D01*
X57500Y89000D02*Y87400D01*
Y89000D02*X58887Y89800D01*
X57500Y89000D02*X56113Y89800D01*
X57500Y84000D02*Y82400D01*
Y84000D02*X58887Y84800D01*
X57500Y84000D02*X56113Y84800D01*
X141500Y53000D02*Y51400D01*
Y53000D02*X142887Y53800D01*
X141500Y53000D02*X140113Y53800D01*
X163500Y33500D02*Y31900D01*
Y33500D02*X164887Y34300D01*
X163500Y33500D02*X162113Y34300D01*
X123000Y62500D02*Y60900D01*
Y62500D02*X124387Y63300D01*
X123000Y62500D02*X121613Y63300D01*
X62000Y26000D02*Y24400D01*
Y26000D02*X63387Y26800D01*
X62000Y26000D02*X60613Y26800D01*
X75000Y47500D02*Y45900D01*
Y47500D02*X76387Y48300D01*
X75000Y47500D02*X73613Y48300D01*
X103500Y48500D02*Y46900D01*
Y48500D02*X104887Y49300D01*
X103500Y48500D02*X102113Y49300D01*
X15000Y166250D02*Y164650D01*
Y166250D02*X16387Y167050D01*
X15000Y166250D02*X13613Y167050D01*
X135000Y168500D02*X136500Y165500D01*
X138000Y168500D01*
X136500Y165500D02*Y162500D01*
X139800Y165800D02*X142050D01*
X139800Y162500D02*X142800D01*
X139800Y168500D02*Y162500D01*
Y168500D02*X142800D01*
X147600D02*X148350Y167750D01*
X145350Y168500D02*X147600D01*
X144600Y167750D02*X145350Y168500D01*
X144600Y167750D02*Y166250D01*
X145350Y165500D01*
X147600D01*
X148350Y164750D01*
Y163250D01*
X147600Y162500D02*X148350Y163250D01*
X145350Y162500D02*X147600D01*
X144600Y163250D02*X145350Y162500D01*
X98000Y167750D02*X98750Y168500D01*
X100250D01*
X101000Y167750D01*
X100250Y162500D02*X101000Y163250D01*
X98750Y162500D02*X100250D01*
X98000Y163250D02*X98750Y162500D01*
Y165800D02*X100250D01*
X101000Y167750D02*Y166550D01*
Y165050D02*Y163250D01*
Y165050D02*X100250Y165800D01*
X101000Y166550D02*X100250Y165800D01*
X103550Y162500D02*X105800Y165500D01*
Y167750D02*Y165500D01*
X105050Y168500D02*X105800Y167750D01*
X103550Y168500D02*X105050D01*
X102800Y167750D02*X103550Y168500D01*
X102800Y167750D02*Y166250D01*
X103550Y165500D01*
X105800D01*
X45000Y163250D02*X45750Y162500D01*
X45000Y167750D02*Y163250D01*
Y167750D02*X45750Y168500D01*
X47250D01*
X48000Y167750D01*
Y163250D01*
X47250Y162500D02*X48000Y163250D01*
X45750Y162500D02*X47250D01*
X45000Y164000D02*X48000Y167000D01*
X49800Y162500D02*X50550D01*
X52350Y163250D02*X53100Y162500D01*
X52350Y167750D02*Y163250D01*
Y167750D02*X53100Y168500D01*
X54600D01*
X55350Y167750D01*
Y163250D01*
X54600Y162500D02*X55350Y163250D01*
X53100Y162500D02*X54600D01*
X52350Y164000D02*X55350Y167000D01*
X57150Y167750D02*X57900Y168500D01*
X60150D01*
X60900Y167750D01*
Y166250D01*
X57150Y162500D02*X60900Y166250D01*
X57150Y162500D02*X60900D01*
X62700Y163250D02*X63450Y162500D01*
X62700Y167750D02*Y163250D01*
Y167750D02*X63450Y168500D01*
X64950D01*
X65700Y167750D01*
Y163250D01*
X64950Y162500D02*X65700Y163250D01*
X63450Y162500D02*X64950D01*
X62700Y164000D02*X65700Y167000D01*
X3000Y183500D02*X3750Y182750D01*
X750Y183500D02*X3000D01*
X0Y182750D02*X750Y183500D01*
X0Y182750D02*Y181250D01*
X750Y180500D01*
X3000D01*
X3750Y179750D01*
Y178250D01*
X3000Y177500D02*X3750Y178250D01*
X750Y177500D02*X3000D01*
X0Y178250D02*X750Y177500D01*
X5550Y180500D02*Y178250D01*
X6300Y177500D01*
X8550Y180500D02*Y176000D01*
X7800Y175250D02*X8550Y176000D01*
X6300Y175250D02*X7800D01*
X5550Y176000D02*X6300Y175250D01*
Y177500D02*X7800D01*
X8550Y178250D01*
X11100Y179750D02*Y177500D01*
Y179750D02*X11850Y180500D01*
X12600D01*
X13350Y179750D01*
Y177500D01*
Y179750D02*X14100Y180500D01*
X14850D01*
X15600Y179750D01*
Y177500D01*
X10350Y180500D02*X11100Y179750D01*
X17400Y183500D02*Y177500D01*
Y178250D02*X18150Y177500D01*
X19650D01*
X20400Y178250D01*
Y179750D02*Y178250D01*
X19650Y180500D02*X20400Y179750D01*
X18150Y180500D02*X19650D01*
X17400Y179750D02*X18150Y180500D01*
X22200Y179750D02*Y178250D01*
Y179750D02*X22950Y180500D01*
X24450D01*
X25200Y179750D01*
Y178250D01*
X24450Y177500D02*X25200Y178250D01*
X22950Y177500D02*X24450D01*
X22200Y178250D02*X22950Y177500D01*
X27000Y183500D02*Y178250D01*
X27750Y177500D01*
X0Y174250D02*X29250D01*
X41750Y183500D02*Y177500D01*
X43700Y183500D02*X44750Y182450D01*
Y178550D01*
X43700Y177500D02*X44750Y178550D01*
X41000Y177500D02*X43700D01*
X41000Y183500D02*X43700D01*
G54D82*X46550Y182000D02*Y181850D01*
G54D81*Y179750D02*Y177500D01*
X50300Y180500D02*X51050Y179750D01*
X48800Y180500D02*X50300D01*
X48050Y179750D02*X48800Y180500D01*
X48050Y179750D02*Y178250D01*
X48800Y177500D01*
X51050Y180500D02*Y178250D01*
X51800Y177500D01*
X48800D02*X50300D01*
X51050Y178250D01*
X54350Y179750D02*Y177500D01*
Y179750D02*X55100Y180500D01*
X55850D01*
X56600Y179750D01*
Y177500D01*
Y179750D02*X57350Y180500D01*
X58100D01*
X58850Y179750D01*
Y177500D01*
X53600Y180500D02*X54350Y179750D01*
X60650Y177500D02*X61400D01*
X65900Y178250D02*X66650Y177500D01*
X65900Y182750D02*X66650Y183500D01*
X65900Y182750D02*Y178250D01*
X68450Y183500D02*X69950D01*
X69200D02*Y177500D01*
X68450D02*X69950D01*
X72500Y179750D02*Y177500D01*
Y179750D02*X73250Y180500D01*
X74000D01*
X74750Y179750D01*
Y177500D01*
X71750Y180500D02*X72500Y179750D01*
X77300Y180500D02*X79550D01*
X76550Y179750D02*X77300Y180500D01*
X76550Y179750D02*Y178250D01*
X77300Y177500D01*
X79550D01*
X81350Y183500D02*Y177500D01*
Y179750D02*X82100Y180500D01*
X83600D01*
X84350Y179750D01*
Y177500D01*
X86150Y183500D02*X86900Y182750D01*
Y178250D01*
X86150Y177500D02*X86900Y178250D01*
X41000Y174250D02*X88700D01*
X96050Y177500D02*X98000D01*
X95000Y178550D02*X96050Y177500D01*
X95000Y182450D02*Y178550D01*
Y182450D02*X96050Y183500D01*
X98000D01*
X99800Y179750D02*Y178250D01*
Y179750D02*X100550Y180500D01*
X102050D01*
X102800Y179750D01*
Y178250D01*
X102050Y177500D02*X102800Y178250D01*
X100550Y177500D02*X102050D01*
X99800Y178250D02*X100550Y177500D01*
X104600Y180500D02*Y178250D01*
X105350Y177500D01*
X106850D01*
X107600Y178250D01*
Y180500D02*Y178250D01*
X110150Y179750D02*Y177500D01*
Y179750D02*X110900Y180500D01*
X111650D01*
X112400Y179750D01*
Y177500D01*
X109400Y180500D02*X110150Y179750D01*
X114950Y183500D02*Y178250D01*
X115700Y177500D01*
X114200Y181250D02*X115700D01*
X95000Y174250D02*X117200D01*
X130750Y183500D02*Y177500D01*
X130000Y183500D02*X133000D01*
X133750Y182750D01*
Y181250D01*
X133000Y180500D02*X133750Y181250D01*
X130750Y180500D02*X133000D01*
X135550Y183500D02*Y178250D01*
X136300Y177500D01*
X140050Y180500D02*X140800Y179750D01*
X138550Y180500D02*X140050D01*
X137800Y179750D02*X138550Y180500D01*
X137800Y179750D02*Y178250D01*
X138550Y177500D01*
X140800Y180500D02*Y178250D01*
X141550Y177500D01*
X138550D02*X140050D01*
X140800Y178250D01*
X144100Y183500D02*Y178250D01*
X144850Y177500D01*
X143350Y181250D02*X144850D01*
X147100Y177500D02*X149350D01*
X146350Y178250D02*X147100Y177500D01*
X146350Y179750D02*Y178250D01*
Y179750D02*X147100Y180500D01*
X148600D01*
X149350Y179750D01*
X146350Y179000D02*X149350D01*
Y179750D02*Y179000D01*
X154150Y183500D02*Y177500D01*
X153400D02*X154150Y178250D01*
X151900Y177500D02*X153400D01*
X151150Y178250D02*X151900Y177500D01*
X151150Y179750D02*Y178250D01*
Y179750D02*X151900Y180500D01*
X153400D01*
X154150Y179750D01*
X157450Y180500D02*Y179750D01*
Y178250D02*Y177500D01*
X155950Y182750D02*Y182000D01*
Y182750D02*X156700Y183500D01*
X158200D01*
X158950Y182750D01*
Y182000D01*
X157450Y180500D02*X158950Y182000D01*
X130000Y174250D02*X160750D01*
X0Y198500D02*X3000D01*
X1500D02*Y192500D01*
X4800Y198500D02*Y192500D01*
Y194750D02*X5550Y195500D01*
X7050D01*
X7800Y194750D01*
Y192500D01*
X10350D02*X12600D01*
X9600Y193250D02*X10350Y192500D01*
X9600Y194750D02*Y193250D01*
Y194750D02*X10350Y195500D01*
X11850D01*
X12600Y194750D01*
X9600Y194000D02*X12600D01*
Y194750D02*Y194000D01*
X15150Y194750D02*Y192500D01*
Y194750D02*X15900Y195500D01*
X17400D01*
X14400D02*X15150Y194750D01*
X19950Y192500D02*X22200D01*
X19200Y193250D02*X19950Y192500D01*
X19200Y194750D02*Y193250D01*
Y194750D02*X19950Y195500D01*
X21450D01*
X22200Y194750D01*
X19200Y194000D02*X22200D01*
Y194750D02*Y194000D01*
X28950Y195500D02*X29700Y194750D01*
X27450Y195500D02*X28950D01*
X26700Y194750D02*X27450Y195500D01*
X26700Y194750D02*Y193250D01*
X27450Y192500D01*
X29700Y195500D02*Y193250D01*
X30450Y192500D01*
X27450D02*X28950D01*
X29700Y193250D01*
X33000Y194750D02*Y192500D01*
Y194750D02*X33750Y195500D01*
X35250D01*
X32250D02*X33000Y194750D01*
X37800Y192500D02*X40050D01*
X37050Y193250D02*X37800Y192500D01*
X37050Y194750D02*Y193250D01*
Y194750D02*X37800Y195500D01*
X39300D01*
X40050Y194750D01*
X37050Y194000D02*X40050D01*
Y194750D02*Y194000D01*
X44550Y198500D02*X47550D01*
X44550D02*Y195500D01*
X45300Y196250D01*
X46800D01*
X47550Y195500D01*
Y193250D01*
X46800Y192500D02*X47550Y193250D01*
X45300Y192500D02*X46800D01*
X44550Y193250D02*X45300Y192500D01*
X55050Y198500D02*Y192500D01*
X54300D02*X55050Y193250D01*
X52800Y192500D02*X54300D01*
X52050Y193250D02*X52800Y192500D01*
X52050Y194750D02*Y193250D01*
Y194750D02*X52800Y195500D01*
X54300D01*
X55050Y194750D01*
G54D82*X56850Y197000D02*Y196850D01*
G54D81*Y194750D02*Y192500D01*
X59100Y197750D02*Y192500D01*
Y197750D02*X59850Y198500D01*
X60600D01*
X58350Y195500D02*X59850D01*
X62850Y197750D02*Y192500D01*
Y197750D02*X63600Y198500D01*
X64350D01*
X62100Y195500D02*X63600D01*
X66600Y192500D02*X68850D01*
X65850Y193250D02*X66600Y192500D01*
X65850Y194750D02*Y193250D01*
Y194750D02*X66600Y195500D01*
X68100D01*
X68850Y194750D01*
X65850Y194000D02*X68850D01*
Y194750D02*Y194000D01*
X71400Y194750D02*Y192500D01*
Y194750D02*X72150Y195500D01*
X73650D01*
X70650D02*X71400Y194750D01*
X76200Y192500D02*X78450D01*
X75450Y193250D02*X76200Y192500D01*
X75450Y194750D02*Y193250D01*
Y194750D02*X76200Y195500D01*
X77700D01*
X78450Y194750D01*
X75450Y194000D02*X78450D01*
Y194750D02*Y194000D01*
X81000Y194750D02*Y192500D01*
Y194750D02*X81750Y195500D01*
X82500D01*
X83250Y194750D01*
Y192500D01*
X80250Y195500D02*X81000Y194750D01*
X85800Y198500D02*Y193250D01*
X86550Y192500D01*
X85050Y196250D02*X86550D01*
X93750Y198500D02*Y192500D01*
X93000D02*X93750Y193250D01*
X91500Y192500D02*X93000D01*
X90750Y193250D02*X91500Y192500D01*
X90750Y194750D02*Y193250D01*
Y194750D02*X91500Y195500D01*
X93000D01*
X93750Y194750D01*
X96300D02*Y192500D01*
Y194750D02*X97050Y195500D01*
X98550D01*
X95550D02*X96300Y194750D01*
G54D82*X100350Y197000D02*Y196850D01*
G54D81*Y194750D02*Y192500D01*
X101850Y198500D02*Y193250D01*
X102600Y192500D01*
X104100Y198500D02*Y193250D01*
X104850Y192500D01*
X109800D02*X112050D01*
X112800Y193250D01*
X112050Y194000D02*X112800Y193250D01*
X109800Y194000D02*X112050D01*
X109050Y194750D02*X109800Y194000D01*
X109050Y194750D02*X109800Y195500D01*
X112050D01*
X112800Y194750D01*
X109050Y193250D02*X109800Y192500D01*
G54D82*X114600Y197000D02*Y196850D01*
G54D81*Y194750D02*Y192500D01*
X116100Y195500D02*X119100D01*
X116100Y192500D02*X119100Y195500D01*
X116100Y192500D02*X119100D01*
X121650D02*X123900D01*
X120900Y193250D02*X121650Y192500D01*
X120900Y194750D02*Y193250D01*
Y194750D02*X121650Y195500D01*
X123150D01*
X123900Y194750D01*
X120900Y194000D02*X123900D01*
Y194750D02*Y194000D01*
X126450Y192500D02*X128700D01*
X129450Y193250D01*
X128700Y194000D02*X129450Y193250D01*
X126450Y194000D02*X128700D01*
X125700Y194750D02*X126450Y194000D01*
X125700Y194750D02*X126450Y195500D01*
X128700D01*
X129450Y194750D01*
X125700Y193250D02*X126450Y192500D01*
X133950Y195500D02*Y193250D01*
X134700Y192500D01*
X136200D01*
X136950Y193250D01*
Y195500D02*Y193250D01*
X139500Y192500D02*X141750D01*
X142500Y193250D01*
X141750Y194000D02*X142500Y193250D01*
X139500Y194000D02*X141750D01*
X138750Y194750D02*X139500Y194000D01*
X138750Y194750D02*X139500Y195500D01*
X141750D01*
X142500Y194750D01*
X138750Y193250D02*X139500Y192500D01*
X145050D02*X147300D01*
X144300Y193250D02*X145050Y192500D01*
X144300Y194750D02*Y193250D01*
Y194750D02*X145050Y195500D01*
X146550D01*
X147300Y194750D01*
X144300Y194000D02*X147300D01*
Y194750D02*Y194000D01*
X152100Y198500D02*Y192500D01*
X151350D02*X152100Y193250D01*
X149850Y192500D02*X151350D01*
X149100Y193250D02*X149850Y192500D01*
X149100Y194750D02*Y193250D01*
Y194750D02*X149850Y195500D01*
X151350D01*
X152100Y194750D01*
G54D82*X156600Y197000D02*Y196850D01*
G54D81*Y194750D02*Y192500D01*
X158850Y194750D02*Y192500D01*
Y194750D02*X159600Y195500D01*
X160350D01*
X161100Y194750D01*
Y192500D01*
X158100Y195500D02*X158850Y194750D01*
X166350Y198500D02*Y193250D01*
X167100Y192500D01*
X165600Y196250D02*X167100D01*
X168600Y198500D02*Y192500D01*
Y194750D02*X169350Y195500D01*
X170850D01*
X171600Y194750D01*
Y192500D01*
G54D82*X173400Y197000D02*Y196850D01*
G54D81*Y194750D02*Y192500D01*
X175650D02*X177900D01*
X178650Y193250D01*
X177900Y194000D02*X178650Y193250D01*
X175650Y194000D02*X177900D01*
X174900Y194750D02*X175650Y194000D01*
X174900Y194750D02*X175650Y195500D01*
X177900D01*
X178650Y194750D01*
X174900Y193250D02*X175650Y192500D01*
X183150Y198500D02*Y193250D01*
X183900Y192500D01*
X187650Y195500D02*X188400Y194750D01*
X186150Y195500D02*X187650D01*
X185400Y194750D02*X186150Y195500D01*
X185400Y194750D02*Y193250D01*
X186150Y192500D01*
X188400Y195500D02*Y193250D01*
X189150Y192500D01*
X186150D02*X187650D01*
X188400Y193250D01*
X190950Y195500D02*Y193250D01*
X191700Y192500D01*
X193950Y195500D02*Y191000D01*
X193200Y190250D02*X193950Y191000D01*
X191700Y190250D02*X193200D01*
X190950Y191000D02*X191700Y190250D01*
Y192500D02*X193200D01*
X193950Y193250D01*
X195750Y194750D02*Y193250D01*
Y194750D02*X196500Y195500D01*
X198000D01*
X198750Y194750D01*
Y193250D01*
X198000Y192500D02*X198750Y193250D01*
X196500Y192500D02*X198000D01*
X195750Y193250D02*X196500Y192500D01*
X200550Y195500D02*Y193250D01*
X201300Y192500D01*
X202800D01*
X203550Y193250D01*
Y195500D02*Y193250D01*
X206100Y198500D02*Y193250D01*
X206850Y192500D01*
X205350Y196250D02*X206850D01*
X208350Y191000D02*X209850Y192500D01*
X216600Y198500D02*X217350Y197750D01*
X215100Y198500D02*X216600D01*
X214350Y197750D02*X215100Y198500D01*
X214350Y197750D02*Y193250D01*
X215100Y192500D01*
X216600Y195800D02*X217350Y195050D01*
X214350Y195800D02*X216600D01*
X215100Y192500D02*X216600D01*
X217350Y193250D01*
Y195050D02*Y193250D01*
X219150D02*X219900Y192500D01*
X219150Y197750D02*Y193250D01*
Y197750D02*X219900Y198500D01*
X221400D01*
X222150Y197750D01*
Y193250D01*
X221400Y192500D02*X222150Y193250D01*
X219900Y192500D02*X221400D01*
X219150Y194000D02*X222150Y197000D01*
X226650Y198500D02*Y192500D01*
Y194750D02*X227400Y195500D01*
X228900D01*
X229650Y194750D01*
Y192500D01*
X231450Y194750D02*Y193250D01*
Y194750D02*X232200Y195500D01*
X233700D01*
X234450Y194750D01*
Y193250D01*
X233700Y192500D02*X234450Y193250D01*
X232200Y192500D02*X233700D01*
X231450Y193250D02*X232200Y192500D01*
X236250Y198500D02*Y193250D01*
X237000Y192500D01*
X239250D02*X241500D01*
X238500Y193250D02*X239250Y192500D01*
X238500Y194750D02*Y193250D01*
Y194750D02*X239250Y195500D01*
X240750D01*
X241500Y194750D01*
X238500Y194000D02*X241500D01*
Y194750D02*Y194000D01*
X244050Y192500D02*X246300D01*
X247050Y193250D01*
X246300Y194000D02*X247050Y193250D01*
X244050Y194000D02*X246300D01*
X243300Y194750D02*X244050Y194000D01*
X243300Y194750D02*X244050Y195500D01*
X246300D01*
X247050Y194750D01*
X243300Y193250D02*X244050Y192500D01*
X252300Y198500D02*Y193250D01*
X253050Y192500D01*
X251550Y196250D02*X253050D01*
X254550Y194750D02*Y193250D01*
Y194750D02*X255300Y195500D01*
X256800D01*
X257550Y194750D01*
Y193250D01*
X256800Y192500D02*X257550Y193250D01*
X255300Y192500D02*X256800D01*
X254550Y193250D02*X255300Y192500D01*
X260100Y198500D02*Y193250D01*
X260850Y192500D01*
X259350Y196250D02*X260850D01*
X264600Y195500D02*X265350Y194750D01*
X263100Y195500D02*X264600D01*
X262350Y194750D02*X263100Y195500D01*
X262350Y194750D02*Y193250D01*
X263100Y192500D01*
X265350Y195500D02*Y193250D01*
X266100Y192500D01*
X263100D02*X264600D01*
X265350Y193250D01*
X267900Y198500D02*Y193250D01*
X268650Y192500D01*
G54D83*X0Y95000D02*X180000D01*
X0Y13000D02*Y95000D01*
Y14000D02*Y0D01*
X210000D01*
Y95000D01*
X179500D01*
G54D81*X18675Y-9500D02*X21675D01*
X22425Y-8750D01*
Y-6950D02*Y-8750D01*
X21675Y-6200D02*X22425Y-6950D01*
X19425Y-6200D02*X21675D01*
X19425Y-3500D02*Y-9500D01*
X18675Y-3500D02*X21675D01*
X22425Y-4250D01*
Y-5450D01*
X21675Y-6200D02*X22425Y-5450D01*
X24225Y-7250D02*Y-8750D01*
Y-7250D02*X24975Y-6500D01*
X26475D01*
X27225Y-7250D01*
Y-8750D01*
X26475Y-9500D02*X27225Y-8750D01*
X24975Y-9500D02*X26475D01*
X24225Y-8750D02*X24975Y-9500D01*
X31275Y-6500D02*X32025Y-7250D01*
X29775Y-6500D02*X31275D01*
X29025Y-7250D02*X29775Y-6500D01*
X29025Y-7250D02*Y-8750D01*
X29775Y-9500D01*
X32025Y-6500D02*Y-8750D01*
X32775Y-9500D01*
X29775D02*X31275D01*
X32025Y-8750D01*
X35325Y-7250D02*Y-9500D01*
Y-7250D02*X36075Y-6500D01*
X37575D01*
X34575D02*X35325Y-7250D01*
X42375Y-3500D02*Y-9500D01*
X41625D02*X42375Y-8750D01*
X40125Y-9500D02*X41625D01*
X39375Y-8750D02*X40125Y-9500D01*
X39375Y-7250D02*Y-8750D01*
Y-7250D02*X40125Y-6500D01*
X41625D01*
X42375Y-7250D01*
X46875D02*Y-8750D01*
Y-7250D02*X47625Y-6500D01*
X49125D01*
X49875Y-7250D01*
Y-8750D01*
X49125Y-9500D02*X49875Y-8750D01*
X47625Y-9500D02*X49125D01*
X46875Y-8750D02*X47625Y-9500D01*
X51675Y-6500D02*Y-8750D01*
X52425Y-9500D01*
X53925D01*
X54675Y-8750D01*
Y-6500D02*Y-8750D01*
X57225Y-3500D02*Y-8750D01*
X57975Y-9500D01*
X56475Y-5750D02*X57975D01*
X59475Y-3500D02*Y-8750D01*
X60225Y-9500D01*
G54D82*X61725Y-5000D02*Y-5150D01*
G54D81*Y-7250D02*Y-9500D01*
X63975Y-7250D02*Y-9500D01*
Y-7250D02*X64725Y-6500D01*
X65475D01*
X66225Y-7250D01*
Y-9500D01*
X63225Y-6500D02*X63975Y-7250D01*
X68775Y-9500D02*X71025D01*
X68025Y-8750D02*X68775Y-9500D01*
X68025Y-7250D02*Y-8750D01*
Y-7250D02*X68775Y-6500D01*
X70275D01*
X71025Y-7250D01*
X68025Y-8000D02*X71025D01*
Y-7250D02*Y-8000D01*
G54D82*X75525Y-5000D02*Y-5150D01*
G54D81*Y-7250D02*Y-9500D01*
X77775D02*X80025D01*
X80775Y-8750D01*
X80025Y-8000D02*X80775Y-8750D01*
X77775Y-8000D02*X80025D01*
X77025Y-7250D02*X77775Y-8000D01*
X77025Y-7250D02*X77775Y-6500D01*
X80025D01*
X80775Y-7250D01*
X77025Y-8750D02*X77775Y-9500D01*
X86025Y-3500D02*Y-8750D01*
X86775Y-9500D01*
X85275Y-5750D02*X86775D01*
X88275Y-3500D02*Y-9500D01*
Y-7250D02*X89025Y-6500D01*
X90525D01*
X91275Y-7250D01*
Y-9500D01*
X93825D02*X96075D01*
X93075Y-8750D02*X93825Y-9500D01*
X93075Y-7250D02*Y-8750D01*
Y-7250D02*X93825Y-6500D01*
X95325D01*
X96075Y-7250D01*
X93075Y-8000D02*X96075D01*
Y-7250D02*Y-8000D01*
X101325Y-6500D02*X103575D01*
X100575Y-7250D02*X101325Y-6500D01*
X100575Y-7250D02*Y-8750D01*
X101325Y-9500D01*
X103575D01*
X106125D02*X108375D01*
X105375Y-8750D02*X106125Y-9500D01*
X105375Y-7250D02*Y-8750D01*
Y-7250D02*X106125Y-6500D01*
X107625D01*
X108375Y-7250D01*
X105375Y-8000D02*X108375D01*
Y-7250D02*Y-8000D01*
X110925Y-7250D02*Y-9500D01*
Y-7250D02*X111675Y-6500D01*
X112425D01*
X113175Y-7250D01*
Y-9500D01*
X110175Y-6500D02*X110925Y-7250D01*
X115725Y-3500D02*Y-8750D01*
X116475Y-9500D01*
X114975Y-5750D02*X116475D01*
X118725Y-9500D02*X120975D01*
X117975Y-8750D02*X118725Y-9500D01*
X117975Y-7250D02*Y-8750D01*
Y-7250D02*X118725Y-6500D01*
X120225D01*
X120975Y-7250D01*
X117975Y-8000D02*X120975D01*
Y-7250D02*Y-8000D01*
X123525Y-7250D02*Y-9500D01*
Y-7250D02*X124275Y-6500D01*
X125775D01*
X122775D02*X123525Y-7250D01*
X127575Y-3500D02*Y-8750D01*
X128325Y-9500D01*
G54D82*X129825Y-5000D02*Y-5150D01*
G54D81*Y-7250D02*Y-9500D01*
X132075Y-7250D02*Y-9500D01*
Y-7250D02*X132825Y-6500D01*
X133575D01*
X134325Y-7250D01*
Y-9500D01*
X131325Y-6500D02*X132075Y-7250D01*
X136875Y-9500D02*X139125D01*
X136125Y-8750D02*X136875Y-9500D01*
X136125Y-7250D02*Y-8750D01*
Y-7250D02*X136875Y-6500D01*
X138375D01*
X139125Y-7250D01*
X136125Y-8000D02*X139125D01*
Y-7250D02*Y-8000D01*
X143625Y-7250D02*Y-8750D01*
Y-7250D02*X144375Y-6500D01*
X145875D01*
X146625Y-7250D01*
Y-8750D01*
X145875Y-9500D02*X146625Y-8750D01*
X144375Y-9500D02*X145875D01*
X143625Y-8750D02*X144375Y-9500D01*
X149175Y-4250D02*Y-9500D01*
Y-4250D02*X149925Y-3500D01*
X150675D01*
X148425Y-6500D02*X149925D01*
X155625Y-3500D02*Y-8750D01*
X156375Y-9500D01*
X154875Y-5750D02*X156375D01*
X157875Y-3500D02*Y-9500D01*
Y-7250D02*X158625Y-6500D01*
X160125D01*
X160875Y-7250D01*
Y-9500D01*
G54D82*X162675Y-5000D02*Y-5150D01*
G54D81*Y-7250D02*Y-9500D01*
X164925D02*X167175D01*
X167925Y-8750D01*
X167175Y-8000D02*X167925Y-8750D01*
X164925Y-8000D02*X167175D01*
X164175Y-7250D02*X164925Y-8000D01*
X164175Y-7250D02*X164925Y-6500D01*
X167175D01*
X167925Y-7250D01*
X164175Y-8750D02*X164925Y-9500D01*
X173175Y-7250D02*Y-11750D01*
X172425Y-6500D02*X173175Y-7250D01*
X173925Y-6500D01*
X175425D01*
X176175Y-7250D01*
Y-8750D01*
X175425Y-9500D02*X176175Y-8750D01*
X173925Y-9500D02*X175425D01*
X173175Y-8750D02*X173925Y-9500D01*
X180225Y-6500D02*X180975Y-7250D01*
X178725Y-6500D02*X180225D01*
X177975Y-7250D02*X178725Y-6500D01*
X177975Y-7250D02*Y-8750D01*
X178725Y-9500D01*
X180975Y-6500D02*Y-8750D01*
X181725Y-9500D01*
X178725D02*X180225D01*
X180975Y-8750D01*
X184275Y-3500D02*Y-8750D01*
X185025Y-9500D01*
X183525Y-5750D02*X185025D01*
X186525Y-3500D02*Y-9500D01*
Y-7250D02*X187275Y-6500D01*
X188775D01*
X189525Y-7250D01*
Y-9500D01*
X200750Y123500D02*Y117500D01*
X202700Y123500D02*X203750Y122450D01*
Y118550D01*
X202700Y117500D02*X203750Y118550D01*
X200000Y117500D02*X202700D01*
X200000Y123500D02*X202700D01*
X207800Y120500D02*X208550Y119750D01*
X206300Y120500D02*X207800D01*
X205550Y119750D02*X206300Y120500D01*
X205550Y119750D02*Y118250D01*
X206300Y117500D01*
X208550Y120500D02*Y118250D01*
X209300Y117500D01*
X206300D02*X207800D01*
X208550Y118250D01*
X211850Y123500D02*Y118250D01*
X212600Y117500D01*
X211100Y121250D02*X212600D01*
X214850Y117500D02*X217100D01*
X214100Y118250D02*X214850Y117500D01*
X214100Y119750D02*Y118250D01*
Y119750D02*X214850Y120500D01*
X216350D01*
X217100Y119750D01*
X214100Y119000D02*X217100D01*
Y119750D02*Y119000D01*
X218900Y121250D02*X219650D01*
X218900Y119750D02*X219650D01*
X227150Y123500D02*X227900Y122750D01*
X224900Y123500D02*X227150D01*
X224150Y122750D02*X224900Y123500D01*
X224150Y122750D02*Y121250D01*
X224900Y120500D01*
X227150D01*
X227900Y119750D01*
Y118250D01*
X227150Y117500D02*X227900Y118250D01*
X224900Y117500D02*X227150D01*
X224150Y118250D02*X224900Y117500D01*
X229700Y120500D02*Y118250D01*
X230450Y117500D01*
X231950D01*
X232700Y118250D01*
Y120500D02*Y118250D01*
X235250Y119750D02*Y117500D01*
Y119750D02*X236000Y120500D01*
X236750D01*
X237500Y119750D01*
Y117500D01*
X234500Y120500D02*X235250Y119750D01*
X242000Y118250D02*X242750Y117500D01*
X242000Y122750D02*Y118250D01*
Y122750D02*X242750Y123500D01*
X244250D01*
X245000Y122750D01*
Y118250D01*
X244250Y117500D02*X245000Y118250D01*
X242750Y117500D02*X244250D01*
X242000Y119000D02*X245000Y122000D01*
X246800Y122300D02*X248000Y123500D01*
Y117500D01*
X246800D02*X249050D01*
X254600Y123500D02*X255800D01*
Y118250D01*
X255050Y117500D02*X255800Y118250D01*
X254300Y117500D02*X255050D01*
X253550Y118250D02*X254300Y117500D01*
X253550Y119000D02*Y118250D01*
X257600Y120500D02*Y118250D01*
X258350Y117500D01*
X259850D01*
X260600Y118250D01*
Y120500D02*Y118250D01*
X263150Y119750D02*Y117500D01*
Y119750D02*X263900Y120500D01*
X264650D01*
X265400Y119750D01*
Y117500D01*
X262400Y120500D02*X263150Y119750D01*
X269900Y122750D02*X270650Y123500D01*
X272900D01*
X273650Y122750D01*
Y121250D01*
X269900Y117500D02*X273650Y121250D01*
X269900Y117500D02*X273650D01*
X275450Y118250D02*X276200Y117500D01*
X275450Y122750D02*Y118250D01*
Y122750D02*X276200Y123500D01*
X277700D01*
X278450Y122750D01*
Y118250D01*
X277700Y117500D02*X278450Y118250D01*
X276200Y117500D02*X277700D01*
X275450Y119000D02*X278450Y122000D01*
X280250Y122300D02*X281450Y123500D01*
Y117500D01*
X280250D02*X282500D01*
X284300Y119750D02*X287300Y123500D01*
X284300Y119750D02*X288050D01*
X287300Y123500D02*Y117500D01*
X292550Y118250D02*X293300Y117500D01*
X292550Y122750D02*Y118250D01*
Y122750D02*X293300Y123500D01*
X294800D01*
X295550Y122750D01*
Y118250D01*
X294800Y117500D02*X295550Y118250D01*
X293300Y117500D02*X294800D01*
X292550Y119000D02*X295550Y122000D01*
X297350Y119750D02*X300350Y123500D01*
X297350Y119750D02*X301100D01*
X300350Y123500D02*Y117500D01*
X302900Y121250D02*X303650D01*
X302900Y119750D02*X303650D01*
X305450Y122750D02*X306200Y123500D01*
X308450D01*
X309200Y122750D01*
Y121250D01*
X305450Y117500D02*X309200Y121250D01*
X305450Y117500D02*X309200D01*
X311750D02*X314000Y120500D01*
Y122750D02*Y120500D01*
X313250Y123500D02*X314000Y122750D01*
X311750Y123500D02*X313250D01*
X311000Y122750D02*X311750Y123500D01*
X311000Y122750D02*Y121250D01*
X311750Y120500D01*
X314000D01*
X315800Y121250D02*X316550D01*
X315800Y119750D02*X316550D01*
X318350D02*X321350Y123500D01*
X318350Y119750D02*X322100D01*
X321350Y123500D02*Y117500D01*
X323900Y122300D02*X325100Y123500D01*
Y117500D01*
X323900D02*X326150D01*
X331400Y123500D02*Y117500D01*
X330650Y123500D02*X333650D01*
X334400Y122750D01*
Y121250D01*
X333650Y120500D02*X334400Y121250D01*
X331400Y120500D02*X333650D01*
X336200Y123500D02*Y117500D01*
Y123500D02*X338450Y120500D01*
X340700Y123500D01*
Y117500D01*
X348200Y123500D02*X348950Y122750D01*
X345950Y123500D02*X348200D01*
X345200Y122750D02*X345950Y123500D01*
X345200Y122750D02*Y118250D01*
X345950Y117500D01*
X348200D01*
X348950Y118250D01*
Y119750D02*Y118250D01*
X348200Y120500D02*X348950Y119750D01*
X346700Y120500D02*X348200D01*
X350750Y123500D02*Y117500D01*
Y123500D02*X353000Y120500D01*
X355250Y123500D01*
Y117500D01*
X357050Y123500D02*X360050D01*
X358550D02*Y117500D01*
X364550Y123500D02*Y118250D01*
X365300Y117500D01*
X366800D01*
X367550Y118250D01*
Y123500D02*Y118250D01*
X369350Y123500D02*X372350D01*
X370850D02*Y117500D01*
X375200D02*X377150D01*
X374150Y118550D02*X375200Y117500D01*
X374150Y122450D02*Y118550D01*
Y122450D02*X375200Y123500D01*
X377150D01*
X200000Y137000D02*Y132500D01*
Y137000D02*X201050Y138500D01*
X202700D01*
X203750Y137000D01*
Y132500D01*
X200000Y135500D02*X203750D01*
X205550D02*Y133250D01*
X206300Y132500D01*
X207800D01*
X208550Y133250D01*
Y135500D02*Y133250D01*
X211100Y138500D02*Y133250D01*
X211850Y132500D01*
X210350Y136250D02*X211850D01*
X213350Y138500D02*Y132500D01*
Y134750D02*X214100Y135500D01*
X215600D01*
X216350Y134750D01*
Y132500D01*
X218150Y134750D02*Y133250D01*
Y134750D02*X218900Y135500D01*
X220400D01*
X221150Y134750D01*
Y133250D01*
X220400Y132500D02*X221150Y133250D01*
X218900Y132500D02*X220400D01*
X218150Y133250D02*X218900Y132500D01*
X223700Y134750D02*Y132500D01*
Y134750D02*X224450Y135500D01*
X225950D01*
X222950D02*X223700Y134750D01*
X227750Y136250D02*X228500D01*
X227750Y134750D02*X228500D01*
X233000Y138500D02*Y132500D01*
Y138500D02*X236750Y132500D01*
Y138500D02*Y132500D01*
X240800Y135500D02*X241550Y134750D01*
X239300Y135500D02*X240800D01*
X238550Y134750D02*X239300Y135500D01*
X238550Y134750D02*Y133250D01*
X239300Y132500D01*
X241550Y135500D02*Y133250D01*
X242300Y132500D01*
X239300D02*X240800D01*
X241550Y133250D01*
X244850Y138500D02*Y133250D01*
X245600Y132500D01*
X244100Y136250D02*X245600D01*
X247100Y138500D02*Y132500D01*
Y134750D02*X247850Y135500D01*
X249350D01*
X250100Y134750D01*
Y132500D01*
X254150Y135500D02*X254900Y134750D01*
X252650Y135500D02*X254150D01*
X251900Y134750D02*X252650Y135500D01*
X251900Y134750D02*Y133250D01*
X252650Y132500D01*
X254900Y135500D02*Y133250D01*
X255650Y132500D01*
X252650D02*X254150D01*
X254900Y133250D01*
X258200Y134750D02*Y132500D01*
Y134750D02*X258950Y135500D01*
X259700D01*
X260450Y134750D01*
Y132500D01*
X257450Y135500D02*X258200Y134750D01*
X264950Y138500D02*Y132500D01*
X268700Y138500D02*Y132500D01*
X264950Y135500D02*X268700D01*
X270500Y134750D02*Y133250D01*
Y134750D02*X271250Y135500D01*
X272750D01*
X273500Y134750D01*
Y133250D01*
X272750Y132500D02*X273500Y133250D01*
X271250Y132500D02*X272750D01*
X270500Y133250D02*X271250Y132500D01*
X275300Y138500D02*Y133250D01*
X276050Y132500D01*
X278300Y134750D02*Y132500D01*
Y134750D02*X279050Y135500D01*
X279800D01*
X280550Y134750D01*
Y132500D01*
Y134750D02*X281300Y135500D01*
X282050D01*
X282800Y134750D01*
Y132500D01*
X277550Y135500D02*X278300Y134750D01*
X285350Y132500D02*X287600D01*
X284600Y133250D02*X285350Y132500D01*
X284600Y134750D02*Y133250D01*
Y134750D02*X285350Y135500D01*
X286850D01*
X287600Y134750D01*
X284600Y134000D02*X287600D01*
Y134750D02*Y134000D01*
X290150Y132500D02*X292400D01*
X293150Y133250D01*
X292400Y134000D02*X293150Y133250D01*
X290150Y134000D02*X292400D01*
X289400Y134750D02*X290150Y134000D01*
X289400Y134750D02*X290150Y135500D01*
X292400D01*
X293150Y134750D01*
X289400Y133250D02*X290150Y132500D01*
X200000Y153500D02*X203000D01*
X201500D02*Y147500D01*
G54D82*X204800Y152000D02*Y151850D01*
G54D81*Y149750D02*Y147500D01*
X207050Y153500D02*Y148250D01*
X207800Y147500D01*
X206300Y151250D02*X207800D01*
X209300Y153500D02*Y148250D01*
X210050Y147500D01*
X212300D02*X214550D01*
X211550Y148250D02*X212300Y147500D01*
X211550Y149750D02*Y148250D01*
Y149750D02*X212300Y150500D01*
X213800D01*
X214550Y149750D01*
X211550Y149000D02*X214550D01*
Y149750D02*Y149000D01*
X216350Y151250D02*X217100D01*
X216350Y149750D02*X217100D01*
X221600Y148250D02*X222350Y147500D01*
X221600Y152750D02*X222350Y153500D01*
X221600Y152750D02*Y148250D01*
X224150Y150500D02*Y148250D01*
X224900Y147500D01*
X226400D01*
X227150Y148250D01*
Y150500D02*Y148250D01*
X229700Y149750D02*Y147500D01*
Y149750D02*X230450Y150500D01*
X231200D01*
X231950Y149750D01*
Y147500D01*
X228950Y150500D02*X229700Y149750D01*
X233750Y153500D02*Y147500D01*
Y149750D02*X236000Y147500D01*
X233750Y149750D02*X235250Y151250D01*
X238550Y149750D02*Y147500D01*
Y149750D02*X239300Y150500D01*
X240050D01*
X240800Y149750D01*
Y147500D01*
X237800Y150500D02*X238550Y149750D01*
X242600D02*Y148250D01*
Y149750D02*X243350Y150500D01*
X244850D01*
X245600Y149750D01*
Y148250D01*
X244850Y147500D02*X245600Y148250D01*
X243350Y147500D02*X244850D01*
X242600Y148250D02*X243350Y147500D01*
X247400Y150500D02*Y148250D01*
X248150Y147500D01*
X248900D01*
X249650Y148250D01*
Y150500D02*Y148250D01*
X250400Y147500D01*
X251150D01*
X251900Y148250D01*
Y150500D02*Y148250D01*
X254450Y149750D02*Y147500D01*
Y149750D02*X255200Y150500D01*
X255950D01*
X256700Y149750D01*
Y147500D01*
X253700Y150500D02*X254450Y149750D01*
X258500Y153500D02*X259250Y152750D01*
Y148250D01*
X258500Y147500D02*X259250Y148250D01*
X263750Y150500D02*X266750D01*
X271250Y153500D02*Y147500D01*
Y153500D02*X274250D01*
X271250Y150800D02*X273500D01*
X278300Y150500D02*X279050Y149750D01*
X276800Y150500D02*X278300D01*
X276050Y149750D02*X276800Y150500D01*
X276050Y149750D02*Y148250D01*
X276800Y147500D01*
X279050Y150500D02*Y148250D01*
X279800Y147500D01*
X276800D02*X278300D01*
X279050Y148250D01*
X281600Y153500D02*Y147500D01*
Y148250D02*X282350Y147500D01*
X283850D01*
X284600Y148250D01*
Y149750D02*Y148250D01*
X283850Y150500D02*X284600Y149750D01*
X282350Y150500D02*X283850D01*
X281600Y149750D02*X282350Y150500D01*
X287150Y149750D02*Y147500D01*
Y149750D02*X287900Y150500D01*
X289400D01*
X286400D02*X287150Y149750D01*
G54D82*X291200Y152000D02*Y151850D01*
G54D81*Y149750D02*Y147500D01*
X293450Y150500D02*X295700D01*
X292700Y149750D02*X293450Y150500D01*
X292700Y149750D02*Y148250D01*
X293450Y147500D01*
X295700D01*
X299750Y150500D02*X300500Y149750D01*
X298250Y150500D02*X299750D01*
X297500Y149750D02*X298250Y150500D01*
X297500Y149750D02*Y148250D01*
X298250Y147500D01*
X300500Y150500D02*Y148250D01*
X301250Y147500D01*
X298250D02*X299750D01*
X300500Y148250D01*
X303800Y153500D02*Y148250D01*
X304550Y147500D01*
X303050Y151250D02*X304550D01*
G54D82*X306050Y152000D02*Y151850D01*
G54D81*Y149750D02*Y147500D01*
X307550Y149750D02*Y148250D01*
Y149750D02*X308300Y150500D01*
X309800D01*
X310550Y149750D01*
Y148250D01*
X309800Y147500D02*X310550Y148250D01*
X308300Y147500D02*X309800D01*
X307550Y148250D02*X308300Y147500D01*
X313100Y149750D02*Y147500D01*
Y149750D02*X313850Y150500D01*
X314600D01*
X315350Y149750D01*
Y147500D01*
X312350Y150500D02*X313100Y149750D01*
X320600Y153500D02*Y147500D01*
X322550Y153500D02*X323600Y152450D01*
Y148550D01*
X322550Y147500D02*X323600Y148550D01*
X319850Y147500D02*X322550D01*
X319850Y153500D02*X322550D01*
X326150Y149750D02*Y147500D01*
Y149750D02*X326900Y150500D01*
X328400D01*
X325400D02*X326150Y149750D01*
X332450Y150500D02*X333200Y149750D01*
X330950Y150500D02*X332450D01*
X330200Y149750D02*X330950Y150500D01*
X330200Y149750D02*Y148250D01*
X330950Y147500D01*
X333200Y150500D02*Y148250D01*
X333950Y147500D01*
X330950D02*X332450D01*
X333200Y148250D01*
X335750Y150500D02*Y148250D01*
X336500Y147500D01*
X337250D01*
X338000Y148250D01*
Y150500D02*Y148250D01*
X338750Y147500D01*
X339500D01*
X340250Y148250D01*
Y150500D02*Y148250D01*
G54D82*X342050Y152000D02*Y151850D01*
G54D81*Y149750D02*Y147500D01*
X344300Y149750D02*Y147500D01*
Y149750D02*X345050Y150500D01*
X345800D01*
X346550Y149750D01*
Y147500D01*
X343550Y150500D02*X344300Y149750D01*
X350600Y150500D02*X351350Y149750D01*
X349100Y150500D02*X350600D01*
X348350Y149750D02*X349100Y150500D01*
X348350Y149750D02*Y148250D01*
X349100Y147500D01*
X350600D01*
X351350Y148250D01*
X348350Y146000D02*X349100Y145250D01*
X350600D01*
X351350Y146000D01*
Y150500D02*Y146000D01*
M02*
