G04 start of page 2 for group 0 idx 0 *
G04 Title: (unknown), component *
G04 Creator: pcb 20110918 *
G04 CreationDate: Sun 01 Jun 2014 04:29:41 PM GMT UTC *
G04 For: ndholmes *
G04 Format: Gerber/RS-274X *
G04 PCB-Dimensions: 210000 95000 *
G04 PCB-Coordinate-Origin: lower left *
%MOIN*%
%FSLAX25Y25*%
%LNTOP*%
%ADD31C,0.0390*%
%ADD30C,0.0480*%
%ADD29C,0.0270*%
%ADD28C,0.0472*%
%ADD27C,0.0200*%
%ADD26C,0.0360*%
%ADD25R,0.0200X0.0200*%
%ADD24C,0.0310*%
%ADD23R,0.0440X0.0440*%
%ADD22R,0.0340X0.0340*%
%ADD21R,0.0630X0.0630*%
%ADD20R,0.0945X0.0945*%
%ADD19R,0.0360X0.0360*%
%ADD18R,0.0378X0.0378*%
%ADD17R,0.0091X0.0091*%
%ADD16R,0.0512X0.0512*%
%ADD15C,0.0800*%
%ADD14C,0.0400*%
%ADD13C,0.0100*%
%ADD12C,0.0250*%
%ADD11C,0.0001*%
G54D11*G36*
X138500Y94000D02*X162500D01*
Y77000D01*
X138500D01*
Y94000D01*
G37*
G36*
X152200Y60800D02*X138500D01*
Y74900D01*
X152200D01*
Y60800D01*
G37*
G36*
X135000Y75000D02*X152500D01*
Y60500D01*
X135000D01*
Y75000D01*
G37*
G36*
X160500Y67500D02*X180500D01*
Y64500D01*
X160500D01*
Y67500D01*
G37*
G36*
X165500D01*
Y47500D01*
X160500D01*
Y67500D01*
G37*
G36*
X172000Y60500D02*X176500D01*
Y31000D01*
X172000D01*
Y60500D01*
G37*
G36*
X169000D02*X176000D01*
Y32000D01*
X169000D01*
Y60500D01*
G37*
G36*
X146000Y51000D02*X166000D01*
Y38500D01*
X146000D01*
Y51000D01*
G37*
G36*
X138500D02*X149500D01*
Y38500D01*
X139000D01*
Y40000D01*
X138986Y40235D01*
X138931Y40465D01*
X138841Y40683D01*
X138717Y40884D01*
X138564Y41064D01*
X138500Y41119D01*
Y51000D01*
G37*
G36*
Y68500D02*X144500D01*
Y38500D01*
X139000D01*
Y40000D01*
X138986Y40235D01*
X138931Y40465D01*
X138841Y40683D01*
X138717Y40884D01*
X138564Y41064D01*
X138500Y41119D01*
Y68500D01*
G37*
G36*
X159000Y79000D02*X175500D01*
Y69000D01*
X159000D01*
Y79000D01*
G37*
G36*
X154500Y78000D02*X159000D01*
Y52500D01*
X154500D01*
Y78000D01*
G37*
G36*
X146000Y59000D02*X159000D01*
Y52500D01*
X146000D01*
Y59000D01*
G37*
G36*
X167000Y60500D02*X174000D01*
Y52500D01*
X167000D01*
Y60500D01*
G37*
G36*
X139500Y37000D02*X150000D01*
Y31000D01*
X139500D01*
Y37000D01*
G37*
G36*
X176500D01*
Y31000D01*
X139500D01*
Y37000D01*
G37*
G36*
X187673Y92500D02*X192500D01*
Y88191D01*
X192423Y88197D01*
X192305Y88188D01*
X192191Y88160D01*
X192081Y88115D01*
X191981Y88054D01*
X191891Y87977D01*
X191814Y87887D01*
X191753Y87787D01*
X191708Y87677D01*
X191680Y87563D01*
X191673Y87445D01*
Y82445D01*
X191680Y82327D01*
X191708Y82213D01*
X191753Y82103D01*
X191814Y82003D01*
X191891Y81913D01*
X191981Y81836D01*
X192081Y81775D01*
X192191Y81730D01*
X192305Y81702D01*
X192423Y81693D01*
X192500Y81699D01*
Y80500D01*
X190858D01*
X190843Y80537D01*
X190782Y80637D01*
X190705Y80727D01*
X190615Y80804D01*
X190515Y80865D01*
X190405Y80910D01*
X190291Y80938D01*
X190173Y80945D01*
X187673D01*
Y88945D01*
X190173D01*
X190291Y88952D01*
X190405Y88980D01*
X190515Y89025D01*
X190615Y89086D01*
X190705Y89163D01*
X190782Y89253D01*
X190843Y89353D01*
X190888Y89463D01*
X190916Y89577D01*
X190925Y89695D01*
X190916Y89813D01*
X190888Y89927D01*
X190843Y90037D01*
X190782Y90137D01*
X190705Y90227D01*
X190615Y90304D01*
X190515Y90365D01*
X190405Y90410D01*
X190291Y90438D01*
X190173Y90445D01*
X187673D01*
Y92500D01*
G37*
G36*
X182923D02*X187673D01*
Y90445D01*
X185173D01*
X185055Y90438D01*
X184941Y90410D01*
X184831Y90365D01*
X184731Y90304D01*
X184641Y90227D01*
X184564Y90137D01*
X184503Y90037D01*
X184458Y89927D01*
X184430Y89813D01*
X184421Y89695D01*
X184430Y89577D01*
X184458Y89463D01*
X184503Y89353D01*
X184564Y89253D01*
X184641Y89163D01*
X184731Y89086D01*
X184831Y89025D01*
X184941Y88980D01*
X185055Y88952D01*
X185173Y88945D01*
X187673D01*
Y80945D01*
X185173D01*
X185055Y80938D01*
X184941Y80910D01*
X184831Y80865D01*
X184731Y80804D01*
X184641Y80727D01*
X184564Y80637D01*
X184503Y80537D01*
X184488Y80500D01*
X182923D01*
Y81693D01*
X183041Y81702D01*
X183155Y81730D01*
X183265Y81775D01*
X183365Y81836D01*
X183455Y81913D01*
X183532Y82003D01*
X183593Y82103D01*
X183638Y82213D01*
X183666Y82327D01*
X183673Y82445D01*
Y87445D01*
X183666Y87563D01*
X183638Y87677D01*
X183593Y87787D01*
X183532Y87887D01*
X183455Y87977D01*
X183365Y88054D01*
X183265Y88115D01*
X183155Y88160D01*
X183041Y88188D01*
X182923Y88197D01*
Y92500D01*
G37*
G36*
X164000D02*X182923D01*
Y88197D01*
X182805Y88188D01*
X182691Y88160D01*
X182581Y88115D01*
X182481Y88054D01*
X182391Y87977D01*
X182314Y87887D01*
X182253Y87787D01*
X182208Y87677D01*
X182180Y87563D01*
X182173Y87445D01*
Y82445D01*
X182180Y82327D01*
X182208Y82213D01*
X182253Y82103D01*
X182314Y82003D01*
X182391Y81913D01*
X182481Y81836D01*
X182581Y81775D01*
X182691Y81730D01*
X182805Y81702D01*
X182923Y81693D01*
Y80500D01*
X164000D01*
Y92500D01*
G37*
G36*
X192423D02*X196000D01*
Y76500D01*
X192423D01*
Y81693D01*
X192541Y81702D01*
X192655Y81730D01*
X192765Y81775D01*
X192865Y81836D01*
X192955Y81913D01*
X193032Y82003D01*
X193093Y82103D01*
X193138Y82213D01*
X193166Y82327D01*
X193173Y82445D01*
Y87445D01*
X193166Y87563D01*
X193138Y87677D01*
X193093Y87787D01*
X193032Y87887D01*
X192955Y87977D01*
X192865Y88054D01*
X192765Y88115D01*
X192655Y88160D01*
X192541Y88188D01*
X192423Y88197D01*
Y92500D01*
G37*
G36*
X187673D02*X192423D01*
Y88197D01*
X192305Y88188D01*
X192191Y88160D01*
X192081Y88115D01*
X191981Y88054D01*
X191891Y87977D01*
X191814Y87887D01*
X191753Y87787D01*
X191708Y87677D01*
X191680Y87563D01*
X191673Y87445D01*
Y82445D01*
X191680Y82327D01*
X191708Y82213D01*
X191753Y82103D01*
X191814Y82003D01*
X191891Y81913D01*
X191981Y81836D01*
X192081Y81775D01*
X192191Y81730D01*
X192305Y81702D01*
X192423Y81693D01*
Y76500D01*
X189011D01*
X188701Y76574D01*
X188189Y76647D01*
X187673Y76671D01*
Y79445D01*
X190173D01*
X190291Y79452D01*
X190405Y79480D01*
X190515Y79525D01*
X190615Y79586D01*
X190705Y79663D01*
X190782Y79753D01*
X190843Y79853D01*
X190888Y79963D01*
X190916Y80077D01*
X190925Y80195D01*
X190916Y80313D01*
X190888Y80427D01*
X190843Y80537D01*
X190782Y80637D01*
X190705Y80727D01*
X190615Y80804D01*
X190515Y80865D01*
X190405Y80910D01*
X190291Y80938D01*
X190173Y80945D01*
X187673D01*
Y88945D01*
X190173D01*
X190291Y88952D01*
X190405Y88980D01*
X190515Y89025D01*
X190615Y89086D01*
X190705Y89163D01*
X190782Y89253D01*
X190843Y89353D01*
X190888Y89463D01*
X190916Y89577D01*
X190925Y89695D01*
X190916Y89813D01*
X190888Y89927D01*
X190843Y90037D01*
X190782Y90137D01*
X190705Y90227D01*
X190615Y90304D01*
X190515Y90365D01*
X190405Y90410D01*
X190291Y90438D01*
X190173Y90445D01*
X187673D01*
Y92500D01*
G37*
G36*
X182923D02*X187673D01*
Y90445D01*
X185173D01*
X185055Y90438D01*
X184941Y90410D01*
X184831Y90365D01*
X184731Y90304D01*
X184641Y90227D01*
X184564Y90137D01*
X184503Y90037D01*
X184458Y89927D01*
X184430Y89813D01*
X184421Y89695D01*
X184430Y89577D01*
X184458Y89463D01*
X184503Y89353D01*
X184564Y89253D01*
X184641Y89163D01*
X184731Y89086D01*
X184831Y89025D01*
X184941Y88980D01*
X185055Y88952D01*
X185173Y88945D01*
X187673D01*
Y80945D01*
X185173D01*
X185055Y80938D01*
X184941Y80910D01*
X184831Y80865D01*
X184731Y80804D01*
X184641Y80727D01*
X184564Y80637D01*
X184503Y80537D01*
X184458Y80427D01*
X184430Y80313D01*
X184421Y80195D01*
X184430Y80077D01*
X184458Y79963D01*
X184503Y79853D01*
X184564Y79753D01*
X184641Y79663D01*
X184731Y79586D01*
X184831Y79525D01*
X184941Y79480D01*
X185055Y79452D01*
X185173Y79445D01*
X187673D01*
Y76671D01*
X187673D01*
X187157Y76647D01*
X186645Y76574D01*
X186335Y76500D01*
X182923D01*
Y81693D01*
X183041Y81702D01*
X183155Y81730D01*
X183265Y81775D01*
X183365Y81836D01*
X183455Y81913D01*
X183532Y82003D01*
X183593Y82103D01*
X183638Y82213D01*
X183666Y82327D01*
X183673Y82445D01*
Y87445D01*
X183666Y87563D01*
X183638Y87677D01*
X183593Y87787D01*
X183532Y87887D01*
X183455Y87977D01*
X183365Y88054D01*
X183265Y88115D01*
X183155Y88160D01*
X183041Y88188D01*
X182923Y88197D01*
Y92500D01*
G37*
G36*
X180500D02*X182923D01*
Y88197D01*
X182805Y88188D01*
X182691Y88160D01*
X182581Y88115D01*
X182481Y88054D01*
X182391Y87977D01*
X182314Y87887D01*
X182253Y87787D01*
X182208Y87677D01*
X182180Y87563D01*
X182173Y87445D01*
Y82445D01*
X182180Y82327D01*
X182208Y82213D01*
X182253Y82103D01*
X182314Y82003D01*
X182391Y81913D01*
X182481Y81836D01*
X182581Y81775D01*
X182691Y81730D01*
X182805Y81702D01*
X182923Y81693D01*
Y76500D01*
X180500D01*
Y92500D01*
G37*
G36*
X177000Y82000D02*X182000D01*
Y76500D01*
X177000D01*
Y82000D01*
G37*
G36*
X192166Y75000D02*X196000D01*
Y64500D01*
X192166D01*
Y68310D01*
X192251Y68346D01*
X192352Y68408D01*
X192442Y68484D01*
X192518Y68574D01*
X192578Y68676D01*
X192795Y69145D01*
X192962Y69634D01*
X193082Y70137D01*
X193155Y70649D01*
X193179Y71165D01*
X193155Y71681D01*
X193082Y72193D01*
X192962Y72696D01*
X192795Y73185D01*
X192583Y73657D01*
X192522Y73758D01*
X192445Y73849D01*
X192355Y73926D01*
X192253Y73988D01*
X192166Y74025D01*
Y75000D01*
G37*
G36*
X187675D02*X188807D01*
X189141Y74886D01*
X189483Y74732D01*
X189591Y74685D01*
X189706Y74658D01*
X189824Y74648D01*
X189941Y74658D01*
X190056Y74686D01*
X190165Y74731D01*
X190266Y74793D01*
X190355Y74870D01*
X190432Y74960D01*
X190457Y75000D01*
X192166D01*
Y74025D01*
X192144Y74034D01*
X192028Y74062D01*
X191910Y74071D01*
X191792Y74062D01*
X191676Y74035D01*
X191566Y73989D01*
X191465Y73927D01*
X191375Y73851D01*
X191297Y73760D01*
X191235Y73659D01*
X191189Y73550D01*
X191162Y73434D01*
X191152Y73316D01*
X191161Y73197D01*
X191189Y73082D01*
X191236Y72973D01*
X191394Y72633D01*
X191515Y72277D01*
X191603Y71912D01*
X191655Y71540D01*
X191673Y71165D01*
X191655Y70790D01*
X191603Y70418D01*
X191515Y70053D01*
X191394Y69697D01*
X191240Y69355D01*
X191193Y69247D01*
X191166Y69132D01*
X191156Y69014D01*
X191166Y68897D01*
X191194Y68782D01*
X191239Y68673D01*
X191301Y68572D01*
X191378Y68483D01*
X191468Y68406D01*
X191568Y68345D01*
X191677Y68300D01*
X191792Y68272D01*
X191910Y68263D01*
X192028Y68273D01*
X192142Y68300D01*
X192166Y68310D01*
Y64500D01*
X187675D01*
Y65659D01*
X188189Y65683D01*
X188701Y65756D01*
X189204Y65876D01*
X189693Y66043D01*
X190165Y66255D01*
X190266Y66316D01*
X190357Y66393D01*
X190434Y66483D01*
X190496Y66585D01*
X190542Y66694D01*
X190570Y66810D01*
X190579Y66928D01*
X190570Y67046D01*
X190543Y67162D01*
X190497Y67272D01*
X190435Y67373D01*
X190359Y67463D01*
X190268Y67541D01*
X190167Y67603D01*
X190058Y67649D01*
X189942Y67676D01*
X189824Y67686D01*
X189705Y67677D01*
X189590Y67649D01*
X189481Y67602D01*
X189141Y67444D01*
X188785Y67323D01*
X188420Y67235D01*
X188048Y67183D01*
X187675Y67165D01*
Y75000D01*
G37*
G36*
X183180D02*X184884D01*
X184911Y74957D01*
X184987Y74867D01*
X185078Y74789D01*
X185179Y74727D01*
X185288Y74681D01*
X185404Y74654D01*
X185522Y74644D01*
X185641Y74653D01*
X185756Y74681D01*
X185865Y74728D01*
X186205Y74886D01*
X186539Y75000D01*
X187675D01*
Y67165D01*
X187673Y67165D01*
X187298Y67183D01*
X186926Y67235D01*
X186561Y67323D01*
X186205Y67444D01*
X185863Y67598D01*
X185755Y67645D01*
X185640Y67672D01*
X185522Y67682D01*
X185405Y67672D01*
X185290Y67644D01*
X185181Y67599D01*
X185080Y67537D01*
X184991Y67460D01*
X184914Y67370D01*
X184853Y67270D01*
X184808Y67161D01*
X184780Y67046D01*
X184771Y66928D01*
X184781Y66810D01*
X184808Y66696D01*
X184854Y66587D01*
X184916Y66486D01*
X184992Y66396D01*
X185082Y66320D01*
X185184Y66260D01*
X185653Y66043D01*
X186142Y65876D01*
X186645Y65756D01*
X187157Y65683D01*
X187673Y65659D01*
X187675Y65659D01*
Y64500D01*
X183180D01*
Y68305D01*
X183202Y68296D01*
X183318Y68268D01*
X183436Y68259D01*
X183554Y68268D01*
X183670Y68295D01*
X183780Y68341D01*
X183881Y68403D01*
X183971Y68479D01*
X184049Y68570D01*
X184111Y68671D01*
X184157Y68780D01*
X184184Y68896D01*
X184194Y69014D01*
X184185Y69133D01*
X184157Y69248D01*
X184110Y69357D01*
X183952Y69697D01*
X183831Y70053D01*
X183743Y70418D01*
X183691Y70790D01*
X183673Y71165D01*
X183691Y71540D01*
X183743Y71912D01*
X183831Y72277D01*
X183952Y72633D01*
X184106Y72975D01*
X184153Y73083D01*
X184180Y73198D01*
X184190Y73316D01*
X184180Y73433D01*
X184152Y73548D01*
X184107Y73657D01*
X184045Y73758D01*
X183968Y73847D01*
X183878Y73924D01*
X183778Y73985D01*
X183669Y74030D01*
X183554Y74058D01*
X183436Y74067D01*
X183318Y74057D01*
X183204Y74030D01*
X183180Y74020D01*
Y75000D01*
G37*
G36*
X177000D02*X183180D01*
Y74020D01*
X183095Y73984D01*
X182994Y73922D01*
X182904Y73846D01*
X182828Y73756D01*
X182768Y73654D01*
X182551Y73185D01*
X182384Y72696D01*
X182264Y72193D01*
X182191Y71681D01*
X182167Y71165D01*
X182191Y70649D01*
X182264Y70137D01*
X182384Y69634D01*
X182551Y69145D01*
X182763Y68673D01*
X182824Y68572D01*
X182901Y68481D01*
X182991Y68404D01*
X183093Y68342D01*
X183180Y68305D01*
Y64500D01*
X177000D01*
Y75000D01*
G37*
G36*
X192423Y92500D02*X209000D01*
Y76500D01*
X192423D01*
Y81693D01*
X192541Y81702D01*
X192655Y81730D01*
X192765Y81775D01*
X192865Y81836D01*
X192955Y81913D01*
X193032Y82003D01*
X193093Y82103D01*
X193138Y82213D01*
X193166Y82327D01*
X193173Y82445D01*
Y87445D01*
X193166Y87563D01*
X193138Y87677D01*
X193093Y87787D01*
X193032Y87887D01*
X192955Y87977D01*
X192865Y88054D01*
X192765Y88115D01*
X192655Y88160D01*
X192541Y88188D01*
X192423Y88197D01*
Y92500D01*
G37*
G36*
X187673D02*X192423D01*
Y88197D01*
X192305Y88188D01*
X192191Y88160D01*
X192081Y88115D01*
X191981Y88054D01*
X191891Y87977D01*
X191814Y87887D01*
X191753Y87787D01*
X191708Y87677D01*
X191680Y87563D01*
X191673Y87445D01*
Y82445D01*
X191680Y82327D01*
X191708Y82213D01*
X191753Y82103D01*
X191814Y82003D01*
X191891Y81913D01*
X191981Y81836D01*
X192081Y81775D01*
X192191Y81730D01*
X192305Y81702D01*
X192423Y81693D01*
Y76500D01*
X189011D01*
X188701Y76574D01*
X188189Y76647D01*
X187673Y76671D01*
Y79445D01*
X190173D01*
X190291Y79452D01*
X190405Y79480D01*
X190515Y79525D01*
X190615Y79586D01*
X190705Y79663D01*
X190782Y79753D01*
X190843Y79853D01*
X190888Y79963D01*
X190916Y80077D01*
X190925Y80195D01*
X190916Y80313D01*
X190888Y80427D01*
X190843Y80537D01*
X190782Y80637D01*
X190705Y80727D01*
X190615Y80804D01*
X190515Y80865D01*
X190405Y80910D01*
X190291Y80938D01*
X190173Y80945D01*
X187673D01*
Y88945D01*
X190173D01*
X190291Y88952D01*
X190405Y88980D01*
X190515Y89025D01*
X190615Y89086D01*
X190705Y89163D01*
X190782Y89253D01*
X190843Y89353D01*
X190888Y89463D01*
X190916Y89577D01*
X190925Y89695D01*
X190916Y89813D01*
X190888Y89927D01*
X190843Y90037D01*
X190782Y90137D01*
X190705Y90227D01*
X190615Y90304D01*
X190515Y90365D01*
X190405Y90410D01*
X190291Y90438D01*
X190173Y90445D01*
X187673D01*
Y92500D01*
G37*
G36*
X184000D02*X187673D01*
Y90445D01*
X185173D01*
X185055Y90438D01*
X184941Y90410D01*
X184831Y90365D01*
X184731Y90304D01*
X184641Y90227D01*
X184564Y90137D01*
X184503Y90037D01*
X184458Y89927D01*
X184430Y89813D01*
X184421Y89695D01*
X184430Y89577D01*
X184458Y89463D01*
X184503Y89353D01*
X184564Y89253D01*
X184641Y89163D01*
X184731Y89086D01*
X184831Y89025D01*
X184941Y88980D01*
X185055Y88952D01*
X185173Y88945D01*
X187673D01*
Y80945D01*
X185173D01*
X185055Y80938D01*
X184941Y80910D01*
X184831Y80865D01*
X184731Y80804D01*
X184641Y80727D01*
X184564Y80637D01*
X184503Y80537D01*
X184458Y80427D01*
X184430Y80313D01*
X184421Y80195D01*
X184430Y80077D01*
X184458Y79963D01*
X184503Y79853D01*
X184564Y79753D01*
X184641Y79663D01*
X184731Y79586D01*
X184831Y79525D01*
X184941Y79480D01*
X185055Y79452D01*
X185173Y79445D01*
X187673D01*
Y76671D01*
X187673D01*
X187157Y76647D01*
X186645Y76574D01*
X186335Y76500D01*
X184000D01*
Y92500D01*
G37*
G36*
X197500D02*X209000D01*
Y32000D01*
X197500D01*
Y92500D01*
G37*
G36*
X192423Y47500D02*X199000D01*
Y32000D01*
X192423D01*
Y36193D01*
X192541Y36202D01*
X192655Y36230D01*
X192765Y36275D01*
X192865Y36336D01*
X192955Y36413D01*
X193032Y36503D01*
X193093Y36603D01*
X193138Y36713D01*
X193166Y36827D01*
X193173Y36945D01*
Y41945D01*
X193166Y42063D01*
X193138Y42177D01*
X193093Y42287D01*
X193032Y42387D01*
X192955Y42477D01*
X192865Y42554D01*
X192765Y42615D01*
X192655Y42660D01*
X192541Y42688D01*
X192423Y42697D01*
Y47500D01*
G37*
G36*
X187673D02*X192423D01*
Y42697D01*
X192305Y42688D01*
X192191Y42660D01*
X192081Y42615D01*
X191981Y42554D01*
X191891Y42477D01*
X191814Y42387D01*
X191753Y42287D01*
X191708Y42177D01*
X191680Y42063D01*
X191673Y41945D01*
Y36945D01*
X191680Y36827D01*
X191708Y36713D01*
X191753Y36603D01*
X191814Y36503D01*
X191891Y36413D01*
X191981Y36336D01*
X192081Y36275D01*
X192191Y36230D01*
X192305Y36202D01*
X192423Y36193D01*
Y32000D01*
X187673D01*
Y33945D01*
X190173D01*
X190291Y33952D01*
X190405Y33980D01*
X190515Y34025D01*
X190615Y34086D01*
X190705Y34163D01*
X190782Y34253D01*
X190843Y34353D01*
X190888Y34463D01*
X190916Y34577D01*
X190925Y34695D01*
X190916Y34813D01*
X190888Y34927D01*
X190843Y35037D01*
X190782Y35137D01*
X190705Y35227D01*
X190615Y35304D01*
X190515Y35365D01*
X190405Y35410D01*
X190291Y35438D01*
X190173Y35445D01*
X187673D01*
Y43445D01*
X190173D01*
X190291Y43452D01*
X190405Y43480D01*
X190515Y43525D01*
X190615Y43586D01*
X190705Y43663D01*
X190782Y43753D01*
X190843Y43853D01*
X190888Y43963D01*
X190916Y44077D01*
X190925Y44195D01*
X190916Y44313D01*
X190888Y44427D01*
X190843Y44537D01*
X190782Y44637D01*
X190705Y44727D01*
X190615Y44804D01*
X190515Y44865D01*
X190405Y44910D01*
X190291Y44938D01*
X190173Y44945D01*
X187673D01*
Y47500D01*
G37*
G36*
X182923D02*X187673D01*
Y44945D01*
X185173D01*
X185055Y44938D01*
X184941Y44910D01*
X184831Y44865D01*
X184731Y44804D01*
X184641Y44727D01*
X184564Y44637D01*
X184503Y44537D01*
X184458Y44427D01*
X184430Y44313D01*
X184421Y44195D01*
X184430Y44077D01*
X184458Y43963D01*
X184503Y43853D01*
X184564Y43753D01*
X184641Y43663D01*
X184731Y43586D01*
X184831Y43525D01*
X184941Y43480D01*
X185055Y43452D01*
X185173Y43445D01*
X187673D01*
Y35445D01*
X185173D01*
X185055Y35438D01*
X184941Y35410D01*
X184831Y35365D01*
X184731Y35304D01*
X184641Y35227D01*
X184564Y35137D01*
X184503Y35037D01*
X184458Y34927D01*
X184430Y34813D01*
X184421Y34695D01*
X184430Y34577D01*
X184458Y34463D01*
X184503Y34353D01*
X184564Y34253D01*
X184641Y34163D01*
X184731Y34086D01*
X184831Y34025D01*
X184941Y33980D01*
X185055Y33952D01*
X185173Y33945D01*
X187673D01*
Y32000D01*
X182923D01*
Y36193D01*
X183041Y36202D01*
X183155Y36230D01*
X183265Y36275D01*
X183365Y36336D01*
X183455Y36413D01*
X183532Y36503D01*
X183593Y36603D01*
X183638Y36713D01*
X183666Y36827D01*
X183673Y36945D01*
Y41945D01*
X183666Y42063D01*
X183638Y42177D01*
X183593Y42287D01*
X183532Y42387D01*
X183455Y42477D01*
X183365Y42554D01*
X183265Y42615D01*
X183155Y42660D01*
X183041Y42688D01*
X182923Y42697D01*
Y47500D01*
G37*
G36*
X178000D02*X182923D01*
Y42697D01*
X182805Y42688D01*
X182691Y42660D01*
X182581Y42615D01*
X182481Y42554D01*
X182391Y42477D01*
X182314Y42387D01*
X182253Y42287D01*
X182208Y42177D01*
X182180Y42063D01*
X182173Y41945D01*
Y36945D01*
X182180Y36827D01*
X182208Y36713D01*
X182253Y36603D01*
X182314Y36503D01*
X182391Y36413D01*
X182481Y36336D01*
X182581Y36275D01*
X182691Y36230D01*
X182805Y36202D01*
X182923Y36193D01*
Y32000D01*
X178000D01*
Y47500D01*
G37*
G36*
X187673Y51500D02*X201500D01*
Y38500D01*
X193173D01*
Y41945D01*
X193166Y42063D01*
X193138Y42177D01*
X193093Y42287D01*
X193032Y42387D01*
X192955Y42477D01*
X192865Y42554D01*
X192765Y42615D01*
X192655Y42660D01*
X192541Y42688D01*
X192423Y42697D01*
X192305Y42688D01*
X192191Y42660D01*
X192081Y42615D01*
X191981Y42554D01*
X191891Y42477D01*
X191814Y42387D01*
X191753Y42287D01*
X191708Y42177D01*
X191680Y42063D01*
X191673Y41945D01*
Y38500D01*
X187673D01*
Y43445D01*
X190173D01*
X190291Y43452D01*
X190405Y43480D01*
X190515Y43525D01*
X190615Y43586D01*
X190705Y43663D01*
X190782Y43753D01*
X190843Y43853D01*
X190888Y43963D01*
X190916Y44077D01*
X190925Y44195D01*
X190916Y44313D01*
X190888Y44427D01*
X190843Y44537D01*
X190782Y44637D01*
X190705Y44727D01*
X190615Y44804D01*
X190515Y44865D01*
X190405Y44910D01*
X190291Y44938D01*
X190173Y44945D01*
X187673D01*
Y51500D01*
G37*
G36*
X178000D02*X187673D01*
Y44945D01*
X185173D01*
X185055Y44938D01*
X184941Y44910D01*
X184831Y44865D01*
X184731Y44804D01*
X184641Y44727D01*
X184564Y44637D01*
X184503Y44537D01*
X184458Y44427D01*
X184430Y44313D01*
X184421Y44195D01*
X184430Y44077D01*
X184458Y43963D01*
X184503Y43853D01*
X184564Y43753D01*
X184641Y43663D01*
X184731Y43586D01*
X184831Y43525D01*
X184941Y43480D01*
X185055Y43452D01*
X185173Y43445D01*
X187673D01*
Y38500D01*
X183673D01*
Y41945D01*
X183666Y42063D01*
X183638Y42177D01*
X183593Y42287D01*
X183532Y42387D01*
X183455Y42477D01*
X183365Y42554D01*
X183265Y42615D01*
X183155Y42660D01*
X183041Y42688D01*
X182923Y42697D01*
X182805Y42688D01*
X182691Y42660D01*
X182581Y42615D01*
X182481Y42554D01*
X182391Y42477D01*
X182314Y42387D01*
X182253Y42287D01*
X182208Y42177D01*
X182180Y42063D01*
X182173Y41945D01*
Y38500D01*
X178000D01*
Y51500D01*
G37*
G36*
X193500Y63000D02*X202000D01*
Y44000D01*
X193500D01*
Y63000D01*
G37*
G36*
X187673Y94000D02*X209000D01*
Y86500D01*
X193173D01*
Y87445D01*
X193166Y87563D01*
X193138Y87677D01*
X193093Y87787D01*
X193032Y87887D01*
X192955Y87977D01*
X192865Y88054D01*
X192765Y88115D01*
X192655Y88160D01*
X192541Y88188D01*
X192423Y88197D01*
X192305Y88188D01*
X192191Y88160D01*
X192081Y88115D01*
X191981Y88054D01*
X191891Y87977D01*
X191814Y87887D01*
X191753Y87787D01*
X191708Y87677D01*
X191680Y87563D01*
X191673Y87445D01*
Y86500D01*
X187673D01*
Y88945D01*
X190173D01*
X190291Y88952D01*
X190405Y88980D01*
X190515Y89025D01*
X190615Y89086D01*
X190705Y89163D01*
X190782Y89253D01*
X190843Y89353D01*
X190888Y89463D01*
X190916Y89577D01*
X190925Y89695D01*
X190916Y89813D01*
X190888Y89927D01*
X190843Y90037D01*
X190782Y90137D01*
X190705Y90227D01*
X190615Y90304D01*
X190515Y90365D01*
X190405Y90410D01*
X190291Y90438D01*
X190173Y90445D01*
X187673D01*
Y94000D01*
G37*
G36*
X164000D02*X187673D01*
Y90445D01*
X185173D01*
X185055Y90438D01*
X184941Y90410D01*
X184831Y90365D01*
X184731Y90304D01*
X184641Y90227D01*
X184564Y90137D01*
X184503Y90037D01*
X184458Y89927D01*
X184430Y89813D01*
X184421Y89695D01*
X184430Y89577D01*
X184458Y89463D01*
X184503Y89353D01*
X184564Y89253D01*
X184641Y89163D01*
X184731Y89086D01*
X184831Y89025D01*
X184941Y88980D01*
X185055Y88952D01*
X185173Y88945D01*
X187673D01*
Y86500D01*
X183673D01*
Y87445D01*
X183666Y87563D01*
X183638Y87677D01*
X183593Y87787D01*
X183532Y87887D01*
X183455Y87977D01*
X183365Y88054D01*
X183265Y88115D01*
X183155Y88160D01*
X183041Y88188D01*
X182923Y88197D01*
X182805Y88188D01*
X182691Y88160D01*
X182581Y88115D01*
X182481Y88054D01*
X182391Y87977D01*
X182314Y87887D01*
X182253Y87787D01*
X182208Y87677D01*
X182180Y87563D01*
X182173Y87445D01*
Y86500D01*
X164000D01*
Y94000D01*
G37*
G54D12*X169000Y25043D02*X168708Y25665D01*
G54D13*X160957Y26000D02*X161457Y25500D01*
X168543D02*Y17500D01*
X154000Y26000D02*X160957D01*
X153905Y16000D02*X157000D01*
X158500Y17500D01*
X161457D01*
G54D14*X168543Y8957D02*Y25500D01*
X168500D02*X187673D01*
G54D13*X168543Y17957D02*Y9043D01*
X156000Y6000D02*X151043D01*
X150043Y7000D01*
X161414Y9000D02*Y6086D01*
X163000Y4500D01*
X148000Y16000D02*X142095D01*
X139500Y7000D02*X141500D01*
X168543Y9043D02*X168500Y9000D01*
X163000Y4500D02*X175000D01*
X176500Y6000D01*
Y15500D01*
X181500Y5000D02*Y15500D01*
X139500Y2500D02*X177500D01*
X174500D02*X179000D01*
X181500Y5000D01*
G54D12*X107500Y80500D02*X105500Y78500D01*
X91500D01*
G54D14*X112500Y85250D02*Y79500D01*
X114000Y78000D01*
X121000D01*
X122500Y79500D01*
Y87000D01*
X126500Y91000D01*
X141500D01*
G54D13*X129000Y83000D02*X135500D01*
X136500Y82000D01*
G54D14*X110000Y73500D02*X102500D01*
G54D12*X95000D02*X105000D01*
G54D13*X99000D02*X102500D01*
G54D12*X117500Y85250D02*Y89500D01*
X115000Y92000D01*
X71000D01*
X107500Y85250D02*Y80500D01*
X91500Y78500D02*X88500Y81500D01*
X91500Y70000D02*X95000Y73500D01*
G54D14*X112500Y71000D02*X110000Y73500D01*
G54D13*X117500Y59000D02*Y62000D01*
G54D12*X91000Y69500D02*X93000Y71500D01*
G54D13*X86000Y61500D02*X86500Y62000D01*
G54D14*X141500Y72500D02*X142000Y72000D01*
G54D13*X136500Y82000D02*Y71500D01*
X130000Y68500D02*Y76500D01*
X135500Y56500D02*X134500Y57500D01*
X130405D01*
X130000Y57095D01*
G54D14*X112500Y64000D02*Y71000D01*
G54D13*X115453Y38421D02*X111921D01*
X107500Y64750D02*Y60000D01*
X108500Y59000D01*
X120000D01*
X118000Y50500D02*X123000D01*
X114500Y54500D02*X127405D01*
X129953Y57048D01*
X123000Y62500D02*Y60000D01*
X122000Y59000D01*
X119500D01*
X105500Y54500D02*Y50500D01*
X103500Y48500D01*
X68500Y50000D02*Y33500D01*
X83500Y43000D02*X73500D01*
X75000Y47500D02*X78000D01*
X81000Y50500D01*
X88000Y40500D02*Y48500D01*
X86000Y50500D01*
X83000Y36500D02*X93500D01*
G54D12*X91000Y55500D02*Y69500D01*
G54D13*X86000Y55500D02*Y61500D01*
X91000Y50500D02*X93500Y53000D01*
X97000D01*
X100000Y50000D01*
Y47000D01*
X97000Y44000D01*
Y34500D02*Y44000D01*
X81000Y55500D02*X79500Y57000D01*
X74000D01*
X71000Y54000D01*
X68500D01*
X94500Y13000D02*X93000Y11500D01*
X99000Y17500D02*X93500Y12000D01*
X116000Y19500D02*X89500D01*
X99000Y17500D02*X97750Y16250D01*
X106000Y15500D02*X103000Y12500D01*
Y6050D01*
X118000Y17500D02*X99000D01*
X73000Y6500D02*Y14000D01*
X76000Y17000D01*
X75000Y19000D02*X69000Y13000D01*
X64500D01*
X68000Y15000D02*X61500D01*
X63000Y11500D02*Y6050D01*
X93000Y11500D02*Y6500D01*
X83000D02*Y13000D01*
X85000Y15000D01*
X89500Y19500D02*X84000Y14000D01*
X80500Y21500D02*X75000Y16000D01*
X79500Y23500D02*X74500Y18500D01*
X78500Y25500D02*X68000Y15000D01*
X66000Y24000D02*X65000D01*
X93500Y27500D02*X75000D01*
X69000Y33000D02*X71000Y31000D01*
Y24000D01*
X68500Y33500D02*X70500Y31500D01*
X64500Y13000D02*X63000Y11500D01*
G54D12*X21173Y11886D02*X37709D01*
X39095Y10500D01*
X46000Y15405D02*X50905Y10500D01*
G54D13*X58000Y13500D02*X59500Y12000D01*
X12500Y2000D02*X55000D01*
X58000D02*X53000D01*
X61500Y20500D02*X58000Y17000D01*
Y13500D01*
X59500Y12000D02*Y3500D01*
X58000Y2000D01*
X13500D02*X4000D01*
X1500Y4500D01*
X3500Y20500D02*X5000Y19000D01*
X13500D01*
X113500Y21500D02*X80500D01*
X110000Y23500D02*X79500D01*
X98500Y25500D02*X78500D01*
X101000Y28000D02*X98500Y25500D01*
X109500Y32500D02*Y29000D01*
X108500Y28000D01*
X101000D01*
X98500Y31000D02*X101500D01*
X102500Y32000D01*
X97000Y34500D02*X95000Y32500D01*
Y29000D01*
X93500Y27500D01*
G54D12*X21173Y25665D02*X16835D01*
X13000Y29500D01*
G54D13*X65000Y24000D02*X60000Y19000D01*
X62000Y26000D02*X54000Y34000D01*
G54D12*X12500Y30000D02*X15000Y27500D01*
X46000Y25000D02*Y15405D01*
G54D13*X54000Y34000D02*X37000D01*
X34500Y31500D01*
Y21000D01*
X32500Y19000D01*
X11000D01*
X136484Y34484D02*X137500Y35500D01*
Y40000D01*
X138500Y41000D01*
X142457D01*
X137516Y32516D02*X139000Y34000D01*
X142457D02*X142500Y33957D01*
X139000Y34000D02*X142000D01*
X135500Y44000D02*Y56500D01*
X136484Y34484D02*X125984D01*
X115453Y32516D02*X124016D01*
X125984Y34484D02*X124016Y32516D01*
X115453Y34484D02*X111484D01*
X109500Y32500D01*
X111921Y38421D02*X106000Y32500D01*
X102500Y32000D02*Y38000D01*
X115453Y40390D02*X108610D01*
X118110Y43047D02*X111453D01*
X120079D02*Y45421D01*
X119000Y46500D01*
X114500D01*
X112500Y48500D01*
X130543Y50000D02*X135500D01*
X111453Y43047D02*X110500Y44000D01*
X108500Y4000D02*Y7500D01*
X109500Y8500D01*
X111700D01*
X111800Y8400D01*
X120000Y12300D02*Y13500D01*
X124000Y17500D01*
Y19000D01*
X122047Y18547D02*X119000Y15500D01*
X130043Y11500D02*X126000Y15543D01*
Y17500D01*
X119000Y15500D02*X106000D01*
X120079Y19579D02*X118000Y17500D01*
X120000Y4500D02*X127043D01*
X128500Y5957D01*
X115453Y26610D02*Y23453D01*
X113500Y21500D01*
X115453Y28579D02*X113579D01*
X112000Y27000D01*
Y25500D01*
X110000Y23500D01*
X118110Y23953D02*Y21610D01*
X116000Y19500D01*
X120079Y23953D02*Y19579D01*
X134547Y32516D02*X137516D01*
X134547Y26610D02*X136890D01*
X134547Y28579D02*X139611D01*
X142190Y26000D01*
X136890Y26610D02*X138000Y25500D01*
Y22000D02*X142500Y17500D01*
X135000Y22000D02*X138000Y19000D01*
Y10000D01*
X132000Y24000D02*X134000D01*
X135000Y23000D01*
X138000Y25500D02*Y22000D01*
X135000Y23000D02*Y22000D01*
X131500Y20500D02*X133500D01*
X134500Y19500D01*
Y16000D01*
Y11500D02*X130043D01*
X140500Y2500D02*X131000D01*
X128500Y5000D01*
X138000Y11000D02*Y8500D01*
X139500Y7000D01*
X124000Y18500D02*Y24000D01*
X122047Y23953D02*Y18547D01*
X126000Y23000D02*Y15543D01*
Y21500D02*Y24000D01*
X129921Y23953D02*Y22079D01*
X131500Y20500D01*
X127953Y23953D02*Y19547D01*
X130000Y17500D01*
G54D14*X60300Y53900D02*X54400D01*
G54D13*X63000Y39950D02*Y47500D01*
X62500Y48000D01*
G54D14*X54400Y53900D02*X45500Y45000D01*
G54D13*X64000Y62500D02*Y55500D01*
X65500Y54000D01*
G54D12*X63000Y39500D02*X51500D01*
X49500Y37500D01*
X40500D01*
X37000Y41000D01*
X71000Y92000D02*X68500Y89500D01*
Y81500D01*
G54D14*Y57800D02*Y66000D01*
G54D13*X61500Y65000D02*X64000Y62500D01*
G54D14*X57500Y89000D02*Y77000D01*
X68500Y66000D01*
X38500Y73000D02*X40500Y75000D01*
X55000D01*
X57500Y77500D01*
G54D13*X65500Y54000D02*X69500D01*
X46000Y65000D02*X61500D01*
X13000Y71000D02*X21008D01*
X21173Y71165D01*
X12000Y85000D02*X21118D01*
X21173Y84945D01*
G54D14*X57500Y84000D02*Y88500D01*
G54D12*X46000Y85000D02*X35000D01*
X30500Y80500D01*
Y51500D01*
X28500Y49500D02*X14500D01*
X12500Y47500D01*
G54D14*X38500Y66500D02*Y73000D01*
X21000Y39500D02*X36000D01*
X38500Y42000D01*
Y69000D01*
G54D12*X30500Y51500D02*X28500Y49500D01*
X12500Y47500D02*Y30000D01*
G54D13*X1500Y4500D02*Y83000D01*
X3500Y85000D01*
X5000Y71000D02*X3500Y69500D01*
Y20500D01*
Y85000D02*X15000D01*
X14500Y71000D02*X5000D01*
G54D11*G36*
X17173Y88945D02*Y80945D01*
X25173D01*
Y88945D01*
X17173D01*
G37*
G54D15*X21173Y71165D03*
Y57386D03*
X46000Y65000D03*
G54D11*G36*
X17173Y43445D02*Y35445D01*
X25173D01*
Y43445D01*
X17173D01*
G37*
G54D15*X21173Y25665D03*
Y11886D03*
X46000Y45000D03*
Y25000D03*
G54D11*G36*
X183673Y43445D02*Y35445D01*
X191673D01*
Y43445D01*
X183673D01*
G37*
G54D15*X187673Y25665D03*
Y11886D03*
G54D11*G36*
X183673Y88945D02*Y80945D01*
X191673D01*
Y88945D01*
X183673D01*
G37*
G36*
X42000Y89000D02*Y81000D01*
X50000D01*
Y89000D01*
X42000D01*
G37*
G54D15*X187673Y71165D03*
Y57386D03*
G54D11*G36*
X84500Y85500D02*Y77500D01*
X92500D01*
Y85500D01*
X84500D01*
G37*
G54D15*X68500Y81500D03*
G54D16*X161457Y25893D02*Y25107D01*
X168543Y25893D02*Y25107D01*
G54D17*X133720Y26610D02*X135374D01*
X133720Y28579D02*X135374D01*
X133720Y30547D02*X135374D01*
X131890Y24780D02*Y23126D01*
G54D16*X142107Y33957D02*X142893D01*
X142190Y27181D02*Y24819D01*
X142095Y17181D02*Y14819D01*
X141457Y7393D02*Y6607D01*
X161457Y17893D02*Y17107D01*
X168543Y17893D02*Y17107D01*
G54D17*X133720Y32516D02*X135374D01*
X133720Y34484D02*X135374D01*
X133720Y36453D02*X135374D01*
G54D16*X142107Y41043D02*X142893D01*
G54D17*X133720Y38421D02*X135374D01*
X133720Y40390D02*X135374D01*
X131890Y43874D02*Y42220D01*
G54D16*X128819Y57095D02*X131181D01*
X130543Y50393D02*Y49607D01*
X123457Y50393D02*Y49607D01*
G54D18*X168906Y58405D02*Y54311D01*
G54D19*X166900Y76600D02*X168100D01*
X166900Y89500D02*X168100D01*
G54D18*X163000Y58405D02*Y46595D01*
G54D20*Y44861D02*Y42971D01*
G54D11*G36*
X164885Y52426D02*X167725Y49586D01*
X166305Y48166D01*
X163465Y51006D01*
X164885Y52426D01*
G37*
G36*
X158275Y49586D02*X161115Y52426D01*
X162535Y51006D01*
X159695Y48166D01*
X158275Y49586D01*
G37*
G54D18*X157094Y58405D02*Y54311D01*
G54D21*X149000Y89992D02*Y83693D01*
Y70307D02*Y64008D01*
G54D16*X148607Y55043D02*X149393D01*
X148607Y47957D02*X149393D01*
X150607Y33957D02*X151393D01*
X154000Y27181D02*Y24819D01*
X153905Y17181D02*Y14819D01*
X150607Y41043D02*X151393D01*
X161414Y9393D02*Y8607D01*
X168500Y9393D02*Y8607D01*
X148543Y7393D02*Y6607D01*
X39095Y11681D02*Y9319D01*
X50905Y11681D02*Y9319D01*
G54D17*X129921Y43874D02*Y42220D01*
X127953Y43874D02*Y42220D01*
X125984Y43874D02*Y42220D01*
X124016Y43874D02*Y42220D01*
X122047Y43874D02*Y42220D01*
X120079Y43874D02*Y42220D01*
X118110Y43874D02*Y42220D01*
X114626Y40390D02*X116280D01*
X114626Y38421D02*X116280D01*
X114626Y36453D02*X116280D01*
X114626Y34484D02*X116280D01*
X114626Y32516D02*X116280D01*
X114626Y30547D02*X116280D01*
X114626Y28579D02*X116280D01*
X114626Y26610D02*X116280D01*
X118110Y24780D02*Y23126D01*
X120079Y24780D02*Y23126D01*
X122047Y24780D02*Y23126D01*
X124016Y24780D02*Y23126D01*
X125984Y24780D02*Y23126D01*
X127953Y24780D02*Y23126D01*
X129921Y24780D02*Y23126D01*
G54D11*G36*
X119685Y38815D02*Y28185D01*
X130315D01*
Y38815D01*
X119685D01*
G37*
G36*
X118897Y39602D02*Y27398D01*
X131102D01*
Y39602D01*
X118897D01*
G37*
G54D22*X119700Y4500D02*X120300D01*
X119700Y12300D02*X120300D01*
X111500Y8400D02*X112100D01*
G54D16*X128107Y12043D02*X128893D01*
X128107Y4957D02*X128893D01*
G54D23*X63000Y8650D02*Y3450D01*
X73000Y8650D02*Y3450D01*
X83000Y8650D02*Y3450D01*
X93000Y8650D02*Y3450D01*
X103000Y8650D02*Y3450D01*
G54D22*X68200Y50000D02*X68800D01*
X60000Y53900D02*X60600D01*
G54D23*X63000Y42550D02*Y37350D01*
X73000Y42550D02*Y37350D01*
G54D22*X68200Y57800D02*X68800D01*
G54D24*X81000Y50500D03*
Y55500D03*
X86000Y50500D03*
Y55500D03*
G54D16*X129607Y75414D02*X130393D01*
X129607Y82500D02*X130393D01*
X128819Y68905D02*X131181D01*
G54D25*X117500Y68000D02*Y61500D01*
Y88500D02*Y82000D01*
X112500Y88500D02*Y82000D01*
X107500Y88500D02*Y82000D01*
X102500Y88500D02*Y82000D01*
G54D23*X83000Y42550D02*Y37350D01*
X93000Y42550D02*Y37350D01*
X103000Y42550D02*Y37350D01*
G54D25*X102500Y68000D02*Y61500D01*
X107500Y68000D02*Y61500D01*
X112500Y68000D02*Y61500D01*
G54D16*X105457Y54893D02*Y54107D01*
X112543Y54893D02*Y54107D01*
G54D24*X91000Y50500D03*
Y55500D03*
G54D26*X108500Y4000D03*
X110500Y44000D03*
X112500Y48500D03*
X108000Y40000D03*
X106000Y32500D03*
X103500Y48500D03*
X156000Y6000D03*
X176500Y15500D03*
X181500D03*
X163500Y33500D03*
X134500Y16000D03*
Y11500D03*
X130000Y17500D03*
X148000Y16000D03*
X61500Y15000D03*
X71000Y24000D03*
X66000D03*
X62000Y26000D03*
X88000Y40500D03*
X62500Y48000D03*
X78000Y43000D03*
X75000Y47500D03*
X103500Y28000D03*
X98500Y31000D03*
X75000Y27500D03*
X102500Y73500D03*
X107500D03*
X86500Y62000D03*
X57500Y89000D03*
Y84000D03*
X155000Y47500D03*
X135500Y44000D03*
X141500Y53000D03*
X118000Y50500D03*
X142000Y72000D03*
Y65500D03*
X137500Y72000D03*
Y65500D03*
X123000Y62500D03*
G54D27*G54D28*G54D29*G54D28*G54D29*G54D28*G54D29*G54D28*G54D30*G54D31*M02*
