G04 start of page 11 for group -4015 idx -4015 *
G04 Title: (unknown), toppaste *
G04 Creator: pcb 4.0.2 *
G04 CreationDate: Mon Feb 22 17:58:17 2021 UTC *
G04 For: ndholmes *
G04 Format: Gerber/RS-274X *
G04 PCB-Dimensions (mil): 2100.00 1750.00 *
G04 PCB-Coordinate-Origin: lower left *
%MOIN*%
%FSLAX25Y25*%
%LNTOPPASTE*%
%ADD54C,0.0001*%
G54D54*G36*
X55612Y66424D02*X53940D01*
Y62880D01*
X55612D01*
Y66424D01*
G37*
G36*
X58762D02*X57088D01*
Y62880D01*
X58762D01*
Y66424D01*
G37*
G36*
X61912D02*X60238D01*
Y62880D01*
X61912D01*
Y66424D01*
G37*
G36*
X65060D02*X63388D01*
Y62880D01*
X65060D01*
Y66424D01*
G37*
G36*
Y73120D02*X63388D01*
Y69576D01*
X65060D01*
Y73120D01*
G37*
G36*
X61912D02*X60238D01*
Y69576D01*
X61912D01*
Y73120D01*
G37*
G36*
X58762D02*X57088D01*
Y69576D01*
X58762D01*
Y73120D01*
G37*
G36*
X55612D02*X53940D01*
Y69576D01*
X55612D01*
Y73120D01*
G37*
G36*
X148016Y155452D02*X142898D01*
Y149548D01*
X148016D01*
Y155452D01*
G37*
G36*
X155102D02*X149984D01*
Y149548D01*
X155102D01*
Y155452D01*
G37*
G36*
X101516Y9952D02*X96398D01*
Y4048D01*
X101516D01*
Y9952D01*
G37*
G36*
X108602D02*X103484D01*
Y4048D01*
X108602D01*
Y9952D01*
G37*
G36*
X101516Y19952D02*X96398D01*
Y14048D01*
X101516D01*
Y19952D01*
G37*
G36*
X108602D02*X103484D01*
Y14048D01*
X108602D01*
Y19952D01*
G37*
G36*
X101000Y125500D02*Y123500D01*
X109500D01*
Y125500D01*
X101000D01*
G37*
G36*
Y120500D02*Y118500D01*
X109500D01*
Y120500D01*
X101000D01*
G37*
G36*
Y115500D02*Y113500D01*
X109500D01*
Y115500D01*
X101000D01*
G37*
G36*
Y110500D02*Y108500D01*
X109500D01*
Y110500D01*
X101000D01*
G37*
G36*
X121500D02*Y108500D01*
X130000D01*
Y110500D01*
X121500D01*
G37*
G36*
Y115500D02*Y113500D01*
X130000D01*
Y115500D01*
X121500D01*
G37*
G36*
Y120500D02*Y118500D01*
X130000D01*
Y120500D01*
X121500D01*
G37*
G36*
Y125500D02*Y123500D01*
X130000D01*
Y125500D01*
X121500D01*
G37*
G36*
X79250Y42550D02*Y39450D01*
X83250D01*
Y42550D01*
X79250D01*
G37*
G36*
X53750D02*Y39450D01*
X57750D01*
Y42550D01*
X53750D01*
G37*
G36*
X79250Y52550D02*Y49450D01*
X83250D01*
Y52550D01*
X79250D01*
G37*
G36*
X53750D02*Y49450D01*
X57750D01*
Y52550D01*
X53750D01*
G37*
G36*
X45154Y32240D02*X40036D01*
Y24760D01*
X45154D01*
Y32240D01*
G37*
G36*
X56964D02*X51846D01*
Y24760D01*
X56964D01*
Y32240D01*
G37*
G36*
X89143Y77516D02*Y72398D01*
X95047D01*
Y77516D01*
X89143D01*
G37*
G36*
Y84602D02*Y79484D01*
X95047D01*
Y84602D01*
X89143D01*
G37*
G36*
X101000Y89000D02*Y87000D01*
X109500D01*
Y89000D01*
X101000D01*
G37*
G36*
Y84000D02*Y82000D01*
X109500D01*
Y84000D01*
X101000D01*
G37*
G36*
Y79000D02*Y77000D01*
X109500D01*
Y79000D01*
X101000D01*
G37*
G36*
Y74000D02*Y72000D01*
X109500D01*
Y74000D01*
X101000D01*
G37*
G36*
Y69000D02*Y67000D01*
X109500D01*
Y69000D01*
X101000D01*
G37*
G36*
Y64000D02*Y62000D01*
X109500D01*
Y64000D01*
X101000D01*
G37*
G36*
Y59000D02*Y57000D01*
X109500D01*
Y59000D01*
X101000D01*
G37*
G36*
X121500D02*Y57000D01*
X130000D01*
Y59000D01*
X121500D01*
G37*
G36*
Y64000D02*Y62000D01*
X130000D01*
Y64000D01*
X121500D01*
G37*
G36*
Y69000D02*Y67000D01*
X130000D01*
Y69000D01*
X121500D01*
G37*
G36*
Y74000D02*Y72000D01*
X130000D01*
Y74000D01*
X121500D01*
G37*
G36*
Y79000D02*Y77000D01*
X130000D01*
Y79000D01*
X121500D01*
G37*
G36*
Y84000D02*Y82000D01*
X130000D01*
Y84000D01*
X121500D01*
G37*
G36*
Y89000D02*Y87000D01*
X130000D01*
Y89000D01*
X121500D01*
G37*
G36*
X153548Y53516D02*Y48398D01*
X159452D01*
Y53516D01*
X153548D01*
G37*
G36*
Y60602D02*Y55484D01*
X159452D01*
Y60602D01*
X153548D01*
G37*
G36*
X154048Y70559D02*Y65441D01*
X159952D01*
Y70559D01*
X154048D01*
G37*
G36*
Y77645D02*Y72527D01*
X159952D01*
Y77645D01*
X154048D01*
G37*
G36*
X82048Y105516D02*Y100398D01*
X87952D01*
Y105516D01*
X82048D01*
G37*
G36*
Y112602D02*Y107484D01*
X87952D01*
Y112602D01*
X82048D01*
G37*
G36*
X62421Y116484D02*Y112704D01*
X70295D01*
Y116484D01*
X62421D01*
G37*
G36*
X54705Y122390D02*Y118610D01*
X70295D01*
Y122390D01*
X54705D01*
G37*
G36*
X48246Y125225D02*Y115775D01*
X59586D01*
Y125225D01*
X48246D01*
G37*
G36*
X62426Y118615D02*X61006Y120035D01*
X58166Y117195D01*
X59586Y115775D01*
X62426Y118615D01*
G37*
G36*
X59586Y125225D02*X58166Y123805D01*
X61006Y120965D01*
X62426Y122385D01*
X59586Y125225D01*
G37*
G36*
X62421Y128296D02*Y124516D01*
X70295D01*
Y128296D01*
X62421D01*
G37*
G36*
X42250Y150750D02*Y145250D01*
X49750D01*
Y150750D01*
X42250D01*
G37*
G36*
Y163750D02*Y158250D01*
X49750D01*
Y163750D01*
X42250D01*
G37*
G36*
X101516Y39952D02*X96398D01*
Y34048D01*
X101516D01*
Y39952D01*
G37*
G36*
X108602D02*X103484D01*
Y34048D01*
X108602D01*
Y39952D01*
G37*
G36*
X82048Y129602D02*Y124484D01*
X87952D01*
Y129602D01*
X82048D01*
G37*
G36*
Y122516D02*Y117398D01*
X87952D01*
Y122516D01*
X82048D01*
G37*
G36*
X73650Y150957D02*X67350D01*
Y138358D01*
X73650D01*
Y150957D01*
G37*
G36*
Y170642D02*X67350D01*
Y158043D01*
X73650D01*
Y170642D01*
G37*
G36*
X54700Y106000D02*X51300D01*
Y102000D01*
X54700D01*
Y106000D01*
G37*
G36*
X46900D02*X43500D01*
Y102000D01*
X46900D01*
Y106000D01*
G37*
G36*
X50800Y97800D02*X47400D01*
Y93800D01*
X50800D01*
Y97800D01*
G37*
G36*
X101516Y49952D02*X96398D01*
Y44048D01*
X101516D01*
Y49952D01*
G37*
G36*
X108602D02*X103484D01*
Y44048D01*
X108602D01*
Y49952D01*
G37*
G36*
X148250Y138700D02*Y134300D01*
X157850D01*
Y138700D01*
X148250D01*
G37*
G36*
X182150D02*Y134300D01*
X191750D01*
Y138700D01*
X182150D01*
G37*
G36*
X148250Y128700D02*Y124300D01*
X157850D01*
Y128700D01*
X148250D01*
G37*
G36*
X182150D02*Y124300D01*
X191750D01*
Y128700D01*
X182150D01*
G37*
G36*
X148250Y118700D02*Y114300D01*
X157850D01*
Y118700D01*
X148250D01*
G37*
G36*
X182150D02*Y114300D01*
X191750D01*
Y118700D01*
X182150D01*
G37*
G36*
X148250Y108700D02*Y104300D01*
X157850D01*
Y108700D01*
X148250D01*
G37*
G36*
X182150D02*Y104300D01*
X191750D01*
Y108700D01*
X182150D01*
G37*
G36*
X148250Y98700D02*Y94300D01*
X157850D01*
Y98700D01*
X148250D01*
G37*
G36*
X182150D02*Y94300D01*
X191750D01*
Y98700D01*
X182150D01*
G37*
G36*
X101559Y29952D02*X96441D01*
Y24048D01*
X101559D01*
Y29952D01*
G37*
G36*
X108645D02*X103527D01*
Y24048D01*
X108645D01*
Y29952D01*
G37*
G36*
X146602Y45952D02*X141484D01*
Y40048D01*
X146602D01*
Y45952D01*
G37*
G36*
X139516D02*X134398D01*
Y40048D01*
X139516D01*
Y45952D01*
G37*
G36*
X151775Y23051D02*X149413D01*
Y16949D01*
X151775D01*
Y23051D01*
G37*
G36*
X155712D02*X153350D01*
Y16949D01*
X155712D01*
Y23051D01*
G37*
G36*
X159650D02*X157288D01*
Y16949D01*
X159650D01*
Y23051D01*
G37*
G36*
X163587D02*X161225D01*
Y16949D01*
X163587D01*
Y23051D01*
G37*
G36*
X147838Y8287D02*X143114D01*
Y1201D01*
X147838D01*
Y8287D01*
G37*
G36*
X169886D02*X165162D01*
Y1201D01*
X169886D01*
Y8287D01*
G37*
M02*
