G04 start of page 7 for group -4063 idx -4063 *
G04 Title: (unknown), componentmask *
G04 Creator: pcb 4.0.2 *
G04 CreationDate: Mon Feb 22 17:58:17 2021 UTC *
G04 For: ndholmes *
G04 Format: Gerber/RS-274X *
G04 PCB-Dimensions (mil): 2100.00 1750.00 *
G04 PCB-Coordinate-Origin: lower left *
%MOIN*%
%FSLAX25Y25*%
%LNTOPMASK*%
%ADD47C,0.0370*%
%ADD46C,0.0490*%
%ADD45C,0.0860*%
%ADD44C,0.0001*%
%ADD43C,0.2997*%
G54D43*X190000Y158000D03*
G54D44*G36*
X121200Y154800D02*Y146200D01*
X129800D01*
Y154800D01*
X121200D01*
G37*
G54D45*X105500Y150500D03*
G54D43*X17000Y17000D03*
X190000D03*
X17000Y158000D03*
G54D44*G36*
X20700Y133580D02*Y124980D01*
X29300D01*
Y133580D01*
X20700D01*
G37*
G54D45*X25000Y115500D03*
Y101721D03*
G54D44*G36*
X19200Y76352D02*Y67752D01*
X27800D01*
Y76352D01*
X19200D01*
G37*
G54D45*X23500Y52052D03*
G54D46*X62000Y87500D03*
X82000Y91500D03*
Y83500D03*
G54D44*G36*
X180700Y77080D02*Y68480D01*
X189300D01*
Y77080D01*
X180700D01*
G37*
G54D45*X185000Y59000D03*
Y45221D03*
G54D44*G36*
X62212Y66724D02*X59938D01*
Y62580D01*
X62212D01*
Y66724D01*
G37*
G36*
X65360D02*X63088D01*
Y62580D01*
X65360D01*
Y66724D01*
G37*
G36*
Y73420D02*X63088D01*
Y69276D01*
X65360D01*
Y73420D01*
G37*
G36*
X62212D02*X59938D01*
Y69276D01*
X62212D01*
Y73420D01*
G37*
G36*
X59062D02*X56788D01*
Y69276D01*
X59062D01*
Y73420D01*
G37*
G36*
X55912Y66724D02*X53640D01*
Y62580D01*
X55912D01*
Y66724D01*
G37*
G36*
X59062D02*X56788D01*
Y62580D01*
X59062D01*
Y66724D01*
G37*
G36*
X55912Y73420D02*X53640D01*
Y69276D01*
X55912D01*
Y73420D01*
G37*
G36*
X53650Y42650D02*Y39350D01*
X57850D01*
Y42650D01*
X53650D01*
G37*
G36*
Y52650D02*Y49350D01*
X57850D01*
Y52650D01*
X53650D01*
G37*
G36*
X45454Y32540D02*X39736D01*
Y24460D01*
X45454D01*
Y32540D01*
G37*
G36*
X57264D02*X51546D01*
Y24460D01*
X57264D01*
Y32540D01*
G37*
G54D47*X67000Y85000D03*
Y90000D03*
G54D44*G36*
X101816Y10252D02*X96098D01*
Y3748D01*
X101816D01*
Y10252D01*
G37*
G36*
X108902D02*X103184D01*
Y3748D01*
X108902D01*
Y10252D01*
G37*
G36*
X101816Y20252D02*X96098D01*
Y13748D01*
X101816D01*
Y20252D01*
G37*
G36*
X108902D02*X103184D01*
Y13748D01*
X108902D01*
Y20252D01*
G37*
G36*
X79150Y42650D02*Y39350D01*
X83350D01*
Y42650D01*
X79150D01*
G37*
G36*
Y52650D02*Y49350D01*
X83350D01*
Y52650D01*
X79150D01*
G37*
G36*
X101816Y40252D02*X96098D01*
Y33748D01*
X101816D01*
Y40252D01*
G37*
G36*
X101859Y30252D02*X96141D01*
Y23748D01*
X101859D01*
Y30252D01*
G37*
G36*
X108902Y40252D02*X103184D01*
Y33748D01*
X108902D01*
Y40252D01*
G37*
G36*
X108945Y30252D02*X103227D01*
Y23748D01*
X108945D01*
Y30252D01*
G37*
G36*
X101816Y50252D02*X96098D01*
Y43748D01*
X101816D01*
Y50252D01*
G37*
G36*
X108902D02*X103184D01*
Y43748D01*
X108902D01*
Y50252D01*
G37*
G36*
X88843Y77816D02*Y72098D01*
X95347D01*
Y77816D01*
X88843D01*
G37*
G36*
Y84902D02*Y79184D01*
X95347D01*
Y84902D01*
X88843D01*
G37*
G36*
X100500Y89500D02*Y86500D01*
X110000D01*
Y89500D01*
X100500D01*
G37*
G36*
Y84500D02*Y81500D01*
X110000D01*
Y84500D01*
X100500D01*
G37*
G36*
Y79500D02*Y76500D01*
X110000D01*
Y79500D01*
X100500D01*
G37*
G36*
Y74500D02*Y71500D01*
X110000D01*
Y74500D01*
X100500D01*
G37*
G36*
Y69500D02*Y66500D01*
X110000D01*
Y69500D01*
X100500D01*
G37*
G36*
X121000D02*Y66500D01*
X130500D01*
Y69500D01*
X121000D01*
G37*
G36*
Y74500D02*Y71500D01*
X130500D01*
Y74500D01*
X121000D01*
G37*
G36*
Y79500D02*Y76500D01*
X130500D01*
Y79500D01*
X121000D01*
G37*
G36*
Y84500D02*Y81500D01*
X130500D01*
Y84500D01*
X121000D01*
G37*
G36*
Y89500D02*Y86500D01*
X130500D01*
Y89500D01*
X121000D01*
G37*
G36*
X100500Y64500D02*Y61500D01*
X110000D01*
Y64500D01*
X100500D01*
G37*
G36*
X121000D02*Y61500D01*
X130500D01*
Y64500D01*
X121000D01*
G37*
G36*
X153748Y70859D02*Y65141D01*
X160252D01*
Y70859D01*
X153748D01*
G37*
G36*
Y77945D02*Y72227D01*
X160252D01*
Y77945D01*
X153748D01*
G37*
G36*
X147850Y99100D02*Y93900D01*
X158250D01*
Y99100D01*
X147850D01*
G37*
G36*
X100500Y59500D02*Y56500D01*
X110000D01*
Y59500D01*
X100500D01*
G37*
G36*
X121000D02*Y56500D01*
X130500D01*
Y59500D01*
X121000D01*
G37*
G36*
X153248Y53816D02*Y48098D01*
X159752D01*
Y53816D01*
X153248D01*
G37*
G36*
Y60902D02*Y55184D01*
X159752D01*
Y60902D01*
X153248D01*
G37*
G36*
X146902Y46252D02*X141184D01*
Y39748D01*
X146902D01*
Y46252D01*
G37*
G36*
X139816D02*X134098D01*
Y39748D01*
X139816D01*
Y46252D01*
G37*
G36*
X152075Y23351D02*X149113D01*
Y16649D01*
X152075D01*
Y23351D01*
G37*
G36*
X156012D02*X153050D01*
Y16649D01*
X156012D01*
Y23351D01*
G37*
G36*
X159950D02*X156988D01*
Y16649D01*
X159950D01*
Y23351D01*
G37*
G36*
X163887D02*X160925D01*
Y16649D01*
X163887D01*
Y23351D01*
G37*
G36*
X148138Y8587D02*X142814D01*
Y901D01*
X148138D01*
Y8587D01*
G37*
G36*
X170186D02*X164862D01*
Y901D01*
X170186D01*
Y8587D01*
G37*
G36*
X148316Y155752D02*X142598D01*
Y149248D01*
X148316D01*
Y155752D01*
G37*
G36*
X155402D02*X149684D01*
Y149248D01*
X155402D01*
Y155752D01*
G37*
G36*
X147850Y139100D02*Y133900D01*
X158250D01*
Y139100D01*
X147850D01*
G37*
G36*
X181750D02*Y133900D01*
X192150D01*
Y139100D01*
X181750D01*
G37*
G36*
X147850Y129100D02*Y123900D01*
X158250D01*
Y129100D01*
X147850D01*
G37*
G36*
X181750D02*Y123900D01*
X192150D01*
Y129100D01*
X181750D01*
G37*
G36*
X100500Y126000D02*Y123000D01*
X110000D01*
Y126000D01*
X100500D01*
G37*
G36*
Y121000D02*Y118000D01*
X110000D01*
Y121000D01*
X100500D01*
G37*
G36*
Y116000D02*Y113000D01*
X110000D01*
Y116000D01*
X100500D01*
G37*
G36*
Y111000D02*Y108000D01*
X110000D01*
Y111000D01*
X100500D01*
G37*
G36*
X121000D02*Y108000D01*
X130500D01*
Y111000D01*
X121000D01*
G37*
G36*
X147850Y109100D02*Y103900D01*
X158250D01*
Y109100D01*
X147850D01*
G37*
G36*
X181750D02*Y103900D01*
X192150D01*
Y109100D01*
X181750D01*
G37*
G36*
Y99100D02*Y93900D01*
X192150D01*
Y99100D01*
X181750D01*
G37*
G36*
X121000Y116000D02*Y113000D01*
X130500D01*
Y116000D01*
X121000D01*
G37*
G36*
Y121000D02*Y118000D01*
X130500D01*
Y121000D01*
X121000D01*
G37*
G36*
Y126000D02*Y123000D01*
X130500D01*
Y126000D01*
X121000D01*
G37*
G36*
X147850Y119100D02*Y113900D01*
X158250D01*
Y119100D01*
X147850D01*
G37*
G36*
X181750D02*Y113900D01*
X192150D01*
Y119100D01*
X181750D01*
G37*
G36*
X41950Y151050D02*Y144950D01*
X50050D01*
Y151050D01*
X41950D01*
G37*
G36*
X73950Y151257D02*X67050D01*
Y138058D01*
X73950D01*
Y151257D01*
G37*
G36*
X41950Y164050D02*Y157950D01*
X50050D01*
Y164050D01*
X41950D01*
G37*
G36*
X73950Y170942D02*X67050D01*
Y157743D01*
X73950D01*
Y170942D01*
G37*
G36*
X81748Y105816D02*Y100098D01*
X88252D01*
Y105816D01*
X81748D01*
G37*
G36*
X55000Y106300D02*X51000D01*
Y101700D01*
X55000D01*
Y106300D01*
G37*
G36*
X47200D02*X43200D01*
Y101700D01*
X47200D01*
Y106300D01*
G37*
G36*
X51100Y98100D02*X47100D01*
Y93500D01*
X51100D01*
Y98100D01*
G37*
G36*
X81748Y112902D02*Y107184D01*
X88252D01*
Y112902D01*
X81748D01*
G37*
G36*
Y129902D02*Y124184D01*
X88252D01*
Y129902D01*
X81748D01*
G37*
G36*
Y122816D02*Y117098D01*
X88252D01*
Y122816D01*
X81748D01*
G37*
G36*
X62121Y116784D02*Y112404D01*
X70595D01*
Y116784D01*
X62121D01*
G37*
G36*
X54405Y122690D02*Y118310D01*
X70595D01*
Y122690D01*
X54405D01*
G37*
G36*
X47946Y125525D02*Y115475D01*
X59886D01*
Y125525D01*
X47946D01*
G37*
G36*
X62850Y118615D02*X61006Y120459D01*
X57742Y117195D01*
X59586Y115351D01*
X62850Y118615D01*
G37*
G36*
X59586Y125649D02*X57742Y123805D01*
X61006Y120541D01*
X62850Y122385D01*
X59586Y125649D01*
G37*
G36*
X62121Y128596D02*Y124216D01*
X70595D01*
Y128596D01*
X62121D01*
G37*
G54D47*X72000Y85000D03*
Y90000D03*
X77000D03*
Y85000D03*
M02*
