G04 start of page 9 for group -4079 idx -4079 *
G04 Title: (unknown), topsilk *
G04 Creator: pcb 4.0.2 *
G04 CreationDate: Mon Feb 22 17:58:17 2021 UTC *
G04 For: ndholmes *
G04 Format: Gerber/RS-274X *
G04 PCB-Dimensions (mil): 2100.00 1750.00 *
G04 PCB-Coordinate-Origin: lower left *
%MOIN*%
%FSLAX25Y25*%
%LNTOPSILK*%
%ADD53C,0.0080*%
%ADD52C,0.0100*%
G54D52*X500Y174500D02*Y500D01*
X209500D02*Y174500D01*
X500D01*
X209500Y500D02*X500D01*
G54D53*X133000Y126000D02*X135000Y124000D01*
X133000D02*X135000Y126000D01*
X133000Y125000D02*X135000D01*
X134000Y126000D02*Y124000D01*
X132500Y89000D02*X134500Y87000D01*
X132500D02*X134500Y89000D01*
X132500Y88000D02*X134500D01*
X133500Y89000D02*Y87000D01*
X6000Y136500D02*Y134500D01*
X5000Y135500D02*X7000D01*
X4000Y132800D02*Y131800D01*
Y132300D02*X8000D01*
X7000Y133300D02*X8000Y132300D01*
X7500Y130600D02*X8000Y130100D01*
Y128600D01*
X7500Y128100D01*
X6500D02*X7500D01*
X4000Y130600D02*X6500Y128100D01*
X4000Y130600D02*Y128100D01*
X5000Y126900D02*X8000D01*
X5000D02*X4000Y125900D01*
X5000Y124900D01*
X8000D01*
X4000Y106000D02*Y104500D01*
X4500Y106500D02*X4000Y106000D01*
X4500Y106500D02*X7500D01*
X8000Y106000D01*
Y104500D01*
Y103300D02*Y101300D01*
X4000Y102300D02*X8000D01*
Y100100D02*Y98100D01*
X7500Y97600D01*
X6500D02*X7500D01*
X6000Y98100D02*X6500Y97600D01*
X6000Y99600D02*Y98100D01*
X4000Y99600D02*X8000D01*
X6000D02*X4000Y97600D01*
Y96400D02*X8000D01*
X4000D02*Y94400D01*
X8000Y118500D02*X7500Y118000D01*
X8000Y120000D02*Y118500D01*
X7500Y120500D02*X8000Y120000D01*
X4500Y120500D02*X7500D01*
X4500D02*X4000Y120000D01*
Y118500D01*
X4500Y118000D01*
X5500D01*
X6000Y118500D02*X5500Y118000D01*
X6000Y119500D02*Y118500D01*
X4000Y116800D02*X8000D01*
X7500D02*X8000D01*
X7500D02*X5000Y114300D01*
X4000D02*X8000D01*
X4000Y112600D02*X8000D01*
Y111100D02*X7500Y110600D01*
X4500D02*X7500D01*
X4000Y111100D02*X4500Y110600D01*
X4000Y113100D02*Y111100D01*
X8000Y113100D02*Y111100D01*
Y75000D02*Y73000D01*
X4000Y74000D02*X8000D01*
Y71800D02*Y69800D01*
X7500Y69300D01*
X6500D02*X7500D01*
X6000Y69800D02*X6500Y69300D01*
X6000Y71300D02*Y69800D01*
X4000Y71300D02*X8000D01*
X6000D02*X4000Y69300D01*
Y68100D02*X8000D01*
X6000D02*X8000Y66100D01*
X6000Y68100D02*X4000Y66100D01*
X8000Y61100D02*X7500Y60600D01*
X8000Y62600D02*Y61100D01*
X7500Y63100D02*X8000Y62600D01*
X6500Y63100D02*X7500D01*
X6500D02*X6000Y62600D01*
Y61100D01*
X5500Y60600D01*
X4500D02*X5500D01*
X4000Y61100D02*X4500Y60600D01*
X4000Y62600D02*Y61100D01*
X4500Y63100D02*X4000Y62600D01*
Y59400D02*X8000D01*
X4000Y56900D02*X8000D01*
X6000Y59400D02*Y56900D01*
X4500Y55700D02*X8000D01*
X4500D02*X4000Y55200D01*
Y54200D01*
X4500Y53700D01*
X8000D01*
X4000Y52500D02*X8000D01*
X7500D02*X8000D01*
X7500D02*X5000Y50000D01*
X4000D02*X8000D01*
Y48800D02*Y46800D01*
X4000Y47800D02*X8000D01*
X154000Y141500D02*X157000D01*
X154000D02*X153500Y142000D01*
Y143000D02*Y142000D01*
Y143000D02*X154000Y143500D01*
X157000D01*
X157500Y143000D02*X157000Y143500D01*
X157500Y143000D02*Y142000D01*
X157000Y141500D02*X157500Y142000D01*
X153500Y144700D02*X157500D01*
X153500D02*X154000D01*
X156500Y147200D01*
X153500D02*X157500D01*
X156000Y84000D02*X159000D01*
X156000D02*X155500Y84500D01*
Y85500D02*Y84500D01*
Y85500D02*X156000Y86000D01*
X159000D01*
X159500Y85500D02*X159000Y86000D01*
X159500Y85500D02*Y84500D01*
X159000Y84000D02*X159500Y84500D01*
X155500Y87200D02*X159500D01*
X155500D02*X156000D01*
X158500Y89700D01*
X155500D02*X159500D01*
X126500Y166500D02*X126000Y167000D01*
X126500Y166500D02*X128000D01*
X128500Y167000D02*X128000Y166500D01*
X128500Y168000D02*Y167000D01*
Y168000D02*X128000Y168500D01*
X126500D02*X128000D01*
X126500D02*X126000Y169000D01*
Y170000D02*Y169000D01*
X126500Y170500D02*X126000Y170000D01*
X126500Y170500D02*X128000D01*
X128500Y170000D02*X128000Y170500D01*
X124800D02*Y166500D01*
Y170500D02*X123300Y169000D01*
X121800Y170500D01*
Y166500D01*
X118800Y170500D02*Y166500D01*
X117300Y168000D01*
X115800Y166500D01*
Y170500D02*Y166500D01*
X114600Y170000D02*Y167000D01*
X114100Y166500D01*
X113100D02*X114100D01*
X113100D02*X112600Y167000D01*
Y170000D02*Y167000D01*
X113100Y170500D02*X112600Y170000D01*
X113100Y170500D02*X114100D01*
X114600Y170000D02*X114100Y170500D01*
X109400Y166500D02*X111400D01*
X110400Y170500D02*Y166500D01*
X108200Y170000D02*Y167000D01*
X107700Y166500D01*
X106700D02*X107700D01*
X106700D02*X106200Y167000D01*
Y170000D02*Y167000D01*
X106700Y170500D02*X106200Y170000D01*
X106700Y170500D02*X107700D01*
X108200Y170000D02*X107700Y170500D01*
X103000Y166500D02*X105000D01*
X103000D02*X102500Y167000D01*
Y168000D02*Y167000D01*
X103000Y168500D02*X102500Y168000D01*
X103000Y168500D02*X104500D01*
Y170500D02*Y166500D01*
Y168500D02*X102500Y170500D01*
X138500Y78000D02*Y77000D01*
Y77500D02*X142500D01*
Y78000D02*Y77000D01*
X141000Y79200D02*X142000D01*
X141000D02*X140500Y79700D01*
Y80700D02*Y79700D01*
Y80700D02*X141000Y81200D01*
X142000D01*
X142500Y80700D02*X142000Y81200D01*
X142500Y80700D02*Y79700D01*
X142000Y79200D02*X142500Y79700D01*
X140500Y82400D02*X142000D01*
X142500Y82900D01*
Y83400D02*Y82900D01*
Y83400D02*X142000Y83900D01*
X140500D02*X142000D01*
X142500Y84400D01*
Y84900D02*Y84400D01*
Y84900D02*X142000Y85400D01*
X140500D02*X142000D01*
X140500Y88100D02*X141000Y88600D01*
X140500Y88100D02*Y87100D01*
X141000Y86600D02*X140500Y87100D01*
X141000Y86600D02*X142000D01*
X142500Y87100D01*
X140500Y88600D02*X142000D01*
X142500Y89100D01*
Y88100D02*Y87100D01*
Y88100D02*X142000Y88600D01*
X138500Y94100D02*X139000Y94600D01*
X138500Y94100D02*Y92600D01*
X139000Y92100D02*X138500Y92600D01*
X139000Y92100D02*X140000D01*
X140500Y92600D01*
Y94100D02*Y92600D01*
Y94100D02*X141000Y94600D01*
X142000D01*
X142500Y94100D02*X142000Y94600D01*
X142500Y94100D02*Y92600D01*
X142000Y92100D02*X142500Y92600D01*
X140500Y97800D02*Y96300D01*
X141000Y95800D02*X140500Y96300D01*
X141000Y95800D02*X142000D01*
X142500Y96300D01*
Y97800D02*Y96300D01*
X140500Y100500D02*X141000Y101000D01*
X140500Y100500D02*Y99500D01*
X141000Y99000D02*X140500Y99500D01*
X141000Y99000D02*X142000D01*
X142500Y99500D01*
X140500Y101000D02*X142000D01*
X142500Y101500D01*
Y100500D02*Y99500D01*
Y100500D02*X142000Y101000D01*
X138500Y102700D02*X142000D01*
X142500Y103200D01*
Y106200D02*Y104700D01*
X142000Y104200D02*X142500Y104700D01*
X141000Y104200D02*X142000D01*
X141000D02*X140500Y104700D01*
Y105700D02*Y104700D01*
Y105700D02*X141000Y106200D01*
X141500D02*Y104200D01*
X141000Y106200D02*X141500D01*
X138500Y109400D02*X142500D01*
Y108900D02*X142000Y109400D01*
X142500Y108900D02*Y107900D01*
X142000Y107400D02*X142500Y107900D01*
X141000Y107400D02*X142000D01*
X141000D02*X140500Y107900D01*
Y108900D02*Y107900D01*
Y108900D02*X141000Y109400D01*
X140500Y113900D02*Y112400D01*
X142500Y114400D02*Y112400D01*
X138500D02*X142500D01*
X138500Y114400D02*Y112400D01*
X141000Y116100D02*X142500D01*
X141000D02*X140500Y116600D01*
Y117100D02*Y116600D01*
Y117100D02*X141000Y117600D01*
X142500D01*
X140500Y115600D02*X141000Y116100D01*
X140500Y120300D02*X141000Y120800D01*
X140500Y120300D02*Y119300D01*
X141000Y118800D02*X140500Y119300D01*
X141000Y118800D02*X142000D01*
X142500Y119300D01*
Y120300D02*Y119300D01*
Y120300D02*X142000Y120800D01*
X143500Y118800D02*X144000Y119300D01*
Y120300D02*Y119300D01*
Y120300D02*X143500Y120800D01*
X140500D02*X143500D01*
X139500Y122000D02*X140000D01*
X141000D02*X142500D01*
X141000Y123500D02*X142500D01*
X141000D02*X140500Y124000D01*
Y124500D02*Y124000D01*
Y124500D02*X141000Y125000D01*
X142500D01*
X140500Y123000D02*X141000Y123500D01*
X142500Y128200D02*Y126700D01*
X142000Y126200D02*X142500Y126700D01*
X141000Y126200D02*X142000D01*
X141000D02*X140500Y126700D01*
Y127700D02*Y126700D01*
Y127700D02*X141000Y128200D01*
X141500D02*Y126200D01*
X141000Y128200D02*X141500D01*
X142500Y131400D02*Y129900D01*
X142000Y129400D02*X142500Y129900D01*
X141000Y129400D02*X142000D01*
X141000D02*X140500Y129900D01*
Y130900D02*Y129900D01*
Y130900D02*X141000Y131400D01*
X141500D02*Y129400D01*
X141000Y131400D02*X141500D01*
X141000Y133100D02*X142500D01*
X141000D02*X140500Y133600D01*
Y134600D02*Y133600D01*
Y132600D02*X141000Y133100D01*
X139500Y135800D02*X140000D01*
X141000D02*X142500D01*
X141000Y137300D02*X142500D01*
X141000D02*X140500Y137800D01*
Y138300D02*Y137800D01*
Y138300D02*X141000Y138800D01*
X142500D01*
X140500Y136800D02*X141000Y137300D01*
X140500Y141500D02*X141000Y142000D01*
X140500Y141500D02*Y140500D01*
X141000Y140000D02*X140500Y140500D01*
X141000Y140000D02*X142000D01*
X142500Y140500D01*
Y141500D02*Y140500D01*
Y141500D02*X142000Y142000D01*
X143500Y140000D02*X144000Y140500D01*
Y141500D02*Y140500D01*
Y141500D02*X143500Y142000D01*
X140500D02*X143500D01*
X109000Y42000D02*X111000D01*
X110000Y43000D02*Y41000D01*
X81000Y34500D02*X83000Y32500D01*
X81000D02*X83000Y34500D01*
X81000Y33500D02*X83000D01*
X82000Y34500D02*Y32500D01*
X113500Y49000D02*X114000Y48500D01*
X112000Y49000D02*X113500D01*
X111500Y48500D02*X112000Y49000D01*
X111500Y48500D02*Y47500D01*
X112000Y47000D01*
X113500D01*
X114000Y46500D01*
Y45500D01*
X113500Y45000D02*X114000Y45500D01*
X112000Y45000D02*X113500D01*
X111500Y45500D02*X112000Y45000D01*
X115200Y49000D02*Y45000D01*
X117700Y49000D02*Y45000D01*
X115200Y47000D02*X117700D01*
X118900Y49000D02*Y45500D01*
X119400Y45000D01*
X120400D01*
X120900Y45500D01*
Y49000D02*Y45500D01*
X122100Y49000D02*Y45000D01*
Y49000D02*Y48500D01*
X124600Y46000D01*
Y49000D02*Y45000D01*
X125800Y49000D02*X127800D01*
X126800D02*Y45000D01*
X112000Y39000D02*Y35000D01*
X111500Y39000D02*X113500D01*
X114000Y38500D01*
Y37500D01*
X113500Y37000D02*X114000Y37500D01*
X112000Y37000D02*X113500D01*
X115200Y38500D02*Y35500D01*
Y38500D02*X115700Y39000D01*
X116700D01*
X117200Y38500D01*
Y35500D01*
X116700Y35000D02*X117200Y35500D01*
X115700Y35000D02*X116700D01*
X115200Y35500D02*X115700Y35000D01*
X118400Y39000D02*Y35000D01*
X119900Y36500D01*
X121400Y35000D01*
Y39000D02*Y35000D01*
X122600Y37000D02*X124100D01*
X122600Y35000D02*X124600D01*
X122600Y39000D02*Y35000D01*
Y39000D02*X124600D01*
X125800D02*X127800D01*
X128300Y38500D01*
Y37500D01*
X127800Y37000D02*X128300Y37500D01*
X126300Y37000D02*X127800D01*
X126300Y39000D02*Y35000D01*
Y37000D02*X128300Y35000D01*
X109000Y32000D02*X111000D01*
X110000Y33000D02*Y31000D01*
X109000Y12000D02*X111000D01*
X110000Y13000D02*Y11000D01*
X109000Y22000D02*X111000D01*
X110000Y23000D02*Y21000D01*
X112000Y29500D02*Y25500D01*
X114000D01*
X115200Y29000D02*Y26000D01*
Y29000D02*X115700Y29500D01*
X116700D01*
X117200Y29000D01*
Y26000D01*
X116700Y25500D02*X117200Y26000D01*
X115700Y25500D02*X116700D01*
X115200Y26000D02*X115700Y25500D01*
X118900D02*X120400D01*
X118400Y26000D02*X118900Y25500D01*
X118400Y29000D02*Y26000D01*
Y29000D02*X118900Y29500D01*
X120400D01*
X121600D02*Y25500D01*
Y27500D02*X123600Y29500D01*
X121600Y27500D02*X123600Y25500D01*
X112000Y18500D02*Y15500D01*
Y18500D02*X112500Y19000D01*
X113500D01*
X114000Y18500D01*
Y15500D01*
X113500Y15000D02*X114000Y15500D01*
X112500Y15000D02*X113500D01*
X112000Y15500D02*X112500Y15000D01*
X115200Y19000D02*Y15500D01*
X115700Y15000D01*
X116700D01*
X117200Y15500D01*
Y19000D02*Y15500D01*
X118400Y19000D02*X120400D01*
X119400D02*Y15000D01*
X123900Y19000D02*Y15000D01*
X125400Y19000D02*X125900Y18500D01*
Y15500D01*
X125400Y15000D02*X125900Y15500D01*
X123400Y15000D02*X125400D01*
X123400Y19000D02*X125400D01*
X127100D02*X128100D01*
X127600D02*Y15000D01*
X127100D02*X128100D01*
X129300Y19000D02*X131300D01*
X131800Y18500D01*
Y17500D01*
X131300Y17000D02*X131800Y17500D01*
X129800Y17000D02*X131300D01*
X129800Y19000D02*Y15000D01*
Y17000D02*X131800Y15000D01*
X134800Y18500D02*Y15000D01*
Y18500D02*X135300Y19000D01*
X136800D01*
X137300Y18500D01*
Y15000D01*
X134800Y17000D02*X137300D01*
X112000Y8500D02*Y5500D01*
Y8500D02*X112500Y9000D01*
X113500D01*
X114000Y8500D01*
Y5500D01*
X113500Y5000D02*X114000Y5500D01*
X112500Y5000D02*X113500D01*
X112000Y5500D02*X112500Y5000D01*
X115200Y9000D02*Y5500D01*
X115700Y5000D01*
X116700D01*
X117200Y5500D01*
Y9000D02*Y5500D01*
X118400Y9000D02*X120400D01*
X119400D02*Y5000D01*
X123900Y9000D02*Y5000D01*
X125400Y9000D02*X125900Y8500D01*
Y5500D01*
X125400Y5000D02*X125900Y5500D01*
X123400Y5000D02*X125400D01*
X123400Y9000D02*X125400D01*
X127100D02*X128100D01*
X127600D02*Y5000D01*
X127100D02*X128100D01*
X129300Y9000D02*X131300D01*
X131800Y8500D01*
Y7500D01*
X131300Y7000D02*X131800Y7500D01*
X129800Y7000D02*X131300D01*
X129800Y9000D02*Y5000D01*
Y7000D02*X131800Y5000D01*
X134800D02*X136800D01*
X137300Y5500D01*
Y6500D02*Y5500D01*
X136800Y7000D02*X137300Y6500D01*
X135300Y7000D02*X136800D01*
X135300Y9000D02*Y5000D01*
X134800Y9000D02*X136800D01*
X137300Y8500D01*
Y7500D01*
X136800Y7000D02*X137300Y7500D01*
X35500Y18500D02*X37000D01*
X35000Y19000D02*X35500Y18500D01*
X35000Y22000D02*Y19000D01*
Y22000D02*X35500Y22500D01*
X37000D01*
X38200D02*Y18500D01*
Y20500D02*X40200Y22500D01*
X38200Y20500D02*X40200Y18500D01*
X41400Y22500D02*X43400D01*
X42400D02*Y18500D01*
X44600Y20500D02*X46600D01*
X47800Y22500D02*X49800D01*
X48800D02*Y18500D01*
X51000Y22500D02*X52000D01*
X51500D02*Y18500D01*
X51000D02*X52000D01*
X53200Y22500D02*Y18500D01*
Y22500D02*X54700Y21000D01*
X56200Y22500D01*
Y18500D01*
X57400Y20500D02*X58900D01*
X57400Y18500D02*X59400D01*
X57400Y22500D02*Y18500D01*
Y22500D02*X59400D01*
X60600D02*Y18500D01*
X62600D01*
X63800Y22000D02*Y19000D01*
Y22000D02*X64300Y22500D01*
X65300D01*
X65800Y22000D01*
Y19000D01*
X65300Y18500D02*X65800Y19000D01*
X64300Y18500D02*X65300D01*
X63800Y19000D02*X64300Y18500D01*
X67500D02*X69000D01*
X67000Y19000D02*X67500Y18500D01*
X67000Y22000D02*Y19000D01*
Y22000D02*X67500Y22500D01*
X69000D01*
X70200D02*Y18500D01*
Y20500D02*X72200Y22500D01*
X70200Y20500D02*X72200Y18500D01*
X75200Y20500D02*Y19500D01*
X76200Y18500D01*
X77200Y19500D01*
Y20500D02*Y19500D01*
X78400Y22000D02*X78900Y22500D01*
X80400D01*
X80900Y22000D01*
Y21000D01*
X78400Y18500D02*X80900Y21000D01*
X78400Y18500D02*X80900D01*
X82100D02*X82600D01*
X83800Y19000D02*X84300Y18500D01*
X83800Y22000D02*Y19000D01*
Y22000D02*X84300Y22500D01*
X85300D01*
X85800Y22000D01*
Y19000D01*
X85300Y18500D02*X85800Y19000D01*
X84300Y18500D02*X85300D01*
X83800Y19500D02*X85800Y21500D01*
X35500Y11500D02*X37000D01*
X35000Y12000D02*X35500Y11500D01*
X35000Y15000D02*Y12000D01*
Y15000D02*X35500Y15500D01*
X37000D01*
X38700Y11500D02*X40200D01*
X38200Y12000D02*X38700Y11500D01*
X38200Y15000D02*Y12000D01*
Y15000D02*X38700Y15500D01*
X40200D01*
X43200Y11500D02*X45200D01*
X45700Y12000D01*
Y13000D02*Y12000D01*
X45200Y13500D02*X45700Y13000D01*
X43700Y13500D02*X45200D01*
X43700Y15500D02*Y11500D01*
X43200Y15500D02*X45200D01*
X45700Y15000D01*
Y14000D01*
X45200Y13500D02*X45700Y14000D01*
X46900Y15500D02*Y15000D01*
X47900Y14000D01*
X48900Y15000D01*
Y15500D02*Y15000D01*
X47900Y14000D02*Y11500D01*
X50100Y13500D02*X52100D01*
X55300Y15500D02*X55800Y15000D01*
X53800Y15500D02*X55300D01*
X53300Y15000D02*X53800Y15500D01*
X53300Y15000D02*Y14000D01*
X53800Y13500D01*
X55300D01*
X55800Y13000D01*
Y12000D01*
X55300Y11500D02*X55800Y12000D01*
X53800Y11500D02*X55300D01*
X53300Y12000D02*X53800Y11500D01*
X57000Y15000D02*Y11500D01*
Y15000D02*X57500Y15500D01*
X59000D01*
X59500Y15000D01*
Y11500D01*
X57000Y13500D02*X59500D01*
X62500Y12000D02*X63000Y11500D01*
X62500Y15000D02*X63000Y15500D01*
X62500Y15000D02*Y12000D01*
X64700Y11500D02*X66200D01*
X64200Y12000D02*X64700Y11500D01*
X64200Y15000D02*Y12000D01*
Y15000D02*X64700Y15500D01*
X66200D01*
X67400D02*X67900Y15000D01*
Y12000D01*
X67400Y11500D02*X67900Y12000D01*
X70900Y15000D02*X71400Y15500D01*
X72900D01*
X73400Y15000D01*
Y14000D01*
X70900Y11500D02*X73400Y14000D01*
X70900Y11500D02*X73400D01*
X74600Y12000D02*X75100Y11500D01*
X74600Y15000D02*Y12000D01*
Y15000D02*X75100Y15500D01*
X76100D01*
X76600Y15000D01*
Y12000D01*
X76100Y11500D02*X76600Y12000D01*
X75100Y11500D02*X76100D01*
X74600Y12500D02*X76600Y14500D01*
X77800Y15000D02*X78300Y15500D01*
X79800D01*
X80300Y15000D01*
Y14000D01*
X77800Y11500D02*X80300Y14000D01*
X77800Y11500D02*X80300D01*
X82000D02*X83000D01*
X82500Y15500D02*Y11500D01*
X81500Y14500D02*X82500Y15500D01*
X34500Y8000D02*Y6500D01*
X35000Y6000D01*
X35500D01*
X36000Y6500D01*
Y8000D02*Y6500D01*
X36500Y6000D01*
X37000D01*
X37500Y6500D01*
Y8000D02*Y6500D01*
X38700Y8000D02*Y6500D01*
X39200Y6000D01*
X39700D01*
X40200Y6500D01*
Y8000D02*Y6500D01*
X40700Y6000D01*
X41200D01*
X41700Y6500D01*
Y8000D02*Y6500D01*
X42900Y8000D02*Y6500D01*
X43400Y6000D01*
X43900D01*
X44400Y6500D01*
Y8000D02*Y6500D01*
X44900Y6000D01*
X45400D01*
X45900Y6500D01*
Y8000D02*Y6500D01*
X47100Y6000D02*X47600D01*
X48800Y9000D02*Y8500D01*
Y7500D02*Y6000D01*
X51300Y8000D02*X51800Y7500D01*
X50300Y8000D02*X51300D01*
X49800Y7500D02*X50300Y8000D01*
X49800Y7500D02*Y6500D01*
X50300Y6000D01*
X51800Y8000D02*Y6500D01*
X52300Y6000D01*
X50300D02*X51300D01*
X51800Y6500D01*
X54000Y6000D02*X55500D01*
X56000Y6500D01*
X55500Y7000D02*X56000Y6500D01*
X54000Y7000D02*X55500D01*
X53500Y7500D02*X54000Y7000D01*
X53500Y7500D02*X54000Y8000D01*
X55500D01*
X56000Y7500D01*
X53500Y6500D02*X54000Y6000D01*
X57700Y8000D02*X59200D01*
X57200Y7500D02*X57700Y8000D01*
X57200Y7500D02*Y6500D01*
X57700Y6000D01*
X59200D01*
X61900Y8000D02*X62400Y7500D01*
X60900Y8000D02*X61900D01*
X60400Y7500D02*X60900Y8000D01*
X60400Y7500D02*Y6500D01*
X60900Y6000D01*
X62400Y8000D02*Y6500D01*
X62900Y6000D01*
X60900D02*X61900D01*
X62400Y6500D01*
X64100Y10000D02*Y6500D01*
X64600Y6000D01*
X66100D02*X67600D01*
X65600Y6500D02*X66100Y6000D01*
X65600Y7500D02*Y6500D01*
Y7500D02*X66100Y8000D01*
X67100D01*
X67600Y7500D01*
X65600Y7000D02*X67600D01*
Y7500D02*Y7000D01*
X70800Y10000D02*Y6000D01*
X70300D02*X70800Y6500D01*
X69300Y6000D02*X70300D01*
X68800Y6500D02*X69300Y6000D01*
X68800Y7500D02*Y6500D01*
Y7500D02*X69300Y8000D01*
X70300D01*
X70800Y7500D01*
X72000Y6000D02*X72500D01*
X74200Y8000D02*X75700D01*
X73700Y7500D02*X74200Y8000D01*
X73700Y7500D02*Y6500D01*
X74200Y6000D01*
X75700D01*
X76900Y7500D02*Y6500D01*
Y7500D02*X77400Y8000D01*
X78400D01*
X78900Y7500D01*
Y6500D01*
X78400Y6000D02*X78900Y6500D01*
X77400Y6000D02*X78400D01*
X76900Y6500D02*X77400Y6000D01*
X80600Y7500D02*Y6000D01*
Y7500D02*X81100Y8000D01*
X81600D01*
X82100Y7500D01*
Y6000D01*
Y7500D02*X82600Y8000D01*
X83100D01*
X83600Y7500D01*
Y6000D01*
X80100Y8000D02*X80600Y7500D01*
X202000Y69000D02*X206000D01*
Y71000D02*Y69000D01*
X204000Y73700D02*Y72200D01*
X206000Y74200D02*Y72200D01*
X202000D02*X206000D01*
X202000Y74200D02*Y72200D01*
Y75900D02*X206000D01*
X202000Y77400D02*X202500Y77900D01*
X205500D01*
X206000Y77400D02*X205500Y77900D01*
X206000Y77400D02*Y75400D01*
X202000Y77400D02*Y75400D01*
Y56000D02*X202500Y56500D01*
X202000Y56000D02*Y54500D01*
X202500Y54000D02*X202000Y54500D01*
X202500Y54000D02*X205500D01*
X206000Y54500D01*
Y56000D02*Y54500D01*
Y56000D02*X205500Y56500D01*
X204500D02*X205500D01*
X204000Y56000D02*X204500Y56500D01*
X204000Y56000D02*Y55000D01*
X202000Y57700D02*X206000D01*
X202000D02*X202500D01*
X205000Y60200D01*
X202000D02*X206000D01*
X202000Y61900D02*X206000D01*
X202000Y63400D02*X202500Y63900D01*
X205500D01*
X206000Y63400D02*X205500Y63900D01*
X206000Y63400D02*Y61400D01*
X202000Y63400D02*Y61400D01*
Y44000D02*X202500Y44500D01*
X202000Y44000D02*Y42500D01*
X202500Y42000D02*X202000Y42500D01*
X202500Y42000D02*X203500D01*
X204000Y42500D01*
Y44000D02*Y42500D01*
Y44000D02*X204500Y44500D01*
X205500D01*
X206000Y44000D02*X205500Y44500D01*
X206000Y44000D02*Y42500D01*
X205500Y42000D02*X206000Y42500D01*
X202000Y45700D02*X206000D01*
X204500Y47200D01*
X206000Y48700D01*
X202000D02*X206000D01*
Y98500D02*Y97000D01*
X205500Y96500D02*X206000Y97000D01*
X202500Y96500D02*X205500D01*
X202500D02*X202000Y97000D01*
Y98500D02*Y97000D01*
X202500Y99700D02*X205500D01*
X202500D02*X202000Y100200D01*
Y101200D02*Y100200D01*
Y101200D02*X202500Y101700D01*
X205500D01*
X206000Y101200D02*X205500Y101700D01*
X206000Y101200D02*Y100200D01*
X205500Y99700D02*X206000Y100200D01*
X202000Y102900D02*X206000D01*
X202000D02*X202500D01*
X205000Y105400D01*
X202000D02*X206000D01*
X202000Y106600D02*X206000D01*
X202000Y108600D02*Y106600D01*
X204000Y108100D02*Y106600D01*
X202000Y113600D02*X202500Y114100D01*
X202000Y113600D02*Y112100D01*
X202500Y111600D02*X202000Y112100D01*
X202500Y111600D02*X203500D01*
X204000Y112100D01*
Y113600D02*Y112100D01*
Y113600D02*X204500Y114100D01*
X205500D01*
X206000Y113600D02*X205500Y114100D01*
X206000Y113600D02*Y112100D01*
X205500Y111600D02*X206000Y112100D01*
X202000Y115300D02*X206000D01*
X204500Y116800D01*
X206000Y118300D01*
X202000D02*X206000D01*
X202000Y120500D02*Y119500D01*
Y120000D02*X206000D01*
Y120500D02*Y119500D01*
X202000Y123700D02*Y121700D01*
Y122700D02*X206000D01*
Y126900D02*Y125400D01*
X205500Y124900D02*X206000Y125400D01*
X202500Y124900D02*X205500D01*
X202500D02*X202000Y125400D01*
Y126900D02*Y125400D01*
Y128100D02*X206000D01*
X202000Y130600D02*X206000D01*
X204000D02*Y128100D01*
Y133300D02*Y131800D01*
X206000Y133800D02*Y131800D01*
X202000D02*X206000D01*
X202000Y133800D02*Y131800D01*
Y137000D02*X202500Y137500D01*
X202000Y137000D02*Y135500D01*
X202500Y135000D02*X202000Y135500D01*
X202500Y135000D02*X203500D01*
X204000Y135500D01*
Y137000D02*Y135500D01*
Y137000D02*X204500Y137500D01*
X205500D01*
X206000Y137000D02*X205500Y137500D01*
X206000Y137000D02*Y135500D01*
X205500Y135000D02*X206000Y135500D01*
X182500Y83500D02*X185500D01*
X182500D02*X182000Y84000D01*
Y85000D02*Y84000D01*
Y85000D02*X182500Y85500D01*
X185500D01*
X186000Y85000D02*X185500Y85500D01*
X186000Y85000D02*Y84000D01*
X185500Y83500D02*X186000Y84000D01*
X182000Y86700D02*X186000D01*
X182000Y88700D02*Y86700D01*
X184000Y88200D02*Y86700D01*
X182000Y89900D02*X186000D01*
X182000Y91900D02*Y89900D01*
X184000Y91400D02*Y89900D01*
X194500Y97500D02*Y95500D01*
Y97500D02*X195000Y98000D01*
X196000D01*
X196500Y97500D02*X196000Y98000D01*
X196500Y97500D02*Y96000D01*
X194500D02*X198500D01*
X196500D02*X198500Y98000D01*
X194500Y105500D02*Y103500D01*
Y104500D02*X198500D01*
X196500Y106700D02*X194500Y108700D01*
X196500Y109200D02*Y106700D01*
X194500Y108700D02*X198500D01*
X194500Y116000D02*Y114000D01*
Y115000D02*X198500D01*
X195000Y117200D02*X194500Y117700D01*
Y118700D02*Y117700D01*
Y118700D02*X195000Y119200D01*
X198000D01*
X198500Y118700D02*X198000Y119200D01*
X198500Y118700D02*Y117700D01*
X198000Y117200D02*X198500Y117700D01*
X196500Y119200D02*Y117700D01*
X194500Y126000D02*Y124000D01*
Y125000D02*X198500D01*
X195000Y127200D02*X194500Y127700D01*
Y129200D02*Y127700D01*
Y129200D02*X195000Y129700D01*
X196000D01*
X198500Y127200D02*X196000Y129700D01*
X198500D02*Y127200D01*
X194500Y136000D02*Y134000D01*
Y135000D02*X198500D01*
Y138700D02*Y137700D01*
X194500Y138200D02*X198500D01*
X195500Y137200D02*X194500Y138200D01*
G54D52*X46138Y32240D02*X50862D01*
X46138Y24760D02*X50862D01*
X10827Y138335D02*Y92666D01*
X38386D01*
Y138335D01*
X10827D01*
X41200Y165000D02*Y144000D01*
X50800Y165000D02*Y144000D01*
X41200Y165000D02*X50800D01*
X41200Y144000D02*X50800D01*
X41200Y157000D02*X50800D01*
X10700Y82052D02*Y42052D01*
X40700Y82052D02*Y42052D01*
X36300Y82052D02*Y42052D01*
X10700Y82052D02*X40700D01*
X10700Y42052D02*X40700D01*
X89340Y78893D02*Y78107D01*
X94850Y78893D02*Y78107D01*
X82245Y106893D02*Y106107D01*
X87755Y106893D02*Y106107D01*
X54271Y111250D02*X64901D01*
X54271Y129750D02*X64901D01*
X54271Y114500D02*Y111250D01*
Y129750D02*Y126500D01*
X64901Y111429D02*Y111250D01*
Y129750D02*Y129571D01*
X55500Y106900D02*Y93000D01*
X42700Y106900D02*X55500D01*
X42700D02*Y93000D01*
X55500D01*
X52610Y74299D02*Y61701D01*
Y74299D02*X66390D01*
Y61701D01*
X52610D02*X66390D01*
X102107Y9755D02*X102893D01*
X102107Y4245D02*X102893D01*
X102107Y19755D02*X102893D01*
X102107Y14245D02*X102893D01*
X52800Y55800D02*X84200D01*
X52800D02*Y36200D01*
X84200Y55800D02*Y36200D01*
X52800D02*X84200D01*
X85500Y42000D02*Y40000D01*
X102107Y39755D02*X102893D01*
X102107Y34245D02*X102893D01*
X102107Y49755D02*X102893D01*
X102107Y44245D02*X102893D01*
X87755Y123893D02*Y123107D01*
X82245Y123893D02*Y123107D01*
X76996Y167492D02*X83492D01*
X57508D02*X64004D01*
X57508D02*Y148004D01*
X83492Y167492D02*Y148004D01*
X57508D02*X64004Y141508D01*
X83492Y148004D02*X76996Y141508D01*
X76500Y148500D02*X80500D01*
X78500Y150500D02*Y146500D01*
X148607Y155255D02*X149393D01*
X148607Y149745D02*X149393D01*
X180000Y93500D02*X160000D01*
X180000D02*Y139500D01*
X160000D02*Y93500D01*
Y139500D02*X180000D01*
X170000Y137500D01*
X160000Y139500D02*X170000Y137500D01*
X100000Y126500D02*Y107500D01*
X131000D01*
Y126500D01*
X100000D02*X113000D01*
X131000D02*X118000D01*
X113000D02*G75*G03X118000Y126500I2500J0D01*G01*
X95500Y163300D02*X135500D01*
X95500Y133300D02*X135500D01*
X95500Y137700D02*X135500D01*
Y163300D02*Y133300D01*
X95500Y163300D02*Y133300D01*
X100000Y90000D02*Y56000D01*
X131000D01*
Y90000D01*
X100000D02*X113000D01*
X131000D02*X118000D01*
X113000D02*G75*G03X118000Y90000I2500J0D01*G01*
X153745Y54893D02*Y54107D01*
X159255Y54893D02*Y54107D01*
X154245Y71936D02*Y71150D01*
X159755Y71936D02*Y71150D01*
X170827Y81835D02*Y36166D01*
X198386D01*
Y81835D02*Y36166D01*
X170827Y81835D02*X198386D01*
X102150Y29755D02*X102936D01*
X102150Y24245D02*X102936D01*
X140107Y40245D02*X140893D01*
X140107Y45755D02*X140893D01*
G54D53*X31850Y30150D02*X33850D01*
X34350Y29650D01*
Y28650D01*
X33850Y28150D02*X34350Y28650D01*
X32350Y28150D02*X33850D01*
X32350Y30150D02*Y26150D01*
Y28150D02*X34350Y26150D01*
X35550Y30150D02*X37550D01*
X35550D02*Y28150D01*
X36050Y28650D01*
X37050D01*
X37550Y28150D01*
Y26650D01*
X37050Y26150D02*X37550Y26650D01*
X36050Y26150D02*X37050D01*
X35550Y26650D02*X36050Y26150D01*
X32948Y40000D02*X34448D01*
Y36500D01*
X33948Y36000D02*X34448Y36500D01*
X33448Y36000D02*X33948D01*
X32948Y36500D02*X33448Y36000D01*
X35648Y39500D02*X36148Y40000D01*
X37148D01*
X37648Y39500D01*
Y36500D01*
X37148Y36000D02*X37648Y36500D01*
X36148Y36000D02*X37148D01*
X35648Y36500D02*X36148Y36000D01*
Y38000D02*X37648D01*
X33165Y90827D02*X34665D01*
Y87327D01*
X34165Y86827D02*X34665Y87327D01*
X33665Y86827D02*X34165D01*
X33165Y87327D02*X33665Y86827D01*
X36365D02*X37365D01*
X36865Y90827D02*Y86827D01*
X35865Y89827D02*X36865Y90827D01*
X33500Y146000D02*Y142000D01*
X35000Y146000D02*X35500Y145500D01*
Y142500D01*
X35000Y142000D02*X35500Y142500D01*
X33000Y142000D02*X35000D01*
X33000Y146000D02*X35000D01*
X37200Y142000D02*X38200D01*
X37700Y146000D02*Y142000D01*
X36700Y145000D02*X37700Y146000D01*
X158850Y155150D02*X160850D01*
X161350Y154650D01*
Y153650D01*
X160850Y153150D02*X161350Y153650D01*
X159350Y153150D02*X160850D01*
X159350Y155150D02*Y151150D01*
Y153150D02*X161350Y151150D01*
X162550Y154650D02*X163050Y155150D01*
X164550D01*
X165050Y154650D01*
Y153650D01*
X162550Y151150D02*X165050Y153650D01*
X162550Y151150D02*X165050D01*
X163665Y40327D02*X165165D01*
Y36827D01*
X164665Y36327D02*X165165Y36827D01*
X164165Y36327D02*X164665D01*
X163665Y36827D02*X164165Y36327D01*
X166365Y38327D02*X168365Y40327D01*
X166365Y38327D02*X168865D01*
X168365Y40327D02*Y36327D01*
X167500Y118500D02*X168000Y118000D01*
X166000Y118500D02*X167500D01*
X165500Y118000D02*X166000Y118500D01*
X165500Y118000D02*Y117000D01*
X166000Y116500D01*
X167500D01*
X168000Y116000D01*
Y115000D01*
X167500Y114500D02*X168000Y115000D01*
X166000Y114500D02*X167500D01*
X165500Y115000D02*X166000Y114500D01*
X169200Y118500D02*Y114500D01*
X170700Y116000D01*
X172200Y114500D01*
Y118500D02*Y114500D01*
X173900D02*X174900D01*
X174400Y118500D02*Y114500D01*
X173400Y117500D02*X174400Y118500D01*
X100500Y96000D02*Y92500D01*
X101000Y92000D01*
X102000D01*
X102500Y92500D01*
Y96000D02*Y92500D01*
X103700Y95500D02*X104200Y96000D01*
X105700D01*
X106200Y95500D01*
Y94500D01*
X103700Y92000D02*X106200Y94500D01*
X103700Y92000D02*X106200D01*
X145350Y59650D02*X147350D01*
X147850Y59150D01*
Y58150D01*
X147350Y57650D02*X147850Y58150D01*
X145850Y57650D02*X147350D01*
X145850Y59650D02*Y55650D01*
Y57650D02*X147850Y55650D01*
X149050Y57650D02*X151050Y59650D01*
X149050Y57650D02*X151550D01*
X151050Y59650D02*Y55650D01*
X145298Y70650D02*X147298D01*
X147798Y70150D01*
Y69150D01*
X147298Y68650D02*X147798Y69150D01*
X145798Y68650D02*X147298D01*
X145798Y70650D02*Y66650D01*
Y68650D02*X147798Y66650D01*
X148998Y70150D02*X149498Y70650D01*
X150498D01*
X150998Y70150D01*
Y67150D01*
X150498Y66650D02*X150998Y67150D01*
X149498Y66650D02*X150498D01*
X148998Y67150D02*X149498Y66650D01*
Y68650D02*X150998D01*
X137807Y52650D02*X139807D01*
X140307Y52150D01*
Y51150D01*
X139807Y50650D02*X140307Y51150D01*
X138307Y50650D02*X139807D01*
X138307Y52650D02*Y48650D01*
Y50650D02*X140307Y48650D01*
X143007Y52650D02*X143507Y52150D01*
X142007Y52650D02*X143007D01*
X141507Y52150D02*X142007Y52650D01*
X141507Y52150D02*Y49150D01*
X142007Y48650D01*
X143007Y50650D02*X143507Y50150D01*
X141507Y50650D02*X143007D01*
X142007Y48650D02*X143007D01*
X143507Y49150D01*
Y50150D02*Y49150D01*
X141500Y29500D02*X143000D01*
Y26000D01*
X142500Y25500D02*X143000Y26000D01*
X142000Y25500D02*X142500D01*
X141500Y26000D02*X142000Y25500D01*
X144200Y27500D02*X146200Y29500D01*
X144200Y27500D02*X146700D01*
X146200Y29500D02*Y25500D01*
X147900Y29000D02*Y25500D01*
Y29000D02*X148400Y29500D01*
X149900D01*
X150400Y29000D01*
Y25500D01*
X147900Y27500D02*X150400D01*
X100500Y106000D02*Y102500D01*
X101000Y102000D01*
X102000D01*
X102500Y102500D01*
Y106000D02*Y102500D01*
X103700Y105500D02*X104200Y106000D01*
X105200D01*
X105700Y105500D01*
Y102500D01*
X105200Y102000D02*X105700Y102500D01*
X104200Y102000D02*X105200D01*
X103700Y102500D02*X104200Y102000D01*
Y104000D02*X105700D01*
X46425Y61652D02*Y59652D01*
Y61652D02*X46925Y62152D01*
X47925D01*
X48425Y61652D02*X47925Y62152D01*
X48425Y61652D02*Y60152D01*
X46425D02*X50425D01*
X48425D02*X50425Y62152D01*
Y64852D02*Y63852D01*
X46425Y64352D02*X50425D01*
X47425Y63352D02*X46425Y64352D01*
X45000Y54500D02*Y51000D01*
X45500Y50500D01*
X46500D01*
X47000Y51000D01*
Y54500D02*Y51000D01*
X48200Y52500D02*X50200Y54500D01*
X48200Y52500D02*X50700D01*
X50200Y54500D02*Y50500D01*
X80350Y73055D02*X81850D01*
X79850Y73555D02*X80350Y73055D01*
X79850Y76555D02*Y73555D01*
Y76555D02*X80350Y77055D01*
X81850D01*
X83050Y75055D02*X85050Y77055D01*
X83050Y75055D02*X85550D01*
X85050Y77055D02*Y73055D01*
X88000Y138500D02*X89500D01*
Y135000D01*
X89000Y134500D02*X89500Y135000D01*
X88500Y134500D02*X89000D01*
X88000Y135000D02*X88500Y134500D01*
X90700Y138000D02*X91200Y138500D01*
X92700D01*
X93200Y138000D01*
Y137000D01*
X90700Y134500D02*X93200Y137000D01*
X90700Y134500D02*X93200D01*
X57421Y136000D02*Y132500D01*
X57921Y132000D01*
X58921D01*
X59421Y132500D01*
Y136000D02*Y132500D01*
X61121Y132000D02*X62121D01*
X61621Y136000D02*Y132000D01*
X60621Y135000D02*X61621Y136000D01*
X54500Y138500D02*X56000D01*
X54000Y139000D02*X54500Y138500D01*
X54000Y142000D02*Y139000D01*
Y142000D02*X54500Y142500D01*
X56000D01*
X57200Y142000D02*X57700Y142500D01*
X59200D01*
X59700Y142000D01*
Y141000D01*
X57200Y138500D02*X59700Y141000D01*
X57200Y138500D02*X59700D01*
X73850Y104150D02*X75350D01*
X73350Y104650D02*X73850Y104150D01*
X73350Y107650D02*Y104650D01*
Y107650D02*X73850Y108150D01*
X75350D01*
X76550Y107650D02*X77050Y108150D01*
X78050D01*
X78550Y107650D01*
Y104650D01*
X78050Y104150D02*X78550Y104650D01*
X77050Y104150D02*X78050D01*
X76550Y104650D02*X77050Y104150D01*
Y106150D02*X78550D01*
X75850Y125150D02*X77350D01*
X75350Y125650D02*X75850Y125150D01*
X75350Y128650D02*Y125650D01*
Y128650D02*X75850Y129150D01*
X77350D01*
X79050Y125150D02*X80050D01*
X79550Y129150D02*Y125150D01*
X78550Y128150D02*X79550Y129150D01*
X62000Y96500D02*X63500D01*
Y93000D01*
X63000Y92500D02*X63500Y93000D01*
X62500Y92500D02*X63000D01*
X62000Y93000D02*X62500Y92500D01*
X64700Y96500D02*X66700D01*
X64700D02*Y94500D01*
X65200Y95000D01*
X66200D01*
X66700Y94500D01*
Y93000D01*
X66200Y92500D02*X66700Y93000D01*
X65200Y92500D02*X66200D01*
X64700Y93000D02*X65200Y92500D01*
X58500Y106500D02*X61000D01*
Y106000D01*
X58500Y103500D02*X61000Y106000D01*
X58500Y103500D02*Y102500D01*
X61000D01*
X62700D02*X63700D01*
X63200Y106500D02*Y102500D01*
X62200Y105500D02*X63200Y106500D01*
X89212Y9150D02*Y5150D01*
X90712Y9150D02*X91212Y8650D01*
Y5650D01*
X90712Y5150D02*X91212Y5650D01*
X88712Y5150D02*X90712D01*
X88712Y9150D02*X90712D01*
X92412Y7150D02*X94412Y9150D01*
X92412Y7150D02*X94912D01*
X94412Y9150D02*Y5150D01*
X89212Y19150D02*Y15150D01*
X90712Y19150D02*X91212Y18650D01*
Y15650D01*
X90712Y15150D02*X91212Y15650D01*
X88712Y15150D02*X90712D01*
X88712Y19150D02*X90712D01*
X92412Y18650D02*X92912Y19150D01*
X93912D01*
X94412Y18650D01*
Y15650D01*
X93912Y15150D02*X94412Y15650D01*
X92912Y15150D02*X93912D01*
X92412Y15650D02*X92912Y15150D01*
Y17150D02*X94412D01*
X89298Y39150D02*Y35150D01*
X90798Y39150D02*X91298Y38650D01*
Y35650D01*
X90798Y35150D02*X91298Y35650D01*
X88798Y35150D02*X90798D01*
X88798Y39150D02*X90798D01*
X92498Y38650D02*X92998Y39150D01*
X94498D01*
X94998Y38650D01*
Y37650D01*
X92498Y35150D02*X94998Y37650D01*
X92498Y35150D02*X94998D01*
X89264Y49193D02*Y45193D01*
X90764Y49193D02*X91264Y48693D01*
Y45693D01*
X90764Y45193D02*X91264Y45693D01*
X88764Y45193D02*X90764D01*
X88764Y49193D02*X90764D01*
X92464D02*X94464D01*
X92464D02*Y47193D01*
X92964Y47693D01*
X93964D01*
X94464Y47193D01*
Y45693D01*
X93964Y45193D02*X94464Y45693D01*
X92964Y45193D02*X93964D01*
X92464Y45693D02*X92964Y45193D01*
X89350Y29650D02*Y25650D01*
X90850Y29650D02*X91350Y29150D01*
Y26150D01*
X90850Y25650D02*X91350Y26150D01*
X88850Y25650D02*X90850D01*
X88850Y29650D02*X90850D01*
X94050D02*X94550Y29150D01*
X93050Y29650D02*X94050D01*
X92550Y29150D02*X93050Y29650D01*
X92550Y29150D02*Y26150D01*
X93050Y25650D01*
X94050Y27650D02*X94550Y27150D01*
X92550Y27650D02*X94050D01*
X93050Y25650D02*X94050D01*
X94550Y26150D01*
Y27150D02*Y26150D01*
M02*
