M48
INCH
T41C0.012
T40C0.047
T39C0.048
T38C0.129
%
T41
X004550Y012250
X004550Y011850
X004750Y012800
X004750Y011300
X005150Y012800
X005150Y011300
X006100Y008100
X006500Y016450
X006500Y016000
X006850Y007150
X007200Y009400
X007400Y012050
X007600Y016450
X007600Y016000
X007700Y009550
X007900Y012050
X008500Y011500
X008600Y002700
X009300Y009600
X009300Y009200
X009700Y006300
X009700Y005350
X011200Y005250
X011250Y008300
X011600Y005250
X012300Y009200
X012350Y012850
X012800Y009200
X012850Y012850
X014300Y005500
X014650Y002150
X014650Y001800
X015150Y008300
X015850Y004300
X015850Y002600
X016600Y002000
X017350Y003200
X018700Y013150
X018700Y012150
X018700Y011150
X018700Y010150
T40
X002500Y012928
X002500Y011550
X002500Y010172
X018500Y007278
X018500Y005900
X018500Y004522
T39
X002350Y007205
X002350Y005205
X010550Y015050
X012550Y015050
T38
X001700Y015800
X001700Y001700
X019000Y015800
X019000Y001700
M30
