G04 start of page 3 for group 1 idx 1 *
G04 Title: (unknown), solder *
G04 Creator: pcb 4.0.2 *
G04 CreationDate: Mon Feb 22 17:58:17 2021 UTC *
G04 For: ndholmes *
G04 Format: Gerber/RS-274X *
G04 PCB-Dimensions (mil): 2100.00 1750.00 *
G04 PCB-Coordinate-Origin: lower left *
%MOIN*%
%FSLAX25Y25*%
%LNBOTTOM*%
%ADD36C,0.0390*%
%ADD35C,0.0472*%
%ADD34C,0.0480*%
%ADD33C,0.1285*%
%ADD32C,0.0120*%
%ADD31C,0.0260*%
%ADD30C,0.0800*%
%ADD29C,0.2937*%
%ADD28C,0.0100*%
%ADD27C,0.0250*%
%ADD26C,0.0001*%
G54D26*G36*
X189493Y67360D02*X189683Y67439D01*
X189885Y67563D01*
X190064Y67716D01*
X190217Y67896D01*
X190341Y68097D01*
X190431Y68315D01*
X190486Y68545D01*
X190500Y68780D01*
X190496Y71500D01*
X192379D01*
X192500Y71379D01*
Y42000D01*
X189493D01*
Y42026D01*
X189916Y42716D01*
X190247Y43516D01*
X190449Y44358D01*
X190500Y45221D01*
X190449Y46084D01*
X190247Y46926D01*
X189916Y47726D01*
X189493Y48416D01*
Y56145D01*
X189579Y56181D01*
X189679Y56243D01*
X189769Y56319D01*
X189845Y56409D01*
X189905Y56511D01*
X190122Y56980D01*
X190289Y57469D01*
X190409Y57972D01*
X190482Y58484D01*
X190506Y59000D01*
X190482Y59516D01*
X190409Y60028D01*
X190289Y60531D01*
X190122Y61020D01*
X189910Y61492D01*
X189849Y61593D01*
X189772Y61684D01*
X189682Y61761D01*
X189581Y61823D01*
X189493Y61860D01*
Y67360D01*
G37*
G36*
Y42000D02*X189477D01*
X189493Y42026D01*
Y42000D01*
G37*
G36*
X185002Y67287D02*X189236Y67294D01*
X189465Y67349D01*
X189493Y67360D01*
Y61860D01*
X189471Y61869D01*
X189356Y61897D01*
X189237Y61906D01*
X189119Y61897D01*
X189003Y61870D01*
X188894Y61824D01*
X188792Y61762D01*
X188702Y61686D01*
X188624Y61595D01*
X188562Y61494D01*
X188517Y61385D01*
X188489Y61269D01*
X188479Y61151D01*
X188488Y61032D01*
X188516Y60917D01*
X188563Y60808D01*
X188721Y60468D01*
X188842Y60112D01*
X188930Y59747D01*
X188983Y59375D01*
X189000Y59000D01*
X188983Y58625D01*
X188930Y58253D01*
X188842Y57888D01*
X188721Y57532D01*
X188567Y57190D01*
X188520Y57082D01*
X188493Y56967D01*
X188484Y56849D01*
X188493Y56732D01*
X188521Y56617D01*
X188566Y56508D01*
X188628Y56407D01*
X188705Y56318D01*
X188795Y56241D01*
X188896Y56180D01*
X189005Y56135D01*
X189119Y56107D01*
X189237Y56098D01*
X189355Y56108D01*
X189470Y56135D01*
X189493Y56145D01*
Y48416D01*
X189463Y48464D01*
X188901Y49122D01*
X188243Y49684D01*
X187505Y50137D01*
X186705Y50468D01*
X185863Y50670D01*
X185002Y50738D01*
Y53494D01*
X185517Y53518D01*
X186028Y53591D01*
X186531Y53711D01*
X187020Y53878D01*
X187492Y54090D01*
X187594Y54151D01*
X187684Y54228D01*
X187761Y54318D01*
X187823Y54420D01*
X187869Y54529D01*
X187897Y54645D01*
X187906Y54763D01*
X187897Y54881D01*
X187870Y54997D01*
X187825Y55107D01*
X187763Y55208D01*
X187686Y55298D01*
X187596Y55376D01*
X187494Y55438D01*
X187385Y55484D01*
X187269Y55511D01*
X187151Y55521D01*
X187033Y55512D01*
X186917Y55484D01*
X186808Y55437D01*
X186468Y55279D01*
X186112Y55158D01*
X185747Y55070D01*
X185375Y55018D01*
X185002Y55000D01*
Y63000D01*
X185375Y62982D01*
X185747Y62930D01*
X186112Y62842D01*
X186468Y62721D01*
X186810Y62567D01*
X186918Y62520D01*
X187033Y62493D01*
X187151Y62483D01*
X187269Y62493D01*
X187383Y62521D01*
X187492Y62566D01*
X187593Y62628D01*
X187683Y62705D01*
X187759Y62795D01*
X187821Y62895D01*
X187866Y63004D01*
X187893Y63119D01*
X187902Y63237D01*
X187893Y63355D01*
X187865Y63469D01*
X187819Y63578D01*
X187758Y63679D01*
X187681Y63769D01*
X187591Y63845D01*
X187489Y63905D01*
X187020Y64122D01*
X186531Y64289D01*
X186028Y64409D01*
X185517Y64482D01*
X185002Y64506D01*
Y67287D01*
G37*
G36*
Y143094D02*X185138Y143038D01*
X187539Y142461D01*
X190000Y142268D01*
X192461Y142461D01*
X194862Y143038D01*
X197142Y143982D01*
X199247Y145272D01*
X201124Y146876D01*
X202728Y148753D01*
X204018Y150858D01*
X204962Y153138D01*
X205539Y155539D01*
X205684Y158000D01*
X205539Y160461D01*
X204962Y162862D01*
X204018Y165142D01*
X202728Y167247D01*
X201124Y169124D01*
X199247Y170728D01*
X197142Y172018D01*
X194862Y172962D01*
X192622Y173500D01*
X208500D01*
Y42000D01*
X195500D01*
Y71941D01*
X195505Y72000D01*
X195486Y72235D01*
X195431Y72465D01*
X195341Y72683D01*
X195217Y72884D01*
X195064Y73064D01*
X195019Y73102D01*
X194102Y74019D01*
X194064Y74064D01*
X193884Y74217D01*
X193683Y74341D01*
X193465Y74431D01*
X193235Y74486D01*
X193000Y74505D01*
X192941Y74500D01*
X190491D01*
X190486Y77015D01*
X190431Y77245D01*
X190341Y77463D01*
X190217Y77664D01*
X190064Y77844D01*
X189885Y77997D01*
X189683Y78121D01*
X189465Y78211D01*
X189236Y78266D01*
X189000Y78280D01*
X185002Y78273D01*
Y143094D01*
G37*
G36*
Y173500D02*X187378D01*
X185138Y172962D01*
X185002Y172906D01*
Y173500D01*
G37*
G36*
X180508Y42026D02*X180523Y42000D01*
X180508D01*
Y42026D01*
G37*
G36*
Y67360D02*X180535Y67349D01*
X180765Y67294D01*
X181000Y67280D01*
X185002Y67287D01*
Y64506D01*
X185000Y64506D01*
X184484Y64482D01*
X183972Y64409D01*
X183469Y64289D01*
X182980Y64122D01*
X182508Y63910D01*
X182407Y63849D01*
X182316Y63772D01*
X182239Y63682D01*
X182177Y63580D01*
X182131Y63471D01*
X182103Y63355D01*
X182094Y63237D01*
X182103Y63119D01*
X182131Y63003D01*
X182176Y62893D01*
X182238Y62792D01*
X182315Y62702D01*
X182405Y62624D01*
X182506Y62562D01*
X182616Y62516D01*
X182731Y62489D01*
X182849Y62479D01*
X182968Y62488D01*
X183083Y62516D01*
X183192Y62563D01*
X183533Y62721D01*
X183888Y62842D01*
X184253Y62930D01*
X184625Y62982D01*
X185000Y63000D01*
X185002Y63000D01*
Y55000D01*
X185000Y55000D01*
X184625Y55018D01*
X184253Y55070D01*
X183888Y55158D01*
X183533Y55279D01*
X183190Y55433D01*
X183082Y55480D01*
X182967Y55507D01*
X182849Y55517D01*
X182732Y55507D01*
X182617Y55479D01*
X182508Y55434D01*
X182407Y55372D01*
X182318Y55295D01*
X182241Y55205D01*
X182180Y55105D01*
X182135Y54996D01*
X182107Y54881D01*
X182098Y54763D01*
X182108Y54645D01*
X182136Y54531D01*
X182181Y54422D01*
X182243Y54321D01*
X182320Y54231D01*
X182409Y54155D01*
X182511Y54095D01*
X182980Y53878D01*
X183469Y53711D01*
X183972Y53591D01*
X184484Y53518D01*
X185000Y53494D01*
X185002Y53494D01*
Y50738D01*
X185000Y50738D01*
X184137Y50670D01*
X183295Y50468D01*
X182496Y50137D01*
X181757Y49684D01*
X181099Y49122D01*
X180537Y48464D01*
X180508Y48416D01*
Y56140D01*
X180529Y56131D01*
X180645Y56103D01*
X180763Y56094D01*
X180882Y56103D01*
X180997Y56130D01*
X181107Y56176D01*
X181208Y56238D01*
X181299Y56314D01*
X181376Y56405D01*
X181438Y56506D01*
X181484Y56615D01*
X181512Y56731D01*
X181521Y56849D01*
X181512Y56968D01*
X181484Y57083D01*
X181437Y57192D01*
X181279Y57532D01*
X181158Y57888D01*
X181071Y58253D01*
X181018Y58625D01*
X181000Y59000D01*
X181018Y59375D01*
X181071Y59747D01*
X181158Y60112D01*
X181279Y60468D01*
X181433Y60810D01*
X181480Y60918D01*
X181508Y61033D01*
X181517Y61151D01*
X181507Y61268D01*
X181479Y61383D01*
X181434Y61492D01*
X181372Y61593D01*
X181295Y61682D01*
X181206Y61759D01*
X181105Y61820D01*
X180996Y61865D01*
X180881Y61893D01*
X180763Y61902D01*
X180645Y61892D01*
X180531Y61865D01*
X180508Y61855D01*
Y67360D01*
G37*
G36*
Y145482D02*X180753Y145272D01*
X182858Y143982D01*
X185002Y143094D01*
Y78273D01*
X180765Y78266D01*
X180535Y78211D01*
X180508Y78200D01*
Y145482D01*
G37*
G36*
Y173500D02*X185002D01*
Y172906D01*
X182858Y172018D01*
X180753Y170728D01*
X180508Y170518D01*
Y173500D01*
G37*
G36*
X131996D02*X180508D01*
Y170518D01*
X178876Y169124D01*
X177272Y167247D01*
X175982Y165142D01*
X175038Y162862D01*
X174461Y160461D01*
X174268Y158000D01*
X174461Y155539D01*
X175038Y153138D01*
X175982Y150858D01*
X177272Y148753D01*
X178876Y146876D01*
X180508Y145482D01*
Y78200D01*
X180317Y78121D01*
X180116Y77997D01*
X179936Y77844D01*
X179783Y77664D01*
X179660Y77463D01*
X179569Y77245D01*
X179514Y77015D01*
X179500Y76780D01*
X179514Y68545D01*
X179569Y68315D01*
X179660Y68097D01*
X179783Y67896D01*
X179936Y67716D01*
X180116Y67563D01*
X180317Y67439D01*
X180508Y67360D01*
Y61855D01*
X180422Y61819D01*
X180321Y61757D01*
X180232Y61681D01*
X180155Y61591D01*
X180096Y61489D01*
X179878Y61020D01*
X179711Y60531D01*
X179591Y60028D01*
X179518Y59516D01*
X179494Y59000D01*
X179518Y58484D01*
X179591Y57972D01*
X179711Y57469D01*
X179878Y56980D01*
X180090Y56508D01*
X180151Y56407D01*
X180228Y56316D01*
X180319Y56239D01*
X180420Y56177D01*
X180508Y56140D01*
Y48416D01*
X180085Y47726D01*
X179753Y46926D01*
X179551Y46084D01*
X179483Y45221D01*
X179551Y44358D01*
X179753Y43516D01*
X180085Y42716D01*
X180508Y42026D01*
Y42000D01*
X160792D01*
X160885Y42225D01*
X160977Y42608D01*
X161000Y43000D01*
X160977Y43392D01*
X160885Y43775D01*
X160734Y44138D01*
X160529Y44474D01*
X160273Y44773D01*
X159974Y45029D01*
X159638Y45234D01*
X159275Y45385D01*
X158892Y45477D01*
X158500Y45508D01*
X158108Y45477D01*
X157725Y45385D01*
X157362Y45234D01*
X157026Y45029D01*
X156727Y44773D01*
X156471Y44474D01*
X156266Y44138D01*
X156115Y43775D01*
X156023Y43392D01*
X156000Y43098D01*
Y51503D01*
X156109Y51680D01*
X156217Y51942D01*
X156283Y52218D01*
X156306Y52500D01*
X156283Y52782D01*
X156217Y53058D01*
X156109Y53320D01*
X155961Y53561D01*
X155773Y53773D01*
X153323Y56223D01*
X153277Y56277D01*
X153061Y56461D01*
X153061Y56461D01*
X152820Y56609D01*
X152558Y56717D01*
X152282Y56783D01*
X152000Y56806D01*
X151929Y56800D01*
X144434D01*
X144356Y56866D01*
X144047Y57056D01*
X143713Y57194D01*
X143361Y57279D01*
X143000Y57307D01*
X142639Y57279D01*
X142287Y57194D01*
X141953Y57056D01*
X141644Y56866D01*
X141369Y56631D01*
X141134Y56356D01*
X140944Y56047D01*
X140806Y55713D01*
X140721Y55361D01*
X140693Y55000D01*
X140721Y54639D01*
X140806Y54287D01*
X140944Y53953D01*
X141134Y53644D01*
X141369Y53369D01*
X141644Y53134D01*
X141953Y52944D01*
X142287Y52806D01*
X142639Y52721D01*
X143000Y52693D01*
X143361Y52721D01*
X143713Y52806D01*
X144047Y52944D01*
X144356Y53134D01*
X144434Y53200D01*
X151254D01*
X153000Y51454D01*
Y42000D01*
X131996D01*
Y81500D01*
X149756D01*
X149869Y81369D01*
X150144Y81134D01*
X150453Y80944D01*
X150787Y80806D01*
X151139Y80721D01*
X151500Y80693D01*
X151861Y80721D01*
X152213Y80806D01*
X152547Y80944D01*
X152856Y81134D01*
X153131Y81369D01*
X153366Y81644D01*
X153556Y81953D01*
X153694Y82287D01*
X153779Y82639D01*
X153800Y83000D01*
X153779Y83361D01*
X153694Y83713D01*
X153556Y84047D01*
X153366Y84356D01*
X153131Y84631D01*
X152856Y84866D01*
X152547Y85056D01*
X152213Y85194D01*
X151861Y85279D01*
X151500Y85307D01*
X151139Y85279D01*
X150787Y85194D01*
X150453Y85056D01*
X150144Y84866D01*
X149869Y84631D01*
X149756Y84500D01*
X131996D01*
Y173500D01*
G37*
G36*
X125500Y81500D02*X131996D01*
Y42000D01*
X125500D01*
Y81500D01*
G37*
G36*
Y173500D02*X131996D01*
Y84500D01*
X125500D01*
Y145007D01*
X129735Y145014D01*
X129965Y145069D01*
X130183Y145159D01*
X130384Y145283D01*
X130564Y145436D01*
X130717Y145616D01*
X130841Y145817D01*
X130931Y146035D01*
X130986Y146265D01*
X131000Y146500D01*
X130986Y154735D01*
X130931Y154965D01*
X130841Y155183D01*
X130717Y155384D01*
X130564Y155564D01*
X130384Y155717D01*
X130183Y155841D01*
X129965Y155931D01*
X129735Y155986D01*
X129500Y156000D01*
X125500Y155993D01*
Y173500D01*
G37*
G36*
X104496D02*X125500D01*
Y155993D01*
X121265Y155986D01*
X121035Y155931D01*
X120817Y155841D01*
X120616Y155717D01*
X120436Y155564D01*
X120283Y155384D01*
X120159Y155183D01*
X120069Y154965D01*
X120014Y154735D01*
X120000Y154500D01*
X120014Y146265D01*
X120069Y146035D01*
X120159Y145817D01*
X120283Y145616D01*
X120436Y145436D01*
X120616Y145283D01*
X120817Y145159D01*
X121035Y145069D01*
X121265Y145014D01*
X121500Y145000D01*
X125500Y145007D01*
Y84500D01*
X114244D01*
X114131Y84631D01*
X113856Y84866D01*
X113547Y85056D01*
X113213Y85194D01*
X112861Y85279D01*
X112500Y85307D01*
X112139Y85279D01*
X111787Y85194D01*
X111453Y85056D01*
X111144Y84866D01*
X110869Y84631D01*
X110634Y84356D01*
X110444Y84047D01*
X110306Y83713D01*
X110221Y83361D01*
X110193Y83000D01*
X110221Y82639D01*
X110306Y82287D01*
X110444Y81953D01*
X110634Y81644D01*
X110869Y81369D01*
X111144Y81134D01*
X111453Y80944D01*
X111787Y80806D01*
X112139Y80721D01*
X112500Y80693D01*
X112861Y80721D01*
X113213Y80806D01*
X113547Y80944D01*
X113856Y81134D01*
X114131Y81369D01*
X114244Y81500D01*
X125500D01*
Y42000D01*
X104496D01*
Y50250D01*
X111520D01*
X111639Y50221D01*
X112000Y50193D01*
X112361Y50221D01*
X112480Y50250D01*
X115520D01*
X115639Y50221D01*
X116000Y50193D01*
X116361Y50221D01*
X116713Y50306D01*
X117047Y50444D01*
X117356Y50634D01*
X117631Y50869D01*
X117866Y51144D01*
X118056Y51453D01*
X118194Y51787D01*
X118279Y52139D01*
X118300Y52500D01*
X118279Y52861D01*
X118194Y53213D01*
X118056Y53547D01*
X117866Y53856D01*
X117631Y54131D01*
X117356Y54366D01*
X117047Y54556D01*
X116713Y54694D01*
X116361Y54779D01*
X116000Y54807D01*
X115639Y54779D01*
X115520Y54750D01*
X112480D01*
X112361Y54779D01*
X112000Y54807D01*
X111639Y54779D01*
X111520Y54750D01*
X104496D01*
Y145085D01*
X104637Y145051D01*
X105500Y144983D01*
X106363Y145051D01*
X107205Y145253D01*
X108005Y145584D01*
X108743Y146037D01*
X109401Y146599D01*
X109963Y147257D01*
X110416Y147995D01*
X110747Y148795D01*
X110949Y149637D01*
X111000Y150500D01*
X110949Y151363D01*
X110747Y152205D01*
X110416Y153005D01*
X109963Y153743D01*
X109401Y154401D01*
X108743Y154963D01*
X108005Y155416D01*
X107205Y155747D01*
X106363Y155949D01*
X105500Y156017D01*
X104637Y155949D01*
X104496Y155915D01*
Y173500D01*
G37*
G36*
X81995D02*X104496D01*
Y155915D01*
X103795Y155747D01*
X102995Y155416D01*
X102257Y154963D01*
X101599Y154401D01*
X101037Y153743D01*
X100584Y153005D01*
X100253Y152205D01*
X100051Y151363D01*
X99983Y150500D01*
X100051Y149637D01*
X100253Y148795D01*
X100584Y147995D01*
X101037Y147257D01*
X101599Y146599D01*
X102257Y146037D01*
X102995Y145584D01*
X103795Y145253D01*
X104496Y145085D01*
Y54750D01*
X102932D01*
X102750Y54932D01*
Y64412D01*
X102757Y64500D01*
X102729Y64853D01*
X102646Y65197D01*
X102607Y65293D01*
X102511Y65525D01*
X102396Y65712D01*
X102326Y65827D01*
X102326Y65827D01*
X102096Y66096D01*
X102029Y66153D01*
X95250Y72932D01*
Y91520D01*
X95279Y91639D01*
X95300Y92000D01*
X95279Y92361D01*
X95250Y92480D01*
Y95520D01*
X95279Y95639D01*
X95300Y96000D01*
X95279Y96361D01*
X95194Y96713D01*
X95056Y97047D01*
X94866Y97356D01*
X94631Y97631D01*
X94356Y97866D01*
X94047Y98056D01*
X93713Y98194D01*
X93361Y98279D01*
X93000Y98307D01*
X92639Y98279D01*
X92287Y98194D01*
X91953Y98056D01*
X91644Y97866D01*
X91369Y97631D01*
X91134Y97356D01*
X90944Y97047D01*
X90806Y96713D01*
X90721Y96361D01*
X90693Y96000D01*
X90721Y95639D01*
X90750Y95520D01*
Y92480D01*
X90721Y92361D01*
X90693Y92000D01*
X90721Y91639D01*
X90750Y91520D01*
Y72088D01*
X90743Y72000D01*
X90771Y71647D01*
Y71647D01*
X90854Y71303D01*
X90989Y70975D01*
X91059Y70861D01*
X91174Y70673D01*
X91174Y70673D01*
X91404Y70404D01*
X91471Y70347D01*
X96559Y65259D01*
X96287Y65194D01*
X95953Y65056D01*
X95644Y64866D01*
X95369Y64631D01*
X95134Y64356D01*
X94944Y64047D01*
X94806Y63713D01*
X94721Y63361D01*
X94693Y63000D01*
X94721Y62639D01*
X94806Y62287D01*
X94944Y61953D01*
X95134Y61644D01*
X95369Y61369D01*
X95500Y61256D01*
Y55244D01*
X95369Y55131D01*
X95134Y54856D01*
X94944Y54547D01*
X94806Y54213D01*
X94721Y53861D01*
X94693Y53500D01*
X94721Y53139D01*
X94806Y52787D01*
X94944Y52453D01*
X95134Y52144D01*
X95369Y51869D01*
X95644Y51634D01*
X95953Y51444D01*
X96287Y51306D01*
X96639Y51221D01*
X97000Y51193D01*
X97361Y51221D01*
X97713Y51306D01*
X98047Y51444D01*
X98356Y51634D01*
X98631Y51869D01*
X98866Y52144D01*
X98983Y52335D01*
X100347Y50971D01*
X100404Y50904D01*
X100673Y50674D01*
X100673Y50674D01*
X100861Y50559D01*
X100975Y50489D01*
X101303Y50354D01*
X101647Y50271D01*
X101647D01*
X102000Y50243D01*
X102088Y50250D01*
X104496D01*
Y42000D01*
X81995D01*
Y80541D01*
X82000Y80541D01*
X82463Y80577D01*
X82914Y80686D01*
X83343Y80863D01*
X83739Y81106D01*
X84092Y81408D01*
X84394Y81761D01*
X84637Y82157D01*
X84814Y82586D01*
X84923Y83037D01*
X84950Y83500D01*
X84923Y83963D01*
X84814Y84414D01*
X84637Y84843D01*
X84394Y85239D01*
X84092Y85592D01*
X83739Y85894D01*
X83343Y86137D01*
X82914Y86314D01*
X82463Y86423D01*
X82000Y86459D01*
X81995Y86459D01*
Y88541D01*
X82000Y88541D01*
X82463Y88577D01*
X82914Y88686D01*
X83343Y88863D01*
X83739Y89106D01*
X84092Y89408D01*
X84394Y89761D01*
X84637Y90157D01*
X84814Y90586D01*
X84923Y91037D01*
X84950Y91500D01*
X84923Y91963D01*
X84814Y92414D01*
X84637Y92843D01*
X84394Y93239D01*
X84092Y93592D01*
X83739Y93894D01*
X83343Y94137D01*
X82914Y94314D01*
X82463Y94423D01*
X82000Y94459D01*
X81995Y94459D01*
Y173500D01*
G37*
G36*
X75996D02*X81995D01*
Y94459D01*
X81537Y94423D01*
X81086Y94314D01*
X80657Y94137D01*
X80261Y93894D01*
X79908Y93592D01*
X79606Y93239D01*
X79363Y92843D01*
X79186Y92414D01*
X79077Y91963D01*
X79041Y91500D01*
X79077Y91037D01*
X79186Y90586D01*
X79363Y90157D01*
X79606Y89761D01*
X79908Y89408D01*
X80261Y89106D01*
X80657Y88863D01*
X81086Y88686D01*
X81537Y88577D01*
X81995Y88541D01*
Y86459D01*
X81537Y86423D01*
X81086Y86314D01*
X80657Y86137D01*
X80261Y85894D01*
X79908Y85592D01*
X79606Y85239D01*
X79363Y84843D01*
X79186Y84414D01*
X79077Y83963D01*
X79041Y83500D01*
X79077Y83037D01*
X79186Y82586D01*
X79363Y82157D01*
X79606Y81761D01*
X79908Y81408D01*
X80261Y81106D01*
X80657Y80863D01*
X81086Y80686D01*
X81537Y80577D01*
X81995Y80541D01*
Y42000D01*
X75996D01*
Y157693D01*
X76000Y157693D01*
X76361Y157721D01*
X76713Y157806D01*
X77047Y157944D01*
X77356Y158134D01*
X77631Y158369D01*
X77866Y158644D01*
X78056Y158953D01*
X78194Y159287D01*
X78279Y159639D01*
X78300Y160000D01*
X78279Y160361D01*
X78194Y160713D01*
X78056Y161047D01*
X77866Y161356D01*
X77631Y161631D01*
X77356Y161866D01*
X77047Y162056D01*
X76713Y162194D01*
X76480Y162250D01*
X76713Y162306D01*
X77047Y162444D01*
X77356Y162634D01*
X77631Y162869D01*
X77866Y163144D01*
X78056Y163453D01*
X78194Y163787D01*
X78279Y164139D01*
X78300Y164500D01*
X78279Y164861D01*
X78194Y165213D01*
X78056Y165547D01*
X77866Y165856D01*
X77631Y166131D01*
X77356Y166366D01*
X77047Y166556D01*
X76713Y166694D01*
X76361Y166779D01*
X76000Y166807D01*
X75996Y166807D01*
Y173500D01*
G37*
G36*
X66496D02*X75996D01*
Y166807D01*
X75639Y166779D01*
X75287Y166694D01*
X74953Y166556D01*
X74644Y166366D01*
X74369Y166131D01*
X74134Y165856D01*
X73944Y165547D01*
X73806Y165213D01*
X73721Y164861D01*
X73693Y164500D01*
X73721Y164139D01*
X73806Y163787D01*
X73944Y163453D01*
X74134Y163144D01*
X74369Y162869D01*
X74644Y162634D01*
X74953Y162444D01*
X75287Y162306D01*
X75520Y162250D01*
X75287Y162194D01*
X74953Y162056D01*
X74644Y161866D01*
X74369Y161631D01*
X74134Y161356D01*
X73944Y161047D01*
X73806Y160713D01*
X73721Y160361D01*
X73693Y160000D01*
X73721Y159639D01*
X73806Y159287D01*
X73944Y158953D01*
X74134Y158644D01*
X74369Y158369D01*
X74644Y158134D01*
X74953Y157944D01*
X75287Y157806D01*
X75639Y157721D01*
X75996Y157693D01*
Y42000D01*
X66496D01*
Y79500D01*
X67441D01*
X67500Y79495D01*
X67735Y79514D01*
X67735Y79514D01*
X67965Y79569D01*
X68183Y79659D01*
X68384Y79783D01*
X68564Y79936D01*
X68602Y79981D01*
X73019Y84398D01*
X73064Y84436D01*
X73217Y84615D01*
X73217Y84616D01*
X73341Y84817D01*
X73431Y85035D01*
X73486Y85265D01*
X73505Y85500D01*
X73500Y85559D01*
Y92256D01*
X73631Y92369D01*
X73866Y92644D01*
X74056Y92953D01*
X74194Y93287D01*
X74279Y93639D01*
X74300Y94000D01*
X74279Y94361D01*
X74194Y94713D01*
X74056Y95047D01*
X73866Y95356D01*
X73631Y95631D01*
X73356Y95866D01*
X73047Y96056D01*
X72713Y96194D01*
X72361Y96279D01*
X72000Y96307D01*
X71639Y96279D01*
X71287Y96194D01*
X70953Y96056D01*
X70644Y95866D01*
X70369Y95631D01*
X70134Y95356D01*
X69944Y95047D01*
X69806Y94713D01*
X69721Y94361D01*
X69693Y94000D01*
X69721Y93639D01*
X69806Y93287D01*
X69944Y92953D01*
X70134Y92644D01*
X70369Y92369D01*
X70500Y92256D01*
Y86121D01*
X66879Y82500D01*
X66496D01*
Y173500D01*
G37*
G36*
X61995Y78923D02*X62047Y78944D01*
X62356Y79134D01*
X62631Y79369D01*
X62744Y79500D01*
X66496D01*
Y42000D01*
X61995D01*
Y78923D01*
G37*
G36*
Y173500D02*X66496D01*
Y82500D01*
X62744D01*
X62631Y82631D01*
X62356Y82866D01*
X62047Y83056D01*
X61995Y83077D01*
Y84541D01*
X62000Y84541D01*
X62463Y84577D01*
X62914Y84686D01*
X63343Y84863D01*
X63739Y85106D01*
X64092Y85408D01*
X64394Y85761D01*
X64637Y86157D01*
X64814Y86586D01*
X64923Y87037D01*
X64950Y87500D01*
X64923Y87963D01*
X64814Y88414D01*
X64637Y88843D01*
X64394Y89239D01*
X64092Y89592D01*
X63739Y89894D01*
X63343Y90137D01*
X62914Y90314D01*
X62463Y90423D01*
X62000Y90459D01*
X61995Y90459D01*
Y173500D01*
G37*
G36*
X29493D02*X61995D01*
Y90459D01*
X61537Y90423D01*
X61086Y90314D01*
X60657Y90137D01*
X60261Y89894D01*
X59908Y89592D01*
X59606Y89239D01*
X59363Y88843D01*
X59186Y88414D01*
X59077Y87963D01*
X59041Y87500D01*
X59077Y87037D01*
X59186Y86586D01*
X59363Y86157D01*
X59606Y85761D01*
X59908Y85408D01*
X60261Y85106D01*
X60657Y84863D01*
X61086Y84686D01*
X61537Y84577D01*
X61995Y84541D01*
Y83077D01*
X61713Y83194D01*
X61361Y83279D01*
X61000Y83307D01*
X60639Y83279D01*
X60287Y83194D01*
X59953Y83056D01*
X59644Y82866D01*
X59369Y82631D01*
X59134Y82356D01*
X58944Y82047D01*
X58806Y81713D01*
X58721Y81361D01*
X58693Y81000D01*
X58721Y80639D01*
X58806Y80287D01*
X58944Y79953D01*
X59134Y79644D01*
X59369Y79369D01*
X59644Y79134D01*
X59953Y78944D01*
X60287Y78806D01*
X60639Y78721D01*
X61000Y78693D01*
X61361Y78721D01*
X61713Y78806D01*
X61995Y78923D01*
Y42000D01*
X29493D01*
Y98526D01*
X29916Y99216D01*
X30247Y100016D01*
X30449Y100858D01*
X30500Y101721D01*
X30449Y102584D01*
X30247Y103426D01*
X29916Y104226D01*
X29493Y104916D01*
Y112645D01*
X29578Y112681D01*
X29679Y112743D01*
X29769Y112819D01*
X29845Y112909D01*
X29905Y113011D01*
X30122Y113480D01*
X30289Y113969D01*
X30409Y114472D01*
X30482Y114984D01*
X30506Y115500D01*
X30482Y116016D01*
X30409Y116528D01*
X30289Y117031D01*
X30122Y117520D01*
X29910Y117992D01*
X29849Y118093D01*
X29772Y118184D01*
X29682Y118261D01*
X29580Y118323D01*
X29493Y118360D01*
Y123860D01*
X29683Y123939D01*
X29884Y124063D01*
X30064Y124216D01*
X30217Y124396D01*
X30341Y124597D01*
X30431Y124815D01*
X30486Y125045D01*
X30500Y125280D01*
X30486Y133515D01*
X30431Y133745D01*
X30341Y133963D01*
X30217Y134164D01*
X30064Y134344D01*
X29884Y134497D01*
X29683Y134621D01*
X29493Y134700D01*
Y148477D01*
X29728Y148753D01*
X31018Y150858D01*
X31962Y153138D01*
X32539Y155539D01*
X32684Y158000D01*
X32539Y160461D01*
X31962Y162862D01*
X31018Y165142D01*
X29728Y167247D01*
X29493Y167523D01*
Y173500D01*
G37*
G36*
Y134700D02*X29465Y134711D01*
X29235Y134766D01*
X29000Y134780D01*
X25000Y134773D01*
Y144508D01*
X26247Y145272D01*
X28124Y146876D01*
X29493Y148477D01*
Y134700D01*
G37*
G36*
Y104916D02*X29463Y104964D01*
X28901Y105622D01*
X28243Y106184D01*
X27505Y106637D01*
X26705Y106968D01*
X25863Y107170D01*
X25000Y107238D01*
Y109994D01*
X25516Y110018D01*
X26028Y110091D01*
X26531Y110211D01*
X27020Y110378D01*
X27492Y110590D01*
X27593Y110651D01*
X27684Y110728D01*
X27761Y110818D01*
X27823Y110920D01*
X27869Y111029D01*
X27897Y111145D01*
X27906Y111263D01*
X27897Y111381D01*
X27870Y111497D01*
X27824Y111607D01*
X27762Y111708D01*
X27686Y111798D01*
X27595Y111876D01*
X27494Y111938D01*
X27385Y111984D01*
X27269Y112011D01*
X27151Y112021D01*
X27032Y112012D01*
X26917Y111984D01*
X26808Y111937D01*
X26468Y111779D01*
X26112Y111658D01*
X25747Y111570D01*
X25375Y111518D01*
X25000Y111500D01*
Y119500D01*
X25375Y119482D01*
X25747Y119430D01*
X26112Y119342D01*
X26468Y119221D01*
X26810Y119067D01*
X26918Y119020D01*
X27033Y118993D01*
X27151Y118983D01*
X27268Y118993D01*
X27383Y119021D01*
X27492Y119066D01*
X27593Y119128D01*
X27682Y119205D01*
X27759Y119295D01*
X27820Y119395D01*
X27865Y119504D01*
X27893Y119619D01*
X27902Y119737D01*
X27892Y119855D01*
X27865Y119969D01*
X27819Y120078D01*
X27757Y120179D01*
X27681Y120269D01*
X27591Y120345D01*
X27489Y120405D01*
X27020Y120622D01*
X26531Y120789D01*
X26028Y120909D01*
X25516Y120982D01*
X25000Y121006D01*
Y123787D01*
X29235Y123794D01*
X29465Y123849D01*
X29493Y123860D01*
Y118360D01*
X29471Y118369D01*
X29355Y118397D01*
X29237Y118406D01*
X29119Y118397D01*
X29003Y118370D01*
X28893Y118324D01*
X28792Y118262D01*
X28702Y118186D01*
X28624Y118095D01*
X28562Y117994D01*
X28516Y117885D01*
X28489Y117769D01*
X28479Y117651D01*
X28488Y117532D01*
X28516Y117417D01*
X28563Y117308D01*
X28721Y116968D01*
X28842Y116612D01*
X28930Y116247D01*
X28982Y115875D01*
X29000Y115500D01*
X28982Y115125D01*
X28930Y114753D01*
X28842Y114388D01*
X28721Y114032D01*
X28567Y113690D01*
X28520Y113582D01*
X28493Y113467D01*
X28483Y113349D01*
X28493Y113232D01*
X28521Y113117D01*
X28566Y113008D01*
X28628Y112907D01*
X28705Y112818D01*
X28795Y112741D01*
X28895Y112680D01*
X29004Y112635D01*
X29119Y112607D01*
X29237Y112598D01*
X29355Y112608D01*
X29469Y112635D01*
X29493Y112645D01*
Y104916D01*
G37*
G36*
Y42000D02*X25000D01*
Y46756D01*
X25205Y46805D01*
X26005Y47136D01*
X26743Y47589D01*
X27401Y48151D01*
X27963Y48809D01*
X28416Y49547D01*
X28747Y50347D01*
X28949Y51189D01*
X29000Y52052D01*
X28949Y52915D01*
X28747Y53757D01*
X28416Y54557D01*
X27963Y55295D01*
X27401Y55953D01*
X26743Y56515D01*
X26005Y56968D01*
X25205Y57299D01*
X25000Y57348D01*
Y66561D01*
X27735Y66566D01*
X27965Y66621D01*
X28183Y66711D01*
X28384Y66835D01*
X28564Y66988D01*
X28717Y67168D01*
X28841Y67369D01*
X28931Y67587D01*
X28986Y67817D01*
X29000Y68052D01*
X28986Y76287D01*
X28931Y76517D01*
X28841Y76735D01*
X28717Y76936D01*
X28564Y77116D01*
X28384Y77269D01*
X28183Y77393D01*
X27965Y77483D01*
X27735Y77538D01*
X27500Y77552D01*
X25000Y77548D01*
Y96204D01*
X25863Y96272D01*
X26705Y96474D01*
X27505Y96805D01*
X28243Y97258D01*
X28901Y97820D01*
X29463Y98478D01*
X29493Y98526D01*
Y42000D01*
G37*
G36*
X25000Y173500D02*X29493D01*
Y167523D01*
X28124Y169124D01*
X26247Y170728D01*
X25000Y171492D01*
Y173500D01*
G37*
G36*
X20507Y66554D02*X25000Y66561D01*
Y57348D01*
X24363Y57501D01*
X23500Y57569D01*
X22637Y57501D01*
X21795Y57299D01*
X20995Y56968D01*
X20507Y56669D01*
Y66554D01*
G37*
G36*
Y98526D02*X20537Y98478D01*
X21099Y97820D01*
X21757Y97258D01*
X22495Y96805D01*
X23295Y96474D01*
X24137Y96272D01*
X25000Y96204D01*
Y77548D01*
X20507Y77540D01*
Y98526D01*
G37*
G36*
Y123860D02*X20535Y123849D01*
X20765Y123794D01*
X21000Y123780D01*
X25000Y123787D01*
Y121006D01*
X25000D01*
X24484Y120982D01*
X23972Y120909D01*
X23469Y120789D01*
X22980Y120622D01*
X22508Y120410D01*
X22407Y120349D01*
X22316Y120272D01*
X22239Y120182D01*
X22177Y120080D01*
X22131Y119971D01*
X22103Y119855D01*
X22094Y119737D01*
X22103Y119619D01*
X22130Y119503D01*
X22176Y119393D01*
X22238Y119292D01*
X22314Y119202D01*
X22405Y119124D01*
X22506Y119062D01*
X22615Y119016D01*
X22731Y118989D01*
X22849Y118979D01*
X22968Y118988D01*
X23083Y119016D01*
X23192Y119063D01*
X23532Y119221D01*
X23888Y119342D01*
X24253Y119430D01*
X24625Y119482D01*
X25000Y119500D01*
Y111500D01*
X24625Y111518D01*
X24253Y111570D01*
X23888Y111658D01*
X23532Y111779D01*
X23190Y111933D01*
X23082Y111980D01*
X22967Y112007D01*
X22849Y112017D01*
X22732Y112007D01*
X22617Y111979D01*
X22508Y111934D01*
X22407Y111872D01*
X22318Y111795D01*
X22241Y111705D01*
X22180Y111605D01*
X22135Y111496D01*
X22107Y111381D01*
X22098Y111263D01*
X22108Y111145D01*
X22135Y111031D01*
X22181Y110922D01*
X22243Y110821D01*
X22319Y110731D01*
X22409Y110655D01*
X22511Y110595D01*
X22980Y110378D01*
X23469Y110211D01*
X23972Y110091D01*
X24484Y110018D01*
X25000Y109994D01*
X25000D01*
Y107238D01*
X24137Y107170D01*
X23295Y106968D01*
X22495Y106637D01*
X21757Y106184D01*
X21099Y105622D01*
X20537Y104964D01*
X20507Y104916D01*
Y112640D01*
X20529Y112631D01*
X20645Y112603D01*
X20763Y112594D01*
X20881Y112603D01*
X20997Y112630D01*
X21107Y112676D01*
X21208Y112738D01*
X21298Y112814D01*
X21376Y112905D01*
X21438Y113006D01*
X21484Y113115D01*
X21511Y113231D01*
X21521Y113349D01*
X21512Y113468D01*
X21484Y113583D01*
X21437Y113692D01*
X21279Y114032D01*
X21158Y114388D01*
X21070Y114753D01*
X21018Y115125D01*
X21000Y115500D01*
X21018Y115875D01*
X21070Y116247D01*
X21158Y116612D01*
X21279Y116968D01*
X21433Y117310D01*
X21480Y117418D01*
X21507Y117533D01*
X21517Y117651D01*
X21507Y117768D01*
X21479Y117883D01*
X21434Y117992D01*
X21372Y118093D01*
X21295Y118182D01*
X21205Y118259D01*
X21105Y118320D01*
X20996Y118365D01*
X20881Y118393D01*
X20763Y118402D01*
X20645Y118392D01*
X20531Y118365D01*
X20507Y118355D01*
Y123860D01*
G37*
G36*
Y142713D02*X21862Y143038D01*
X24142Y143982D01*
X25000Y144508D01*
Y134773D01*
X20765Y134766D01*
X20535Y134711D01*
X20507Y134700D01*
Y142713D01*
G37*
G36*
X25000Y42000D02*X20507D01*
Y47435D01*
X20995Y47136D01*
X21795Y46805D01*
X22637Y46603D01*
X23500Y46535D01*
X24363Y46603D01*
X25000Y46756D01*
Y42000D01*
G37*
G36*
X20507D02*X1500D01*
Y155378D01*
X2038Y153138D01*
X2982Y150858D01*
X4272Y148753D01*
X5876Y146876D01*
X7753Y145272D01*
X9858Y143982D01*
X12138Y143038D01*
X14539Y142461D01*
X17000Y142268D01*
X19461Y142461D01*
X20507Y142713D01*
Y134700D01*
X20317Y134621D01*
X20116Y134497D01*
X19936Y134344D01*
X19783Y134164D01*
X19659Y133963D01*
X19569Y133745D01*
X19514Y133515D01*
X19500Y133280D01*
X19514Y125045D01*
X19569Y124815D01*
X19659Y124597D01*
X19783Y124396D01*
X19936Y124216D01*
X20116Y124063D01*
X20317Y123939D01*
X20507Y123860D01*
Y118355D01*
X20422Y118319D01*
X20321Y118257D01*
X20231Y118181D01*
X20155Y118091D01*
X20095Y117989D01*
X19878Y117520D01*
X19711Y117031D01*
X19591Y116528D01*
X19518Y116016D01*
X19494Y115500D01*
X19518Y114984D01*
X19591Y114472D01*
X19711Y113969D01*
X19878Y113480D01*
X20090Y113008D01*
X20151Y112907D01*
X20228Y112816D01*
X20318Y112739D01*
X20420Y112677D01*
X20507Y112640D01*
Y104916D01*
X20084Y104226D01*
X19753Y103426D01*
X19551Y102584D01*
X19483Y101721D01*
X19551Y100858D01*
X19753Y100016D01*
X20084Y99216D01*
X20507Y98526D01*
Y77540D01*
X19265Y77538D01*
X19035Y77483D01*
X18817Y77393D01*
X18616Y77269D01*
X18436Y77116D01*
X18283Y76936D01*
X18159Y76735D01*
X18069Y76517D01*
X18014Y76287D01*
X18000Y76052D01*
X18014Y67817D01*
X18069Y67587D01*
X18159Y67369D01*
X18283Y67168D01*
X18436Y66988D01*
X18616Y66835D01*
X18817Y66711D01*
X19035Y66621D01*
X19265Y66566D01*
X19500Y66552D01*
X20507Y66554D01*
Y56669D01*
X20257Y56515D01*
X19599Y55953D01*
X19037Y55295D01*
X18584Y54557D01*
X18253Y53757D01*
X18051Y52915D01*
X17983Y52052D01*
X18051Y51189D01*
X18253Y50347D01*
X18584Y49547D01*
X19037Y48809D01*
X19599Y48151D01*
X20257Y47589D01*
X20507Y47435D01*
Y42000D01*
G37*
G36*
X19622Y173500D02*X25000D01*
Y171492D01*
X24142Y172018D01*
X21862Y172962D01*
X19622Y173500D01*
G37*
G36*
X189493Y67360D02*X189683Y67439D01*
X189885Y67563D01*
X190064Y67716D01*
X190217Y67896D01*
X190341Y68097D01*
X190431Y68315D01*
X190486Y68545D01*
X190500Y68780D01*
X190496Y71500D01*
X192379D01*
X192500Y71379D01*
Y41121D01*
X191879Y40500D01*
X189493D01*
Y42026D01*
X189916Y42716D01*
X190247Y43516D01*
X190449Y44358D01*
X190500Y45221D01*
X190449Y46084D01*
X190247Y46926D01*
X189916Y47726D01*
X189493Y48416D01*
Y56145D01*
X189579Y56181D01*
X189679Y56243D01*
X189769Y56319D01*
X189845Y56409D01*
X189905Y56511D01*
X190122Y56980D01*
X190289Y57469D01*
X190409Y57972D01*
X190482Y58484D01*
X190506Y59000D01*
X190482Y59516D01*
X190409Y60028D01*
X190289Y60531D01*
X190122Y61020D01*
X189910Y61492D01*
X189849Y61593D01*
X189772Y61684D01*
X189682Y61761D01*
X189581Y61823D01*
X189493Y61860D01*
Y67360D01*
G37*
G36*
Y40500D02*X187822D01*
X188243Y40758D01*
X188901Y41320D01*
X189463Y41978D01*
X189493Y42026D01*
Y40500D01*
G37*
G36*
X183349Y67284D02*X189236Y67294D01*
X189465Y67349D01*
X189493Y67360D01*
Y61860D01*
X189471Y61869D01*
X189356Y61897D01*
X189237Y61906D01*
X189119Y61897D01*
X189003Y61870D01*
X188894Y61824D01*
X188792Y61762D01*
X188702Y61686D01*
X188624Y61595D01*
X188562Y61494D01*
X188517Y61385D01*
X188489Y61269D01*
X188479Y61151D01*
X188488Y61032D01*
X188516Y60917D01*
X188563Y60808D01*
X188721Y60468D01*
X188842Y60112D01*
X188930Y59747D01*
X188983Y59375D01*
X189000Y59000D01*
X188983Y58625D01*
X188930Y58253D01*
X188842Y57888D01*
X188721Y57532D01*
X188567Y57190D01*
X188520Y57082D01*
X188493Y56967D01*
X188484Y56849D01*
X188493Y56732D01*
X188521Y56617D01*
X188566Y56508D01*
X188628Y56407D01*
X188705Y56318D01*
X188795Y56241D01*
X188896Y56180D01*
X189005Y56135D01*
X189119Y56107D01*
X189237Y56098D01*
X189355Y56108D01*
X189470Y56135D01*
X189493Y56145D01*
Y48416D01*
X189463Y48464D01*
X188901Y49122D01*
X188243Y49684D01*
X187505Y50137D01*
X186705Y50468D01*
X185863Y50670D01*
X185000Y50738D01*
X184137Y50670D01*
X183349Y50481D01*
Y53752D01*
X183469Y53711D01*
X183972Y53591D01*
X184484Y53518D01*
X185000Y53494D01*
X185517Y53518D01*
X186028Y53591D01*
X186531Y53711D01*
X187020Y53878D01*
X187492Y54090D01*
X187594Y54151D01*
X187684Y54228D01*
X187761Y54318D01*
X187823Y54420D01*
X187869Y54529D01*
X187897Y54645D01*
X187906Y54763D01*
X187897Y54881D01*
X187870Y54997D01*
X187825Y55107D01*
X187763Y55208D01*
X187686Y55298D01*
X187596Y55376D01*
X187494Y55438D01*
X187385Y55484D01*
X187269Y55511D01*
X187151Y55521D01*
X187033Y55512D01*
X186917Y55484D01*
X186808Y55437D01*
X186468Y55279D01*
X186112Y55158D01*
X185747Y55070D01*
X185375Y55018D01*
X185000Y55000D01*
X184625Y55018D01*
X184253Y55070D01*
X183888Y55158D01*
X183533Y55279D01*
X183349Y55362D01*
Y62636D01*
X183533Y62721D01*
X183888Y62842D01*
X184253Y62930D01*
X184625Y62982D01*
X185000Y63000D01*
X185375Y62982D01*
X185747Y62930D01*
X186112Y62842D01*
X186468Y62721D01*
X186810Y62567D01*
X186918Y62520D01*
X187033Y62493D01*
X187151Y62483D01*
X187269Y62493D01*
X187383Y62521D01*
X187492Y62566D01*
X187593Y62628D01*
X187683Y62705D01*
X187759Y62795D01*
X187821Y62895D01*
X187866Y63004D01*
X187893Y63119D01*
X187902Y63237D01*
X187893Y63355D01*
X187865Y63469D01*
X187819Y63578D01*
X187758Y63679D01*
X187681Y63769D01*
X187591Y63845D01*
X187489Y63905D01*
X187020Y64122D01*
X186531Y64289D01*
X186028Y64409D01*
X185517Y64482D01*
X185000Y64506D01*
X184484Y64482D01*
X183972Y64409D01*
X183469Y64289D01*
X183349Y64248D01*
Y67284D01*
G37*
G36*
Y2779D02*X185138Y2038D01*
X185295Y2000D01*
X183349D01*
Y2779D01*
G37*
G36*
Y133500D02*X208500D01*
Y2000D01*
X194705D01*
X194862Y2038D01*
X197142Y2982D01*
X199247Y4272D01*
X201124Y5876D01*
X202728Y7753D01*
X204018Y9858D01*
X204962Y12138D01*
X205539Y14539D01*
X205684Y17000D01*
X205539Y19461D01*
X204962Y21862D01*
X204018Y24142D01*
X202728Y26247D01*
X201124Y28124D01*
X199247Y29728D01*
X197142Y31018D01*
X194862Y31962D01*
X192461Y32539D01*
X190000Y32732D01*
X187539Y32539D01*
X185138Y31962D01*
X183349Y31221D01*
Y37500D01*
X192441D01*
X192500Y37495D01*
X192735Y37514D01*
X192735Y37514D01*
X192965Y37569D01*
X193183Y37659D01*
X193384Y37783D01*
X193564Y37936D01*
X193602Y37981D01*
X195019Y39398D01*
X195064Y39436D01*
X195217Y39615D01*
X195217Y39616D01*
X195341Y39817D01*
X195431Y40035D01*
X195486Y40265D01*
X195505Y40500D01*
X195500Y40559D01*
Y71941D01*
X195505Y72000D01*
X195486Y72235D01*
X195431Y72465D01*
X195341Y72683D01*
X195217Y72884D01*
X195064Y73064D01*
X195019Y73102D01*
X194102Y74019D01*
X194064Y74064D01*
X193884Y74217D01*
X193683Y74341D01*
X193465Y74431D01*
X193235Y74486D01*
X193000Y74505D01*
X192941Y74500D01*
X190491D01*
X190486Y77015D01*
X190431Y77245D01*
X190341Y77463D01*
X190217Y77664D01*
X190064Y77844D01*
X189885Y77997D01*
X189683Y78121D01*
X189465Y78211D01*
X189236Y78266D01*
X189000Y78280D01*
X183349Y78270D01*
Y133500D01*
G37*
G36*
X180508Y4482D02*X180753Y4272D01*
X182858Y2982D01*
X183349Y2779D01*
Y2000D01*
X180508D01*
Y4482D01*
G37*
G36*
Y37500D02*X183349D01*
Y31221D01*
X182858Y31018D01*
X180753Y29728D01*
X180508Y29518D01*
Y37500D01*
G37*
G36*
Y42026D02*X180537Y41978D01*
X181099Y41320D01*
X181757Y40758D01*
X182178Y40500D01*
X180508D01*
Y42026D01*
G37*
G36*
Y67360D02*X180535Y67349D01*
X180765Y67294D01*
X181000Y67280D01*
X183349Y67284D01*
Y64248D01*
X182980Y64122D01*
X182508Y63910D01*
X182407Y63849D01*
X182316Y63772D01*
X182239Y63682D01*
X182177Y63580D01*
X182131Y63471D01*
X182103Y63355D01*
X182094Y63237D01*
X182103Y63119D01*
X182131Y63003D01*
X182176Y62893D01*
X182238Y62792D01*
X182315Y62702D01*
X182405Y62624D01*
X182506Y62562D01*
X182616Y62516D01*
X182731Y62489D01*
X182849Y62479D01*
X182968Y62488D01*
X183083Y62516D01*
X183192Y62563D01*
X183349Y62636D01*
Y55362D01*
X183190Y55433D01*
X183082Y55480D01*
X182967Y55507D01*
X182849Y55517D01*
X182732Y55507D01*
X182617Y55479D01*
X182508Y55434D01*
X182407Y55372D01*
X182318Y55295D01*
X182241Y55205D01*
X182180Y55105D01*
X182135Y54996D01*
X182107Y54881D01*
X182098Y54763D01*
X182108Y54645D01*
X182136Y54531D01*
X182181Y54422D01*
X182243Y54321D01*
X182320Y54231D01*
X182409Y54155D01*
X182511Y54095D01*
X182980Y53878D01*
X183349Y53752D01*
Y50481D01*
X183295Y50468D01*
X182496Y50137D01*
X181757Y49684D01*
X181099Y49122D01*
X180537Y48464D01*
X180508Y48416D01*
Y56140D01*
X180529Y56131D01*
X180645Y56103D01*
X180763Y56094D01*
X180882Y56103D01*
X180997Y56130D01*
X181107Y56176D01*
X181208Y56238D01*
X181299Y56314D01*
X181376Y56405D01*
X181438Y56506D01*
X181484Y56615D01*
X181512Y56731D01*
X181521Y56849D01*
X181512Y56968D01*
X181484Y57083D01*
X181437Y57192D01*
X181279Y57532D01*
X181158Y57888D01*
X181071Y58253D01*
X181018Y58625D01*
X181000Y59000D01*
X181018Y59375D01*
X181071Y59747D01*
X181158Y60112D01*
X181279Y60468D01*
X181433Y60810D01*
X181480Y60918D01*
X181508Y61033D01*
X181517Y61151D01*
X181507Y61268D01*
X181479Y61383D01*
X181434Y61492D01*
X181372Y61593D01*
X181295Y61682D01*
X181206Y61759D01*
X181105Y61820D01*
X180996Y61865D01*
X180881Y61893D01*
X180763Y61902D01*
X180645Y61892D01*
X180531Y61865D01*
X180508Y61855D01*
Y67360D01*
G37*
G36*
Y133500D02*X183349D01*
Y78270D01*
X180765Y78266D01*
X180535Y78211D01*
X180508Y78200D01*
Y133500D01*
G37*
G36*
X154496D02*X180508D01*
Y78200D01*
X180317Y78121D01*
X180116Y77997D01*
X179936Y77844D01*
X179783Y77664D01*
X179660Y77463D01*
X179569Y77245D01*
X179514Y77015D01*
X179500Y76780D01*
X179514Y68545D01*
X179569Y68315D01*
X179660Y68097D01*
X179783Y67896D01*
X179936Y67716D01*
X180116Y67563D01*
X180317Y67439D01*
X180508Y67360D01*
Y61855D01*
X180422Y61819D01*
X180321Y61757D01*
X180232Y61681D01*
X180155Y61591D01*
X180096Y61489D01*
X179878Y61020D01*
X179711Y60531D01*
X179591Y60028D01*
X179518Y59516D01*
X179494Y59000D01*
X179518Y58484D01*
X179591Y57972D01*
X179711Y57469D01*
X179878Y56980D01*
X180090Y56508D01*
X180151Y56407D01*
X180228Y56316D01*
X180319Y56239D01*
X180420Y56177D01*
X180508Y56140D01*
Y48416D01*
X180085Y47726D01*
X179753Y46926D01*
X179551Y46084D01*
X179483Y45221D01*
X179551Y44358D01*
X179753Y43516D01*
X180085Y42716D01*
X180508Y42026D01*
Y40500D01*
X175559D01*
X175500Y40505D01*
X175265Y40486D01*
X175035Y40431D01*
X174817Y40341D01*
X174616Y40217D01*
X174615Y40217D01*
X174436Y40064D01*
X174398Y40019D01*
X172481Y38102D01*
X172436Y38064D01*
X172283Y37884D01*
X172159Y37683D01*
X172069Y37465D01*
X172014Y37235D01*
X172014Y37235D01*
X171995Y37000D01*
X172000Y36941D01*
Y33744D01*
X171869Y33631D01*
X171634Y33356D01*
X171444Y33047D01*
X171306Y32713D01*
X171221Y32361D01*
X171193Y32000D01*
X171221Y31639D01*
X171306Y31287D01*
X171444Y30953D01*
X171634Y30644D01*
X171869Y30369D01*
X172144Y30134D01*
X172453Y29944D01*
X172787Y29806D01*
X173139Y29721D01*
X173500Y29693D01*
X173861Y29721D01*
X174213Y29806D01*
X174547Y29944D01*
X174856Y30134D01*
X175131Y30369D01*
X175366Y30644D01*
X175556Y30953D01*
X175694Y31287D01*
X175779Y31639D01*
X175800Y32000D01*
X175779Y32361D01*
X175694Y32713D01*
X175556Y33047D01*
X175366Y33356D01*
X175131Y33631D01*
X175000Y33744D01*
Y36379D01*
X176121Y37500D01*
X180508D01*
Y29518D01*
X178876Y28124D01*
X177272Y26247D01*
X175982Y24142D01*
X175038Y21862D01*
X174461Y19461D01*
X174268Y17000D01*
X174461Y14539D01*
X175038Y12138D01*
X175982Y9858D01*
X177272Y7753D01*
X178876Y5876D01*
X180508Y4482D01*
Y2000D01*
X154496D01*
Y19382D01*
X154898Y18981D01*
X154936Y18936D01*
X155116Y18783D01*
X155317Y18659D01*
X155535Y18569D01*
X155765Y18514D01*
X156000Y18495D01*
X156059Y18500D01*
X164256D01*
X164369Y18369D01*
X164644Y18134D01*
X164953Y17944D01*
X165287Y17806D01*
X165639Y17721D01*
X166000Y17693D01*
X166361Y17721D01*
X166713Y17806D01*
X167047Y17944D01*
X167356Y18134D01*
X167631Y18369D01*
X167866Y18644D01*
X168056Y18953D01*
X168194Y19287D01*
X168279Y19639D01*
X168300Y20000D01*
X168279Y20361D01*
X168194Y20713D01*
X168056Y21047D01*
X167866Y21356D01*
X167631Y21631D01*
X167356Y21866D01*
X167047Y22056D01*
X166713Y22194D01*
X166361Y22279D01*
X166000Y22307D01*
X165639Y22279D01*
X165287Y22194D01*
X164953Y22056D01*
X164644Y21866D01*
X164369Y21631D01*
X164256Y21500D01*
X156621D01*
X156000Y22121D01*
Y25902D01*
X156023Y25608D01*
X156115Y25225D01*
X156266Y24862D01*
X156471Y24526D01*
X156727Y24227D01*
X157026Y23971D01*
X157362Y23766D01*
X157725Y23615D01*
X158108Y23523D01*
X158500Y23492D01*
X158892Y23523D01*
X159275Y23615D01*
X159638Y23766D01*
X159974Y23971D01*
X160273Y24227D01*
X160529Y24526D01*
X160734Y24862D01*
X160885Y25225D01*
X160977Y25608D01*
X161000Y26000D01*
X160977Y26392D01*
X160885Y26775D01*
X160734Y27138D01*
X160529Y27474D01*
X160273Y27773D01*
X160000Y28007D01*
Y40993D01*
X160273Y41227D01*
X160529Y41526D01*
X160734Y41862D01*
X160885Y42225D01*
X160977Y42608D01*
X161000Y43000D01*
X160977Y43392D01*
X160885Y43775D01*
X160734Y44138D01*
X160529Y44474D01*
X160273Y44773D01*
X159974Y45029D01*
X159638Y45234D01*
X159275Y45385D01*
X158892Y45477D01*
X158500Y45508D01*
X158108Y45477D01*
X157725Y45385D01*
X157362Y45234D01*
X157026Y45029D01*
X156727Y44773D01*
X156471Y44474D01*
X156266Y44138D01*
X156115Y43775D01*
X156023Y43392D01*
X156000Y43098D01*
Y51503D01*
X156109Y51680D01*
X156217Y51942D01*
X156283Y52218D01*
X156306Y52500D01*
X156283Y52782D01*
X156217Y53058D01*
X156109Y53320D01*
X155961Y53561D01*
X155773Y53773D01*
X154496Y55049D01*
Y133500D01*
G37*
G36*
X131996D02*X154496D01*
Y55049D01*
X153323Y56223D01*
X153277Y56277D01*
X153061Y56461D01*
X153061Y56461D01*
X152820Y56609D01*
X152558Y56717D01*
X152282Y56783D01*
X152000Y56806D01*
X151929Y56800D01*
X144434D01*
X144356Y56866D01*
X144047Y57056D01*
X143713Y57194D01*
X143361Y57279D01*
X143000Y57307D01*
X142639Y57279D01*
X142287Y57194D01*
X141953Y57056D01*
X141644Y56866D01*
X141369Y56631D01*
X141134Y56356D01*
X140944Y56047D01*
X140806Y55713D01*
X140721Y55361D01*
X140693Y55000D01*
X140721Y54639D01*
X140806Y54287D01*
X140944Y53953D01*
X141134Y53644D01*
X141369Y53369D01*
X141644Y53134D01*
X141953Y52944D01*
X142287Y52806D01*
X142639Y52721D01*
X143000Y52693D01*
X143361Y52721D01*
X143713Y52806D01*
X144047Y52944D01*
X144356Y53134D01*
X144434Y53200D01*
X151254D01*
X153000Y51454D01*
Y21559D01*
X152995Y21500D01*
X153014Y21265D01*
X153069Y21035D01*
X153159Y20817D01*
X153283Y20616D01*
X153436Y20436D01*
X153481Y20398D01*
X154496Y19382D01*
Y2000D01*
X131996D01*
Y81500D01*
X149756D01*
X149869Y81369D01*
X150144Y81134D01*
X150453Y80944D01*
X150787Y80806D01*
X151139Y80721D01*
X151500Y80693D01*
X151861Y80721D01*
X152213Y80806D01*
X152547Y80944D01*
X152856Y81134D01*
X153131Y81369D01*
X153366Y81644D01*
X153556Y81953D01*
X153694Y82287D01*
X153779Y82639D01*
X153800Y83000D01*
X153779Y83361D01*
X153694Y83713D01*
X153556Y84047D01*
X153366Y84356D01*
X153131Y84631D01*
X152856Y84866D01*
X152547Y85056D01*
X152213Y85194D01*
X151861Y85279D01*
X151500Y85307D01*
X151139Y85279D01*
X150787Y85194D01*
X150453Y85056D01*
X150144Y84866D01*
X149869Y84631D01*
X149756Y84500D01*
X131996D01*
Y133500D01*
G37*
G36*
X104496D02*X131996D01*
Y84500D01*
X114244D01*
X114131Y84631D01*
X113856Y84866D01*
X113547Y85056D01*
X113213Y85194D01*
X112861Y85279D01*
X112500Y85307D01*
X112139Y85279D01*
X111787Y85194D01*
X111453Y85056D01*
X111144Y84866D01*
X110869Y84631D01*
X110634Y84356D01*
X110444Y84047D01*
X110306Y83713D01*
X110221Y83361D01*
X110193Y83000D01*
X110221Y82639D01*
X110306Y82287D01*
X110444Y81953D01*
X110634Y81644D01*
X110869Y81369D01*
X111144Y81134D01*
X111453Y80944D01*
X111787Y80806D01*
X112139Y80721D01*
X112500Y80693D01*
X112861Y80721D01*
X113213Y80806D01*
X113547Y80944D01*
X113856Y81134D01*
X114131Y81369D01*
X114244Y81500D01*
X131996D01*
Y2000D01*
X104496D01*
Y50250D01*
X111520D01*
X111639Y50221D01*
X112000Y50193D01*
X112361Y50221D01*
X112480Y50250D01*
X115520D01*
X115639Y50221D01*
X116000Y50193D01*
X116361Y50221D01*
X116713Y50306D01*
X117047Y50444D01*
X117356Y50634D01*
X117631Y50869D01*
X117866Y51144D01*
X118056Y51453D01*
X118194Y51787D01*
X118279Y52139D01*
X118300Y52500D01*
X118279Y52861D01*
X118194Y53213D01*
X118056Y53547D01*
X117866Y53856D01*
X117631Y54131D01*
X117356Y54366D01*
X117047Y54556D01*
X116713Y54694D01*
X116361Y54779D01*
X116000Y54807D01*
X115639Y54779D01*
X115520Y54750D01*
X112480D01*
X112361Y54779D01*
X112000Y54807D01*
X111639Y54779D01*
X111520Y54750D01*
X104496D01*
Y133500D01*
G37*
G36*
X81995D02*X104496D01*
Y54750D01*
X102932D01*
X102750Y54932D01*
Y64412D01*
X102757Y64500D01*
X102729Y64853D01*
X102646Y65197D01*
X102607Y65293D01*
X102511Y65525D01*
X102396Y65712D01*
X102326Y65827D01*
X102326Y65827D01*
X102096Y66096D01*
X102029Y66153D01*
X95250Y72932D01*
Y91520D01*
X95279Y91639D01*
X95300Y92000D01*
X95279Y92361D01*
X95250Y92480D01*
Y95520D01*
X95279Y95639D01*
X95300Y96000D01*
X95279Y96361D01*
X95194Y96713D01*
X95056Y97047D01*
X94866Y97356D01*
X94631Y97631D01*
X94356Y97866D01*
X94047Y98056D01*
X93713Y98194D01*
X93361Y98279D01*
X93000Y98307D01*
X92639Y98279D01*
X92287Y98194D01*
X91953Y98056D01*
X91644Y97866D01*
X91369Y97631D01*
X91134Y97356D01*
X90944Y97047D01*
X90806Y96713D01*
X90721Y96361D01*
X90693Y96000D01*
X90721Y95639D01*
X90750Y95520D01*
Y92480D01*
X90721Y92361D01*
X90693Y92000D01*
X90721Y91639D01*
X90750Y91520D01*
Y72088D01*
X90743Y72000D01*
X90771Y71647D01*
Y71647D01*
X90854Y71303D01*
X90989Y70975D01*
X91059Y70861D01*
X91174Y70673D01*
X91174Y70673D01*
X91404Y70404D01*
X91471Y70347D01*
X96559Y65259D01*
X96287Y65194D01*
X95953Y65056D01*
X95644Y64866D01*
X95369Y64631D01*
X95134Y64356D01*
X94944Y64047D01*
X94806Y63713D01*
X94721Y63361D01*
X94693Y63000D01*
X94721Y62639D01*
X94806Y62287D01*
X94944Y61953D01*
X95134Y61644D01*
X95369Y61369D01*
X95500Y61256D01*
Y55244D01*
X95369Y55131D01*
X95134Y54856D01*
X94944Y54547D01*
X94806Y54213D01*
X94721Y53861D01*
X94693Y53500D01*
X94721Y53139D01*
X94806Y52787D01*
X94944Y52453D01*
X95134Y52144D01*
X95369Y51869D01*
X95644Y51634D01*
X95953Y51444D01*
X96287Y51306D01*
X96639Y51221D01*
X97000Y51193D01*
X97361Y51221D01*
X97713Y51306D01*
X98047Y51444D01*
X98356Y51634D01*
X98631Y51869D01*
X98866Y52144D01*
X98983Y52335D01*
X100347Y50971D01*
X100404Y50904D01*
X100673Y50674D01*
X100673Y50674D01*
X100861Y50559D01*
X100975Y50489D01*
X101303Y50354D01*
X101647Y50271D01*
X101647D01*
X102000Y50243D01*
X102088Y50250D01*
X104496D01*
Y2000D01*
X81995D01*
Y80541D01*
X82000Y80541D01*
X82463Y80577D01*
X82914Y80686D01*
X83343Y80863D01*
X83739Y81106D01*
X84092Y81408D01*
X84394Y81761D01*
X84637Y82157D01*
X84814Y82586D01*
X84923Y83037D01*
X84950Y83500D01*
X84923Y83963D01*
X84814Y84414D01*
X84637Y84843D01*
X84394Y85239D01*
X84092Y85592D01*
X83739Y85894D01*
X83343Y86137D01*
X82914Y86314D01*
X82463Y86423D01*
X82000Y86459D01*
X81995Y86459D01*
Y88541D01*
X82000Y88541D01*
X82463Y88577D01*
X82914Y88686D01*
X83343Y88863D01*
X83739Y89106D01*
X84092Y89408D01*
X84394Y89761D01*
X84637Y90157D01*
X84814Y90586D01*
X84923Y91037D01*
X84950Y91500D01*
X84923Y91963D01*
X84814Y92414D01*
X84637Y92843D01*
X84394Y93239D01*
X84092Y93592D01*
X83739Y93894D01*
X83343Y94137D01*
X82914Y94314D01*
X82463Y94423D01*
X82000Y94459D01*
X81995Y94459D01*
Y133500D01*
G37*
G36*
X66496D02*X81995D01*
Y94459D01*
X81537Y94423D01*
X81086Y94314D01*
X80657Y94137D01*
X80261Y93894D01*
X79908Y93592D01*
X79606Y93239D01*
X79363Y92843D01*
X79186Y92414D01*
X79077Y91963D01*
X79041Y91500D01*
X79077Y91037D01*
X79186Y90586D01*
X79363Y90157D01*
X79606Y89761D01*
X79908Y89408D01*
X80261Y89106D01*
X80657Y88863D01*
X81086Y88686D01*
X81537Y88577D01*
X81995Y88541D01*
Y86459D01*
X81537Y86423D01*
X81086Y86314D01*
X80657Y86137D01*
X80261Y85894D01*
X79908Y85592D01*
X79606Y85239D01*
X79363Y84843D01*
X79186Y84414D01*
X79077Y83963D01*
X79041Y83500D01*
X79077Y83037D01*
X79186Y82586D01*
X79363Y82157D01*
X79606Y81761D01*
X79908Y81408D01*
X80261Y81106D01*
X80657Y80863D01*
X81086Y80686D01*
X81537Y80577D01*
X81995Y80541D01*
Y2000D01*
X66496D01*
Y79500D01*
X67441D01*
X67500Y79495D01*
X67735Y79514D01*
X67735Y79514D01*
X67965Y79569D01*
X68183Y79659D01*
X68384Y79783D01*
X68564Y79936D01*
X68602Y79981D01*
X73019Y84398D01*
X73064Y84436D01*
X73217Y84615D01*
X73217Y84616D01*
X73341Y84817D01*
X73431Y85035D01*
X73486Y85265D01*
X73505Y85500D01*
X73500Y85559D01*
Y92256D01*
X73631Y92369D01*
X73866Y92644D01*
X74056Y92953D01*
X74194Y93287D01*
X74279Y93639D01*
X74300Y94000D01*
X74279Y94361D01*
X74194Y94713D01*
X74056Y95047D01*
X73866Y95356D01*
X73631Y95631D01*
X73356Y95866D01*
X73047Y96056D01*
X72713Y96194D01*
X72361Y96279D01*
X72000Y96307D01*
X71639Y96279D01*
X71287Y96194D01*
X70953Y96056D01*
X70644Y95866D01*
X70369Y95631D01*
X70134Y95356D01*
X69944Y95047D01*
X69806Y94713D01*
X69721Y94361D01*
X69693Y94000D01*
X69721Y93639D01*
X69806Y93287D01*
X69944Y92953D01*
X70134Y92644D01*
X70369Y92369D01*
X70500Y92256D01*
Y86121D01*
X66879Y82500D01*
X66496D01*
Y133500D01*
G37*
G36*
X61995Y78923D02*X62047Y78944D01*
X62356Y79134D01*
X62631Y79369D01*
X62744Y79500D01*
X66496D01*
Y2000D01*
X61995D01*
Y78923D01*
G37*
G36*
Y133500D02*X66496D01*
Y82500D01*
X62744D01*
X62631Y82631D01*
X62356Y82866D01*
X62047Y83056D01*
X61995Y83077D01*
Y84541D01*
X62000Y84541D01*
X62463Y84577D01*
X62914Y84686D01*
X63343Y84863D01*
X63739Y85106D01*
X64092Y85408D01*
X64394Y85761D01*
X64637Y86157D01*
X64814Y86586D01*
X64923Y87037D01*
X64950Y87500D01*
X64923Y87963D01*
X64814Y88414D01*
X64637Y88843D01*
X64394Y89239D01*
X64092Y89592D01*
X63739Y89894D01*
X63343Y90137D01*
X62914Y90314D01*
X62463Y90423D01*
X62000Y90459D01*
X61995Y90459D01*
Y133500D01*
G37*
G36*
X29493Y123860D02*X29683Y123939D01*
X29884Y124063D01*
X30064Y124216D01*
X30217Y124396D01*
X30341Y124597D01*
X30431Y124815D01*
X30486Y125045D01*
X30500Y125280D01*
X30486Y133500D01*
X61995D01*
Y90459D01*
X61537Y90423D01*
X61086Y90314D01*
X60657Y90137D01*
X60261Y89894D01*
X59908Y89592D01*
X59606Y89239D01*
X59363Y88843D01*
X59186Y88414D01*
X59077Y87963D01*
X59041Y87500D01*
X59077Y87037D01*
X59186Y86586D01*
X59363Y86157D01*
X59606Y85761D01*
X59908Y85408D01*
X60261Y85106D01*
X60657Y84863D01*
X61086Y84686D01*
X61537Y84577D01*
X61995Y84541D01*
Y83077D01*
X61713Y83194D01*
X61361Y83279D01*
X61000Y83307D01*
X60639Y83279D01*
X60287Y83194D01*
X59953Y83056D01*
X59644Y82866D01*
X59369Y82631D01*
X59134Y82356D01*
X58944Y82047D01*
X58806Y81713D01*
X58721Y81361D01*
X58693Y81000D01*
X58721Y80639D01*
X58806Y80287D01*
X58944Y79953D01*
X59134Y79644D01*
X59369Y79369D01*
X59644Y79134D01*
X59953Y78944D01*
X60287Y78806D01*
X60639Y78721D01*
X61000Y78693D01*
X61361Y78721D01*
X61713Y78806D01*
X61995Y78923D01*
Y2000D01*
X29493D01*
Y7477D01*
X29728Y7753D01*
X31018Y9858D01*
X31962Y12138D01*
X32539Y14539D01*
X32684Y17000D01*
X32539Y19461D01*
X31962Y21862D01*
X31018Y24142D01*
X29728Y26247D01*
X29493Y26523D01*
Y98526D01*
X29916Y99216D01*
X30247Y100016D01*
X30449Y100858D01*
X30500Y101721D01*
X30449Y102584D01*
X30247Y103426D01*
X29916Y104226D01*
X29493Y104916D01*
Y112645D01*
X29578Y112681D01*
X29679Y112743D01*
X29769Y112819D01*
X29845Y112909D01*
X29905Y113011D01*
X30122Y113480D01*
X30289Y113969D01*
X30409Y114472D01*
X30482Y114984D01*
X30506Y115500D01*
X30482Y116016D01*
X30409Y116528D01*
X30289Y117031D01*
X30122Y117520D01*
X29910Y117992D01*
X29849Y118093D01*
X29772Y118184D01*
X29682Y118261D01*
X29580Y118323D01*
X29493Y118360D01*
Y123860D01*
G37*
G36*
Y26523D02*X28124Y28124D01*
X26247Y29728D01*
X25002Y30491D01*
Y46756D01*
X25205Y46805D01*
X26005Y47136D01*
X26743Y47589D01*
X27401Y48151D01*
X27963Y48809D01*
X28416Y49547D01*
X28747Y50347D01*
X28949Y51189D01*
X29000Y52052D01*
X28949Y52915D01*
X28747Y53757D01*
X28416Y54557D01*
X27963Y55295D01*
X27401Y55953D01*
X26743Y56515D01*
X26005Y56968D01*
X25205Y57299D01*
X25002Y57348D01*
Y66561D01*
X27735Y66566D01*
X27965Y66621D01*
X28183Y66711D01*
X28384Y66835D01*
X28564Y66988D01*
X28717Y67168D01*
X28841Y67369D01*
X28931Y67587D01*
X28986Y67817D01*
X29000Y68052D01*
X28986Y76287D01*
X28931Y76517D01*
X28841Y76735D01*
X28717Y76936D01*
X28564Y77116D01*
X28384Y77269D01*
X28183Y77393D01*
X27965Y77483D01*
X27735Y77538D01*
X27500Y77552D01*
X25002Y77548D01*
Y96204D01*
X25863Y96272D01*
X26705Y96474D01*
X27505Y96805D01*
X28243Y97258D01*
X28901Y97820D01*
X29463Y98478D01*
X29493Y98526D01*
Y26523D01*
G37*
G36*
Y2000D02*X25002D01*
Y3509D01*
X26247Y4272D01*
X28124Y5876D01*
X29493Y7477D01*
Y2000D01*
G37*
G36*
X25002Y123787D02*X29235Y123794D01*
X29465Y123849D01*
X29493Y123860D01*
Y118360D01*
X29471Y118369D01*
X29355Y118397D01*
X29237Y118406D01*
X29119Y118397D01*
X29003Y118370D01*
X28893Y118324D01*
X28792Y118262D01*
X28702Y118186D01*
X28624Y118095D01*
X28562Y117994D01*
X28516Y117885D01*
X28489Y117769D01*
X28479Y117651D01*
X28488Y117532D01*
X28516Y117417D01*
X28563Y117308D01*
X28721Y116968D01*
X28842Y116612D01*
X28930Y116247D01*
X28982Y115875D01*
X29000Y115500D01*
X28982Y115125D01*
X28930Y114753D01*
X28842Y114388D01*
X28721Y114032D01*
X28567Y113690D01*
X28520Y113582D01*
X28493Y113467D01*
X28483Y113349D01*
X28493Y113232D01*
X28521Y113117D01*
X28566Y113008D01*
X28628Y112907D01*
X28705Y112818D01*
X28795Y112741D01*
X28895Y112680D01*
X29004Y112635D01*
X29119Y112607D01*
X29237Y112598D01*
X29355Y112608D01*
X29469Y112635D01*
X29493Y112645D01*
Y104916D01*
X29463Y104964D01*
X28901Y105622D01*
X28243Y106184D01*
X27505Y106637D01*
X26705Y106968D01*
X25863Y107170D01*
X25002Y107238D01*
Y109994D01*
X25516Y110018D01*
X26028Y110091D01*
X26531Y110211D01*
X27020Y110378D01*
X27492Y110590D01*
X27593Y110651D01*
X27684Y110728D01*
X27761Y110818D01*
X27823Y110920D01*
X27869Y111029D01*
X27897Y111145D01*
X27906Y111263D01*
X27897Y111381D01*
X27870Y111497D01*
X27824Y111607D01*
X27762Y111708D01*
X27686Y111798D01*
X27595Y111876D01*
X27494Y111938D01*
X27385Y111984D01*
X27269Y112011D01*
X27151Y112021D01*
X27032Y112012D01*
X26917Y111984D01*
X26808Y111937D01*
X26468Y111779D01*
X26112Y111658D01*
X25747Y111570D01*
X25375Y111518D01*
X25002Y111500D01*
Y119500D01*
X25375Y119482D01*
X25747Y119430D01*
X26112Y119342D01*
X26468Y119221D01*
X26810Y119067D01*
X26918Y119020D01*
X27033Y118993D01*
X27151Y118983D01*
X27268Y118993D01*
X27383Y119021D01*
X27492Y119066D01*
X27593Y119128D01*
X27682Y119205D01*
X27759Y119295D01*
X27820Y119395D01*
X27865Y119504D01*
X27893Y119619D01*
X27902Y119737D01*
X27892Y119855D01*
X27865Y119969D01*
X27819Y120078D01*
X27757Y120179D01*
X27681Y120269D01*
X27591Y120345D01*
X27489Y120405D01*
X27020Y120622D01*
X26531Y120789D01*
X26028Y120909D01*
X25516Y120982D01*
X25002Y121006D01*
Y123787D01*
G37*
G36*
Y2000D02*X21705D01*
X21862Y2038D01*
X24142Y2982D01*
X25002Y3509D01*
Y2000D01*
G37*
G36*
X20507Y47435D02*X20995Y47136D01*
X21795Y46805D01*
X22637Y46603D01*
X23500Y46535D01*
X24363Y46603D01*
X25002Y46756D01*
Y30491D01*
X24142Y31018D01*
X21862Y31962D01*
X20507Y32287D01*
Y47435D01*
G37*
G36*
Y66554D02*X25002Y66561D01*
Y57348D01*
X24363Y57501D01*
X23500Y57569D01*
X22637Y57501D01*
X21795Y57299D01*
X20995Y56968D01*
X20507Y56669D01*
Y66554D01*
G37*
G36*
Y98526D02*X20537Y98478D01*
X21099Y97820D01*
X21757Y97258D01*
X22495Y96805D01*
X23295Y96474D01*
X24137Y96272D01*
X25000Y96204D01*
X25002Y96204D01*
Y77548D01*
X20507Y77540D01*
Y98526D01*
G37*
G36*
Y123860D02*X20535Y123849D01*
X20765Y123794D01*
X21000Y123780D01*
X25002Y123787D01*
Y121006D01*
X25000Y121006D01*
X24484Y120982D01*
X23972Y120909D01*
X23469Y120789D01*
X22980Y120622D01*
X22508Y120410D01*
X22407Y120349D01*
X22316Y120272D01*
X22239Y120182D01*
X22177Y120080D01*
X22131Y119971D01*
X22103Y119855D01*
X22094Y119737D01*
X22103Y119619D01*
X22130Y119503D01*
X22176Y119393D01*
X22238Y119292D01*
X22314Y119202D01*
X22405Y119124D01*
X22506Y119062D01*
X22615Y119016D01*
X22731Y118989D01*
X22849Y118979D01*
X22968Y118988D01*
X23083Y119016D01*
X23192Y119063D01*
X23532Y119221D01*
X23888Y119342D01*
X24253Y119430D01*
X24625Y119482D01*
X25000Y119500D01*
X25002Y119500D01*
Y111500D01*
X25000Y111500D01*
X24625Y111518D01*
X24253Y111570D01*
X23888Y111658D01*
X23532Y111779D01*
X23190Y111933D01*
X23082Y111980D01*
X22967Y112007D01*
X22849Y112017D01*
X22732Y112007D01*
X22617Y111979D01*
X22508Y111934D01*
X22407Y111872D01*
X22318Y111795D01*
X22241Y111705D01*
X22180Y111605D01*
X22135Y111496D01*
X22107Y111381D01*
X22098Y111263D01*
X22108Y111145D01*
X22135Y111031D01*
X22181Y110922D01*
X22243Y110821D01*
X22319Y110731D01*
X22409Y110655D01*
X22511Y110595D01*
X22980Y110378D01*
X23469Y110211D01*
X23972Y110091D01*
X24484Y110018D01*
X25000Y109994D01*
X25002Y109994D01*
Y107238D01*
X25000Y107238D01*
X24137Y107170D01*
X23295Y106968D01*
X22495Y106637D01*
X21757Y106184D01*
X21099Y105622D01*
X20537Y104964D01*
X20507Y104916D01*
Y112640D01*
X20529Y112631D01*
X20645Y112603D01*
X20763Y112594D01*
X20881Y112603D01*
X20997Y112630D01*
X21107Y112676D01*
X21208Y112738D01*
X21298Y112814D01*
X21376Y112905D01*
X21438Y113006D01*
X21484Y113115D01*
X21511Y113231D01*
X21521Y113349D01*
X21512Y113468D01*
X21484Y113583D01*
X21437Y113692D01*
X21279Y114032D01*
X21158Y114388D01*
X21070Y114753D01*
X21018Y115125D01*
X21000Y115500D01*
X21018Y115875D01*
X21070Y116247D01*
X21158Y116612D01*
X21279Y116968D01*
X21433Y117310D01*
X21480Y117418D01*
X21507Y117533D01*
X21517Y117651D01*
X21507Y117768D01*
X21479Y117883D01*
X21434Y117992D01*
X21372Y118093D01*
X21295Y118182D01*
X21205Y118259D01*
X21105Y118320D01*
X20996Y118365D01*
X20881Y118393D01*
X20763Y118402D01*
X20645Y118392D01*
X20531Y118365D01*
X20507Y118355D01*
Y123860D01*
G37*
G36*
X1500Y133500D02*X19513D01*
X19500Y133280D01*
X19514Y125045D01*
X19569Y124815D01*
X19659Y124597D01*
X19783Y124396D01*
X19936Y124216D01*
X20116Y124063D01*
X20317Y123939D01*
X20507Y123860D01*
Y118355D01*
X20422Y118319D01*
X20321Y118257D01*
X20231Y118181D01*
X20155Y118091D01*
X20095Y117989D01*
X19878Y117520D01*
X19711Y117031D01*
X19591Y116528D01*
X19518Y116016D01*
X19494Y115500D01*
X19518Y114984D01*
X19591Y114472D01*
X19711Y113969D01*
X19878Y113480D01*
X20090Y113008D01*
X20151Y112907D01*
X20228Y112816D01*
X20318Y112739D01*
X20420Y112677D01*
X20507Y112640D01*
Y104916D01*
X20084Y104226D01*
X19753Y103426D01*
X19551Y102584D01*
X19483Y101721D01*
X19551Y100858D01*
X19753Y100016D01*
X20084Y99216D01*
X20507Y98526D01*
Y77540D01*
X19265Y77538D01*
X19035Y77483D01*
X18817Y77393D01*
X18616Y77269D01*
X18436Y77116D01*
X18283Y76936D01*
X18159Y76735D01*
X18069Y76517D01*
X18014Y76287D01*
X18000Y76052D01*
X18014Y67817D01*
X18069Y67587D01*
X18159Y67369D01*
X18283Y67168D01*
X18436Y66988D01*
X18616Y66835D01*
X18817Y66711D01*
X19035Y66621D01*
X19265Y66566D01*
X19500Y66552D01*
X20507Y66554D01*
Y56669D01*
X20257Y56515D01*
X19599Y55953D01*
X19037Y55295D01*
X18584Y54557D01*
X18253Y53757D01*
X18051Y52915D01*
X17983Y52052D01*
X18051Y51189D01*
X18253Y50347D01*
X18584Y49547D01*
X19037Y48809D01*
X19599Y48151D01*
X20257Y47589D01*
X20507Y47435D01*
Y32287D01*
X19461Y32539D01*
X17000Y32732D01*
X14539Y32539D01*
X12138Y31962D01*
X9858Y31018D01*
X7753Y29728D01*
X5876Y28124D01*
X4272Y26247D01*
X2982Y24142D01*
X2038Y21862D01*
X1500Y19622D01*
Y133500D01*
G37*
G54D27*X185220Y73000D02*X185000Y72780D01*
G54D28*X143000Y55000D02*X152000D01*
X185500Y73000D02*X185360Y73140D01*
X152000Y55000D02*X154500Y52500D01*
Y21500D01*
X158500Y43000D02*Y26000D01*
X154500Y21500D02*X156000Y20000D01*
X166000D01*
X173500Y32000D02*Y37000D01*
X175500Y39000D01*
X192500D01*
X194000Y40500D01*
Y72000D01*
X193000Y73000D01*
X185500D01*
X151500Y83000D02*X112500D01*
X97000Y53500D02*Y63000D01*
G54D27*X116000Y52500D02*X102000D01*
X100500Y54000D01*
Y64500D01*
G54D28*X61000Y81000D02*X67500D01*
X72000Y85500D01*
Y94000D01*
G54D27*X100500Y64500D02*X93000Y72000D01*
Y96000D01*
G54D29*X190000Y158000D03*
G54D26*G36*
X121500Y154500D02*Y146500D01*
X129500D01*
Y154500D01*
X121500D01*
G37*
G54D30*X105500Y150500D03*
G54D29*X17000Y17000D03*
X190000D03*
X17000Y158000D03*
G54D26*G36*
X21000Y133280D02*Y125280D01*
X29000D01*
Y133280D01*
X21000D01*
G37*
G54D30*X25000Y115500D03*
Y101721D03*
G54D26*G36*
X19500Y76052D02*Y68052D01*
X27500D01*
Y76052D01*
X19500D01*
G37*
G54D30*X23500Y52052D03*
G54D26*G36*
X181000Y76780D02*Y68780D01*
X189000D01*
Y76780D01*
X181000D01*
G37*
G54D30*X185000Y59000D03*
Y45221D03*
G54D31*X45500Y118500D03*
Y122500D03*
X47500Y128000D03*
X51500Y113000D03*
X47500D03*
X77000Y95500D03*
X72000Y94000D03*
X61000Y81000D03*
X79000Y120500D03*
X74000D03*
X85000Y115000D03*
X93000Y96000D03*
Y92000D03*
X123500Y128500D03*
X128500D03*
X123000Y92000D03*
X128000D03*
X112500Y83000D03*
X151500D03*
X51500Y128000D03*
X76000Y164500D03*
Y160000D03*
X65000Y164500D03*
Y160000D03*
X187000Y131500D03*
Y101500D03*
Y111500D03*
Y121500D03*
X68500Y71500D03*
X97000Y63000D03*
Y53500D03*
X86000Y27000D03*
X158500Y26000D03*
X146500Y21500D03*
Y18000D03*
X166000Y20000D03*
X112000Y52500D03*
X116000D03*
X143000Y55000D03*
X173500Y32000D03*
X158500Y43000D03*
G54D32*G54D33*G54D34*G54D33*G54D35*G54D34*G54D36*G54D35*M02*
