0
SECTION
2
HEADER
9
$INSUNITS
70
1
9
$ACADVER
1
AC1014
9
$HANDSEED
5
FFFF
0
ENDSEC
0
SECTION
2
TABLES
0
TABLE
2
VPORT
5
8
100
AcDbSymbolTable
0
ENDTAB
0
TABLE
2
LTYPE
5
5
100
AcDbSymbolTable
0
LTYPE
5
14
100
AcDbSymbolTableRecord
100
AcDbLinetypeTableRecord
2
BYBLOCK
70
0
0
LTYPE
5
15
100
AcDbSymbolTableRecord
100
AcDbLinetypeTableRecord
2
BYLAYER
70
0
0
ENDTAB
0
TABLE
2
LAYER
5
2
100
AcDbSymbolTable
70
2
0
LAYER
5
50
100
AcDbSymbolTableRecord
100
AcDbLayerTableRecord
2
0
70
0
6
CONTINUOUS
0
ENDTAB
0
TABLE
2
STYLE
5
3
100
AcDbSymbolTable
70
1
0
STYLE
5
11
100
AcDbSymbolTableRecord
100
AcDbTextStyleTableRecord
2
STANDARD
70
0
0
ENDTAB
0
TABLE
2
VIEW
5
6
100
AcDbSymbolTable
70
0
0
ENDTAB
0
TABLE
2
UCS
5
7
100
AcDbSymbolTable
70
0
0
ENDTAB
0
TABLE
2
APPID
5
9
100
AcDbSymbolTable
70
2
0
APPID
5
12
100
AcDbSymbolTableRecord
100
AcDbRegAppTableRecord
2
ACAD
70
0
0
ENDTAB
0
TABLE
2
DIMSTYLE
5
A
100
AcDbSymbolTable
70
1
0
ENDTAB
0
TABLE
2
BLOCK_RECORD
5
1
100
AcDbSymbolTable
70
1
0
BLOCK_RECORD
5
1F
100
AcDbSymbolTableRecord
100
AcDbBlockTableRecord
2
*MODEL_SPACE
0
BLOCK_RECORD
5
1B
100
AcDbSymbolTableRecord
100
AcDbBlockTableRecord
2
*PAPER_SPACE
0
ENDTAB
0
ENDSEC
0
SECTION
2
BLOCKS
0
BLOCK
5
20
100
AcDbEntity
100
AcDbBlockBegin
2
*MODEL_SPACE
0
ENDBLK
5
21
100
AcDbEntity
100
AcDbBlockEnd
0
BLOCK
5
1C
100
AcDbEntity
100
AcDbBlockBegin
2
*PAPER_SPACE
0
ENDBLK
5
1D
100
AcDbEntity
100
AcDbBlockEnd
0
ENDSEC
0
SECTION
2
ENTITIES
0
CIRCLE
5
100
100
AcDbEntity
8
0
100
AcDbCircle
10
-0.6875
20
0
30
0
40
0.068897637795275607
210
-0
220
0
230
1
0
LWPOLYLINE
5
101
100
AcDbEntity
8
0
100
AcDbPolyline
90
4
70
1
43
0.0
10
-0.77869159970981461
20
-0.49473533324907437
10
-0.71744613047318417
20
-0.55598080248570481
10
-0.54206137765919804
20
-0.38059604967171856
10
-0.60330684689582814
20
-0.3193505804350884
0
ARC
5
102
100
AcDbEntity
8
0
100
AcDbCircle
10
0.64693283818600333
20
-0.077952755905511942
30
0
40
0.19999999999999959
210
0
220
-0
230
1
100
AcDbArc
50
33.663139032962846
51
90.000000000000838
0
LINE
5
103
100
AcDbEntity
8
0
100
AcDbLine
10
0.64693283818600045
20
0.12204724409448768
30
0
11
0.57895753088732615
21
0.1220472440944867
31
0
0
ARC
5
104
100
AcDbEntity
8
0
100
AcDbCircle
10
0.57895753088732338
20
0.32204724409448671
30
0
40
0.20000000000000004
210
0
220
0
230
1
100
AcDbArc
50
209.08515977559466
51
270.0000000000008
0
ARC
5
105
100
AcDbEntity
8
0
100
AcDbCircle
10
0
20
0
30
0
40
0.46249999999999997
210
0
220
-0
230
1
100
AcDbArc
50
29.085159775594683
51
150.91484022440531
0
ARC
5
106
100
AcDbEntity
8
0
100
AcDbCircle
10
-0.57895753088732338
20
0.32204724409448682
30
0
40
0.20000000000000015
210
0
220
0
230
1
100
AcDbArc
50
269.9999999999992
51
330.91484022440528
0
LINE
5
107
100
AcDbEntity
8
0
100
AcDbLine
10
-0.57895753088732604
20
0.12204724409448667
30
0
11
-0.64693283818600045
21
0.12204724409448763
31
0
0
ARC
5
108
100
AcDbEntity
8
0
100
AcDbCircle
10
-0.64693283818600333
20
-0.077952755905512358
30
0
40
0.19999999999999998
210
0
220
-0
230
1
100
AcDbArc
50
89.999999999999176
51
146.33686096703707
0
ARC
5
109
100
AcDbEntity
8
0
100
AcDbCircle
10
-0.39723956624880807
20
-0.24424547958667017
30
0
40
0.49999999999999989
210
0
220
0
230
1
100
AcDbArc
50
146.33686096703707
51
225.00000000000006
0
LINE
5
110
100
AcDbEntity
8
0
100
AcDbLine
10
-0.75079295684208147
20
-0.59779887017994415
30
0
11
-0.72997361281704043
21
-0.61861821420498542
31
0
0
LINE
5
111
100
AcDbEntity
8
0
100
AcDbLine
10
-0.72997361281704043
20
-0.61861821420498542
30
0
11
-0.26951903955619411
21
-0.15816364094413937
31
0
0
ARC
5
112
100
AcDbEntity
8
0
100
AcDbCircle
10
0
20
0
30
0
40
0.3125
210
-0
220
0
230
1
100
AcDbArc
50
-30.405971264755038
51
210.40597126475501
0
LINE
5
113
100
AcDbEntity
8
0
100
AcDbLine
10
0.26951903955619416
20
-0.15816364094413943
30
0
11
0.72997361281704043
21
-0.61861821420498542
31
0
0
LINE
5
114
100
AcDbEntity
8
0
100
AcDbLine
10
0.72997361281704043
20
-0.61861821420498542
30
0
11
0.75079295684208158
21
-0.59779887017994426
31
0
0
ARC
5
115
100
AcDbEntity
8
0
100
AcDbCircle
10
0.39723956624880868
20
-0.24424547958667028
30
0
40
0.4999999999999995
210
0
220
0
230
1
100
AcDbArc
50
-45.000000000000099
51
33.663139032963009
0
LWPOLYLINE
5
116
100
AcDbEntity
8
0
100
AcDbPolyline
90
4
70
1
43
0.0
10
0.71744613047318417
20
-0.55598080248570481
10
0.77869159970981461
20
-0.49473533324907437
10
0.60330684689582814
20
-0.3193505804350884
10
0.54206137765919804
20
-0.38059604967171856
0
CIRCLE
5
117
100
AcDbEntity
8
0
100
AcDbCircle
10
0.6875
20
0
30
0
40
0.068897637795275607
210
0
220
0
230
1
0
LINE
5
118
100
AcDbEntity
8
0
100
AcDbLine
10
0.5197902979367871
20
0.036986695123486728
30
0
11
0.71466224550788304
21
-0.1578852524476089
31
0
0
LINE
5
119
100
AcDbEntity
8
0
100
AcDbLine
10
0.49195144828377341
20
-0.38059604967171851
30
0
11
0.71466224550788304
21
-0.15788525244760881
31
0
0
LINE
5
120
100
AcDbEntity
8
0
100
AcDbLine
10
0.50587087311028034
20
-0.39451547449822538
30
0
11
0.7285816703343897
21
-0.17180467727411577
31
0
0
LINE
5
121
100
AcDbEntity
8
0
100
AcDbLine
10
0.51979029793678722
20
0.036986695123486769
30
0
11
0.29707950071267769
21
-0.18572410210062285
31
0
0
LINE
5
122
100
AcDbEntity
8
0
100
AcDbLine
10
0.50587087311028023
20
0.050906119949993674
30
0
11
0.28316007588617081
21
-0.17180467727411594
31
0
0
LINE
5
123
100
AcDbEntity
8
0
100
AcDbLine
10
-0.50587087311028034
20
-0.39451547449822538
30
0
11
-0.7285816703343897
21
-0.17180467727411577
31
0
0
LINE
5
124
100
AcDbEntity
8
0
100
AcDbLine
10
-0.49195144828377341
20
-0.38059604967171851
30
0
11
-0.71466224550788304
21
-0.15788525244760881
31
0
0
LINE
5
125
100
AcDbEntity
8
0
100
AcDbLine
10
-0.50587087311028023
20
0.050906119949993674
30
0
11
-0.28316007588617081
21
-0.17180467727411594
31
0
0
LINE
5
126
100
AcDbEntity
8
0
100
AcDbLine
10
-0.51979029793678722
20
0.036986695123486769
30
0
11
-0.29707950071267769
21
-0.18572410210062285
31
0
0
LINE
5
127
100
AcDbEntity
8
0
100
AcDbLine
10
0
20
0.049999999395740312
30
0
11
0
21
-0.049999999395740312
31
0
0
LINE
5
128
100
AcDbEntity
8
0
100
AcDbLine
10
-0.049999999395740312
20
0
30
0
11
0.049999999395740312
21
0
31
0
0
LINE
5
129
100
AcDbEntity
8
0
100
AcDbLine
10
-0.5197902979367871
20
0.036986695123486728
30
0
11
-0.71466224550788304
21
-0.1578852524476089
31
0
0
ENDSEC
0
SECTION
2
OBJECTS
0
DICTIONARY
5
C
100
AcDbDictionary
3
ACAD_GROUP
350
D
3
ACAD_MLINESTYLE
350
17
0
DICTIONARY
5
D
100
AcDbDictionary
0
DICTIONARY
5
1A
330
C
100
AcDbDictionary
0
DICTIONARY
5
17
100
AcDbDictionary
0
ENDSEC
0
EOF
