G04 start of page 11 for group -4015 idx -4015 *
G04 Title: (unknown), toppaste *
G04 Creator: pcb 4.0.2 *
G04 CreationDate: Thu Apr 29 14:29:46 2021 UTC *
G04 For: petersen *
G04 Format: Gerber/RS-274X *
G04 PCB-Dimensions (mil): 2500.00 2500.00 *
G04 PCB-Coordinate-Origin: lower left *
%MOIN*%
%FSLAX25Y25*%
%LNTOPPASTE*%
%ADD65C,0.0600*%
%ADD64C,0.0001*%
G54D64*G36*
X67853Y109955D02*X63955Y113853D01*
X60052Y109950D01*
X63950Y106052D01*
X67853Y109955D01*
G37*
G36*
X76900Y119003D02*X73003Y122900D01*
X69100Y118997D01*
X72997Y115100D01*
X76900Y119003D01*
G37*
G36*
X64787Y103549D02*X60333Y99095D01*
X66458Y92971D01*
X70912Y97425D01*
X64787Y103549D01*
G37*
G36*
X83161Y121923D02*X78707Y117469D01*
X84831Y111344D01*
X89286Y115798D01*
X83161Y121923D01*
G37*
G36*
X177693Y122204D02*X173796Y118307D01*
X177699Y114404D01*
X181596Y118301D01*
X177693Y122204D01*
G37*
G36*
X186741Y113156D02*X182844Y109259D01*
X186746Y105356D01*
X190644Y109254D01*
X186741Y113156D01*
G37*
G36*
X171293Y117469D02*X166839Y121923D01*
X160714Y115798D01*
X165169Y111344D01*
X171293Y117469D01*
G37*
G36*
X189667Y99095D02*X185213Y103549D01*
X179088Y97425D01*
X183542Y92971D01*
X189667Y99095D01*
G37*
G54D65*X121600Y181000D03*
G54D64*G36*
X124600Y184000D02*X121600D01*
Y178000D01*
X124600D01*
Y184000D01*
G37*
G54D65*X128400Y181000D03*
G54D64*G36*
Y184000D02*X125400D01*
Y178000D01*
X128400D01*
Y184000D01*
G37*
G54D65*X100100Y181000D03*
G54D64*G36*
X103100Y184000D02*X100100D01*
Y178000D01*
X103100D01*
Y184000D01*
G37*
G54D65*X106900Y181000D03*
G54D64*G36*
Y184000D02*X103900D01*
Y178000D01*
X106900D01*
Y184000D01*
G37*
G36*
X119094Y202311D02*Y199949D01*
X123819D01*
Y202311D01*
X119094D01*
G37*
G36*
X126181D02*Y199949D01*
X130906D01*
Y202311D01*
X126181D01*
G37*
G36*
Y206051D02*Y203689D01*
X130906D01*
Y206051D01*
X126181D01*
G37*
G36*
X119094D02*Y203689D01*
X123819D01*
Y206051D01*
X119094D01*
G37*
G36*
X83854Y176168D02*X82183Y174498D01*
X86498Y170183D01*
X88168Y171854D01*
X83854Y176168D01*
G37*
G36*
X81070Y173384D02*X79399Y171714D01*
X83714Y167400D01*
X85384Y169070D01*
X81070Y173384D01*
G37*
G36*
X78286Y170601D02*X76616Y168930D01*
X80930Y164616D01*
X82600Y166286D01*
X78286Y170601D01*
G37*
G36*
X75502Y167817D02*X73832Y166146D01*
X78146Y161832D01*
X79817Y163502D01*
X75502Y167817D01*
G37*
G36*
X77172Y191758D02*X73832Y188418D01*
X78843Y183407D01*
X82183Y186747D01*
X77172Y191758D01*
G37*
G36*
X61582Y176168D02*X58242Y172828D01*
X63253Y167817D01*
X66593Y171157D01*
X61582Y176168D01*
G37*
M02*
