G04 start of page 13 for group -3984 idx -3984 *
G04 Title: (unknown), fab *
G04 Creator: pcb 4.0.2 *
G04 CreationDate: Thu Apr 29 14:29:46 2021 UTC *
G04 For: petersen *
G04 Format: Gerber/RS-274X *
G04 PCB-Dimensions (mil): 2500.00 2500.00 *
G04 PCB-Coordinate-Origin: lower left *
%MOIN*%
%FSLAX25Y25*%
%LNFAB*%
%ADD68C,0.0100*%
%ADD67C,0.0060*%
%ADD66R,0.0080X0.0080*%
G54D66*X125000Y128200D02*Y121800D01*
X121800Y125000D02*X128200D01*
X123400Y126600D02*X126600D01*
X123400D02*Y123400D01*
X126600D01*
Y126600D02*Y123400D01*
X15000Y264450D02*Y258050D01*
X11800Y261250D02*X18200D01*
X13400Y262850D02*X16600D01*
X13400D02*Y259650D01*
X16600D01*
Y262850D02*Y259650D01*
G54D67*X140000Y263500D02*Y257500D01*
Y263500D02*Y262750D01*
X143750Y259000D01*
Y263500D02*Y257500D01*
X145550Y262750D02*Y258250D01*
Y262750D02*X146300Y263500D01*
X147800D01*
X148550Y262750D01*
Y258250D01*
X147800Y257500D02*X148550Y258250D01*
X146300Y257500D02*X147800D01*
X145550Y258250D02*X146300Y257500D01*
X98750D02*X100250D01*
X99500Y263500D02*Y257500D01*
X98000Y262000D02*X99500Y263500D01*
X45000Y258250D02*X45750Y257500D01*
X45000Y262750D02*Y258250D01*
Y262750D02*X45750Y263500D01*
X47250D01*
X48000Y262750D01*
Y258250D01*
X47250Y257500D02*X48000Y258250D01*
X45750Y257500D02*X47250D01*
X45000Y259000D02*X48000Y262000D01*
X49800Y257500D02*X50550D01*
X54600Y263500D02*X55350Y262750D01*
X53100Y263500D02*X54600D01*
X52350Y262750D02*X53100Y263500D01*
X52350Y262750D02*Y258250D01*
X53100Y257500D01*
X54600Y260500D02*X55350Y259750D01*
X52350Y260500D02*X54600D01*
X53100Y257500D02*X54600D01*
X55350Y258250D01*
Y259750D02*Y258250D01*
X57150Y262750D02*X57900Y263500D01*
X59400D01*
X60150Y262750D01*
Y258250D01*
X59400Y257500D02*X60150Y258250D01*
X57900Y257500D02*X59400D01*
X57150Y258250D02*X57900Y257500D01*
Y260500D02*X60150D01*
X61950Y258250D02*X62700Y257500D01*
X61950Y262750D02*Y258250D01*
Y262750D02*X62700Y263500D01*
X64200D01*
X64950Y262750D01*
Y258250D01*
X64200Y257500D02*X64950Y258250D01*
X62700Y257500D02*X64200D01*
X61950Y259000D02*X64950Y262000D01*
X193750Y125000D02*Y121800D01*
Y125000D02*X196523Y126600D01*
X193750Y125000D02*X190977Y126600D01*
X192150Y125000D02*G75*G03X195350Y125000I1600J0D01*G01*
G75*G03X192150Y125000I-1600J0D01*G01*
X56250D02*Y121800D01*
Y125000D02*X59023Y126600D01*
X56250Y125000D02*X53477Y126600D01*
X54650Y125000D02*G75*G03X57850Y125000I1600J0D01*G01*
G75*G03X54650Y125000I-1600J0D01*G01*
X15000Y276250D02*Y273050D01*
Y276250D02*X17773Y277850D01*
X15000Y276250D02*X12227Y277850D01*
X13400Y276250D02*G75*G03X16600Y276250I1600J0D01*G01*
G75*G03X13400Y276250I-1600J0D01*G01*
X140000Y278500D02*Y272500D01*
Y278500D02*Y277750D01*
X143750Y274000D01*
Y278500D02*Y272500D01*
X145550Y277750D02*Y273250D01*
Y277750D02*X146300Y278500D01*
X147800D01*
X148550Y277750D01*
Y273250D01*
X147800Y272500D02*X148550Y273250D01*
X146300Y272500D02*X147800D01*
X145550Y273250D02*X146300Y272500D01*
X98000Y277750D02*X98750Y278500D01*
X101000D01*
X101750Y277750D01*
Y276250D01*
X98000Y272500D02*X101750Y276250D01*
X98000Y272500D02*X101750D01*
X45000Y273250D02*X45750Y272500D01*
X45000Y277750D02*Y273250D01*
Y277750D02*X45750Y278500D01*
X47250D01*
X48000Y277750D01*
Y273250D01*
X47250Y272500D02*X48000Y273250D01*
X45750Y272500D02*X47250D01*
X45000Y274000D02*X48000Y277000D01*
X49800Y272500D02*X50550D01*
X53100D02*X54600D01*
X53850Y278500D02*Y272500D01*
X52350Y277000D02*X53850Y278500D01*
X56400Y277750D02*X57150Y278500D01*
X58650D01*
X59400Y277750D01*
Y273250D01*
X58650Y272500D02*X59400Y273250D01*
X57150Y272500D02*X58650D01*
X56400Y273250D02*X57150Y272500D01*
Y275500D02*X59400D01*
X61200Y273250D02*X61950Y272500D01*
X61200Y274750D02*Y273250D01*
Y274750D02*X61950Y275500D01*
X63450D01*
X64200Y274750D01*
Y273250D01*
X63450Y272500D02*X64200Y273250D01*
X61950Y272500D02*X63450D01*
X61200Y276250D02*X61950Y275500D01*
X61200Y277750D02*Y276250D01*
Y277750D02*X61950Y278500D01*
X63450D01*
X64200Y277750D01*
Y276250D01*
X63450Y275500D02*X64200Y276250D01*
X179144Y162856D02*X182344D01*
X179144D02*Y159656D01*
X182344D01*
Y162856D02*Y159656D01*
X169400Y172600D02*X172600D01*
X169400D02*Y169400D01*
X172600D01*
Y172600D02*Y169400D01*
X159657Y182343D02*X162857D01*
X159657D02*Y179143D01*
X162857D01*
Y182343D02*Y179143D01*
X13400Y292850D02*X16600D01*
X13400D02*Y289650D01*
X16600D01*
Y292850D02*Y289650D01*
X135000Y293500D02*Y292750D01*
X136500Y291250D01*
X138000Y292750D01*
Y293500D02*Y292750D01*
X136500Y291250D02*Y287500D01*
X139800Y290500D02*X142050D01*
X139800Y287500D02*X142800D01*
X139800Y293500D02*Y287500D01*
Y293500D02*X142800D01*
X147600D02*X148350Y292750D01*
X145350Y293500D02*X147600D01*
X144600Y292750D02*X145350Y293500D01*
X144600Y292750D02*Y291250D01*
X145350Y290500D01*
X147600D01*
X148350Y289750D01*
Y288250D01*
X147600Y287500D02*X148350Y288250D01*
X145350Y287500D02*X147600D01*
X144600Y288250D02*X145350Y287500D01*
X98000Y292750D02*X98750Y293500D01*
X100250D01*
X101000Y292750D01*
Y288250D01*
X100250Y287500D02*X101000Y288250D01*
X98750Y287500D02*X100250D01*
X98000Y288250D02*X98750Y287500D01*
Y290500D02*X101000D01*
X45000Y288250D02*X45750Y287500D01*
X45000Y292750D02*Y288250D01*
Y292750D02*X45750Y293500D01*
X47250D01*
X48000Y292750D01*
Y288250D01*
X47250Y287500D02*X48000Y288250D01*
X45750Y287500D02*X47250D01*
X45000Y289000D02*X48000Y292000D01*
X49800Y287500D02*X50550D01*
X52350Y288250D02*X53100Y287500D01*
X52350Y292750D02*Y288250D01*
Y292750D02*X53100Y293500D01*
X54600D01*
X55350Y292750D01*
Y288250D01*
X54600Y287500D02*X55350Y288250D01*
X53100Y287500D02*X54600D01*
X52350Y289000D02*X55350Y292000D01*
X57150Y290500D02*X60150Y293500D01*
X57150Y290500D02*X60900D01*
X60150Y293500D02*Y287500D01*
X62700D02*X66450Y291250D01*
Y293500D02*Y291250D01*
X62700Y293500D02*X66450D01*
X71281Y95254D02*G75*G03X72881Y95254I800J0D01*G01*
G75*G03X71281Y95254I-800J0D01*G01*
X86203Y110175D02*G75*G03X87803Y110175I800J0D01*G01*
G75*G03X86203Y110175I-800J0D01*G01*
X162197D02*G75*G03X163797Y110175I800J0D01*G01*
G75*G03X162197Y110175I-800J0D01*G01*
X177119Y95254D02*G75*G03X178719Y95254I800J0D01*G01*
G75*G03X177119Y95254I-800J0D01*G01*
X14200Y306250D02*G75*G03X15800Y306250I800J0D01*G01*
G75*G03X14200Y306250I-800J0D01*G01*
X140000Y308500D02*Y302500D01*
Y308500D02*Y307750D01*
X143750Y304000D01*
Y308500D02*Y302500D01*
X145550Y307750D02*Y303250D01*
Y307750D02*X146300Y308500D01*
X147800D01*
X148550Y307750D01*
Y303250D01*
X147800Y302500D02*X148550Y303250D01*
X146300Y302500D02*X147800D01*
X145550Y303250D02*X146300Y302500D01*
X98000Y305500D02*X101000Y308500D01*
X98000Y305500D02*X101750D01*
X101000Y308500D02*Y302500D01*
X45000Y303250D02*X45750Y302500D01*
X45000Y307750D02*Y303250D01*
Y307750D02*X45750Y308500D01*
X47250D01*
X48000Y307750D01*
Y303250D01*
X47250Y302500D02*X48000Y303250D01*
X45750Y302500D02*X47250D01*
X45000Y304000D02*X48000Y307000D01*
X49800Y302500D02*X50550D01*
X52350Y303250D02*X53100Y302500D01*
X52350Y307750D02*Y303250D01*
Y307750D02*X53100Y308500D01*
X54600D01*
X55350Y307750D01*
Y303250D01*
X54600Y302500D02*X55350Y303250D01*
X53100Y302500D02*X54600D01*
X52350Y304000D02*X55350Y307000D01*
X57150Y307750D02*X57900Y308500D01*
X60150D01*
X60900Y307750D01*
Y306250D01*
X57150Y302500D02*X60900Y306250D01*
X57150Y302500D02*X60900D01*
X62700Y303250D02*X63450Y302500D01*
X62700Y304750D02*Y303250D01*
Y304750D02*X63450Y305500D01*
X64950D01*
X65700Y304750D01*
Y303250D01*
X64950Y302500D02*X65700Y303250D01*
X63450Y302500D02*X64950D01*
X62700Y306250D02*X63450Y305500D01*
X62700Y307750D02*Y306250D01*
Y307750D02*X63450Y308500D01*
X64950D01*
X65700Y307750D01*
Y306250D01*
X64950Y305500D02*X65700Y306250D01*
X131800Y212200D02*X134200Y209800D01*
X131800D02*X134200Y212200D01*
X115800Y196200D02*X118200Y193800D01*
X115800D02*X118200Y196200D01*
X13800Y322450D02*X16200Y320050D01*
X13800D02*X16200Y322450D01*
X140000Y323500D02*Y317500D01*
Y323500D02*Y322750D01*
X143750Y319000D01*
Y323500D02*Y317500D01*
X145550Y322750D02*Y318250D01*
Y322750D02*X146300Y323500D01*
X147800D01*
X148550Y322750D01*
Y318250D01*
X147800Y317500D02*X148550Y318250D01*
X146300Y317500D02*X147800D01*
X145550Y318250D02*X146300Y317500D01*
X98000Y322750D02*X98750Y323500D01*
X101000D01*
X101750Y322750D01*
Y321250D01*
X98000Y317500D02*X101750Y321250D01*
X98000Y317500D02*X101750D01*
X45000Y318250D02*X45750Y317500D01*
X45000Y322750D02*Y318250D01*
Y322750D02*X45750Y323500D01*
X47250D01*
X48000Y322750D01*
Y318250D01*
X47250Y317500D02*X48000Y318250D01*
X45750Y317500D02*X47250D01*
X45000Y319000D02*X48000Y322000D01*
X49800Y317500D02*X50550D01*
X52350Y318250D02*X53100Y317500D01*
X52350Y322750D02*Y318250D01*
Y322750D02*X53100Y323500D01*
X54600D01*
X55350Y322750D01*
Y318250D01*
X54600Y317500D02*X55350Y318250D01*
X53100Y317500D02*X54600D01*
X52350Y319000D02*X55350Y322000D01*
X57150Y322750D02*X57900Y323500D01*
X60150D01*
X60900Y322750D01*
Y321250D01*
X57150Y317500D02*X60900Y321250D01*
X57150Y317500D02*X60900D01*
X62700Y323500D02*X65700D01*
X62700D02*Y320500D01*
X63450Y321250D01*
X64950D01*
X65700Y320500D01*
Y318250D01*
X64950Y317500D02*X65700Y318250D01*
X63450Y317500D02*X64950D01*
X62700Y318250D02*X63450Y317500D01*
X133000Y196600D02*Y193400D01*
X131400Y195000D02*X134600D01*
X117000Y212600D02*Y209400D01*
X115400Y211000D02*X118600D01*
X15000Y337850D02*Y334650D01*
X13400Y336250D02*X16600D01*
X140000Y338500D02*Y332500D01*
Y338500D02*Y337750D01*
X143750Y334000D01*
Y338500D02*Y332500D01*
X145550Y337750D02*Y333250D01*
Y337750D02*X146300Y338500D01*
X147800D01*
X148550Y337750D01*
Y333250D01*
X147800Y332500D02*X148550Y333250D01*
X146300Y332500D02*X147800D01*
X145550Y333250D02*X146300Y332500D01*
X98000Y337750D02*X98750Y338500D01*
X101000D01*
X101750Y337750D01*
Y336250D01*
X98000Y332500D02*X101750Y336250D01*
X98000Y332500D02*X101750D01*
X45000Y333250D02*X45750Y332500D01*
X45000Y337750D02*Y333250D01*
Y337750D02*X45750Y338500D01*
X47250D01*
X48000Y337750D01*
Y333250D01*
X47250Y332500D02*X48000Y333250D01*
X45750Y332500D02*X47250D01*
X45000Y334000D02*X48000Y337000D01*
X49800Y332500D02*X50550D01*
X52350Y333250D02*X53100Y332500D01*
X52350Y337750D02*Y333250D01*
Y337750D02*X53100Y338500D01*
X54600D01*
X55350Y337750D01*
Y333250D01*
X54600Y332500D02*X55350Y333250D01*
X53100Y332500D02*X54600D01*
X52350Y334000D02*X55350Y337000D01*
X57150Y337750D02*X57900Y338500D01*
X60150D01*
X60900Y337750D01*
Y336250D01*
X57150Y332500D02*X60900Y336250D01*
X57150Y332500D02*X60900D01*
X62700Y335500D02*X65700Y338500D01*
X62700Y335500D02*X66450D01*
X65700Y338500D02*Y332500D01*
X112500Y181000D02*Y179400D01*
Y181000D02*X113887Y181800D01*
X112500Y181000D02*X111113Y181800D01*
X115000Y201000D02*Y199400D01*
Y201000D02*X116387Y201800D01*
X115000Y201000D02*X113613Y201800D01*
X15000Y351250D02*Y349650D01*
Y351250D02*X16387Y352050D01*
X15000Y351250D02*X13613Y352050D01*
X135000Y353500D02*Y352750D01*
X136500Y351250D01*
X138000Y352750D01*
Y353500D02*Y352750D01*
X136500Y351250D02*Y347500D01*
X139800Y350500D02*X142050D01*
X139800Y347500D02*X142800D01*
X139800Y353500D02*Y347500D01*
Y353500D02*X142800D01*
X147600D02*X148350Y352750D01*
X145350Y353500D02*X147600D01*
X144600Y352750D02*X145350Y353500D01*
X144600Y352750D02*Y351250D01*
X145350Y350500D01*
X147600D01*
X148350Y349750D01*
Y348250D01*
X147600Y347500D02*X148350Y348250D01*
X145350Y347500D02*X147600D01*
X144600Y348250D02*X145350Y347500D01*
X98000Y352750D02*X98750Y353500D01*
X101000D01*
X101750Y352750D01*
Y351250D01*
X98000Y347500D02*X101750Y351250D01*
X98000Y347500D02*X101750D01*
X45000Y348250D02*X45750Y347500D01*
X45000Y352750D02*Y348250D01*
Y352750D02*X45750Y353500D01*
X47250D01*
X48000Y352750D01*
Y348250D01*
X47250Y347500D02*X48000Y348250D01*
X45750Y347500D02*X47250D01*
X45000Y349000D02*X48000Y352000D01*
X49800Y347500D02*X50550D01*
X52350Y348250D02*X53100Y347500D01*
X52350Y352750D02*Y348250D01*
Y352750D02*X53100Y353500D01*
X54600D01*
X55350Y352750D01*
Y348250D01*
X54600Y347500D02*X55350Y348250D01*
X53100Y347500D02*X54600D01*
X52350Y349000D02*X55350Y352000D01*
X57900Y347500D02*X59400D01*
X58650Y353500D02*Y347500D01*
X57150Y352000D02*X58650Y353500D01*
X61200Y352750D02*X61950Y353500D01*
X64200D01*
X64950Y352750D01*
Y351250D01*
X61200Y347500D02*X64950Y351250D01*
X61200Y347500D02*X64950D01*
X3000Y368500D02*X3750Y367750D01*
X750Y368500D02*X3000D01*
X0Y367750D02*X750Y368500D01*
X0Y367750D02*Y366250D01*
X750Y365500D01*
X3000D01*
X3750Y364750D01*
Y363250D01*
X3000Y362500D02*X3750Y363250D01*
X750Y362500D02*X3000D01*
X0Y363250D02*X750Y362500D01*
X5550Y365500D02*Y363250D01*
X6300Y362500D01*
X8550Y365500D02*Y361000D01*
X7800Y360250D02*X8550Y361000D01*
X6300Y360250D02*X7800D01*
X5550Y361000D02*X6300Y360250D01*
Y362500D02*X7800D01*
X8550Y363250D01*
X11100Y364750D02*Y362500D01*
Y364750D02*X11850Y365500D01*
X12600D01*
X13350Y364750D01*
Y362500D01*
Y364750D02*X14100Y365500D01*
X14850D01*
X15600Y364750D01*
Y362500D01*
X10350Y365500D02*X11100Y364750D01*
X17400Y368500D02*Y362500D01*
Y363250D02*X18150Y362500D01*
X19650D01*
X20400Y363250D01*
Y364750D02*Y363250D01*
X19650Y365500D02*X20400Y364750D01*
X18150Y365500D02*X19650D01*
X17400Y364750D02*X18150Y365500D01*
X22200Y364750D02*Y363250D01*
Y364750D02*X22950Y365500D01*
X24450D01*
X25200Y364750D01*
Y363250D01*
X24450Y362500D02*X25200Y363250D01*
X22950Y362500D02*X24450D01*
X22200Y363250D02*X22950Y362500D01*
X27000Y368500D02*Y363250D01*
X27750Y362500D01*
X0Y359250D02*X29250D01*
X41750Y368500D02*Y362500D01*
X44000Y368500D02*X44750Y367750D01*
Y363250D01*
X44000Y362500D02*X44750Y363250D01*
X41000Y362500D02*X44000D01*
X41000Y368500D02*X44000D01*
X46550Y367000D02*Y366250D01*
Y364750D02*Y362500D01*
X50300Y365500D02*X51050Y364750D01*
X48800Y365500D02*X50300D01*
X48050Y364750D02*X48800Y365500D01*
X48050Y364750D02*Y363250D01*
X48800Y362500D01*
X51050Y365500D02*Y363250D01*
X51800Y362500D01*
X48800D02*X50300D01*
X51050Y363250D01*
X54350Y364750D02*Y362500D01*
Y364750D02*X55100Y365500D01*
X55850D01*
X56600Y364750D01*
Y362500D01*
Y364750D02*X57350Y365500D01*
X58100D01*
X58850Y364750D01*
Y362500D01*
X53600Y365500D02*X54350Y364750D01*
X60650Y362500D02*X61400D01*
X65900Y363250D02*X66650Y362500D01*
X65900Y367750D02*X66650Y368500D01*
X65900Y367750D02*Y363250D01*
X68450Y368500D02*X69950D01*
X69200D02*Y362500D01*
X68450D02*X69950D01*
X72500Y364750D02*Y362500D01*
Y364750D02*X73250Y365500D01*
X74000D01*
X74750Y364750D01*
Y362500D01*
X71750Y365500D02*X72500Y364750D01*
X77300Y365500D02*X79550D01*
X76550Y364750D02*X77300Y365500D01*
X76550Y364750D02*Y363250D01*
X77300Y362500D01*
X79550D01*
X81350Y368500D02*Y362500D01*
Y364750D02*X82100Y365500D01*
X83600D01*
X84350Y364750D01*
Y362500D01*
X86150Y368500D02*X86900Y367750D01*
Y363250D01*
X86150Y362500D02*X86900Y363250D01*
X41000Y359250D02*X88700D01*
X95750Y362500D02*X98000D01*
X95000Y363250D02*X95750Y362500D01*
X95000Y367750D02*Y363250D01*
Y367750D02*X95750Y368500D01*
X98000D01*
X99800Y364750D02*Y363250D01*
Y364750D02*X100550Y365500D01*
X102050D01*
X102800Y364750D01*
Y363250D01*
X102050Y362500D02*X102800Y363250D01*
X100550Y362500D02*X102050D01*
X99800Y363250D02*X100550Y362500D01*
X104600Y365500D02*Y363250D01*
X105350Y362500D01*
X106850D01*
X107600Y363250D01*
Y365500D02*Y363250D01*
X110150Y364750D02*Y362500D01*
Y364750D02*X110900Y365500D01*
X111650D01*
X112400Y364750D01*
Y362500D01*
X109400Y365500D02*X110150Y364750D01*
X114950Y368500D02*Y363250D01*
X115700Y362500D01*
X114200Y366250D02*X115700D01*
X95000Y359250D02*X117200D01*
X130750Y368500D02*Y362500D01*
X130000Y368500D02*X133000D01*
X133750Y367750D01*
Y366250D01*
X133000Y365500D02*X133750Y366250D01*
X130750Y365500D02*X133000D01*
X135550Y368500D02*Y363250D01*
X136300Y362500D01*
X140050Y365500D02*X140800Y364750D01*
X138550Y365500D02*X140050D01*
X137800Y364750D02*X138550Y365500D01*
X137800Y364750D02*Y363250D01*
X138550Y362500D01*
X140800Y365500D02*Y363250D01*
X141550Y362500D01*
X138550D02*X140050D01*
X140800Y363250D01*
X144100Y368500D02*Y363250D01*
X144850Y362500D01*
X143350Y366250D02*X144850D01*
X147100Y362500D02*X149350D01*
X146350Y363250D02*X147100Y362500D01*
X146350Y364750D02*Y363250D01*
Y364750D02*X147100Y365500D01*
X148600D01*
X149350Y364750D01*
X146350Y364000D02*X149350D01*
Y364750D02*Y364000D01*
X154150Y368500D02*Y362500D01*
X153400D02*X154150Y363250D01*
X151900Y362500D02*X153400D01*
X151150Y363250D02*X151900Y362500D01*
X151150Y364750D02*Y363250D01*
Y364750D02*X151900Y365500D01*
X153400D01*
X154150Y364750D01*
X157450Y365500D02*Y364750D01*
Y363250D02*Y362500D01*
X155950Y367750D02*Y367000D01*
Y367750D02*X156700Y368500D01*
X158200D01*
X158950Y367750D01*
Y367000D01*
X157450Y365500D02*X158950Y367000D01*
X130000Y359250D02*X160750D01*
X0Y383500D02*X3000D01*
X1500D02*Y377500D01*
X4800Y383500D02*Y377500D01*
Y379750D02*X5550Y380500D01*
X7050D01*
X7800Y379750D01*
Y377500D01*
X10350D02*X12600D01*
X9600Y378250D02*X10350Y377500D01*
X9600Y379750D02*Y378250D01*
Y379750D02*X10350Y380500D01*
X11850D01*
X12600Y379750D01*
X9600Y379000D02*X12600D01*
Y379750D02*Y379000D01*
X15150Y379750D02*Y377500D01*
Y379750D02*X15900Y380500D01*
X17400D01*
X14400D02*X15150Y379750D01*
X19950Y377500D02*X22200D01*
X19200Y378250D02*X19950Y377500D01*
X19200Y379750D02*Y378250D01*
Y379750D02*X19950Y380500D01*
X21450D01*
X22200Y379750D01*
X19200Y379000D02*X22200D01*
Y379750D02*Y379000D01*
X28950Y380500D02*X29700Y379750D01*
X27450Y380500D02*X28950D01*
X26700Y379750D02*X27450Y380500D01*
X26700Y379750D02*Y378250D01*
X27450Y377500D01*
X29700Y380500D02*Y378250D01*
X30450Y377500D01*
X27450D02*X28950D01*
X29700Y378250D01*
X33000Y379750D02*Y377500D01*
Y379750D02*X33750Y380500D01*
X35250D01*
X32250D02*X33000Y379750D01*
X37800Y377500D02*X40050D01*
X37050Y378250D02*X37800Y377500D01*
X37050Y379750D02*Y378250D01*
Y379750D02*X37800Y380500D01*
X39300D01*
X40050Y379750D01*
X37050Y379000D02*X40050D01*
Y379750D02*Y379000D01*
X44550Y377500D02*X48300Y381250D01*
Y383500D02*Y381250D01*
X44550Y383500D02*X48300D01*
X55800D02*Y377500D01*
X55050D02*X55800Y378250D01*
X53550Y377500D02*X55050D01*
X52800Y378250D02*X53550Y377500D01*
X52800Y379750D02*Y378250D01*
Y379750D02*X53550Y380500D01*
X55050D01*
X55800Y379750D01*
X57600Y382000D02*Y381250D01*
Y379750D02*Y377500D01*
X59850Y382750D02*Y377500D01*
Y382750D02*X60600Y383500D01*
X61350D01*
X59100Y380500D02*X60600D01*
X63600Y382750D02*Y377500D01*
Y382750D02*X64350Y383500D01*
X65100D01*
X62850Y380500D02*X64350D01*
X67350Y377500D02*X69600D01*
X66600Y378250D02*X67350Y377500D01*
X66600Y379750D02*Y378250D01*
Y379750D02*X67350Y380500D01*
X68850D01*
X69600Y379750D01*
X66600Y379000D02*X69600D01*
Y379750D02*Y379000D01*
X72150Y379750D02*Y377500D01*
Y379750D02*X72900Y380500D01*
X74400D01*
X71400D02*X72150Y379750D01*
X76950Y377500D02*X79200D01*
X76200Y378250D02*X76950Y377500D01*
X76200Y379750D02*Y378250D01*
Y379750D02*X76950Y380500D01*
X78450D01*
X79200Y379750D01*
X76200Y379000D02*X79200D01*
Y379750D02*Y379000D01*
X81750Y379750D02*Y377500D01*
Y379750D02*X82500Y380500D01*
X83250D01*
X84000Y379750D01*
Y377500D01*
X81000Y380500D02*X81750Y379750D01*
X86550Y383500D02*Y378250D01*
X87300Y377500D01*
X85800Y381250D02*X87300D01*
X94500Y383500D02*Y377500D01*
X93750D02*X94500Y378250D01*
X92250Y377500D02*X93750D01*
X91500Y378250D02*X92250Y377500D01*
X91500Y379750D02*Y378250D01*
Y379750D02*X92250Y380500D01*
X93750D01*
X94500Y379750D01*
X97050D02*Y377500D01*
Y379750D02*X97800Y380500D01*
X99300D01*
X96300D02*X97050Y379750D01*
X101100Y382000D02*Y381250D01*
Y379750D02*Y377500D01*
X102600Y383500D02*Y378250D01*
X103350Y377500D01*
X104850Y383500D02*Y378250D01*
X105600Y377500D01*
X110550D02*X112800D01*
X113550Y378250D01*
X112800Y379000D02*X113550Y378250D01*
X110550Y379000D02*X112800D01*
X109800Y379750D02*X110550Y379000D01*
X109800Y379750D02*X110550Y380500D01*
X112800D01*
X113550Y379750D01*
X109800Y378250D02*X110550Y377500D01*
X115350Y382000D02*Y381250D01*
Y379750D02*Y377500D01*
X116850Y380500D02*X119850D01*
X116850Y377500D02*X119850Y380500D01*
X116850Y377500D02*X119850D01*
X122400D02*X124650D01*
X121650Y378250D02*X122400Y377500D01*
X121650Y379750D02*Y378250D01*
Y379750D02*X122400Y380500D01*
X123900D01*
X124650Y379750D01*
X121650Y379000D02*X124650D01*
Y379750D02*Y379000D01*
X127200Y377500D02*X129450D01*
X130200Y378250D01*
X129450Y379000D02*X130200Y378250D01*
X127200Y379000D02*X129450D01*
X126450Y379750D02*X127200Y379000D01*
X126450Y379750D02*X127200Y380500D01*
X129450D01*
X130200Y379750D01*
X126450Y378250D02*X127200Y377500D01*
X134700Y380500D02*Y378250D01*
X135450Y377500D01*
X136950D01*
X137700Y378250D01*
Y380500D02*Y378250D01*
X140250Y377500D02*X142500D01*
X143250Y378250D01*
X142500Y379000D02*X143250Y378250D01*
X140250Y379000D02*X142500D01*
X139500Y379750D02*X140250Y379000D01*
X139500Y379750D02*X140250Y380500D01*
X142500D01*
X143250Y379750D01*
X139500Y378250D02*X140250Y377500D01*
X145800D02*X148050D01*
X145050Y378250D02*X145800Y377500D01*
X145050Y379750D02*Y378250D01*
Y379750D02*X145800Y380500D01*
X147300D01*
X148050Y379750D01*
X145050Y379000D02*X148050D01*
Y379750D02*Y379000D01*
X152850Y383500D02*Y377500D01*
X152100D02*X152850Y378250D01*
X150600Y377500D02*X152100D01*
X149850Y378250D02*X150600Y377500D01*
X149850Y379750D02*Y378250D01*
Y379750D02*X150600Y380500D01*
X152100D01*
X152850Y379750D01*
X157350Y382000D02*Y381250D01*
Y379750D02*Y377500D01*
X159600Y379750D02*Y377500D01*
Y379750D02*X160350Y380500D01*
X161100D01*
X161850Y379750D01*
Y377500D01*
X158850Y380500D02*X159600Y379750D01*
X167100Y383500D02*Y378250D01*
X167850Y377500D01*
X166350Y381250D02*X167850D01*
X169350Y383500D02*Y377500D01*
Y379750D02*X170100Y380500D01*
X171600D01*
X172350Y379750D01*
Y377500D01*
X174150Y382000D02*Y381250D01*
Y379750D02*Y377500D01*
X176400D02*X178650D01*
X179400Y378250D01*
X178650Y379000D02*X179400Y378250D01*
X176400Y379000D02*X178650D01*
X175650Y379750D02*X176400Y379000D01*
X175650Y379750D02*X176400Y380500D01*
X178650D01*
X179400Y379750D01*
X175650Y378250D02*X176400Y377500D01*
X183900Y383500D02*Y378250D01*
X184650Y377500D01*
X188400Y380500D02*X189150Y379750D01*
X186900Y380500D02*X188400D01*
X186150Y379750D02*X186900Y380500D01*
X186150Y379750D02*Y378250D01*
X186900Y377500D01*
X189150Y380500D02*Y378250D01*
X189900Y377500D01*
X186900D02*X188400D01*
X189150Y378250D01*
X191700Y380500D02*Y378250D01*
X192450Y377500D01*
X194700Y380500D02*Y376000D01*
X193950Y375250D02*X194700Y376000D01*
X192450Y375250D02*X193950D01*
X191700Y376000D02*X192450Y375250D01*
Y377500D02*X193950D01*
X194700Y378250D01*
X196500Y379750D02*Y378250D01*
Y379750D02*X197250Y380500D01*
X198750D01*
X199500Y379750D01*
Y378250D01*
X198750Y377500D02*X199500Y378250D01*
X197250Y377500D02*X198750D01*
X196500Y378250D02*X197250Y377500D01*
X201300Y380500D02*Y378250D01*
X202050Y377500D01*
X203550D01*
X204300Y378250D01*
Y380500D02*Y378250D01*
X206850Y383500D02*Y378250D01*
X207600Y377500D01*
X206100Y381250D02*X207600D01*
X209100Y376000D02*X210600Y377500D01*
X215850D02*X217350D01*
X216600Y383500D02*Y377500D01*
X215100Y382000D02*X216600Y383500D01*
X221400D02*X222150Y382750D01*
X219900Y383500D02*X221400D01*
X219150Y382750D02*X219900Y383500D01*
X219150Y382750D02*Y378250D01*
X219900Y377500D01*
X221400Y380500D02*X222150Y379750D01*
X219150Y380500D02*X221400D01*
X219900Y377500D02*X221400D01*
X222150Y378250D01*
Y379750D02*Y378250D01*
X226650Y383500D02*Y377500D01*
Y379750D02*X227400Y380500D01*
X228900D01*
X229650Y379750D01*
Y377500D01*
X231450Y379750D02*Y378250D01*
Y379750D02*X232200Y380500D01*
X233700D01*
X234450Y379750D01*
Y378250D01*
X233700Y377500D02*X234450Y378250D01*
X232200Y377500D02*X233700D01*
X231450Y378250D02*X232200Y377500D01*
X236250Y383500D02*Y378250D01*
X237000Y377500D01*
X239250D02*X241500D01*
X238500Y378250D02*X239250Y377500D01*
X238500Y379750D02*Y378250D01*
Y379750D02*X239250Y380500D01*
X240750D01*
X241500Y379750D01*
X238500Y379000D02*X241500D01*
Y379750D02*Y379000D01*
X244050Y377500D02*X246300D01*
X247050Y378250D01*
X246300Y379000D02*X247050Y378250D01*
X244050Y379000D02*X246300D01*
X243300Y379750D02*X244050Y379000D01*
X243300Y379750D02*X244050Y380500D01*
X246300D01*
X247050Y379750D01*
X243300Y378250D02*X244050Y377500D01*
X252300Y383500D02*Y378250D01*
X253050Y377500D01*
X251550Y381250D02*X253050D01*
X254550Y379750D02*Y378250D01*
Y379750D02*X255300Y380500D01*
X256800D01*
X257550Y379750D01*
Y378250D01*
X256800Y377500D02*X257550Y378250D01*
X255300Y377500D02*X256800D01*
X254550Y378250D02*X255300Y377500D01*
X260100Y383500D02*Y378250D01*
X260850Y377500D01*
X259350Y381250D02*X260850D01*
X264600Y380500D02*X265350Y379750D01*
X263100Y380500D02*X264600D01*
X262350Y379750D02*X263100Y380500D01*
X262350Y379750D02*Y378250D01*
X263100Y377500D01*
X265350Y380500D02*Y378250D01*
X266100Y377500D01*
X263100D02*X264600D01*
X265350Y378250D01*
X267900Y383500D02*Y378250D01*
X268650Y377500D01*
G54D68*X57000Y173000D02*X77000Y193000D01*
Y210000D01*
X57000Y173000D02*X40000D01*
X40563Y173750D02*G75*G03X76250Y209437I84437J-48750D01*G01*
G54D67*X38675Y-9500D02*X41675D01*
X42425Y-8750D01*
Y-7250D02*Y-8750D01*
X41675Y-6500D02*X42425Y-7250D01*
X39425Y-6500D02*X41675D01*
X39425Y-3500D02*Y-9500D01*
X38675Y-3500D02*X41675D01*
X42425Y-4250D01*
Y-5750D01*
X41675Y-6500D02*X42425Y-5750D01*
X44225Y-7250D02*Y-8750D01*
Y-7250D02*X44975Y-6500D01*
X46475D01*
X47225Y-7250D01*
Y-8750D01*
X46475Y-9500D02*X47225Y-8750D01*
X44975Y-9500D02*X46475D01*
X44225Y-8750D02*X44975Y-9500D01*
X51275Y-6500D02*X52025Y-7250D01*
X49775Y-6500D02*X51275D01*
X49025Y-7250D02*X49775Y-6500D01*
X49025Y-7250D02*Y-8750D01*
X49775Y-9500D01*
X52025Y-6500D02*Y-8750D01*
X52775Y-9500D01*
X49775D02*X51275D01*
X52025Y-8750D01*
X55325Y-7250D02*Y-9500D01*
Y-7250D02*X56075Y-6500D01*
X57575D01*
X54575D02*X55325Y-7250D01*
X62375Y-3500D02*Y-9500D01*
X61625D02*X62375Y-8750D01*
X60125Y-9500D02*X61625D01*
X59375Y-8750D02*X60125Y-9500D01*
X59375Y-7250D02*Y-8750D01*
Y-7250D02*X60125Y-6500D01*
X61625D01*
X62375Y-7250D01*
X66875D02*Y-8750D01*
Y-7250D02*X67625Y-6500D01*
X69125D01*
X69875Y-7250D01*
Y-8750D01*
X69125Y-9500D02*X69875Y-8750D01*
X67625Y-9500D02*X69125D01*
X66875Y-8750D02*X67625Y-9500D01*
X71675Y-6500D02*Y-8750D01*
X72425Y-9500D01*
X73925D01*
X74675Y-8750D01*
Y-6500D02*Y-8750D01*
X77225Y-3500D02*Y-8750D01*
X77975Y-9500D01*
X76475Y-5750D02*X77975D01*
X79475Y-3500D02*Y-8750D01*
X80225Y-9500D01*
X81725Y-5000D02*Y-5750D01*
Y-7250D02*Y-9500D01*
X83975Y-7250D02*Y-9500D01*
Y-7250D02*X84725Y-6500D01*
X85475D01*
X86225Y-7250D01*
Y-9500D01*
X83225Y-6500D02*X83975Y-7250D01*
X88775Y-9500D02*X91025D01*
X88025Y-8750D02*X88775Y-9500D01*
X88025Y-7250D02*Y-8750D01*
Y-7250D02*X88775Y-6500D01*
X90275D01*
X91025Y-7250D01*
X88025Y-8000D02*X91025D01*
Y-7250D02*Y-8000D01*
X95525Y-5000D02*Y-5750D01*
Y-7250D02*Y-9500D01*
X97775D02*X100025D01*
X100775Y-8750D01*
X100025Y-8000D02*X100775Y-8750D01*
X97775Y-8000D02*X100025D01*
X97025Y-7250D02*X97775Y-8000D01*
X97025Y-7250D02*X97775Y-6500D01*
X100025D01*
X100775Y-7250D01*
X97025Y-8750D02*X97775Y-9500D01*
X106025Y-3500D02*Y-8750D01*
X106775Y-9500D01*
X105275Y-5750D02*X106775D01*
X108275Y-3500D02*Y-9500D01*
Y-7250D02*X109025Y-6500D01*
X110525D01*
X111275Y-7250D01*
Y-9500D01*
X113825D02*X116075D01*
X113075Y-8750D02*X113825Y-9500D01*
X113075Y-7250D02*Y-8750D01*
Y-7250D02*X113825Y-6500D01*
X115325D01*
X116075Y-7250D01*
X113075Y-8000D02*X116075D01*
Y-7250D02*Y-8000D01*
X121325Y-6500D02*X123575D01*
X120575Y-7250D02*X121325Y-6500D01*
X120575Y-7250D02*Y-8750D01*
X121325Y-9500D01*
X123575D01*
X126125D02*X128375D01*
X125375Y-8750D02*X126125Y-9500D01*
X125375Y-7250D02*Y-8750D01*
Y-7250D02*X126125Y-6500D01*
X127625D01*
X128375Y-7250D01*
X125375Y-8000D02*X128375D01*
Y-7250D02*Y-8000D01*
X130925Y-7250D02*Y-9500D01*
Y-7250D02*X131675Y-6500D01*
X132425D01*
X133175Y-7250D01*
Y-9500D01*
X130175Y-6500D02*X130925Y-7250D01*
X135725Y-3500D02*Y-8750D01*
X136475Y-9500D01*
X134975Y-5750D02*X136475D01*
X138725Y-9500D02*X140975D01*
X137975Y-8750D02*X138725Y-9500D01*
X137975Y-7250D02*Y-8750D01*
Y-7250D02*X138725Y-6500D01*
X140225D01*
X140975Y-7250D01*
X137975Y-8000D02*X140975D01*
Y-7250D02*Y-8000D01*
X143525Y-7250D02*Y-9500D01*
Y-7250D02*X144275Y-6500D01*
X145775D01*
X142775D02*X143525Y-7250D01*
X147575Y-3500D02*Y-8750D01*
X148325Y-9500D01*
X149825Y-5000D02*Y-5750D01*
Y-7250D02*Y-9500D01*
X152075Y-7250D02*Y-9500D01*
Y-7250D02*X152825Y-6500D01*
X153575D01*
X154325Y-7250D01*
Y-9500D01*
X151325Y-6500D02*X152075Y-7250D01*
X156875Y-9500D02*X159125D01*
X156125Y-8750D02*X156875Y-9500D01*
X156125Y-7250D02*Y-8750D01*
Y-7250D02*X156875Y-6500D01*
X158375D01*
X159125Y-7250D01*
X156125Y-8000D02*X159125D01*
Y-7250D02*Y-8000D01*
X163625Y-7250D02*Y-8750D01*
Y-7250D02*X164375Y-6500D01*
X165875D01*
X166625Y-7250D01*
Y-8750D01*
X165875Y-9500D02*X166625Y-8750D01*
X164375Y-9500D02*X165875D01*
X163625Y-8750D02*X164375Y-9500D01*
X169175Y-4250D02*Y-9500D01*
Y-4250D02*X169925Y-3500D01*
X170675D01*
X168425Y-6500D02*X169925D01*
X175625Y-3500D02*Y-8750D01*
X176375Y-9500D01*
X174875Y-5750D02*X176375D01*
X177875Y-3500D02*Y-9500D01*
Y-7250D02*X178625Y-6500D01*
X180125D01*
X180875Y-7250D01*
Y-9500D01*
X182675Y-5000D02*Y-5750D01*
Y-7250D02*Y-9500D01*
X184925D02*X187175D01*
X187925Y-8750D01*
X187175Y-8000D02*X187925Y-8750D01*
X184925Y-8000D02*X187175D01*
X184175Y-7250D02*X184925Y-8000D01*
X184175Y-7250D02*X184925Y-6500D01*
X187175D01*
X187925Y-7250D01*
X184175Y-8750D02*X184925Y-9500D01*
X193175Y-7250D02*Y-11750D01*
X192425Y-6500D02*X193175Y-7250D01*
X193925Y-6500D01*
X195425D01*
X196175Y-7250D01*
Y-8750D01*
X195425Y-9500D02*X196175Y-8750D01*
X193925Y-9500D02*X195425D01*
X193175Y-8750D02*X193925Y-9500D01*
X200225Y-6500D02*X200975Y-7250D01*
X198725Y-6500D02*X200225D01*
X197975Y-7250D02*X198725Y-6500D01*
X197975Y-7250D02*Y-8750D01*
X198725Y-9500D01*
X200975Y-6500D02*Y-8750D01*
X201725Y-9500D01*
X198725D02*X200225D01*
X200975Y-8750D01*
X204275Y-3500D02*Y-8750D01*
X205025Y-9500D01*
X203525Y-5750D02*X205025D01*
X206525Y-3500D02*Y-9500D01*
Y-7250D02*X207275Y-6500D01*
X208775D01*
X209525Y-7250D01*
Y-9500D01*
X200750Y278500D02*Y272500D01*
X203000Y278500D02*X203750Y277750D01*
Y273250D01*
X203000Y272500D02*X203750Y273250D01*
X200000Y272500D02*X203000D01*
X200000Y278500D02*X203000D01*
X207800Y275500D02*X208550Y274750D01*
X206300Y275500D02*X207800D01*
X205550Y274750D02*X206300Y275500D01*
X205550Y274750D02*Y273250D01*
X206300Y272500D01*
X208550Y275500D02*Y273250D01*
X209300Y272500D01*
X206300D02*X207800D01*
X208550Y273250D01*
X211850Y278500D02*Y273250D01*
X212600Y272500D01*
X211100Y276250D02*X212600D01*
X214850Y272500D02*X217100D01*
X214100Y273250D02*X214850Y272500D01*
X214100Y274750D02*Y273250D01*
Y274750D02*X214850Y275500D01*
X216350D01*
X217100Y274750D01*
X214100Y274000D02*X217100D01*
Y274750D02*Y274000D01*
X218900Y276250D02*X219650D01*
X218900Y274750D02*X219650D01*
X224150Y278500D02*X227150D01*
X225650D02*Y272500D01*
X228950Y278500D02*Y272500D01*
Y274750D02*X229700Y275500D01*
X231200D01*
X231950Y274750D01*
Y272500D01*
X233750Y275500D02*Y273250D01*
X234500Y272500D01*
X236000D01*
X236750Y273250D01*
Y275500D02*Y273250D01*
X241250Y277750D02*Y272500D01*
Y277750D02*X242000Y278500D01*
X244250D01*
X245000Y277750D01*
Y272500D01*
X241250Y275500D02*X245000D01*
X247550Y274750D02*Y270250D01*
X246800Y275500D02*X247550Y274750D01*
X248300Y275500D01*
X249800D01*
X250550Y274750D01*
Y273250D01*
X249800Y272500D02*X250550Y273250D01*
X248300Y272500D02*X249800D01*
X247550Y273250D02*X248300Y272500D01*
X253100Y274750D02*Y272500D01*
Y274750D02*X253850Y275500D01*
X255350D01*
X252350D02*X253100Y274750D01*
X259850Y277750D02*X260600Y278500D01*
X262850D01*
X263600Y277750D01*
Y276250D01*
X259850Y272500D02*X263600Y276250D01*
X259850Y272500D02*X263600D01*
X265400D02*X268400Y275500D01*
Y277750D02*Y275500D01*
X267650Y278500D02*X268400Y277750D01*
X266150Y278500D02*X267650D01*
X265400Y277750D02*X266150Y278500D01*
X265400Y277750D02*Y276250D01*
X266150Y275500D01*
X268400D01*
X273650Y272500D02*X275150D01*
X274400Y278500D02*Y272500D01*
X272900Y277000D02*X274400Y278500D01*
X276950Y275500D02*X279950Y278500D01*
X276950Y275500D02*X280700D01*
X279950Y278500D02*Y272500D01*
X282500Y276250D02*X283250D01*
X282500Y274750D02*X283250D01*
X285050Y277750D02*X285800Y278500D01*
X288050D01*
X288800Y277750D01*
Y276250D01*
X285050Y272500D02*X288800Y276250D01*
X285050Y272500D02*X288800D01*
X290600D02*X293600Y275500D01*
Y277750D02*Y275500D01*
X292850Y278500D02*X293600Y277750D01*
X291350Y278500D02*X292850D01*
X290600Y277750D02*X291350Y278500D01*
X290600Y277750D02*Y276250D01*
X291350Y275500D01*
X293600D01*
X295400Y276250D02*X296150D01*
X295400Y274750D02*X296150D01*
X297950Y275500D02*X300950Y278500D01*
X297950Y275500D02*X301700D01*
X300950Y278500D02*Y272500D01*
X305750Y278500D02*X306500Y277750D01*
X304250Y278500D02*X305750D01*
X303500Y277750D02*X304250Y278500D01*
X303500Y277750D02*Y273250D01*
X304250Y272500D01*
X305750Y275500D02*X306500Y274750D01*
X303500Y275500D02*X305750D01*
X304250Y272500D02*X305750D01*
X306500Y273250D01*
Y274750D02*Y273250D01*
X311000Y277750D02*X311750Y278500D01*
X314000D01*
X314750Y277750D01*
Y276250D01*
X311000Y272500D02*X314750Y276250D01*
X311000Y272500D02*X314750D01*
X316550Y273250D02*X317300Y272500D01*
X316550Y277750D02*Y273250D01*
Y277750D02*X317300Y278500D01*
X318800D01*
X319550Y277750D01*
Y273250D01*
X318800Y272500D02*X319550Y273250D01*
X317300Y272500D02*X318800D01*
X316550Y274000D02*X319550Y277000D01*
X321350Y277750D02*X322100Y278500D01*
X324350D01*
X325100Y277750D01*
Y276250D01*
X321350Y272500D02*X325100Y276250D01*
X321350Y272500D02*X325100D01*
X327650D02*X329150D01*
X328400Y278500D02*Y272500D01*
X326900Y277000D02*X328400Y278500D01*
X333650D02*Y273250D01*
X334400Y272500D01*
X335900D01*
X336650Y273250D01*
Y278500D02*Y273250D01*
X338450Y278500D02*X341450D01*
X339950D02*Y272500D01*
X344000D02*X346250D01*
X343250Y273250D02*X344000Y272500D01*
X343250Y277750D02*Y273250D01*
Y277750D02*X344000Y278500D01*
X346250D01*
X200000Y292750D02*Y287500D01*
Y292750D02*X200750Y293500D01*
X203000D01*
X203750Y292750D01*
Y287500D01*
X200000Y290500D02*X203750D01*
X205550D02*Y288250D01*
X206300Y287500D01*
X207800D01*
X208550Y288250D01*
Y290500D02*Y288250D01*
X211100Y293500D02*Y288250D01*
X211850Y287500D01*
X210350Y291250D02*X211850D01*
X213350Y293500D02*Y287500D01*
Y289750D02*X214100Y290500D01*
X215600D01*
X216350Y289750D01*
Y287500D01*
X218150Y289750D02*Y288250D01*
Y289750D02*X218900Y290500D01*
X220400D01*
X221150Y289750D01*
Y288250D01*
X220400Y287500D02*X221150Y288250D01*
X218900Y287500D02*X220400D01*
X218150Y288250D02*X218900Y287500D01*
X223700Y289750D02*Y287500D01*
Y289750D02*X224450Y290500D01*
X225950D01*
X222950D02*X223700Y289750D01*
X227750Y291250D02*X228500D01*
X227750Y289750D02*X228500D01*
X233000Y293500D02*Y287500D01*
Y293500D02*X235250Y291250D01*
X237500Y293500D01*
Y287500D01*
X239300Y292000D02*Y291250D01*
Y289750D02*Y287500D01*
X241550Y290500D02*X243800D01*
X240800Y289750D02*X241550Y290500D01*
X240800Y289750D02*Y288250D01*
X241550Y287500D01*
X243800D01*
X245600Y293500D02*Y287500D01*
Y289750D02*X246350Y290500D01*
X247850D01*
X248600Y289750D01*
Y287500D01*
X252650Y290500D02*X253400Y289750D01*
X251150Y290500D02*X252650D01*
X250400Y289750D02*X251150Y290500D01*
X250400Y289750D02*Y288250D01*
X251150Y287500D01*
X253400Y290500D02*Y288250D01*
X254150Y287500D01*
X251150D02*X252650D01*
X253400Y288250D01*
X256700Y287500D02*X258950D01*
X255950Y288250D02*X256700Y287500D01*
X255950Y289750D02*Y288250D01*
Y289750D02*X256700Y290500D01*
X258200D01*
X258950Y289750D01*
X255950Y289000D02*X258950D01*
Y289750D02*Y289000D01*
X260750Y293500D02*Y288250D01*
X261500Y287500D01*
X266450Y293500D02*Y287500D01*
X265700Y293500D02*X268700D01*
X269450Y292750D01*
Y291250D01*
X268700Y290500D02*X269450Y291250D01*
X266450Y290500D02*X268700D01*
X272000Y287500D02*X274250D01*
X271250Y288250D02*X272000Y287500D01*
X271250Y289750D02*Y288250D01*
Y289750D02*X272000Y290500D01*
X273500D01*
X274250Y289750D01*
X271250Y289000D02*X274250D01*
Y289750D02*Y289000D01*
X276800Y293500D02*Y288250D01*
X277550Y287500D01*
X276050Y291250D02*X277550D01*
X279800Y287500D02*X282050D01*
X279050Y288250D02*X279800Y287500D01*
X279050Y289750D02*Y288250D01*
Y289750D02*X279800Y290500D01*
X281300D01*
X282050Y289750D01*
X279050Y289000D02*X282050D01*
Y289750D02*Y289000D01*
X284600Y289750D02*Y287500D01*
Y289750D02*X285350Y290500D01*
X286850D01*
X283850D02*X284600Y289750D01*
X289400Y287500D02*X291650D01*
X292400Y288250D01*
X291650Y289000D02*X292400Y288250D01*
X289400Y289000D02*X291650D01*
X288650Y289750D02*X289400Y289000D01*
X288650Y289750D02*X289400Y290500D01*
X291650D01*
X292400Y289750D01*
X288650Y288250D02*X289400Y287500D01*
X294950D02*X297200D01*
X294200Y288250D02*X294950Y287500D01*
X294200Y289750D02*Y288250D01*
Y289750D02*X294950Y290500D01*
X296450D01*
X297200Y289750D01*
X294200Y289000D02*X297200D01*
Y289750D02*Y289000D01*
X299750Y289750D02*Y287500D01*
Y289750D02*X300500Y290500D01*
X301250D01*
X302000Y289750D01*
Y287500D01*
X299000Y290500D02*X299750Y289750D01*
X200000Y308500D02*X203000D01*
X201500D02*Y302500D01*
X204800Y307000D02*Y306250D01*
Y304750D02*Y302500D01*
X207050Y308500D02*Y303250D01*
X207800Y302500D01*
X206300Y306250D02*X207800D01*
X209300Y308500D02*Y303250D01*
X210050Y302500D01*
X212300D02*X214550D01*
X211550Y303250D02*X212300Y302500D01*
X211550Y304750D02*Y303250D01*
Y304750D02*X212300Y305500D01*
X213800D01*
X214550Y304750D01*
X211550Y304000D02*X214550D01*
Y304750D02*Y304000D01*
X216350Y306250D02*X217100D01*
X216350Y304750D02*X217100D01*
X221600Y303250D02*X222350Y302500D01*
X221600Y307750D02*X222350Y308500D01*
X221600Y307750D02*Y303250D01*
X224150Y305500D02*Y303250D01*
X224900Y302500D01*
X226400D01*
X227150Y303250D01*
Y305500D02*Y303250D01*
X229700Y304750D02*Y302500D01*
Y304750D02*X230450Y305500D01*
X231200D01*
X231950Y304750D01*
Y302500D01*
X228950Y305500D02*X229700Y304750D01*
X233750Y308500D02*Y302500D01*
Y304750D02*X236000Y302500D01*
X233750Y304750D02*X235250Y306250D01*
X238550Y304750D02*Y302500D01*
Y304750D02*X239300Y305500D01*
X240050D01*
X240800Y304750D01*
Y302500D01*
X237800Y305500D02*X238550Y304750D01*
X242600D02*Y303250D01*
Y304750D02*X243350Y305500D01*
X244850D01*
X245600Y304750D01*
Y303250D01*
X244850Y302500D02*X245600Y303250D01*
X243350Y302500D02*X244850D01*
X242600Y303250D02*X243350Y302500D01*
X247400Y305500D02*Y303250D01*
X248150Y302500D01*
X248900D01*
X249650Y303250D01*
Y305500D02*Y303250D01*
X250400Y302500D01*
X251150D01*
X251900Y303250D01*
Y305500D02*Y303250D01*
X254450Y304750D02*Y302500D01*
Y304750D02*X255200Y305500D01*
X255950D01*
X256700Y304750D01*
Y302500D01*
X253700Y305500D02*X254450Y304750D01*
X258500Y308500D02*X259250Y307750D01*
Y303250D01*
X258500Y302500D02*X259250Y303250D01*
X263750Y305500D02*X266750D01*
X271250Y308500D02*Y302500D01*
Y308500D02*X274250D01*
X271250Y305500D02*X273500D01*
X278300D02*X279050Y304750D01*
X276800Y305500D02*X278300D01*
X276050Y304750D02*X276800Y305500D01*
X276050Y304750D02*Y303250D01*
X276800Y302500D01*
X279050Y305500D02*Y303250D01*
X279800Y302500D01*
X276800D02*X278300D01*
X279050Y303250D01*
X281600Y308500D02*Y302500D01*
Y303250D02*X282350Y302500D01*
X283850D01*
X284600Y303250D01*
Y304750D02*Y303250D01*
X283850Y305500D02*X284600Y304750D01*
X282350Y305500D02*X283850D01*
X281600Y304750D02*X282350Y305500D01*
X287150Y304750D02*Y302500D01*
Y304750D02*X287900Y305500D01*
X289400D01*
X286400D02*X287150Y304750D01*
X291200Y307000D02*Y306250D01*
Y304750D02*Y302500D01*
X293450Y305500D02*X295700D01*
X292700Y304750D02*X293450Y305500D01*
X292700Y304750D02*Y303250D01*
X293450Y302500D01*
X295700D01*
X299750Y305500D02*X300500Y304750D01*
X298250Y305500D02*X299750D01*
X297500Y304750D02*X298250Y305500D01*
X297500Y304750D02*Y303250D01*
X298250Y302500D01*
X300500Y305500D02*Y303250D01*
X301250Y302500D01*
X298250D02*X299750D01*
X300500Y303250D01*
X303800Y308500D02*Y303250D01*
X304550Y302500D01*
X303050Y306250D02*X304550D01*
X306050Y307000D02*Y306250D01*
Y304750D02*Y302500D01*
X307550Y304750D02*Y303250D01*
Y304750D02*X308300Y305500D01*
X309800D01*
X310550Y304750D01*
Y303250D01*
X309800Y302500D02*X310550Y303250D01*
X308300Y302500D02*X309800D01*
X307550Y303250D02*X308300Y302500D01*
X313100Y304750D02*Y302500D01*
Y304750D02*X313850Y305500D01*
X314600D01*
X315350Y304750D01*
Y302500D01*
X312350Y305500D02*X313100Y304750D01*
X320600Y308500D02*Y302500D01*
X322850Y308500D02*X323600Y307750D01*
Y303250D01*
X322850Y302500D02*X323600Y303250D01*
X319850Y302500D02*X322850D01*
X319850Y308500D02*X322850D01*
X326150Y304750D02*Y302500D01*
Y304750D02*X326900Y305500D01*
X328400D01*
X325400D02*X326150Y304750D01*
X332450Y305500D02*X333200Y304750D01*
X330950Y305500D02*X332450D01*
X330200Y304750D02*X330950Y305500D01*
X330200Y304750D02*Y303250D01*
X330950Y302500D01*
X333200Y305500D02*Y303250D01*
X333950Y302500D01*
X330950D02*X332450D01*
X333200Y303250D01*
X335750Y305500D02*Y303250D01*
X336500Y302500D01*
X337250D01*
X338000Y303250D01*
Y305500D02*Y303250D01*
X338750Y302500D01*
X339500D01*
X340250Y303250D01*
Y305500D02*Y303250D01*
X342050Y307000D02*Y306250D01*
Y304750D02*Y302500D01*
X344300Y304750D02*Y302500D01*
Y304750D02*X345050Y305500D01*
X345800D01*
X346550Y304750D01*
Y302500D01*
X343550Y305500D02*X344300Y304750D01*
X350600Y305500D02*X351350Y304750D01*
X349100Y305500D02*X350600D01*
X348350Y304750D02*X349100Y305500D01*
X348350Y304750D02*Y303250D01*
X349100Y302500D01*
X350600D01*
X351350Y303250D01*
X348350Y301000D02*X349100Y300250D01*
X350600D01*
X351350Y301000D01*
Y305500D02*Y301000D01*
M02*
