G04 start of page 9 for group -4079 idx -4079 *
G04 Title: (unknown), topsilk *
G04 Creator: pcb 4.0.2 *
G04 CreationDate: Thu Apr 29 14:29:46 2021 UTC *
G04 For: petersen *
G04 Format: Gerber/RS-274X *
G04 PCB-Dimensions (mil): 2500.00 2500.00 *
G04 PCB-Coordinate-Origin: lower left *
%MOIN*%
%FSLAX25Y25*%
%LNTOPSILK*%
%ADD59C,0.0150*%
%ADD58C,0.0070*%
%ADD57C,0.0100*%
G54D57*X125000Y163500D02*Y158500D01*
G54D58*X119000Y196000D02*X131000D01*
X119000Y210000D02*X131000D01*
X132000Y209000D02*Y207500D01*
Y198500D02*Y197000D01*
G54D57*X110000Y188000D02*X140000D01*
G54D58*X118000Y198500D02*Y197000D01*
Y209000D02*Y207500D01*
G54D59*X109000Y205000D02*Y201000D01*
X107000Y203000D02*X111000D01*
G54D58*X67104Y137205D02*X60307D01*
X49921Y65220D02*X52003Y63138D01*
X98048Y109184D01*
G54D57*X91500Y125000D02*X86500D01*
G54D58*X189693Y137205D02*X182896D01*
X151952Y109184D02*X197997Y63138D01*
X200079Y65220D01*
G54D57*X158500Y125000D02*X163500D01*
X125000Y91500D02*Y86500D01*
G54D58*X67104Y137205D02*G75*G03X84596Y147509I0J20000D01*G01*
X60307Y137205D02*G75*G03X43726Y128389I0J-20000D01*G01*
X43824Y128535D02*G75*G03X49921Y65220I41452J-27960D01*G01*
X200079Y65220D02*G75*G03X206176Y128535I-35355J35355D01*G01*
X206274Y128389D02*G75*G03X189693Y137205I-16581J-11184D01*G01*
X165404Y147509D02*G75*G03X182896Y137205I17492J9696D01*G01*
X165451Y147422D02*G75*G03X84549Y147422I-40451J-22422D01*G01*
X161000Y82000D02*Y78000D01*
X163000D01*
X164200Y81500D02*Y78500D01*
Y81500D02*X164700Y82000D01*
X165700D01*
X166200Y81500D01*
Y78500D01*
X165700Y78000D02*X166200Y78500D01*
X164700Y78000D02*X165700D01*
X164200Y78500D02*X164700Y78000D01*
X167900D02*X169400D01*
X167400Y78500D02*X167900Y78000D01*
X167400Y81500D02*Y78500D01*
Y81500D02*X167900Y82000D01*
X169400D01*
X170600D02*Y78000D01*
Y80000D02*X172600Y82000D01*
X170600Y80000D02*X172600Y78000D01*
X76500Y82000D02*Y78500D01*
X77000Y78000D01*
X78000D01*
X78500Y78500D01*
Y82000D02*Y78500D01*
X79700Y82000D02*Y78000D01*
Y82000D02*Y81500D01*
X82200Y79000D01*
Y82000D02*Y78000D01*
X83400Y82000D02*Y78000D01*
X85400D01*
X86600Y81500D02*Y78500D01*
Y81500D02*X87100Y82000D01*
X88100D01*
X88600Y81500D01*
Y78500D01*
X88100Y78000D02*X88600Y78500D01*
X87100Y78000D02*X88100D01*
X86600Y78500D02*X87100Y78000D01*
X90300D02*X91800D01*
X89800Y78500D02*X90300Y78000D01*
X89800Y81500D02*Y78500D01*
Y81500D02*X90300Y82000D01*
X91800D01*
X93000D02*Y78000D01*
Y80000D02*X95000Y82000D01*
X93000Y80000D02*X95000Y78000D01*
G54D57*X124607Y200245D02*X125393D01*
X124607Y205755D02*X125393D01*
X58385Y106055D02*X60055Y107725D01*
X65901Y113571D02*X69242Y116912D01*
X75088Y122758D02*X76202Y123872D01*
X58385Y106055D02*X61725Y102714D01*
X76202Y123872D02*X79542Y120531D01*
X72582Y91857D02*X90399Y109674D01*
X65066Y118304D02*X68407Y121644D01*
X65066Y118304D02*X67850Y115520D01*
X68407Y121644D02*X69242Y120809D01*
X76897Y96172D02*X86363Y86707D01*
X84971Y85315D02*X87755Y88099D01*
X82883Y87403D02*X85667Y90187D01*
X78289Y91996D02*X81073Y94780D01*
X173798Y123872D02*X175469Y122201D01*
X181315Y116355D02*X184656Y113015D01*
X190502Y107169D02*X191615Y106055D01*
X173798Y123872D02*X170458Y120531D01*
X191615Y106055D02*X188275Y102714D01*
X159601Y109674D02*X177418Y91857D01*
X186048Y117191D02*X189388Y113850D01*
X186048Y117191D02*X183264Y114406D01*
X189388Y113850D02*X188553Y113015D01*
X163916Y105359D02*X154450Y95894D01*
X153059Y97285D02*X155843Y94502D01*
X155146Y99374D02*X157930Y96590D01*
X159740Y103967D02*X162524Y101183D01*
M02*
