G04 start of page 3 for group 1 idx 1 *
G04 Title: (unknown), solder *
G04 Creator: pcb 4.0.2 *
G04 CreationDate: Mon Feb 22 17:58:38 2021 UTC *
G04 For: ndholmes *
G04 Format: Gerber/RS-274X *
G04 PCB-Dimensions (mil): 2500.00 2500.00 *
G04 PCB-Coordinate-Origin: lower left *
%MOIN*%
%FSLAX25Y25*%
%LNBOTTOM*%
%ADD33C,0.0472*%
%ADD32C,0.0276*%
%ADD31C,0.6300*%
%ADD30C,0.0120*%
%ADD29C,0.0240*%
%ADD28C,0.0250*%
%ADD27C,0.1378*%
%ADD26C,0.0260*%
%ADD25C,0.0800*%
%ADD24C,0.0200*%
%ADD23C,0.0001*%
G54D23*G36*
X220000Y125000D02*X219986Y123342D01*
X219942Y121685D01*
X219870Y120028D01*
X219769Y118373D01*
X219638Y116720D01*
X219480Y115070D01*
X219292Y113422D01*
X219075Y111779D01*
X218830Y110139D01*
X218557Y108503D01*
X218255Y106873D01*
X217924Y105248D01*
X217565Y103630D01*
X217178Y102017D01*
X216763Y100412D01*
X216320Y98814D01*
X215849Y97225D01*
X215350Y95643D01*
X214824Y94071D01*
X214271Y92508D01*
X213690Y90955D01*
X213082Y89412D01*
X212448Y87881D01*
X211787Y86360D01*
X211099Y84851D01*
X210385Y83355D01*
X209646Y81871D01*
X208880Y80400D01*
X208089Y78943D01*
X207272Y77500D01*
X206431Y76071D01*
X205565Y74658D01*
X204674Y73259D01*
X203759Y71877D01*
X202819Y70510D01*
X201857Y69160D01*
X200870Y67828D01*
X199861Y66512D01*
X198829Y65215D01*
X197774Y63935D01*
X196697Y62674D01*
X195599Y61433D01*
X194479Y60210D01*
X193738Y59429D01*
Y117087D01*
X193750Y117086D01*
X194988Y117183D01*
X196196Y117473D01*
X197343Y117948D01*
X198402Y118597D01*
X199346Y119404D01*
X200153Y120348D01*
X200802Y121407D01*
X201277Y122554D01*
X201567Y123762D01*
X201640Y125000D01*
X201567Y126238D01*
X201277Y127446D01*
X200802Y128593D01*
X200153Y129652D01*
X199346Y130596D01*
X198402Y131403D01*
X197343Y132052D01*
X196196Y132527D01*
X194988Y132817D01*
X193750Y132914D01*
X193738Y132913D01*
Y190571D01*
X194479Y189790D01*
X195599Y188567D01*
X196697Y187326D01*
X197774Y186065D01*
X198829Y184785D01*
X199861Y183488D01*
X200870Y182172D01*
X201857Y180840D01*
X202819Y179490D01*
X203759Y178123D01*
X204674Y176741D01*
X205565Y175342D01*
X206431Y173929D01*
X207272Y172500D01*
X208089Y171057D01*
X208880Y169600D01*
X209646Y168129D01*
X210385Y166645D01*
X211099Y165149D01*
X211787Y163640D01*
X212448Y162119D01*
X213082Y160588D01*
X213690Y159045D01*
X214271Y157492D01*
X214824Y155929D01*
X215350Y154357D01*
X215849Y152775D01*
X216320Y151186D01*
X216763Y149588D01*
X217178Y147983D01*
X217565Y146370D01*
X217924Y144752D01*
X218255Y143127D01*
X218557Y141497D01*
X218830Y139861D01*
X219075Y138221D01*
X219292Y136578D01*
X219480Y134930D01*
X219638Y133280D01*
X219769Y131627D01*
X219870Y129972D01*
X219942Y128315D01*
X219986Y126658D01*
X220000Y125000D01*
G37*
G36*
X193738Y59429D02*X193337Y59007D01*
X192175Y57825D01*
X190993Y56663D01*
X189790Y55521D01*
X188567Y54401D01*
X187326Y53303D01*
X186065Y52226D01*
X184785Y51171D01*
X183488Y50139D01*
X182172Y49130D01*
X180840Y48143D01*
X180744Y48074D01*
Y155763D01*
X184979Y155770D01*
X185209Y155825D01*
X185427Y155916D01*
X185628Y156039D01*
X185808Y156192D01*
X185961Y156372D01*
X186084Y156573D01*
X186175Y156791D01*
X186230Y157021D01*
X186244Y157256D01*
X186230Y165492D01*
X186175Y165721D01*
X186084Y165939D01*
X185961Y166141D01*
X185808Y166320D01*
X185628Y166474D01*
X185427Y166597D01*
X185209Y166687D01*
X184979Y166742D01*
X184744Y166756D01*
X180744Y166750D01*
Y201926D01*
X180840Y201857D01*
X182172Y200870D01*
X183488Y199861D01*
X184785Y198829D01*
X186065Y197774D01*
X187326Y196697D01*
X188567Y195599D01*
X189790Y194479D01*
X190993Y193337D01*
X192175Y192175D01*
X193337Y190993D01*
X193738Y190571D01*
Y132913D01*
X192512Y132817D01*
X191304Y132527D01*
X190157Y132052D01*
X189098Y131403D01*
X188154Y130596D01*
X187347Y129652D01*
X186698Y128593D01*
X186223Y127446D01*
X185933Y126238D01*
X185836Y125000D01*
X185933Y123762D01*
X186223Y122554D01*
X186698Y121407D01*
X187347Y120348D01*
X188154Y119404D01*
X189098Y118597D01*
X190157Y117948D01*
X191304Y117473D01*
X192512Y117183D01*
X193738Y117087D01*
Y59429D01*
G37*
G36*
X180744Y48074D02*X179490Y47181D01*
X178123Y46241D01*
X176741Y45326D01*
X175342Y44435D01*
X173929Y43569D01*
X172500Y42728D01*
X171057Y41911D01*
X170992Y41875D01*
Y165484D01*
X171000Y165483D01*
X171863Y165551D01*
X172705Y165753D01*
X173505Y166084D01*
X174243Y166537D01*
X174901Y167099D01*
X175463Y167757D01*
X175916Y168495D01*
X176247Y169295D01*
X176449Y170137D01*
X176500Y171000D01*
X176449Y171863D01*
X176247Y172705D01*
X175916Y173505D01*
X175463Y174243D01*
X174901Y174901D01*
X174243Y175463D01*
X173505Y175916D01*
X172705Y176247D01*
X171863Y176449D01*
X171000Y176517D01*
X170992Y176516D01*
Y208125D01*
X171057Y208089D01*
X172500Y207272D01*
X173929Y206431D01*
X175342Y205565D01*
X176741Y204674D01*
X178123Y203759D01*
X179490Y202819D01*
X180744Y201926D01*
Y166750D01*
X176508Y166742D01*
X176279Y166687D01*
X176061Y166597D01*
X175859Y166474D01*
X175680Y166320D01*
X175526Y166141D01*
X175403Y165939D01*
X175313Y165721D01*
X175258Y165492D01*
X175244Y165256D01*
X175258Y157021D01*
X175313Y156791D01*
X175403Y156573D01*
X175526Y156372D01*
X175680Y156192D01*
X175859Y156039D01*
X176061Y155916D01*
X176279Y155825D01*
X176508Y155770D01*
X176744Y155756D01*
X180744Y155763D01*
Y48074D01*
G37*
G36*
X170992Y41875D02*X169600Y41120D01*
X168129Y40354D01*
X166645Y39615D01*
X165149Y38901D01*
X163640Y38213D01*
X162119Y37552D01*
X161248Y37191D01*
Y175227D01*
X161257Y175226D01*
X162120Y175294D01*
X162962Y175496D01*
X163761Y175828D01*
X164499Y176280D01*
X165158Y176842D01*
X165720Y177501D01*
X166172Y178239D01*
X166504Y179038D01*
X166706Y179880D01*
X166757Y180743D01*
X166706Y181606D01*
X166504Y182448D01*
X166172Y183248D01*
X165720Y183986D01*
X165158Y184644D01*
X164499Y185207D01*
X163761Y185659D01*
X162962Y185990D01*
X162120Y186192D01*
X161257Y186260D01*
X161248Y186260D01*
Y212809D01*
X162119Y212448D01*
X163640Y211787D01*
X165149Y211099D01*
X166645Y210385D01*
X168129Y209646D01*
X169600Y208880D01*
X170992Y208125D01*
Y176516D01*
X170137Y176449D01*
X169295Y176247D01*
X168495Y175916D01*
X167757Y175463D01*
X167099Y174901D01*
X166537Y174243D01*
X166084Y173505D01*
X165753Y172705D01*
X165551Y171863D01*
X165483Y171000D01*
X165551Y170137D01*
X165753Y169295D01*
X166084Y168495D01*
X166537Y167757D01*
X167099Y167099D01*
X167757Y166537D01*
X168495Y166084D01*
X169295Y165753D01*
X170137Y165551D01*
X170992Y165484D01*
Y41875D01*
G37*
G36*
X161248Y37191D02*X160588Y36918D01*
X159045Y36310D01*
X157492Y35729D01*
X155929Y35176D01*
X154357Y34650D01*
X152775Y34151D01*
X151186Y33680D01*
X149588Y33237D01*
X147983Y32822D01*
X146370Y32435D01*
X144752Y32076D01*
X143127Y31745D01*
X141497Y31443D01*
X139861Y31170D01*
X138221Y30925D01*
X136578Y30708D01*
X134930Y30520D01*
X133280Y30362D01*
X132997Y30339D01*
Y93497D01*
X135074Y93995D01*
X139800Y95953D01*
X144162Y98626D01*
X148052Y101948D01*
X151374Y105838D01*
X154047Y110200D01*
X156005Y114926D01*
X157199Y119900D01*
X157500Y125000D01*
X157199Y130100D01*
X156005Y135074D01*
X154047Y139800D01*
X151374Y144162D01*
X148052Y148052D01*
X144162Y151374D01*
X139800Y154047D01*
X135074Y156005D01*
X132997Y156503D01*
Y192793D01*
X133000Y192793D01*
X133345Y192820D01*
X133682Y192901D01*
X134002Y193034D01*
X134297Y193215D01*
X134560Y193440D01*
X134785Y193703D01*
X134966Y193998D01*
X135099Y194318D01*
X135180Y194655D01*
X135200Y195000D01*
X135180Y195345D01*
X135099Y195682D01*
X134966Y196002D01*
X134785Y196297D01*
X134560Y196560D01*
X134297Y196785D01*
X134002Y196966D01*
X133682Y197099D01*
X133345Y197180D01*
X133000Y197207D01*
X132997Y197207D01*
Y208743D01*
X133000Y208743D01*
X133353Y208771D01*
X133697Y208854D01*
X134025Y208989D01*
X134327Y209174D01*
X134596Y209404D01*
X134826Y209673D01*
X135011Y209975D01*
X135146Y210303D01*
X135229Y210647D01*
X135250Y211000D01*
X135229Y211353D01*
X135146Y211697D01*
X135011Y212025D01*
X134826Y212327D01*
X134596Y212596D01*
X134327Y212826D01*
X134025Y213011D01*
X133697Y213146D01*
X133353Y213229D01*
X133000Y213257D01*
X132997Y213257D01*
Y219660D01*
X133280Y219638D01*
X134930Y219480D01*
X136578Y219292D01*
X138221Y219075D01*
X139861Y218830D01*
X141497Y218557D01*
X143127Y218255D01*
X144752Y217924D01*
X146370Y217565D01*
X147983Y217178D01*
X149588Y216763D01*
X151186Y216320D01*
X152775Y215849D01*
X154357Y215350D01*
X155929Y214824D01*
X157492Y214271D01*
X159045Y213690D01*
X160588Y213082D01*
X161248Y212809D01*
Y186260D01*
X160394Y186192D01*
X159552Y185990D01*
X158752Y185659D01*
X158014Y185207D01*
X157356Y184644D01*
X156793Y183986D01*
X156341Y183248D01*
X156010Y182448D01*
X155808Y181606D01*
X155740Y180743D01*
X155808Y179880D01*
X156010Y179038D01*
X156341Y178239D01*
X156793Y177501D01*
X157356Y176842D01*
X158014Y176280D01*
X158752Y175828D01*
X159552Y175496D01*
X160394Y175294D01*
X161248Y175227D01*
Y37191D01*
G37*
G36*
X132997Y156503D02*X130100Y157199D01*
X125000Y157600D01*
X119900Y157199D01*
X116997Y156502D01*
Y192743D01*
X117000Y192743D01*
X117353Y192771D01*
X117697Y192854D01*
X118025Y192989D01*
X118327Y193174D01*
X118596Y193404D01*
X118826Y193673D01*
X119011Y193975D01*
X119146Y194303D01*
X119229Y194647D01*
X119250Y195000D01*
X119229Y195353D01*
X119146Y195697D01*
X119011Y196025D01*
X118826Y196327D01*
X118596Y196596D01*
X118327Y196826D01*
X118025Y197011D01*
X117697Y197146D01*
X117353Y197229D01*
X117000Y197257D01*
X116997Y197257D01*
Y199856D01*
X117056Y199953D01*
X117194Y200287D01*
X117279Y200639D01*
X117300Y201000D01*
X117279Y201361D01*
X117194Y201713D01*
X117056Y202047D01*
X116997Y202144D01*
Y208793D01*
X117000Y208793D01*
X117345Y208820D01*
X117682Y208901D01*
X118002Y209034D01*
X118297Y209215D01*
X118560Y209440D01*
X118785Y209703D01*
X118966Y209998D01*
X119099Y210318D01*
X119180Y210655D01*
X119200Y211000D01*
X119180Y211345D01*
X119099Y211682D01*
X118966Y212002D01*
X118785Y212297D01*
X118560Y212560D01*
X118297Y212785D01*
X118002Y212966D01*
X117682Y213099D01*
X117345Y213180D01*
X117000Y213207D01*
X116997Y213207D01*
Y219660D01*
X118373Y219769D01*
X120028Y219870D01*
X121685Y219942D01*
X123342Y219986D01*
X125000Y220000D01*
X126658Y219986D01*
X128315Y219942D01*
X129972Y219870D01*
X131627Y219769D01*
X132997Y219660D01*
Y213257D01*
X132647Y213229D01*
X132303Y213146D01*
X131975Y213011D01*
X131673Y212826D01*
X131404Y212596D01*
X131174Y212327D01*
X130989Y212025D01*
X130854Y211697D01*
X130771Y211353D01*
X130743Y211000D01*
X130771Y210647D01*
X130854Y210303D01*
X130989Y209975D01*
X131174Y209673D01*
X131404Y209404D01*
X131673Y209174D01*
X131975Y208989D01*
X132303Y208854D01*
X132647Y208771D01*
X132997Y208743D01*
Y197207D01*
X132655Y197180D01*
X132318Y197099D01*
X131998Y196966D01*
X131703Y196785D01*
X131440Y196560D01*
X131215Y196297D01*
X131034Y196002D01*
X130901Y195682D01*
X130820Y195345D01*
X130793Y195000D01*
X130820Y194655D01*
X130901Y194318D01*
X131034Y193998D01*
X131215Y193703D01*
X131440Y193440D01*
X131703Y193215D01*
X131998Y193034D01*
X132318Y192901D01*
X132655Y192820D01*
X132997Y192793D01*
Y156503D01*
G37*
G36*
Y30339D02*X131627Y30231D01*
X129972Y30130D01*
X128315Y30058D01*
X126658Y30014D01*
X125000Y30000D01*
X123342Y30014D01*
X121685Y30058D01*
X120028Y30130D01*
X118373Y30231D01*
X116997Y30340D01*
Y93498D01*
X119900Y92801D01*
X125000Y92400D01*
X130100Y92801D01*
X132997Y93497D01*
Y30339D01*
G37*
G36*
X116997Y202144D02*X116866Y202356D01*
X116631Y202631D01*
X116356Y202866D01*
X116047Y203056D01*
X115713Y203194D01*
X115361Y203279D01*
X115000Y203307D01*
X114639Y203279D01*
X114287Y203194D01*
X113953Y203056D01*
X113746Y202929D01*
Y219329D01*
X115070Y219480D01*
X116720Y219638D01*
X116997Y219660D01*
Y213207D01*
X116655Y213180D01*
X116318Y213099D01*
X115998Y212966D01*
X115703Y212785D01*
X115440Y212560D01*
X115215Y212297D01*
X115034Y212002D01*
X114901Y211682D01*
X114820Y211345D01*
X114793Y211000D01*
X114820Y210655D01*
X114901Y210318D01*
X115034Y209998D01*
X115215Y209703D01*
X115440Y209440D01*
X115703Y209215D01*
X115998Y209034D01*
X116318Y208901D01*
X116655Y208820D01*
X116997Y208793D01*
Y202144D01*
G37*
G36*
Y156502D02*X114926Y156005D01*
X113746Y155516D01*
Y179066D01*
X113856Y179134D01*
X114131Y179369D01*
X114366Y179644D01*
X114556Y179953D01*
X114694Y180287D01*
X114779Y180639D01*
X114800Y181000D01*
X114779Y181361D01*
X114694Y181713D01*
X114556Y182047D01*
X114500Y182138D01*
Y197801D01*
X115438Y198740D01*
X115713Y198806D01*
X116047Y198944D01*
X116356Y199134D01*
X116631Y199369D01*
X116866Y199644D01*
X116997Y199856D01*
Y197257D01*
X116647Y197229D01*
X116303Y197146D01*
X115975Y197011D01*
X115673Y196826D01*
X115404Y196596D01*
X115174Y196327D01*
X114989Y196025D01*
X114854Y195697D01*
X114771Y195353D01*
X114743Y195000D01*
X114771Y194647D01*
X114854Y194303D01*
X114989Y193975D01*
X115174Y193673D01*
X115404Y193404D01*
X115673Y193174D01*
X115975Y192989D01*
X116303Y192854D01*
X116647Y192771D01*
X116997Y192743D01*
Y156502D01*
G37*
G36*
Y30340D02*X116720Y30362D01*
X115070Y30520D01*
X113746Y30671D01*
Y94484D01*
X114926Y93995D01*
X116997Y93498D01*
Y30340D01*
G37*
G36*
X113746Y30671D02*X113422Y30708D01*
X111779Y30925D01*
X110139Y31170D01*
X108503Y31443D01*
X106873Y31745D01*
X105248Y32076D01*
X103630Y32435D01*
X102017Y32822D01*
X100412Y33237D01*
X98814Y33680D01*
X97225Y34151D01*
X95643Y34650D01*
X94071Y35176D01*
X92508Y35729D01*
X90955Y36310D01*
X89412Y36918D01*
X87881Y37552D01*
X86360Y38213D01*
X84851Y38901D01*
X83355Y39615D01*
X81871Y40354D01*
X80400Y41120D01*
X78943Y41911D01*
X77500Y42728D01*
X76071Y43569D01*
X74658Y44435D01*
X73259Y45326D01*
X71877Y46241D01*
X70510Y47181D01*
X69160Y48143D01*
X67828Y49130D01*
X66512Y50139D01*
X65215Y51171D01*
X63935Y52226D01*
X62674Y53303D01*
X61433Y54401D01*
X60210Y55521D01*
X59007Y56663D01*
X57825Y57825D01*
X56663Y59007D01*
X56238Y59455D01*
Y117087D01*
X56250Y117086D01*
X57488Y117183D01*
X58696Y117473D01*
X59843Y117948D01*
X60902Y118597D01*
X61846Y119404D01*
X62653Y120348D01*
X63302Y121407D01*
X63777Y122554D01*
X64067Y123762D01*
X64140Y125000D01*
X64067Y126238D01*
X63777Y127446D01*
X63302Y128593D01*
X62653Y129652D01*
X61846Y130596D01*
X60902Y131403D01*
X59843Y132052D01*
X58696Y132527D01*
X57488Y132817D01*
X56250Y132914D01*
X56238Y132913D01*
Y190545D01*
X56663Y190993D01*
X57825Y192175D01*
X59007Y193337D01*
X60210Y194479D01*
X61433Y195599D01*
X62674Y196697D01*
X63935Y197774D01*
X65215Y198829D01*
X66512Y199861D01*
X67828Y200870D01*
X69160Y201857D01*
X70510Y202819D01*
X71877Y203759D01*
X73259Y204674D01*
X74658Y205565D01*
X76071Y206431D01*
X77500Y207272D01*
X78943Y208089D01*
X80400Y208880D01*
X81871Y209646D01*
X83355Y210385D01*
X84851Y211099D01*
X86360Y211787D01*
X87881Y212448D01*
X89412Y213082D01*
X90955Y213690D01*
X92508Y214271D01*
X94071Y214824D01*
X95643Y215350D01*
X97225Y215849D01*
X98814Y216320D01*
X100412Y216763D01*
X102017Y217178D01*
X103630Y217565D01*
X105248Y217924D01*
X106873Y218255D01*
X108503Y218557D01*
X110139Y218830D01*
X111779Y219075D01*
X113422Y219292D01*
X113746Y219329D01*
Y202929D01*
X113644Y202866D01*
X113369Y202631D01*
X113134Y202356D01*
X112944Y202047D01*
X112842Y201800D01*
X111141Y200100D01*
X111081Y200048D01*
X110877Y199809D01*
X110712Y199541D01*
X110592Y199250D01*
X110519Y198944D01*
X110494Y198630D01*
X110500Y198552D01*
Y182138D01*
X110444Y182047D01*
X110306Y181713D01*
X110221Y181361D01*
X110193Y181000D01*
X110221Y180639D01*
X110306Y180287D01*
X110444Y179953D01*
X110634Y179644D01*
X110869Y179369D01*
X111144Y179134D01*
X111453Y178944D01*
X111787Y178806D01*
X112139Y178721D01*
X112500Y178693D01*
X112861Y178721D01*
X113213Y178806D01*
X113547Y178944D01*
X113746Y179066D01*
Y155516D01*
X110200Y154047D01*
X105838Y151374D01*
X101948Y148052D01*
X98626Y144162D01*
X95953Y139800D01*
X93995Y135074D01*
X92801Y130100D01*
X92400Y125000D01*
X92801Y119900D01*
X93995Y114926D01*
X95953Y110200D01*
X98626Y105838D01*
X101948Y101948D01*
X105838Y98626D01*
X110200Y95953D01*
X113746Y94484D01*
Y30671D01*
G37*
G36*
X56238Y59455D02*X55521Y60210D01*
X54401Y61433D01*
X53303Y62674D01*
X52226Y63935D01*
X51171Y65215D01*
X50139Y66512D01*
X49130Y67828D01*
X48143Y69160D01*
X47181Y70510D01*
X46241Y71877D01*
X45326Y73259D01*
X44435Y74658D01*
X43569Y76071D01*
X42728Y77500D01*
X41911Y78943D01*
X41120Y80400D01*
X40354Y81871D01*
X39615Y83355D01*
X38901Y84851D01*
X38213Y86360D01*
X37552Y87881D01*
X36918Y89412D01*
X36310Y90955D01*
X35729Y92508D01*
X35176Y94071D01*
X34650Y95643D01*
X34151Y97225D01*
X33680Y98814D01*
X33237Y100412D01*
X32822Y102017D01*
X32435Y103630D01*
X32076Y105248D01*
X31745Y106873D01*
X31443Y108503D01*
X31170Y110139D01*
X30925Y111779D01*
X30708Y113422D01*
X30520Y115070D01*
X30362Y116720D01*
X30231Y118373D01*
X30130Y120028D01*
X30058Y121685D01*
X30014Y123342D01*
X30000Y125000D01*
X30014Y126658D01*
X30058Y128315D01*
X30130Y129972D01*
X30231Y131627D01*
X30362Y133280D01*
X30520Y134930D01*
X30708Y136578D01*
X30925Y138221D01*
X31170Y139861D01*
X31443Y141497D01*
X31745Y143127D01*
X32076Y144752D01*
X32435Y146370D01*
X32822Y147983D01*
X33237Y149588D01*
X33680Y151186D01*
X34151Y152775D01*
X34650Y154357D01*
X35176Y155929D01*
X35729Y157492D01*
X36310Y159045D01*
X36918Y160588D01*
X37552Y162119D01*
X38213Y163640D01*
X38901Y165149D01*
X39615Y166645D01*
X40354Y168129D01*
X41120Y169600D01*
X41911Y171057D01*
X42728Y172500D01*
X43569Y173929D01*
X44435Y175342D01*
X45326Y176741D01*
X46241Y178123D01*
X47181Y179490D01*
X48143Y180840D01*
X49130Y182172D01*
X50139Y183488D01*
X51171Y184785D01*
X52226Y186065D01*
X53303Y187326D01*
X54401Y188567D01*
X55521Y189790D01*
X56238Y190545D01*
Y132913D01*
X55012Y132817D01*
X53804Y132527D01*
X52657Y132052D01*
X51598Y131403D01*
X50654Y130596D01*
X49847Y129652D01*
X49198Y128593D01*
X48723Y127446D01*
X48433Y126238D01*
X48336Y125000D01*
X48433Y123762D01*
X48723Y122554D01*
X49198Y121407D01*
X49847Y120348D01*
X50654Y119404D01*
X51598Y118597D01*
X52657Y117948D01*
X53804Y117473D01*
X55012Y117183D01*
X56238Y117087D01*
Y59455D01*
G37*
G54D24*X115000Y201130D02*X112500Y198630D01*
Y181000D01*
G54D23*G36*
X176744Y165256D02*Y157256D01*
X184744D01*
Y165256D01*
X176744D01*
G37*
G54D25*X171000Y171000D03*
X161257Y180743D03*
G54D26*X112500Y181000D03*
X115000Y201000D03*
G54D27*G54D28*G54D29*G54D30*G54D27*G54D31*G54D28*G54D29*G54D32*G54D33*G54D32*M02*
