G04 start of page 10 for group -4078 idx -4078 *
G04 Title: (unknown), bottomsilk *
G04 Creator: pcb 4.0.2 *
G04 CreationDate: Thu Apr 29 14:29:52 2021 UTC *
G04 For: petersen *
G04 Format: Gerber/RS-274X *
G04 PCB-Dimensions (mil): 4500.00 2500.00 *
G04 PCB-Coordinate-Origin: lower left *
%MOIN*%
%FSLAX25Y25*%
%LNBOTTOMSILK*%
%ADD61C,0.0070*%
%ADD60C,0.0100*%
%ADD59C,0.0001*%
G54D59*G36*
X85286Y138613D02*Y138548D01*
X85026Y138537D01*
X84760Y138597D01*
X84413Y138977D01*
X84380Y139492D01*
X84510Y139725D01*
X84689Y139894D01*
X84755Y139926D01*
Y146757D01*
X83843Y147907D01*
Y150245D01*
X81027D01*
Y149307D01*
X82433Y147527D01*
X83843Y145748D01*
Y141174D01*
X82487Y139818D01*
X79096D01*
Y144706D01*
X78998Y144776D01*
X78700Y145286D01*
X78857Y145851D01*
X79459Y146122D01*
X80035Y145813D01*
X80170Y145297D01*
X79926Y144831D01*
X79801Y144738D01*
X79796Y144576D01*
X79790Y144120D01*
Y143447D01*
X79785Y142623D01*
Y140501D01*
X82205D01*
X83181Y141478D01*
Y145487D01*
X81760Y147272D01*
X80344Y149062D01*
Y149654D01*
X80338Y150240D01*
X79427D01*
Y151026D01*
X80338D01*
Y152399D01*
X79427D01*
Y153159D01*
X80338D01*
Y154553D01*
X79427D01*
Y155312D01*
X80338D01*
Y156685D01*
X79427D01*
Y157445D01*
X80338D01*
Y158839D01*
X79427D01*
Y159598D01*
X80338D01*
Y160998D01*
X79427D01*
Y161758D01*
X80338D01*
Y163000D01*
X81027D01*
Y161758D01*
X83843D01*
Y163000D01*
X84500D01*
Y161758D01*
X85411D01*
Y160998D01*
X84510D01*
X83827Y161052D01*
X81038D01*
X81033Y160363D01*
X81022Y159669D01*
X82422D01*
X83105Y159674D01*
X83539Y159680D01*
X83762Y159691D01*
X83827Y159701D01*
X83838Y159919D01*
X83832Y160396D01*
X83827Y161052D01*
X84510Y160998D01*
Y159626D01*
X85411D01*
Y158866D01*
X84500D01*
X83843Y158909D01*
X81022D01*
X81033Y158220D01*
Y158204D01*
X81038Y157515D01*
X82422D01*
X83409Y157521D01*
X83821Y157531D01*
X83838Y157748D01*
X83843Y158231D01*
Y158909D01*
X84500Y158866D01*
X84510Y157488D01*
X85411D01*
Y156728D01*
X84500D01*
Y155356D01*
X83843Y155383D01*
Y156756D01*
X81027D01*
Y155383D01*
X83843D01*
X84500Y155356D01*
X85411D01*
Y154596D01*
X84510D01*
X83827Y154623D01*
X81027D01*
Y153240D01*
X82422D01*
X83105Y153245D01*
X83539Y153251D01*
X83762Y153262D01*
X83827Y153272D01*
X83838Y153490D01*
X83832Y153961D01*
X83827Y154623D01*
X84510Y154596D01*
Y153229D01*
X85411D01*
Y152470D01*
X84500D01*
Y151097D01*
X83843D01*
Y152470D01*
X81027D01*
Y151097D01*
X85411D01*
Y150310D01*
X84500D01*
Y148243D01*
X84972Y147652D01*
X85438Y147060D01*
Y144755D01*
X87087D01*
Y145531D01*
X86990Y145601D01*
X86751Y145910D01*
X86697Y146285D01*
X86816Y146605D01*
X87039Y146827D01*
X87332Y146930D01*
X87668Y146898D01*
X87956Y146719D01*
X88140Y146431D01*
X88151Y145997D01*
X88042Y145780D01*
X87874Y145601D01*
X87776Y145531D01*
X87771Y144804D01*
Y144071D01*
X85438D01*
Y142574D01*
X86105Y142579D01*
X86773D01*
X86838Y142677D01*
X87147Y142916D01*
X87527Y142970D01*
X87842Y142850D01*
X88059Y142628D01*
X88167Y142335D01*
X88140Y142004D01*
X87956Y141711D01*
X87657Y141521D01*
X87229D01*
X86876Y141744D01*
X86784Y141868D01*
X86588Y141885D01*
X86111Y141890D01*
X85438D01*
Y140008D01*
X85568Y139894D01*
X85764Y139644D01*
X85818Y139329D01*
X85682Y138884D01*
X85286Y138613D01*
G37*
G36*
X69444Y139633D02*Y139639D01*
X68072Y139644D01*
X66694Y139818D01*
X65229Y140263D01*
X63959Y140941D01*
X62917Y141852D01*
X62120Y142970D01*
X61610Y144234D01*
X61355Y145634D01*
X61361Y147066D01*
X61637Y148438D01*
X62125Y149578D01*
X62852Y150630D01*
X63818Y151618D01*
X65044Y152546D01*
X65522Y152855D01*
X66081Y153186D01*
X66764Y153571D01*
X67632Y154043D01*
X68403Y154466D01*
X68978Y154792D01*
X69417Y155068D01*
X69770Y155312D01*
X70497Y155980D01*
X70844Y156631D01*
X70882Y157043D01*
X70844Y157526D01*
X70660Y158123D01*
X70323Y158584D01*
X69466Y159056D01*
X68815Y159105D01*
X68180Y159040D01*
X67231Y158508D01*
X66471Y157439D01*
X66211Y156864D01*
X65983Y156262D01*
X65907Y156061D01*
X65728Y156105D01*
X65250Y156235D01*
X64545Y156436D01*
X63682Y156680D01*
X61480Y157320D01*
X61540Y157575D01*
X62033Y159078D01*
X62760Y160380D01*
X63699Y161465D01*
X64838Y162311D01*
X65977Y162837D01*
X67252Y163163D01*
X68636Y163288D01*
X70095Y163206D01*
X71967Y162767D01*
X73497Y161942D01*
X74658Y160759D01*
X75418Y159235D01*
X75711Y158036D01*
X75803Y156750D01*
X75673Y155437D01*
X75255Y154254D01*
X74718Y153370D01*
X73969Y152529D01*
X73312Y151949D01*
X72537Y151384D01*
X71522Y150755D01*
X70144Y149979D01*
X69450Y149600D01*
X68934Y149307D01*
X68527Y149062D01*
X68164Y148829D01*
X66905Y147782D01*
X66308Y146713D01*
X65706Y146887D01*
X66390Y148151D01*
X67822Y149361D01*
X68196Y149600D01*
X68620Y149855D01*
X69162Y150164D01*
X69889Y150565D01*
X70974Y151173D01*
X71777Y151650D01*
X72407Y152063D01*
X72949Y152470D01*
X73812Y153262D01*
X74452Y154103D01*
X74891Y155009D01*
X75130Y155991D01*
X75168Y156701D01*
X75141Y157477D01*
X74940Y158627D01*
X74571Y159653D01*
X74029Y160537D01*
X73329Y161264D01*
X71929Y162100D01*
X70182Y162561D01*
X68261Y162647D01*
X66504Y162344D01*
X65250Y161817D01*
X64176Y161042D01*
X63286Y160038D01*
X62608Y158823D01*
X62489Y158508D01*
X62364Y158166D01*
X62277Y157889D01*
X62250Y157765D01*
X62391Y157721D01*
X62749Y157618D01*
X63248Y157466D01*
X63824Y157298D01*
X64410Y157130D01*
X64920Y156978D01*
X65299Y156875D01*
X65462Y156826D01*
X65522Y156870D01*
X65608Y157070D01*
X66102Y158090D01*
X66677Y158855D01*
X67345Y159381D01*
X68115Y159674D01*
X68690Y159740D01*
X69271Y159723D01*
X70226Y159441D01*
X70931Y158877D01*
X71365Y158063D01*
X71511Y157021D01*
X71343Y156153D01*
X70795Y155367D01*
X70366Y154965D01*
X69813Y154564D01*
X69021Y154086D01*
X67876Y153451D01*
X66384Y152621D01*
X65310Y151960D01*
X64502Y151363D01*
X63802Y150717D01*
X63118Y149936D01*
X62597Y149117D01*
X62239Y148227D01*
X62012Y147240D01*
X61963Y146306D01*
X62012Y145351D01*
X62169Y144565D01*
X62397Y143870D01*
X62863Y142964D01*
X63466Y142183D01*
X64220Y141527D01*
X65120Y140995D01*
X66281Y140561D01*
X67611Y140306D01*
X68034Y140273D01*
X68582Y140257D01*
X69130D01*
X69526Y140268D01*
X71397Y140686D01*
X72971Y141554D01*
X74257Y142883D01*
X75255Y144662D01*
X75380Y144988D01*
X75526Y145395D01*
X75651Y145764D01*
X75700Y145948D01*
Y145981D01*
X75537Y146030D01*
X75000Y146149D01*
X73850Y146393D01*
X73220Y146529D01*
X72694Y146643D01*
X72336Y146719D01*
X72184Y146746D01*
X72135Y146730D01*
X72086Y146561D01*
X71940Y146057D01*
X71739Y145531D01*
X70947Y144288D01*
X69878Y143463D01*
X68549Y143160D01*
X67513Y143328D01*
X66656Y143789D01*
X66026Y144521D01*
X65668Y145471D01*
X65706Y146887D01*
X66308Y146713D01*
X66254Y146116D01*
X66308Y145487D01*
X66867Y144451D01*
X67887Y143865D01*
X68142Y143822D01*
X68533Y143805D01*
X68929Y143822D01*
X69167Y143865D01*
X69938Y144228D01*
X70584Y144836D01*
X71099Y145661D01*
X71462Y146686D01*
X71544Y147022D01*
X71593Y147272D01*
X71647Y147484D01*
X71848Y147451D01*
X72374Y147348D01*
X73150Y147185D01*
X74083Y146985D01*
X76503Y146469D01*
X76405Y146100D01*
X75759Y144245D01*
X74897Y142682D01*
X73953Y141575D01*
X72846Y140697D01*
X71262Y139975D01*
X69444Y139633D01*
G37*
G36*
X58859Y151439D02*Y139926D01*
X46175D01*
Y144364D01*
X53939D01*
X53933Y146995D01*
X53922Y149627D01*
X48258D01*
Y154037D01*
X53939D01*
Y158557D01*
X46479D01*
Y162968D01*
X58859D01*
Y151439D01*
X58219Y151444D01*
X58208Y162344D01*
X47113D01*
Y159175D01*
X54573D01*
Y153392D01*
X48888D01*
Y150223D01*
X54573D01*
Y143702D01*
X46799D01*
Y140545D01*
X58225D01*
X58219Y151444D01*
X58859Y151439D01*
G37*
G36*
X81722Y141527D02*Y141521D01*
X81179Y141554D01*
X80794Y141928D01*
X80762Y142427D01*
X81022Y142823D01*
X81125Y142894D01*
Y145791D01*
X80214Y146947D01*
X79297Y148102D01*
X78309D01*
X78184Y147966D01*
X77626Y147717D01*
X77240Y147831D01*
X76964Y148118D01*
X76899Y148390D01*
X76915Y148672D01*
X77051Y148916D01*
X77273Y149106D01*
X77425Y149176D01*
X77626Y149182D01*
X77832Y149171D01*
X77984Y149106D01*
X78212Y148911D01*
X78298Y148791D01*
X79628D01*
X80718Y147408D01*
X81814Y146030D01*
Y144456D01*
X81819Y143344D01*
X81830Y142883D01*
X81961Y142791D01*
X82188Y142438D01*
X82183Y142004D01*
X82004Y141716D01*
X81722Y141527D01*
G37*
G36*
X82888Y165686D02*X82449Y165664D01*
X81998Y165686D01*
X81347Y165859D01*
X80745Y166179D01*
X80230Y166624D01*
X79823Y167172D01*
X79557Y167845D01*
X79449Y168572D01*
X79519Y169299D01*
X79752Y169983D01*
X80176Y170601D01*
X80729Y171106D01*
X81673Y171533D01*
X82682Y171620D01*
X83653Y171377D01*
X84500Y170802D01*
X85020Y170151D01*
X85330Y169386D01*
X85411Y168767D01*
X85373Y168127D01*
X85086Y167264D01*
X84538Y166532D01*
X83773Y165973D01*
X82888Y165686D01*
G37*
G54D60*X159000Y75500D02*X83500D01*
G54D61*X157000Y82000D02*X158000D01*
X157500Y78000D02*Y82000D01*
X157000Y78000D02*X158000D01*
X155800Y78500D02*Y79500D01*
X155300Y80000D01*
X154300D02*X155300D01*
X154300D02*X153800Y79500D01*
Y78500D02*Y79500D01*
X154300Y78000D02*X153800Y78500D01*
X154300Y78000D02*X155300D01*
X155800Y78500D02*X155300Y78000D01*
X152600Y78500D02*Y80000D01*
Y78500D02*X152100Y78000D01*
X151600D02*X152100D01*
X151600D02*X151100Y78500D01*
Y80000D01*
Y78500D02*X150600Y78000D01*
X150100D02*X150600D01*
X150100D02*X149600Y78500D01*
Y80000D01*
X146900D02*X146400Y79500D01*
X146900Y80000D02*X147900D01*
X148400Y79500D02*X147900Y80000D01*
X148400Y78500D02*Y79500D01*
Y78500D02*X147900Y78000D01*
X146400Y78500D02*Y80000D01*
Y78500D02*X145900Y78000D01*
X146900D02*X147900D01*
X146900D02*X146400Y78500D01*
X140900Y82000D02*X140400Y81500D01*
X140900Y82000D02*X142400D01*
X142900Y81500D02*X142400Y82000D01*
X142900Y80500D02*Y81500D01*
Y80500D02*X142400Y80000D01*
X140900D02*X142400D01*
X140900D02*X140400Y79500D01*
Y78500D02*Y79500D01*
X140900Y78000D02*X140400Y78500D01*
X140900Y78000D02*X142400D01*
X142900Y78500D02*X142400Y78000D01*
X137200Y80000D02*X138700D01*
X139200Y79500D02*X138700Y80000D01*
X139200Y78500D02*Y79500D01*
Y78500D02*X138700Y78000D01*
X137200D02*X138700D01*
X134500Y80000D02*X134000Y79500D01*
X134500Y80000D02*X135500D01*
X136000Y79500D02*X135500Y80000D01*
X136000Y78500D02*Y79500D01*
Y78500D02*X135500Y78000D01*
X134000Y78500D02*Y80000D01*
Y78500D02*X133500Y78000D01*
X134500D02*X135500D01*
X134500D02*X134000Y78500D01*
X132300D02*Y82000D01*
Y78500D02*X131800Y78000D01*
X128800D02*X130300D01*
X130800Y78500D02*X130300Y78000D01*
X130800Y78500D02*Y79500D01*
X130300Y80000D01*
X129300D02*X130300D01*
X129300D02*X128800Y79500D01*
Y79000D02*X130800D01*
X128800D02*Y79500D01*
X125600Y78000D02*Y82000D01*
X126100Y78000D02*X125600Y78500D01*
X126100Y78000D02*X127100D01*
X127600Y78500D02*X127100Y78000D01*
X127600Y78500D02*Y79500D01*
X127100Y80000D01*
X126100D02*X127100D01*
X126100D02*X125600Y79500D01*
X121100Y80000D02*X122600D01*
X120600Y78000D02*X122600D01*
Y82000D01*
X120600D02*X122600D01*
X118900Y78000D02*Y79500D01*
X118400Y80000D01*
X117900D02*X118400D01*
X117900D02*X117400Y79500D01*
Y78000D02*Y79500D01*
X119400Y80000D02*X118900Y79500D01*
X114700Y80000D02*X114200Y79500D01*
X114700Y80000D02*X115700D01*
X116200Y79500D02*X115700Y80000D01*
X116200Y78500D02*Y79500D01*
Y78500D02*X115700Y78000D01*
X114700D02*X115700D01*
X114700D02*X114200Y78500D01*
X116200Y77000D02*X115700Y76500D01*
X114700D02*X115700D01*
X114700D02*X114200Y77000D01*
Y80000D01*
X113000Y80500D02*Y81000D01*
Y78000D02*Y79500D01*
X111500Y78000D02*Y79500D01*
X111000Y80000D01*
X110500D02*X111000D01*
X110500D02*X110000Y79500D01*
Y78000D02*Y79500D01*
X112000Y80000D02*X111500Y79500D01*
X106800Y78000D02*X108300D01*
X108800Y78500D02*X108300Y78000D01*
X108800Y78500D02*Y79500D01*
X108300Y80000D01*
X107300D02*X108300D01*
X107300D02*X106800Y79500D01*
Y79000D02*X108800D01*
X106800D02*Y79500D01*
X103600Y78000D02*X105100D01*
X105600Y78500D02*X105100Y78000D01*
X105600Y78500D02*Y79500D01*
X105100Y80000D01*
X104100D02*X105100D01*
X104100D02*X103600Y79500D01*
Y79000D02*X105600D01*
X103600D02*Y79500D01*
X101900Y78000D02*Y79500D01*
X101400Y80000D01*
X100400D02*X101400D01*
X102400D02*X101900Y79500D01*
X99200Y80500D02*Y81000D01*
Y78000D02*Y79500D01*
X97700Y78000D02*Y79500D01*
X97200Y80000D01*
X96700D02*X97200D01*
X96700D02*X96200Y79500D01*
Y78000D02*Y79500D01*
X98200Y80000D02*X97700Y79500D01*
X93500Y80000D02*X93000Y79500D01*
X93500Y80000D02*X94500D01*
X95000Y79500D02*X94500Y80000D01*
X95000Y78500D02*Y79500D01*
Y78500D02*X94500Y78000D01*
X93500D02*X94500D01*
X93500D02*X93000Y78500D01*
X95000Y77000D02*X94500Y76500D01*
X93500D02*X94500D01*
X93500D02*X93000Y77000D01*
Y80000D01*
X156000Y62000D02*X157500D01*
X158000Y62500D02*X157500Y62000D01*
X158000Y62500D02*Y65500D01*
X157500Y66000D01*
X156000D02*X157500D01*
X152800Y62000D02*X154300D01*
X154800Y62500D02*X154300Y62000D01*
X154800Y62500D02*Y65500D01*
X154300Y66000D01*
X152800D02*X154300D01*
X147800Y62000D02*X149800D01*
X147800D02*X147300Y62500D01*
Y63500D01*
X147800Y64000D02*X147300Y63500D01*
X147800Y64000D02*X149300D01*
Y62000D02*Y66000D01*
X147800D02*X149800D01*
X147800D02*X147300Y65500D01*
Y64500D02*Y65500D01*
X147800Y64000D02*X147300Y64500D01*
X146100Y65500D02*Y66000D01*
Y65500D02*X145100Y64500D01*
X144100Y65500D01*
Y66000D01*
X145100Y62000D02*Y64500D01*
X140900Y64000D02*X142900D01*
X137700Y66000D02*X137200Y65500D01*
X137700Y66000D02*X139200D01*
X139700Y65500D02*X139200Y66000D01*
X139700Y64500D02*Y65500D01*
Y64500D02*X139200Y64000D01*
X137700D02*X139200D01*
X137700D02*X137200Y63500D01*
Y62500D02*Y63500D01*
X137700Y62000D02*X137200Y62500D01*
X137700Y62000D02*X139200D01*
X139700Y62500D02*X139200Y62000D01*
X136000D02*Y65500D01*
X135500Y66000D01*
X134000D02*X135500D01*
X134000D02*X133500Y65500D01*
Y62000D02*Y65500D01*
Y64000D02*X136000D01*
X130500Y62500D02*X130000Y62000D01*
X130500Y65500D02*X130000Y66000D01*
X130500Y62500D02*Y65500D01*
X126800Y62000D02*X128300D01*
X128800Y62500D02*X128300Y62000D01*
X128800Y62500D02*Y65500D01*
X128300Y66000D01*
X126800D02*X128300D01*
X125600D02*X125100Y65500D01*
Y62500D02*Y65500D01*
X125600Y62000D02*X125100Y62500D01*
X122100Y65500D02*X121600Y66000D01*
X120100D02*X121600D01*
X120100D02*X119600Y65500D01*
Y64500D02*Y65500D01*
X122100Y62000D02*X119600Y64500D01*
Y62000D02*X122100D01*
X118400Y62500D02*X117900Y62000D01*
X118400Y62500D02*Y65500D01*
X117900Y66000D01*
X116900D02*X117900D01*
X116900D02*X116400Y65500D01*
Y62500D02*Y65500D01*
X116900Y62000D02*X116400Y62500D01*
X116900Y62000D02*X117900D01*
X118400Y63000D02*X116400Y65000D01*
X115200Y65500D02*X114700Y66000D01*
X113200D02*X114700D01*
X113200D02*X112700Y65500D01*
Y64500D02*Y65500D01*
X115200Y62000D02*X112700Y64500D01*
Y62000D02*X115200D01*
X110000D02*X111000D01*
X110500D02*Y66000D01*
X111500Y65000D02*X110500Y66000D01*
X158000Y55000D02*Y59000D01*
Y56500D02*X157500Y57000D01*
X156500D02*X157500D01*
X156500D02*X156000Y56500D01*
Y55000D02*Y56500D01*
X154300Y55500D02*Y59000D01*
Y55500D02*X153800Y55000D01*
Y57500D02*X154800D01*
X152300Y55500D02*Y59000D01*
Y55500D02*X151800Y55000D01*
Y57500D02*X152800D01*
X150300Y53500D02*Y56500D01*
X150800Y57000D02*X150300Y56500D01*
X149800Y57000D01*
X148800D02*X149800D01*
X148800D02*X148300Y56500D01*
Y55500D02*Y56500D01*
X148800Y55000D02*X148300Y55500D01*
X148800Y55000D02*X149800D01*
X150300Y55500D02*X149800Y55000D01*
X145100D02*X146600D01*
X145100D02*X144600Y55500D01*
X145100Y56000D02*X144600Y55500D01*
X145100Y56000D02*X146600D01*
X147100Y56500D02*X146600Y56000D01*
X147100Y56500D02*X146600Y57000D01*
X145100D02*X146600D01*
X145100D02*X144600Y56500D01*
X147100Y55500D02*X146600Y55000D01*
X142900Y57500D02*X143400D01*
X142900Y56500D02*X143400D01*
X141700Y55500D02*X138700Y58500D01*
X137500Y55500D02*X134500Y58500D01*
X133300Y55500D02*Y57000D01*
Y55500D02*X132800Y55000D01*
X132300D02*X132800D01*
X132300D02*X131800Y55500D01*
Y57000D01*
Y55500D02*X131300Y55000D01*
X130800D02*X131300D01*
X130800D02*X130300Y55500D01*
Y57000D01*
X129100Y55500D02*Y57000D01*
Y55500D02*X128600Y55000D01*
X128100D02*X128600D01*
X128100D02*X127600Y55500D01*
Y57000D01*
Y55500D02*X127100Y55000D01*
X126600D02*X127100D01*
X126600D02*X126100Y55500D01*
Y57000D01*
X124900Y55500D02*Y57000D01*
Y55500D02*X124400Y55000D01*
X123900D02*X124400D01*
X123900D02*X123400Y55500D01*
Y57000D01*
Y55500D02*X122900Y55000D01*
X122400D02*X122900D01*
X122400D02*X121900Y55500D01*
Y57000D01*
X120200Y55000D02*X120700D01*
X119000Y57500D02*Y58000D01*
Y55000D02*Y56500D01*
X116500Y57000D02*X116000Y56500D01*
X116500Y57000D02*X117500D01*
X118000Y56500D02*X117500Y57000D01*
X118000Y55500D02*Y56500D01*
Y55500D02*X117500Y55000D01*
X116000Y55500D02*Y57000D01*
Y55500D02*X115500Y55000D01*
X116500D02*X117500D01*
X116500D02*X116000Y55500D01*
X112300Y55000D02*X113800D01*
X112300D02*X111800Y55500D01*
X112300Y56000D02*X111800Y55500D01*
X112300Y56000D02*X113800D01*
X114300Y56500D02*X113800Y56000D01*
X114300Y56500D02*X113800Y57000D01*
X112300D02*X113800D01*
X112300D02*X111800Y56500D01*
X114300Y55500D02*X113800Y55000D01*
X108600Y57000D02*X110100D01*
X110600Y56500D02*X110100Y57000D01*
X110600Y55500D02*Y56500D01*
Y55500D02*X110100Y55000D01*
X108600D02*X110100D01*
X105900Y57000D02*X105400Y56500D01*
X105900Y57000D02*X106900D01*
X107400Y56500D02*X106900Y57000D01*
X107400Y55500D02*Y56500D01*
Y55500D02*X106900Y55000D01*
X105400Y55500D02*Y57000D01*
Y55500D02*X104900Y55000D01*
X105900D02*X106900D01*
X105900D02*X105400Y55500D01*
X103700D02*Y59000D01*
Y55500D02*X103200Y55000D01*
X100200D02*X101700D01*
X102200Y55500D02*X101700Y55000D01*
X102200Y55500D02*Y56500D01*
X101700Y57000D01*
X100700D02*X101700D01*
X100700D02*X100200Y56500D01*
Y56000D02*X102200D01*
X100200D02*Y56500D01*
X97000Y55000D02*Y59000D01*
X97500Y55000D02*X97000Y55500D01*
X97500Y55000D02*X98500D01*
X99000Y55500D02*X98500Y55000D01*
X99000Y55500D02*Y56500D01*
X98500Y57000D01*
X97500D02*X98500D01*
X97500D02*X97000Y56500D01*
X95300Y55000D02*X95800D01*
X92100Y57000D02*X93600D01*
X94100Y56500D02*X93600Y57000D01*
X94100Y55500D02*Y56500D01*
Y55500D02*X93600Y55000D01*
X92100D02*X93600D01*
X90900Y55500D02*Y56500D01*
X90400Y57000D01*
X89400D02*X90400D01*
X89400D02*X88900Y56500D01*
Y55500D02*Y56500D01*
X89400Y55000D02*X88900Y55500D01*
X89400Y55000D02*X90400D01*
X90900Y55500D02*X90400Y55000D01*
X87200D02*Y56500D01*
X86700Y57000D01*
X86200D02*X86700D01*
X86200D02*X85700Y56500D01*
Y55000D02*Y56500D01*
X85200Y57000D01*
X84700D02*X85200D01*
X84700D02*X84200Y56500D01*
Y55000D02*Y56500D01*
X87700Y57000D02*X87200Y56500D01*
X156000Y69000D02*X157500D01*
X158000Y69500D02*X157500Y69000D01*
X158000Y69500D02*Y72500D01*
X157500Y73000D01*
X156000D02*X157500D01*
X154800Y69000D02*Y73000D01*
Y71000D02*X152800Y73000D01*
X154800Y71000D02*X152800Y69000D01*
X149600Y73000D02*X151600D01*
X150600Y69000D02*Y73000D01*
X146400Y71000D02*X148400D01*
X143200Y73000D02*X145200D01*
X144200Y69000D02*Y73000D01*
X141000D02*X142000D01*
X141500Y69000D02*Y73000D01*
X141000Y69000D02*X142000D01*
X139800D02*Y73000D01*
X138300Y71500D01*
X136800Y73000D01*
Y69000D02*Y73000D01*
X134100Y71000D02*X135600D01*
X133600Y69000D02*X135600D01*
Y73000D01*
X133600D02*X135600D01*
X132400Y69000D02*Y73000D01*
X130400Y69000D02*X132400D01*
X129200Y69500D02*Y72500D01*
X128700Y73000D01*
X127700D02*X128700D01*
X127700D02*X127200Y72500D01*
Y69500D02*Y72500D01*
X127700Y69000D02*X127200Y69500D01*
X127700Y69000D02*X128700D01*
X129200Y69500D02*X128700Y69000D01*
X124000D02*X125500D01*
X126000Y69500D02*X125500Y69000D01*
X126000Y69500D02*Y72500D01*
X125500Y73000D01*
X124000D02*X125500D01*
X122800Y69000D02*Y73000D01*
Y71000D02*X120800Y73000D01*
X122800Y71000D02*X120800Y69000D01*
X117600Y71000D02*X119600D01*
X114400Y73000D02*X116400D01*
X115400Y69000D02*Y73000D01*
X113200Y69500D02*Y72500D01*
X112700Y73000D01*
X111700D02*X112700D01*
X111700D02*X111200Y72500D01*
Y69500D02*Y72500D01*
X111700Y69000D02*X111200Y69500D01*
X111700Y69000D02*X112700D01*
X113200Y69500D02*X112700Y69000D01*
X108000Y73000D02*X107500Y72500D01*
X108000Y73000D02*X109500D01*
X110000Y72500D02*X109500Y73000D01*
X110000Y69500D02*Y72500D01*
Y69500D02*X109500Y69000D01*
X108000D02*X109500D01*
X108000D02*X107500Y69500D01*
Y70500D01*
X108000Y71000D02*X107500Y70500D01*
X108000Y71000D02*X109000D01*
X102700Y70000D02*Y71000D01*
Y70000D02*X101700Y69000D01*
X100700Y70000D01*
Y71000D01*
X98000Y69000D02*X99000D01*
X98500D02*Y73000D01*
X99500Y72000D02*X98500Y73000D01*
X96300Y69000D02*X96800D01*
X93600D02*X94600D01*
X94100D02*Y73000D01*
X95100Y72000D02*X94100Y73000D01*
M02*
