G04 start of page 7 for group -4063 idx -4063 *
G04 Title: (unknown), componentmask *
G04 Creator: pcb 4.0.2 *
G04 CreationDate: Thu Apr 29 14:29:52 2021 UTC *
G04 For: petersen *
G04 Format: Gerber/RS-274X *
G04 PCB-Dimensions (mil): 4500.00 2500.00 *
G04 PCB-Coordinate-Origin: lower left *
%MOIN*%
%FSLAX25Y25*%
%LNTOPMASK*%
%ADD49C,0.0600*%
%ADD48C,0.0001*%
%ADD47C,0.6360*%
%ADD46C,0.0300*%
%ADD45C,0.0310*%
%ADD44C,0.1438*%
%ADD43C,0.1110*%
%ADD42C,0.0454*%
G54D42*X72081Y95254D03*
X87003Y110175D03*
G54D43*X300000Y143500D03*
Y125000D03*
Y106500D03*
G54D44*X56250Y125000D03*
G54D45*X117000Y195000D03*
G54D46*Y211000D03*
G54D44*X193750Y125000D03*
G54D47*X125000D03*
G54D45*X133000Y211000D03*
G54D46*Y195000D03*
G54D48*G36*
X68277Y109955D02*X63955Y114277D01*
X59628Y109950D01*
X63950Y105628D01*
X68277Y109955D01*
G37*
G36*
X77324Y119003D02*X73003Y123324D01*
X68676Y118997D01*
X72997Y114676D01*
X77324Y119003D01*
G37*
G36*
X64787Y103974D02*X59909Y99095D01*
X66458Y92546D01*
X71336Y97425D01*
X64787Y103974D01*
G37*
G36*
X83161Y122347D02*X78283Y117469D01*
X84831Y110920D01*
X89710Y115798D01*
X83161Y122347D01*
G37*
G36*
X83854Y176592D02*X81759Y174498D01*
X86498Y169759D01*
X88592Y171854D01*
X83854Y176592D01*
G37*
G36*
X81070Y173809D02*X78975Y171714D01*
X83714Y166975D01*
X85809Y169070D01*
X81070Y173809D01*
G37*
G36*
X78286Y171025D02*X76191Y168930D01*
X80930Y164191D01*
X83025Y166286D01*
X78286Y171025D01*
G37*
G36*
X75502Y168241D02*X73408Y166146D01*
X78146Y161408D01*
X80241Y163502D01*
X75502Y168241D01*
G37*
G36*
X77172Y192182D02*X73407Y188418D01*
X78843Y182983D01*
X82607Y186747D01*
X77172Y192182D01*
G37*
G36*
X61582Y176593D02*X57818Y172828D01*
X63253Y167393D01*
X67017Y171157D01*
X61582Y176593D01*
G37*
G54D49*X121600Y181000D03*
G54D48*G36*
X124600Y184000D02*X121600D01*
Y178000D01*
X124600D01*
Y184000D01*
G37*
G54D49*X128400Y181000D03*
G54D48*G36*
Y184000D02*X125400D01*
Y178000D01*
X128400D01*
Y184000D01*
G37*
G54D49*X100100Y181000D03*
G54D48*G36*
X103100Y184000D02*X100100D01*
Y178000D01*
X103100D01*
Y184000D01*
G37*
G54D49*X106900Y181000D03*
G54D48*G36*
Y184000D02*X103900D01*
Y178000D01*
X106900D01*
Y184000D01*
G37*
G36*
X118794Y202611D02*Y199649D01*
X124119D01*
Y202611D01*
X118794D01*
G37*
G36*
Y206351D02*Y203389D01*
X124119D01*
Y206351D01*
X118794D01*
G37*
G36*
X125881Y202611D02*Y199649D01*
X131206D01*
Y202611D01*
X125881D01*
G37*
G36*
Y206351D02*Y203389D01*
X131206D01*
Y206351D01*
X125881D01*
G37*
M02*
