G04 start of page 2 for group 0 idx 0 *
G04 Title: (unknown), component *
G04 Creator: pcb 4.0.2 *
G04 CreationDate: Mon Feb 22 17:58:46 2021 UTC *
G04 For: ndholmes *
G04 Format: Gerber/RS-274X *
G04 PCB-Dimensions (mil): 4500.00 2500.00 *
G04 PCB-Coordinate-Origin: lower left *
%MOIN*%
%FSLAX25Y25*%
%LNTOP*%
%ADD22C,0.0750*%
%ADD21C,0.0276*%
%ADD20C,0.6300*%
%ADD19C,0.0120*%
%ADD18C,0.0240*%
%ADD17C,0.1378*%
%ADD16C,0.0260*%
%ADD15C,0.0600*%
%ADD14C,0.1050*%
%ADD13C,0.0200*%
%ADD12C,0.0250*%
%ADD11C,0.0001*%
G54D11*G36*
X60000Y99000D02*X83500Y122500D01*
X90000Y116000D01*
X66500Y92500D01*
X60000Y99000D01*
G37*
G36*
X48000Y183000D02*X67000Y202000D01*
X71000D01*
X74500Y198500D01*
X51000Y175000D01*
X48000Y178000D01*
Y183000D01*
G37*
G36*
X193738Y190571D02*X194479Y189790D01*
X195599Y188567D01*
X196697Y187326D01*
X197774Y186065D01*
X198829Y184785D01*
X199861Y183488D01*
X200870Y182172D01*
X201857Y180840D01*
X202819Y179490D01*
X203759Y178123D01*
X204674Y176741D01*
X205565Y175342D01*
X206431Y173929D01*
X207272Y172500D01*
X208089Y171057D01*
X208880Y169600D01*
X209646Y168129D01*
X210333Y166750D01*
X193738D01*
Y190571D01*
G37*
G36*
Y157750D02*X214174D01*
X214271Y157492D01*
X214824Y155929D01*
X215350Y154357D01*
X215849Y152775D01*
X216320Y151186D01*
X216763Y149588D01*
X217178Y147983D01*
X217565Y146370D01*
X217924Y144752D01*
X218255Y143127D01*
X218557Y141497D01*
X218830Y139861D01*
X219075Y138221D01*
X219292Y136578D01*
X219480Y134930D01*
X219638Y133280D01*
X219769Y131627D01*
X219870Y129972D01*
X219942Y128315D01*
X219986Y126658D01*
X220000Y125000D01*
X219986Y123342D01*
X219942Y121685D01*
X219870Y120028D01*
X219769Y118373D01*
X219638Y116720D01*
X219480Y115070D01*
X219292Y113422D01*
X219075Y111779D01*
X218830Y110139D01*
X218557Y108503D01*
X218255Y106873D01*
X217924Y105248D01*
X217565Y103630D01*
X217178Y102017D01*
X216763Y100412D01*
X216320Y98814D01*
X215849Y97225D01*
X215350Y95643D01*
X214824Y94071D01*
X214271Y92508D01*
X213690Y90955D01*
X213082Y89412D01*
X212448Y87881D01*
X211787Y86360D01*
X211099Y84851D01*
X210385Y83355D01*
X209646Y81871D01*
X208880Y80400D01*
X208089Y78943D01*
X207272Y77500D01*
X206431Y76071D01*
X205565Y74658D01*
X204674Y73259D01*
X203759Y71877D01*
X202819Y70510D01*
X201857Y69160D01*
X200870Y67828D01*
X199861Y66512D01*
X198829Y65215D01*
X197774Y63935D01*
X196697Y62674D01*
X195599Y61433D01*
X194479Y60210D01*
X193738Y59429D01*
Y117087D01*
X193750Y117086D01*
X194988Y117183D01*
X196196Y117473D01*
X197343Y117948D01*
X198402Y118597D01*
X199346Y119404D01*
X200153Y120348D01*
X200802Y121407D01*
X201277Y122554D01*
X201567Y123762D01*
X201640Y125000D01*
X201567Y126238D01*
X201277Y127446D01*
X200802Y128593D01*
X200153Y129652D01*
X199346Y130596D01*
X198402Y131403D01*
X197343Y132052D01*
X196196Y132527D01*
X194988Y132817D01*
X193750Y132914D01*
X193738Y132913D01*
Y157750D01*
G37*
G36*
X124950Y220000D02*X125000Y220000D01*
X126658Y219986D01*
X128315Y219942D01*
X129972Y219870D01*
X131627Y219769D01*
X133280Y219638D01*
X134930Y219480D01*
X136578Y219292D01*
X138221Y219075D01*
X139861Y218830D01*
X141497Y218557D01*
X143127Y218255D01*
X144752Y217924D01*
X146370Y217565D01*
X147983Y217178D01*
X149588Y216763D01*
X151186Y216320D01*
X152775Y215849D01*
X154357Y215350D01*
X155929Y214824D01*
X157492Y214271D01*
X159045Y213690D01*
X160588Y213082D01*
X162119Y212448D01*
X163640Y211787D01*
X165149Y211099D01*
X166645Y210385D01*
X168129Y209646D01*
X169600Y208880D01*
X171057Y208089D01*
X172500Y207272D01*
X173929Y206431D01*
X175342Y205565D01*
X176741Y204674D01*
X178123Y203759D01*
X179490Y202819D01*
X180840Y201857D01*
X182172Y200870D01*
X183488Y199861D01*
X184785Y198829D01*
X186065Y197774D01*
X187326Y196697D01*
X188567Y195599D01*
X189790Y194479D01*
X190993Y193337D01*
X192175Y192175D01*
X193337Y190993D01*
X193738Y190571D01*
Y166750D01*
X185432D01*
X136153Y216029D01*
X136096Y216096D01*
X135827Y216326D01*
X135827Y216326D01*
X135712Y216396D01*
X135525Y216511D01*
X135293Y216607D01*
X135197Y216646D01*
X134853Y216729D01*
X134500Y216757D01*
X134412Y216750D01*
X124950D01*
Y220000D01*
G37*
G36*
Y171750D02*X136912D01*
X137000Y171743D01*
X137088Y171750D01*
X167568D01*
X180847Y158471D01*
X180904Y158404D01*
X181173Y158174D01*
X181173Y158174D01*
X181361Y158059D01*
X181475Y157989D01*
X181803Y157854D01*
X182147Y157771D01*
X182147D01*
X182500Y157743D01*
X182588Y157750D01*
X193738D01*
Y132913D01*
X192512Y132817D01*
X191304Y132527D01*
X190157Y132052D01*
X189098Y131403D01*
X188154Y130596D01*
X187347Y129652D01*
X186698Y128593D01*
X186223Y127446D01*
X185933Y126238D01*
X185836Y125000D01*
X185933Y123762D01*
X186223Y122554D01*
X186698Y121407D01*
X187347Y120348D01*
X188154Y119404D01*
X189098Y118597D01*
X190157Y117948D01*
X191304Y117473D01*
X192512Y117183D01*
X193738Y117087D01*
Y59429D01*
X193337Y59007D01*
X192175Y57825D01*
X190993Y56663D01*
X189790Y55521D01*
X188567Y54401D01*
X187326Y53303D01*
X186065Y52226D01*
X184785Y51171D01*
X183488Y50139D01*
X182172Y49130D01*
X180840Y48143D01*
X179490Y47181D01*
X178123Y46241D01*
X176741Y45326D01*
X175342Y44435D01*
X173929Y43569D01*
X172500Y42728D01*
X171057Y41911D01*
X169600Y41120D01*
X168129Y40354D01*
X166645Y39615D01*
X165149Y38901D01*
X163640Y38213D01*
X162119Y37552D01*
X160588Y36918D01*
X159045Y36310D01*
X157492Y35729D01*
X155929Y35176D01*
X154357Y34650D01*
X152775Y34151D01*
X151186Y33680D01*
X149588Y33237D01*
X147983Y32822D01*
X146370Y32435D01*
X144752Y32076D01*
X143127Y31745D01*
X141497Y31443D01*
X139861Y31170D01*
X138221Y30925D01*
X136578Y30708D01*
X134930Y30520D01*
X133280Y30362D01*
X131627Y30231D01*
X129972Y30130D01*
X128315Y30058D01*
X126658Y30014D01*
X125000Y30000D01*
X124950Y30000D01*
Y92404D01*
X125000Y92400D01*
X130100Y92801D01*
X135074Y93995D01*
X139800Y95953D01*
X144162Y98626D01*
X148052Y101948D01*
X151374Y105838D01*
X154047Y110200D01*
X156005Y114926D01*
X157199Y119900D01*
X157500Y125000D01*
X157199Y130100D01*
X156005Y135074D01*
X154047Y139800D01*
X151374Y144162D01*
X148052Y148052D01*
X144162Y151374D01*
X139800Y154047D01*
X135074Y156005D01*
X130100Y157199D01*
X125000Y157600D01*
X124950Y157596D01*
Y171750D01*
G37*
G36*
X58992Y108889D02*X63065Y104835D01*
X63267Y104712D01*
X63485Y104621D01*
X63714Y104566D01*
X63950Y104548D01*
X64185Y104566D01*
X64415Y104621D01*
X64633Y104712D01*
X64834Y104835D01*
X65010Y104992D01*
X69070Y109071D01*
X69193Y109272D01*
X69284Y109490D01*
X69339Y109720D01*
X69357Y109955D01*
X69339Y110190D01*
X69284Y110420D01*
X69193Y110638D01*
X69070Y110840D01*
X68913Y111016D01*
X66702Y113216D01*
Y116813D01*
X67939Y118050D01*
X68039Y117937D01*
X72113Y113883D01*
X72314Y113759D01*
X72532Y113669D01*
X72762Y113614D01*
X72997Y113595D01*
X73233Y113614D01*
X73462Y113669D01*
X73680Y113759D01*
X73882Y113883D01*
X74058Y114039D01*
X78117Y118118D01*
X78241Y118320D01*
X78331Y118538D01*
X78386Y118767D01*
X78405Y119003D01*
X78386Y119238D01*
X78331Y119468D01*
X78241Y119686D01*
X78117Y119887D01*
X77961Y120063D01*
X77602Y120420D01*
X81529Y124347D01*
X81596Y124404D01*
X81826Y124673D01*
X81826Y124673D01*
X82011Y124975D01*
X82146Y125303D01*
X82229Y125647D01*
X82257Y126000D01*
X82250Y126088D01*
Y171750D01*
X100012D01*
X100100Y171743D01*
X100188Y171750D01*
X124950D01*
Y157596D01*
X119900Y157199D01*
X114926Y156005D01*
X110200Y154047D01*
X105838Y151374D01*
X101948Y148052D01*
X98626Y144162D01*
X95953Y139800D01*
X93995Y135074D01*
X92801Y130100D01*
X92400Y125000D01*
X92801Y119900D01*
X93995Y114926D01*
X95953Y110200D01*
X98626Y105838D01*
X101948Y101948D01*
X105838Y98626D01*
X110200Y95953D01*
X114926Y93995D01*
X119900Y92801D01*
X124950Y92404D01*
Y30000D01*
X123342Y30014D01*
X121685Y30058D01*
X120028Y30130D01*
X118373Y30231D01*
X116720Y30362D01*
X115070Y30520D01*
X113422Y30708D01*
X111779Y30925D01*
X110139Y31170D01*
X108503Y31443D01*
X106873Y31745D01*
X105248Y32076D01*
X103630Y32435D01*
X102017Y32822D01*
X100412Y33237D01*
X98814Y33680D01*
X97225Y34151D01*
X95643Y34650D01*
X94071Y35176D01*
X92508Y35729D01*
X90955Y36310D01*
X89412Y36918D01*
X87881Y37552D01*
X86360Y38213D01*
X84851Y38901D01*
X83355Y39615D01*
X81871Y40354D01*
X80400Y41120D01*
X78943Y41911D01*
X77500Y42728D01*
X76071Y43569D01*
X74658Y44435D01*
X73259Y45326D01*
X71877Y46241D01*
X70510Y47181D01*
X69160Y48143D01*
X67828Y49130D01*
X66512Y50139D01*
X65215Y51171D01*
X63935Y52226D01*
X62674Y53303D01*
X61433Y54401D01*
X60210Y55521D01*
X59007Y56663D01*
X57825Y57825D01*
X56663Y59007D01*
X55521Y60210D01*
X54401Y61433D01*
X53303Y62674D01*
X52226Y63935D01*
X51171Y65215D01*
X50139Y66512D01*
X49130Y67828D01*
X48143Y69160D01*
X47181Y70510D01*
X46241Y71877D01*
X45326Y73259D01*
X44435Y74658D01*
X43569Y76071D01*
X42728Y77500D01*
X41911Y78943D01*
X41120Y80400D01*
X40354Y81871D01*
X39615Y83355D01*
X38901Y84851D01*
X38213Y86360D01*
X37552Y87881D01*
X36918Y89412D01*
X36310Y90955D01*
X35729Y92508D01*
X35176Y94071D01*
X34650Y95643D01*
X34151Y97225D01*
X33680Y98814D01*
X33237Y100412D01*
X32822Y102017D01*
X32435Y103630D01*
X32076Y105248D01*
X31745Y106873D01*
X31443Y108503D01*
X31170Y110139D01*
X30925Y111779D01*
X30708Y113422D01*
X30520Y115070D01*
X30362Y116720D01*
X30231Y118373D01*
X30130Y120028D01*
X30058Y121685D01*
X30014Y123342D01*
X30000Y125000D01*
X30014Y126658D01*
X30058Y128315D01*
X30130Y129972D01*
X30231Y131627D01*
X30362Y133280D01*
X30520Y134930D01*
X30708Y136578D01*
X30925Y138221D01*
X31170Y139861D01*
X31443Y141497D01*
X31745Y143127D01*
X32076Y144752D01*
X32435Y146370D01*
X32822Y147983D01*
X33237Y149588D01*
X33680Y151186D01*
X34151Y152775D01*
X34650Y154357D01*
X35176Y155929D01*
X35729Y157492D01*
X36310Y159045D01*
X36918Y160588D01*
X37552Y162119D01*
X38213Y163640D01*
X38901Y165149D01*
X39615Y166645D01*
X40354Y168129D01*
X41120Y169600D01*
X41911Y171057D01*
X42728Y172500D01*
X43569Y173929D01*
X44435Y175342D01*
X45326Y176741D01*
X46241Y178123D01*
X47181Y179490D01*
X48143Y180840D01*
X49130Y182172D01*
X50139Y183488D01*
X51171Y184785D01*
X52226Y186065D01*
X53303Y187326D01*
X54401Y188567D01*
X55521Y189790D01*
X56663Y190993D01*
X57825Y192175D01*
X59007Y193337D01*
X60210Y194479D01*
X61433Y195599D01*
X62674Y196697D01*
X63935Y197774D01*
X65215Y198829D01*
X66512Y199861D01*
X67828Y200870D01*
X69160Y201857D01*
X70510Y202819D01*
X71877Y203759D01*
X73259Y204674D01*
X74658Y205565D01*
X76071Y206431D01*
X77500Y207272D01*
X78943Y208089D01*
X80400Y208880D01*
X81871Y209646D01*
X83355Y210385D01*
X84851Y211099D01*
X86360Y211787D01*
X87881Y212448D01*
X89412Y213082D01*
X90955Y213690D01*
X92508Y214271D01*
X94071Y214824D01*
X95643Y215350D01*
X97225Y215849D01*
X98814Y216320D01*
X100412Y216763D01*
X102017Y217178D01*
X103630Y217565D01*
X105248Y217924D01*
X106873Y218255D01*
X108503Y218557D01*
X110139Y218830D01*
X111779Y219075D01*
X113422Y219292D01*
X115070Y219480D01*
X116720Y219638D01*
X118373Y219769D01*
X120028Y219870D01*
X121685Y219942D01*
X123342Y219986D01*
X124950Y220000D01*
Y216750D01*
X115588D01*
X115500Y216757D01*
X115147Y216729D01*
X114803Y216646D01*
X114475Y216511D01*
X114173Y216326D01*
X114173Y216326D01*
X113904Y216096D01*
X113847Y216029D01*
X97068Y199250D01*
X76588D01*
X76500Y199257D01*
X76147Y199229D01*
X75803Y199146D01*
X75475Y199011D01*
X75173Y198826D01*
X75173Y198826D01*
X74904Y198596D01*
X74847Y198529D01*
X61471Y185153D01*
X61404Y185096D01*
X61174Y184827D01*
X60989Y184525D01*
X60854Y184197D01*
X60771Y183853D01*
X60771Y183853D01*
X60743Y183500D01*
X60750Y183412D01*
Y178737D01*
X60743Y178649D01*
X60771Y178295D01*
X60771Y178295D01*
X60771Y178295D01*
X60804Y178157D01*
X60853Y177951D01*
X60854Y177951D01*
X60854Y177951D01*
X60935Y177754D01*
X60989Y177624D01*
X60989Y177624D01*
X60989Y177624D01*
X61087Y177464D01*
X61174Y177322D01*
X61174Y177322D01*
X61174Y177322D01*
X61404Y177053D01*
X61471Y176995D01*
X65233Y173233D01*
X65497Y172998D01*
X65694Y172878D01*
X67557Y171020D01*
X67691Y170938D01*
X67836Y170878D01*
X67990Y170841D01*
X68146Y170829D01*
X68303Y170841D01*
X68456Y170878D01*
X68602Y170938D01*
X68736Y171020D01*
X68854Y171125D01*
X70628Y172912D01*
X70710Y173047D01*
X70771Y173192D01*
X70784Y173250D01*
X71750Y172284D01*
Y129639D01*
X62959Y120848D01*
X63302Y121407D01*
X63777Y122554D01*
X64067Y123762D01*
X64140Y125000D01*
X64067Y126238D01*
X63777Y127446D01*
X63302Y128593D01*
X62653Y129652D01*
X61846Y130596D01*
X60902Y131403D01*
X59843Y132052D01*
X58696Y132527D01*
X57488Y132817D01*
X56250Y132914D01*
X55012Y132817D01*
X53804Y132527D01*
X52657Y132052D01*
X51598Y131403D01*
X50654Y130596D01*
X49847Y129652D01*
X49198Y128593D01*
X48723Y127446D01*
X48433Y126238D01*
X48336Y125000D01*
X48433Y123762D01*
X48723Y122554D01*
X49198Y121407D01*
X49847Y120348D01*
X50654Y119404D01*
X51598Y118597D01*
X52657Y117948D01*
X53804Y117473D01*
X55012Y117183D01*
X56250Y117086D01*
X57488Y117183D01*
X58696Y117473D01*
X59843Y117948D01*
X60902Y118597D01*
X61430Y119048D01*
X61329Y118805D01*
X61228Y118384D01*
X61194Y117952D01*
X61202Y117845D01*
Y113213D01*
X58835Y110834D01*
X58712Y110633D01*
X58621Y110415D01*
X58566Y110185D01*
X58548Y109950D01*
X58566Y109714D01*
X58621Y109485D01*
X58712Y109267D01*
X58835Y109065D01*
X58992Y108889D01*
G37*
G36*
X394986Y123342D02*X394942Y121685D01*
X394870Y120028D01*
X394769Y118373D01*
X394638Y116720D01*
X394480Y115070D01*
X394292Y113422D01*
X394075Y111779D01*
X393830Y110139D01*
X393557Y108503D01*
X393255Y106873D01*
X392924Y105248D01*
X392565Y103630D01*
X392178Y102017D01*
X391763Y100412D01*
X391320Y98814D01*
X390849Y97225D01*
X390350Y95643D01*
X389824Y94071D01*
X389271Y92508D01*
X388690Y90955D01*
X388082Y89412D01*
X387448Y87881D01*
X386787Y86360D01*
X386099Y84851D01*
X385385Y83355D01*
X384646Y81871D01*
X383880Y80400D01*
X383089Y78943D01*
X382272Y77500D01*
X381431Y76071D01*
X380565Y74658D01*
X379674Y73259D01*
X378759Y71877D01*
X377819Y70510D01*
X376857Y69160D01*
X375870Y67828D01*
X374861Y66512D01*
X373829Y65215D01*
X372774Y63935D01*
X371697Y62674D01*
X370599Y61433D01*
X369479Y60210D01*
X368337Y59007D01*
X367175Y57825D01*
X365993Y56663D01*
X364790Y55521D01*
X363567Y54401D01*
X362326Y53303D01*
X361065Y52226D01*
X359785Y51171D01*
X358488Y50139D01*
X357172Y49130D01*
X355840Y48143D01*
X354490Y47181D01*
X353123Y46241D01*
X351741Y45326D01*
X350342Y44435D01*
X348929Y43569D01*
X347500Y42728D01*
X346057Y41911D01*
X344600Y41120D01*
X343129Y40354D01*
X341645Y39615D01*
X340149Y38901D01*
X338640Y38213D01*
X337119Y37552D01*
X335588Y36918D01*
X334045Y36310D01*
X332492Y35729D01*
X330929Y35176D01*
X329357Y34650D01*
X327775Y34151D01*
X326186Y33680D01*
X324588Y33237D01*
X322983Y32822D01*
X321370Y32435D01*
X319752Y32076D01*
X318127Y31745D01*
X316497Y31443D01*
X314861Y31170D01*
X313221Y30925D01*
X311578Y30708D01*
X309930Y30520D01*
X308280Y30362D01*
X306627Y30231D01*
X304972Y30130D01*
X303315Y30058D01*
X301658Y30014D01*
X300000Y30000D01*
X299990Y30000D01*
Y100231D01*
X300000Y100231D01*
X300981Y100308D01*
X301937Y100538D01*
X302846Y100914D01*
X303685Y101428D01*
X304433Y102067D01*
X305072Y102815D01*
X305586Y103654D01*
X305962Y104563D01*
X306192Y105519D01*
X306250Y106500D01*
X306192Y107481D01*
X305962Y108437D01*
X305586Y109346D01*
X305072Y110185D01*
X304433Y110933D01*
X303685Y111572D01*
X302846Y112086D01*
X301937Y112462D01*
X300981Y112692D01*
X300000Y112769D01*
X299990Y112769D01*
Y118731D01*
X300000Y118731D01*
X300981Y118808D01*
X301937Y119038D01*
X302846Y119414D01*
X303685Y119928D01*
X304433Y120567D01*
X305072Y121315D01*
X305586Y122154D01*
X305962Y123063D01*
X306192Y124019D01*
X306250Y125000D01*
X306192Y125981D01*
X305962Y126937D01*
X305586Y127846D01*
X305072Y128685D01*
X304433Y129433D01*
X303685Y130072D01*
X302846Y130586D01*
X301937Y130962D01*
X300981Y131192D01*
X300000Y131269D01*
X299990Y131269D01*
Y137231D01*
X300000Y137231D01*
X300981Y137308D01*
X301937Y137538D01*
X302846Y137914D01*
X303685Y138428D01*
X304433Y139067D01*
X305072Y139815D01*
X305586Y140654D01*
X305962Y141563D01*
X306192Y142519D01*
X306250Y143500D01*
X306192Y144481D01*
X305962Y145437D01*
X305586Y146346D01*
X305072Y147185D01*
X304433Y147933D01*
X303685Y148572D01*
X302846Y149086D01*
X301937Y149462D01*
X300981Y149692D01*
X300000Y149769D01*
X299990Y149769D01*
Y220000D01*
X300000Y220000D01*
X301658Y219986D01*
X303315Y219942D01*
X304972Y219870D01*
X306627Y219769D01*
X308280Y219638D01*
X309930Y219480D01*
X311578Y219292D01*
X313221Y219075D01*
X314861Y218830D01*
X316497Y218557D01*
X318127Y218255D01*
X319752Y217924D01*
X321370Y217565D01*
X322983Y217178D01*
X324588Y216763D01*
X326186Y216320D01*
X327775Y215849D01*
X329357Y215350D01*
X330929Y214824D01*
X332492Y214271D01*
X334045Y213690D01*
X335588Y213082D01*
X337119Y212448D01*
X338640Y211787D01*
X340149Y211099D01*
X341645Y210385D01*
X343129Y209646D01*
X344600Y208880D01*
X346057Y208089D01*
X347500Y207272D01*
X348929Y206431D01*
X350342Y205565D01*
X351741Y204674D01*
X353123Y203759D01*
X354490Y202819D01*
X355840Y201857D01*
X357172Y200870D01*
X358488Y199861D01*
X359785Y198829D01*
X361065Y197774D01*
X362326Y196697D01*
X363567Y195599D01*
X364790Y194479D01*
X365993Y193337D01*
X367175Y192175D01*
X368337Y190993D01*
X369479Y189790D01*
X370599Y188567D01*
X371697Y187326D01*
X372774Y186065D01*
X373829Y184785D01*
X374861Y183488D01*
X375870Y182172D01*
X376857Y180840D01*
X377819Y179490D01*
X378759Y178123D01*
X379674Y176741D01*
X380565Y175342D01*
X381431Y173929D01*
X382272Y172500D01*
X383089Y171057D01*
X383880Y169600D01*
X384646Y168129D01*
X385385Y166645D01*
X386099Y165149D01*
X386787Y163640D01*
X387448Y162119D01*
X388082Y160588D01*
X388690Y159045D01*
X389271Y157492D01*
X389824Y155929D01*
X390350Y154357D01*
X390849Y152775D01*
X391320Y151186D01*
X391763Y149588D01*
X392178Y147983D01*
X392565Y146370D01*
X392924Y144752D01*
X393255Y143127D01*
X393557Y141497D01*
X393830Y139861D01*
X394075Y138221D01*
X394292Y136578D01*
X394480Y134930D01*
X394638Y133280D01*
X394769Y131627D01*
X394870Y129972D01*
X394942Y128315D01*
X394986Y126658D01*
X395000Y125000D01*
X394986Y123342D01*
G37*
G36*
X299990Y149769D02*X299019Y149692D01*
X298063Y149462D01*
X297466Y149215D01*
X280653Y166029D01*
X280596Y166096D01*
X280327Y166326D01*
X280327Y166326D01*
X280212Y166396D01*
X280025Y166511D01*
X279793Y166607D01*
X279697Y166646D01*
X279353Y166729D01*
X279000Y166757D01*
X278912Y166750D01*
X214667D01*
X215354Y168129D01*
X216120Y169600D01*
X216911Y171057D01*
X217728Y172500D01*
X218569Y173929D01*
X219435Y175342D01*
X220326Y176741D01*
X221241Y178123D01*
X222181Y179490D01*
X223143Y180840D01*
X224130Y182172D01*
X225139Y183488D01*
X226171Y184785D01*
X227226Y186065D01*
X228303Y187326D01*
X229401Y188567D01*
X230521Y189790D01*
X231663Y190993D01*
X232825Y192175D01*
X234007Y193337D01*
X235210Y194479D01*
X236433Y195599D01*
X237674Y196697D01*
X238935Y197774D01*
X240215Y198829D01*
X241512Y199861D01*
X242828Y200870D01*
X244160Y201857D01*
X245510Y202819D01*
X246877Y203759D01*
X248259Y204674D01*
X249658Y205565D01*
X251071Y206431D01*
X252500Y207272D01*
X253943Y208089D01*
X255400Y208880D01*
X256871Y209646D01*
X258355Y210385D01*
X259851Y211099D01*
X261360Y211787D01*
X262881Y212448D01*
X264412Y213082D01*
X265955Y213690D01*
X267508Y214271D01*
X269071Y214824D01*
X270643Y215350D01*
X272225Y215849D01*
X273814Y216320D01*
X275412Y216763D01*
X277017Y217178D01*
X278630Y217565D01*
X280248Y217924D01*
X281873Y218255D01*
X283503Y218557D01*
X285139Y218830D01*
X286779Y219075D01*
X288422Y219292D01*
X290070Y219480D01*
X291720Y219638D01*
X293373Y219769D01*
X295028Y219870D01*
X296685Y219942D01*
X298342Y219986D01*
X299990Y220000D01*
Y149769D01*
G37*
G36*
Y131269D02*X299019Y131192D01*
X298063Y130962D01*
X297466Y130715D01*
X266653Y161529D01*
X266596Y161596D01*
X266327Y161826D01*
X266327Y161826D01*
X266212Y161896D01*
X266025Y162011D01*
X265793Y162107D01*
X265697Y162146D01*
X265353Y162229D01*
X265088Y162250D01*
X278068D01*
X294285Y146034D01*
X294038Y145437D01*
X293808Y144481D01*
X293731Y143500D01*
X293808Y142519D01*
X294038Y141563D01*
X294414Y140654D01*
X294928Y139815D01*
X295567Y139067D01*
X296315Y138428D01*
X297154Y137914D01*
X298063Y137538D01*
X299019Y137308D01*
X299990Y137231D01*
Y131269D01*
G37*
G36*
Y30000D02*X298342Y30014D01*
X296685Y30058D01*
X295028Y30130D01*
X293373Y30231D01*
X291720Y30362D01*
X290070Y30520D01*
X288422Y30708D01*
X286779Y30925D01*
X285139Y31170D01*
X283503Y31443D01*
X281873Y31745D01*
X280248Y32076D01*
X278630Y32435D01*
X277017Y32822D01*
X275412Y33237D01*
X273814Y33680D01*
X272225Y34151D01*
X270643Y34650D01*
X269071Y35176D01*
X267508Y35729D01*
X265955Y36310D01*
X264412Y36918D01*
X262881Y37552D01*
X261360Y38213D01*
X259851Y38901D01*
X258355Y39615D01*
X256871Y40354D01*
X255400Y41120D01*
X253943Y41911D01*
X252500Y42728D01*
X251071Y43569D01*
X249658Y44435D01*
X248259Y45326D01*
X246877Y46241D01*
X245510Y47181D01*
X244160Y48143D01*
X242828Y49130D01*
X241512Y50139D01*
X240215Y51171D01*
X238935Y52226D01*
X237674Y53303D01*
X236433Y54401D01*
X235210Y55521D01*
X234007Y56663D01*
X232825Y57825D01*
X231663Y59007D01*
X230521Y60210D01*
X229401Y61433D01*
X228303Y62674D01*
X227226Y63935D01*
X226171Y65215D01*
X225139Y66512D01*
X224130Y67828D01*
X223143Y69160D01*
X222181Y70510D01*
X221241Y71877D01*
X220326Y73259D01*
X219435Y74658D01*
X218569Y76071D01*
X217728Y77500D01*
X216911Y78943D01*
X216120Y80400D01*
X215354Y81871D01*
X214615Y83355D01*
X213901Y84851D01*
X213213Y86360D01*
X212552Y87881D01*
X211918Y89412D01*
X211310Y90955D01*
X210729Y92508D01*
X210176Y94071D01*
X209650Y95643D01*
X209151Y97225D01*
X208680Y98814D01*
X208237Y100412D01*
X207822Y102017D01*
X207435Y103630D01*
X207076Y105248D01*
X206745Y106873D01*
X206443Y108503D01*
X206170Y110139D01*
X205925Y111779D01*
X205708Y113422D01*
X205520Y115070D01*
X205362Y116720D01*
X205231Y118373D01*
X205130Y120028D01*
X205058Y121685D01*
X205014Y123342D01*
X205000Y125000D01*
X205014Y126658D01*
X205058Y128315D01*
X205130Y129972D01*
X205231Y131627D01*
X205362Y133280D01*
X205520Y134930D01*
X205708Y136578D01*
X205925Y138221D01*
X206170Y139861D01*
X206443Y141497D01*
X206745Y143127D01*
X207076Y144752D01*
X207435Y146370D01*
X208237Y149588D01*
X208680Y151186D01*
X209151Y152775D01*
X209650Y154357D01*
X210176Y155929D01*
X210729Y157492D01*
X210826Y157750D01*
X264068D01*
X294285Y127534D01*
X294038Y126937D01*
X293808Y125981D01*
X293731Y125000D01*
X293808Y124019D01*
X294038Y123063D01*
X294414Y122154D01*
X294928Y121315D01*
X295567Y120567D01*
X296315Y119928D01*
X297154Y119414D01*
X298063Y119038D01*
X299019Y118808D01*
X299990Y118731D01*
Y112769D01*
X299019Y112692D01*
X298063Y112462D01*
X297154Y112086D01*
X296315Y111572D01*
X295567Y110933D01*
X294928Y110185D01*
X294414Y109346D01*
X294038Y108437D01*
X293808Y107481D01*
X293731Y106500D01*
X293808Y105519D01*
X294038Y104563D01*
X294414Y103654D01*
X294928Y102815D01*
X295567Y102067D01*
X296315Y101428D01*
X297154Y100914D01*
X298063Y100538D01*
X299019Y100308D01*
X299990Y100231D01*
Y30000D01*
G37*
G36*
X125000Y220000D02*X300000D01*
Y149769D01*
X299019Y149692D01*
X298063Y149462D01*
X297466Y149215D01*
X280653Y166029D01*
X280596Y166096D01*
X280327Y166326D01*
X280327Y166326D01*
X280212Y166396D01*
X280025Y166511D01*
X279793Y166607D01*
X279697Y166646D01*
X279353Y166729D01*
X279000Y166757D01*
X278912Y166750D01*
X185432D01*
X136153Y216029D01*
X136096Y216096D01*
X135827Y216326D01*
X135827Y216326D01*
X135712Y216396D01*
X135525Y216511D01*
X135293Y216607D01*
X135197Y216646D01*
X134853Y216729D01*
X134500Y216757D01*
X134412Y216750D01*
X125000D01*
Y220000D01*
G37*
G36*
X300000Y118731D02*Y112769D01*
X299019Y112692D01*
X298063Y112462D01*
X297154Y112086D01*
X296315Y111572D01*
X295567Y110933D01*
X294928Y110185D01*
X294414Y109346D01*
X294038Y108437D01*
X293808Y107481D01*
X293731Y106500D01*
X293808Y105519D01*
X294038Y104563D01*
X294414Y103654D01*
X294928Y102815D01*
X295567Y102067D01*
X296315Y101428D01*
X297154Y100914D01*
X298063Y100538D01*
X299019Y100308D01*
X300000Y100231D01*
Y30000D01*
X125000D01*
Y92400D01*
X130100Y92801D01*
X135074Y93995D01*
X139800Y95953D01*
X144162Y98626D01*
X148052Y101948D01*
X151374Y105838D01*
X154047Y110200D01*
X156005Y114926D01*
X157199Y119900D01*
X157500Y125000D01*
X185836D01*
X185933Y123762D01*
X186223Y122554D01*
X186698Y121407D01*
X187347Y120348D01*
X188154Y119404D01*
X189098Y118597D01*
X190157Y117948D01*
X191304Y117473D01*
X192512Y117183D01*
X193750Y117086D01*
X194988Y117183D01*
X196196Y117473D01*
X197343Y117948D01*
X198402Y118597D01*
X199346Y119404D01*
X200153Y120348D01*
X200802Y121407D01*
X201277Y122554D01*
X201567Y123762D01*
X201640Y125000D01*
X293731D01*
X293808Y124019D01*
X294038Y123063D01*
X294414Y122154D01*
X294928Y121315D01*
X295567Y120567D01*
X296315Y119928D01*
X297154Y119414D01*
X298063Y119038D01*
X299019Y118808D01*
X300000Y118731D01*
G37*
G54D12*X72392Y180392D02*X69500Y183284D01*
G54D13*X112500Y181000D02*X106900D01*
G54D12*X69500Y183284D02*Y185000D01*
X63000Y183500D02*X76500Y197000D01*
X98000D01*
X69500Y185000D02*X77500Y193000D01*
X100100Y181000D02*Y174000D01*
X98000Y197000D02*X115500Y214500D01*
X101500Y193000D02*X113370Y204870D01*
X121457D01*
G54D13*Y201130D02*X115000D01*
G54D12*X101500Y193000D02*X106000Y188500D01*
X114100D01*
X77500Y193000D02*X101500D01*
X115500Y214500D02*X134500D01*
X137000Y201000D02*Y174000D01*
Y201000D02*X133130Y204870D01*
X128543D01*
G54D13*X128500Y181000D02*Y201130D01*
G54D12*X114100Y188500D02*X121600Y181000D01*
X74000Y128000D02*X63952Y117952D01*
Y109952D01*
X73000Y119000D02*X80000Y126000D01*
X69608Y177608D02*X74000Y173216D01*
Y128000D01*
X80000Y126000D02*Y178352D01*
X75176Y183176D01*
X66824Y174824D02*X63000Y178648D01*
Y183500D01*
X168500Y174000D02*X80000D01*
X279000Y164500D02*X300000Y143500D01*
X279000Y164500D02*X184500D01*
X182500Y160000D02*X265000D01*
X168500Y174000D02*X182500Y160000D01*
X134500Y214500D02*X184500Y164500D01*
X265000Y160000D02*X300000Y125000D01*
G54D14*Y143500D03*
Y125000D03*
Y106500D03*
G54D11*G36*
X67853Y109955D02*X63955Y113853D01*
X60052Y109950D01*
X63950Y106052D01*
X67853Y109955D01*
G37*
G36*
X76900Y119003D02*X73003Y122900D01*
X69100Y118997D01*
X72997Y115100D01*
X76900Y119003D01*
G37*
G36*
X64787Y103549D02*X60333Y99095D01*
X66458Y92971D01*
X70912Y97425D01*
X64787Y103549D01*
G37*
G36*
X83161Y121923D02*X78707Y117469D01*
X84831Y111344D01*
X89286Y115798D01*
X83161Y121923D01*
G37*
G36*
X73854Y186168D02*X72183Y184498D01*
X76498Y180183D01*
X78168Y181854D01*
X73854Y186168D01*
G37*
G36*
X71070Y183384D02*X69399Y181714D01*
X73714Y177400D01*
X75384Y179070D01*
X71070Y183384D01*
G37*
G36*
X68286Y180601D02*X66616Y178930D01*
X70930Y174616D01*
X72600Y176286D01*
X68286Y180601D01*
G37*
G36*
X65502Y177817D02*X63832Y176146D01*
X68146Y171832D01*
X69817Y173502D01*
X65502Y177817D01*
G37*
G36*
X67172Y201758D02*X63832Y198418D01*
X68843Y193407D01*
X72183Y196747D01*
X67172Y201758D01*
G37*
G36*
X51582Y186168D02*X48242Y182828D01*
X53253Y177817D01*
X56593Y181157D01*
X51582Y186168D01*
G37*
G54D15*X121600Y181000D03*
G54D11*G36*
X124600Y184000D02*X121600D01*
Y178000D01*
X124600D01*
Y184000D01*
G37*
G54D15*X128400Y181000D03*
G54D11*G36*
Y184000D02*X125400D01*
Y178000D01*
X128400D01*
Y184000D01*
G37*
G54D15*X100100Y181000D03*
G54D11*G36*
X103100Y184000D02*X100100D01*
Y178000D01*
X103100D01*
Y184000D01*
G37*
G54D15*X106900Y181000D03*
G54D11*G36*
Y184000D02*X103900D01*
Y178000D01*
X106900D01*
Y184000D01*
G37*
G36*
X119094Y202311D02*Y199949D01*
X123819D01*
Y202311D01*
X119094D01*
G37*
G36*
X126181D02*Y199949D01*
X130906D01*
Y202311D01*
X126181D01*
G37*
G36*
Y206051D02*Y203689D01*
X130906D01*
Y206051D01*
X126181D01*
G37*
G36*
X119094D02*Y203689D01*
X123819D01*
Y206051D01*
X119094D01*
G37*
G54D16*X112500Y181000D03*
X115000Y201000D03*
G54D17*G54D12*G54D18*G54D19*G54D17*G54D20*G54D12*G54D18*G54D21*G54D22*M02*
