G04 start of page 11 for group -4015 idx -4015 *
G04 Title: (unknown), toppaste *
G04 Creator: pcb 4.0.2 *
G04 CreationDate: Mon Feb 22 17:58:46 2021 UTC *
G04 For: ndholmes *
G04 Format: Gerber/RS-274X *
G04 PCB-Dimensions (mil): 4500.00 2500.00 *
G04 PCB-Coordinate-Origin: lower left *
%MOIN*%
%FSLAX25Y25*%
%LNTOPPASTE*%
%ADD63C,0.0600*%
%ADD62C,0.0001*%
G54D62*G36*
X67853Y109955D02*X63955Y113853D01*
X60052Y109950D01*
X63950Y106052D01*
X67853Y109955D01*
G37*
G36*
X76900Y119003D02*X73003Y122900D01*
X69100Y118997D01*
X72997Y115100D01*
X76900Y119003D01*
G37*
G36*
X64787Y103549D02*X60333Y99095D01*
X66458Y92971D01*
X70912Y97425D01*
X64787Y103549D01*
G37*
G36*
X83161Y121923D02*X78707Y117469D01*
X84831Y111344D01*
X89286Y115798D01*
X83161Y121923D01*
G37*
G36*
X73854Y186168D02*X72183Y184498D01*
X76498Y180183D01*
X78168Y181854D01*
X73854Y186168D01*
G37*
G36*
X71070Y183384D02*X69399Y181714D01*
X73714Y177400D01*
X75384Y179070D01*
X71070Y183384D01*
G37*
G36*
X68286Y180601D02*X66616Y178930D01*
X70930Y174616D01*
X72600Y176286D01*
X68286Y180601D01*
G37*
G36*
X65502Y177817D02*X63832Y176146D01*
X68146Y171832D01*
X69817Y173502D01*
X65502Y177817D01*
G37*
G36*
X67172Y201758D02*X63832Y198418D01*
X68843Y193407D01*
X72183Y196747D01*
X67172Y201758D01*
G37*
G36*
X51582Y186168D02*X48242Y182828D01*
X53253Y177817D01*
X56593Y181157D01*
X51582Y186168D01*
G37*
G54D63*X121600Y181000D03*
G54D62*G36*
X124600Y184000D02*X121600D01*
Y178000D01*
X124600D01*
Y184000D01*
G37*
G54D63*X128400Y181000D03*
G54D62*G36*
Y184000D02*X125400D01*
Y178000D01*
X128400D01*
Y184000D01*
G37*
G54D63*X100100Y181000D03*
G54D62*G36*
X103100Y184000D02*X100100D01*
Y178000D01*
X103100D01*
Y184000D01*
G37*
G54D63*X106900Y181000D03*
G54D62*G36*
Y184000D02*X103900D01*
Y178000D01*
X106900D01*
Y184000D01*
G37*
G36*
X119094Y202311D02*Y199949D01*
X123819D01*
Y202311D01*
X119094D01*
G37*
G36*
X126181D02*Y199949D01*
X130906D01*
Y202311D01*
X126181D01*
G37*
G36*
Y206051D02*Y203689D01*
X130906D01*
Y206051D01*
X126181D01*
G37*
G36*
X119094D02*Y203689D01*
X123819D01*
Y206051D01*
X119094D01*
G37*
M02*
