G04 start of page 7 for group -4063 idx -4063 *
G04 Title: (unknown), componentmask *
G04 Creator: pcb 4.0.2 *
G04 CreationDate: Mon Feb 22 17:58:46 2021 UTC *
G04 For: ndholmes *
G04 Format: Gerber/RS-274X *
G04 PCB-Dimensions (mil): 4500.00 2500.00 *
G04 PCB-Coordinate-Origin: lower left *
%MOIN*%
%FSLAX25Y25*%
%LNTOPMASK*%
%ADD49C,0.0600*%
%ADD48C,0.0001*%
%ADD47C,0.6360*%
%ADD46C,0.0300*%
%ADD45C,0.0310*%
%ADD44C,0.1438*%
%ADD43C,0.1110*%
%ADD42C,0.0454*%
G54D42*X72081Y95254D03*
X87003Y110175D03*
G54D43*X300000Y143500D03*
Y125000D03*
Y106500D03*
G54D44*X56250Y125000D03*
G54D45*X117000Y195000D03*
G54D46*Y211000D03*
G54D44*X193750Y125000D03*
G54D47*X125000D03*
G54D45*X133000Y211000D03*
G54D46*Y195000D03*
G54D48*G36*
X68277Y109955D02*X63955Y114277D01*
X59628Y109950D01*
X63950Y105628D01*
X68277Y109955D01*
G37*
G36*
X77324Y119003D02*X73003Y123324D01*
X68676Y118997D01*
X72997Y114676D01*
X77324Y119003D01*
G37*
G36*
X64787Y103974D02*X59909Y99095D01*
X66458Y92546D01*
X71336Y97425D01*
X64787Y103974D01*
G37*
G36*
X83161Y122347D02*X78283Y117469D01*
X84831Y110920D01*
X89710Y115798D01*
X83161Y122347D01*
G37*
G36*
X73854Y186592D02*X71759Y184498D01*
X76498Y179759D01*
X78592Y181854D01*
X73854Y186592D01*
G37*
G36*
X71070Y183809D02*X68975Y181714D01*
X73714Y176975D01*
X75809Y179070D01*
X71070Y183809D01*
G37*
G36*
X68286Y181025D02*X66191Y178930D01*
X70930Y174191D01*
X73025Y176286D01*
X68286Y181025D01*
G37*
G36*
X65502Y178241D02*X63408Y176146D01*
X68146Y171408D01*
X70241Y173502D01*
X65502Y178241D01*
G37*
G36*
X67172Y202182D02*X63407Y198418D01*
X68843Y192983D01*
X72607Y196747D01*
X67172Y202182D01*
G37*
G36*
X51582Y186593D02*X47818Y182828D01*
X53253Y177393D01*
X57017Y181157D01*
X51582Y186593D01*
G37*
G54D49*X121600Y181000D03*
G54D48*G36*
X124600Y184000D02*X121600D01*
Y178000D01*
X124600D01*
Y184000D01*
G37*
G54D49*X128400Y181000D03*
G54D48*G36*
Y184000D02*X125400D01*
Y178000D01*
X128400D01*
Y184000D01*
G37*
G54D49*X100100Y181000D03*
G54D48*G36*
X103100Y184000D02*X100100D01*
Y178000D01*
X103100D01*
Y184000D01*
G37*
G54D49*X106900Y181000D03*
G54D48*G36*
Y184000D02*X103900D01*
Y178000D01*
X106900D01*
Y184000D01*
G37*
G36*
X118794Y202611D02*Y199649D01*
X124119D01*
Y202611D01*
X118794D01*
G37*
G36*
X125881D02*Y199649D01*
X131206D01*
Y202611D01*
X125881D01*
G37*
G36*
Y206351D02*Y203389D01*
X131206D01*
Y206351D01*
X125881D01*
G37*
G36*
X118794D02*Y203389D01*
X124119D01*
Y206351D01*
X118794D01*
G37*
M02*
